<svg width="210" height="46" viewBox="0 0 210 46" fill="none" xmlns="http://www.w3.org/2000/svg">
<path d="M36.5086 8.81749C39.334 12.3792 41 16.9802 41 21.8767C41 26.8494 39.3333 31.3742 36.5086 34.9358V33.9715C38.9716 30.5577 40.421 26.4034 40.421 21.876C40.421 17.35 38.9722 13.1944 36.5086 9.78059V8.81749ZM36.5086 29.2234L36.7259 29.3707L37.378 29L36.5086 28.629V29.2234ZM36.5086 27.4425C37.0888 27.5161 37.8847 26.9223 37.9565 26.0327L37.45 26.1065C37.2325 26.626 36.9426 26.9965 36.5079 26.8494L36.5086 27.4425ZM36.5086 25.5874L36.5809 25.5132L36.7259 25.7353L37.2325 25.29C36.5086 24.1765 36.5809 23.2115 37.0158 23.1385C37.5236 23.0631 37.8847 23.8796 37.8122 24.6961L38.3926 24.3256C38.1751 23.3606 37.6679 22.7667 36.9433 22.7667C36.7983 22.7667 36.6541 22.8405 36.5086 22.9153V25.5874ZM36.5086 21.8767H38.1751L38.5375 21.2841H36.5091V21.8767H36.5086ZM36.5086 19.429H37.5961L37.8852 18.761L36.5091 18.8346V19.429H36.5086ZM36.5086 18.0186H37.5961L37.8852 17.4249H36.5091V18.0186H36.5086ZM33.177 5.40424V6.21952C34.4089 7.25876 35.5677 8.447 36.5091 9.78183V8.81749C35.4947 7.55623 34.4089 6.4422 33.177 5.40424ZM36.5086 34.9364V33.9721C35.5672 35.3076 34.4083 36.4958 33.1765 37.608V38.3504C34.4089 37.3853 35.4947 36.1984 36.5086 34.9364ZM36.5086 17.4249H35.5672L35.2036 18.0186H36.5079L36.5086 17.4249ZM36.5086 18.8346H35.5672L35.1323 19.4284H36.5079L36.5086 18.8346ZM36.5086 21.2841H35.7115C35.7115 21.1357 35.7115 20.9116 35.7115 20.6902H35.2778C35.3503 21.1357 35.3503 21.5062 35.3503 21.8772C35.4222 24.8458 34.6258 27.5904 33.1765 29.9651V30.5595C33.3213 30.3368 33.4656 30.1135 33.6112 29.8172C34.0454 29.6694 34.6256 29.5951 34.9149 29.892C35.7833 30.708 35.0598 31.5986 34.6258 31.6723C34.0454 31.8202 34.1191 31.1533 34.6969 30.7073C34.5538 30.5589 34.4808 30.4111 34.4083 30.2613C33.5394 30.8551 33.4656 31.8202 34.3364 32.1919C34.9149 32.4881 35.7833 31.8943 35.9294 31.1521C36.2911 29.5184 34.8424 29.0743 33.901 29.297C34.1191 29.0007 34.2639 28.629 34.4089 28.3321L36.5091 29.2221V28.629L34.6263 27.813C35.061 26.6253 35.4228 25.4384 35.5682 24.1765H36.2199L36.3655 24.7704C35.8576 25.4384 35.5684 26.1806 35.8576 26.8481C36.0019 27.2186 36.2199 27.367 36.5091 27.4413V26.8481H36.4366C36.0749 26.6254 36.1474 26.18 36.5091 25.5862V22.9153C36.2918 23.0631 36.1468 23.2863 36.1468 23.5832H35.6395C35.7115 23.0631 35.7839 22.4698 35.7839 21.876H36.5086V21.2841ZM33.177 36.1984V35.6793H33.5399V36.1984H33.177ZM33.177 33.601V32.7115C33.3945 32.7115 33.6119 32.8593 33.6119 33.1556C33.6112 33.3777 33.3945 33.601 33.177 33.601ZM33.177 26.4039V23.8809C33.249 23.2876 33.322 22.546 33.322 21.8772C33.322 21.2093 33.249 20.5418 33.177 19.8744V17.3506C33.6842 18.761 33.901 20.3192 33.901 21.8767C33.901 23.4354 33.6842 24.9936 33.177 26.4039ZM33.177 16.2372V15.6439C33.249 16.0899 33.6842 16.2372 34.4808 16.2372V16.5335C33.901 16.609 33.4663 16.4604 33.177 16.2372ZM33.177 15.4213V13.7883L34.7706 10.9676L33.177 11.2652V10.8947L36.0749 10.3744L33.4669 14.6784C33.322 14.976 33.177 15.1992 33.177 15.4213ZM33.177 8.2231V7.48141C33.322 7.48141 33.4663 7.4066 33.6119 7.33288L33.177 8.2231ZM28.6131 2.58421C30.2067 3.32586 31.8009 4.2902 33.177 5.40424V6.21952C31.8014 5.03248 30.2067 4.06814 28.6131 3.25224V2.58421ZM33.177 38.3504C31.8014 39.4631 30.2067 40.4275 28.6131 41.1704V40.5023C30.2067 39.76 31.8009 38.7209 33.177 37.608V38.3504ZM33.177 7.48197V8.22365L31.8014 11.1179L33.177 10.8965V11.267L30.7858 11.6382L32.3799 8.15063C31.2924 8.74392 29.8456 9.33707 28.6137 9.41258V9.04084C30.0624 8.96589 31.7278 8.14938 33.177 7.48197ZM33.177 13.7883L32.8148 14.3821C32.4512 15.0502 32.5985 15.7918 33.177 16.2372V15.6439C33.177 15.5691 33.177 15.4955 33.177 15.4213V13.7883ZM33.177 17.3506C32.3081 14.7539 30.6414 12.527 28.6131 10.9683V11.7118C31.0043 13.7153 32.6692 16.609 33.177 19.8737V17.3506ZM33.177 23.8809V26.4039C32.3081 29.0013 30.6414 31.2269 28.6131 32.8606V32.0441C31.0043 30.0393 32.6692 27.1456 33.177 23.8809ZM33.177 29.9651V30.5589C32.6692 31.3747 32.0907 32.1176 31.438 32.7851L32.0907 33.6758C31.7278 33.9721 31.2924 34.269 30.9313 34.5659C30.5689 34.7886 30.8588 35.3824 31.3661 34.8623C31.8014 34.4168 32.2344 33.8979 32.7423 34.2684C33.249 34.5654 33.1046 35.1585 32.6692 35.6788H33.177V36.1977L32.2344 36.3462L32.017 36.8651L31.5835 36.791L31.8009 36.2719L31.0043 36.4192V36.1241C31.5835 35.9769 32.017 35.7529 32.3076 35.3083C32.5979 34.8623 32.1626 34.6407 31.8009 35.0855C31.4373 35.4579 30.5689 35.8284 30.2792 35.6052C29.6988 35.0855 30.2792 34.1966 31.3655 33.7506L31.0038 33.2318C30.2792 33.8992 29.4814 34.5666 28.6125 35.0862V34.6414C30.4241 33.4532 32.017 31.8202 33.177 29.9651ZM33.177 32.7115C32.8871 32.7115 32.7423 32.8593 32.7423 33.1556C32.7423 33.3777 32.8866 33.6016 33.177 33.6016V32.7115ZM28.6131 37.0142L29.0479 37.9792H29.6995L28.6131 35.7536V37.0142ZM28.6131 29.2234V28.7044H29.7731V15.6439H28.6131V15.0502H30.2797V29.2234H28.6131ZM28.6131 27.5904C28.8299 27.369 28.9748 27.0714 28.9748 26.7744C28.9748 26.4782 28.8304 26.1818 28.6131 26.0327V27.5904ZM28.6131 25.8101C28.6856 25.736 28.8299 25.5139 28.8299 25.2169C28.8299 24.9948 28.7581 24.7716 28.6131 24.5495V25.8101ZM28.6131 22.5453V18.2414H28.8299L29.1923 18.9824H28.6856V22.6177L28.6131 22.5453ZM28.6131 17.796V16.8311C28.8299 16.8311 29.0479 17.053 29.0479 17.35C29.0479 17.5733 28.8299 17.796 28.6131 17.796ZM27.3813 2.13884V2.73203C27.7442 2.95349 28.1784 3.10318 28.6131 3.25164V2.58358C28.1784 2.43574 27.7442 2.28728 27.3813 2.13884ZM28.6131 41.1704V40.5023C28.1784 40.6508 27.7442 40.8747 27.3813 41.0213V41.6894C27.7442 41.4666 28.1784 41.3188 28.6131 41.1704ZM28.6131 9.0396C28.1784 9.0396 27.7442 9.0396 27.3813 8.89176V9.26226C27.7442 9.41134 28.1053 9.41134 28.6131 9.41134V9.0396ZM28.6131 10.9683C28.1784 10.5978 27.7442 10.3757 27.3813 10.0788V10.821C27.8172 11.1174 28.1784 11.4143 28.6131 11.7112V10.9683ZM28.6131 15.0502V15.6439H27.3813V15.0502H28.6131ZM28.6131 16.8311V17.796C28.3232 17.796 28.1053 17.5739 28.1053 17.3506C28.1053 17.0543 28.3232 16.8311 28.6131 16.8311ZM28.6131 18.2414V22.5453L27.961 22.1736V21.1344C27.8172 21.2828 27.5992 21.4307 27.3813 21.5055V20.4658L27.5992 20.8375C27.7435 20.7632 27.8885 20.6149 27.961 20.5411V20.1694C27.8885 20.1694 27.8885 20.1694 27.8885 20.1694C27.8172 20.0223 27.5992 19.9473 27.3813 19.9473V19.5014C27.5992 19.5756 27.8172 19.7241 27.961 19.9473V19.0579H27.3813V17.8702C27.4536 18.0186 27.5992 18.0929 27.7442 18.2427H27.961C27.7442 18.0199 27.5268 17.7229 27.3813 17.4997V16.9059C27.7442 17.3512 27.961 17.8708 28.3963 18.242H28.6131V18.2414ZM28.6131 24.5488C28.3963 24.4004 28.1784 24.2519 27.7442 24.2519H27.3813V24.92H27.5992C27.8885 24.92 28.1053 24.9943 28.1053 25.2912C28.1053 25.5881 27.8885 25.6623 27.5992 25.6623H27.3813V26.2555H27.6717C27.961 26.2555 28.1784 26.4046 28.1784 26.7015C28.1784 27.0726 28.0334 27.2947 27.6717 27.2947H27.3813V27.8885H27.5268C28.1784 27.8885 28.3957 27.8143 28.6131 27.5916V26.0334C28.5406 25.9586 28.4682 25.9586 28.3963 25.9586C28.4682 25.8844 28.5406 25.8844 28.6131 25.8101V24.5488ZM28.6131 28.7044H27.3813V29.2234H28.6131V28.7044ZM28.6131 32.0434C28.1784 32.414 27.8172 32.712 27.3813 32.9336V33.6751C27.7442 33.4532 28.1784 33.155 28.6131 32.8599V32.0434ZM28.6131 34.6402C28.1784 34.9364 27.7442 35.1592 27.3813 35.3824V35.8279C27.5268 35.7536 27.6717 35.6793 27.8172 35.6045L28.1789 36.1984L27.3818 36.6444V37.2382L28.3969 36.7174L28.6137 37.0136V35.7529L28.3239 35.2333C28.3969 35.2333 28.4688 35.1585 28.6137 35.0842L28.6131 34.6402ZM27.0926 1.99038C27.1644 2.06399 27.2357 2.06399 27.3818 2.13884V2.73203C27.2363 2.73203 27.1651 2.73203 27.0926 2.65781V1.99038ZM27.3813 41.69C27.2357 41.69 27.1644 41.69 27.0919 41.7635V41.0961C27.1639 41.0961 27.2351 41.0218 27.3813 41.0218V41.69ZM27.3813 8.89176V9.26226C27.2357 9.26226 27.1644 9.18799 27.0919 9.18799V8.81749C27.1644 8.81749 27.2357 8.89176 27.3813 8.89176ZM27.3813 10.0788V10.821C27.3094 10.7469 27.1644 10.6719 27.0919 10.6719V9.93023C27.1644 10.0039 27.2357 10.0039 27.3813 10.0788ZM27.3813 15.0502H27.0919V15.6439H27.3813V15.0502ZM27.3813 16.9052C27.3094 16.8311 27.1644 16.7568 27.0919 16.6825V17.2016C27.1639 17.2764 27.3088 17.35 27.3813 17.4978V16.9052ZM27.3813 17.8702C27.2357 17.796 27.1644 17.7224 27.0919 17.6481V18.242H27.1639H27.0919V19.0572H27.3813V17.8702ZM27.3813 19.5032C27.3094 19.5032 27.1644 19.5032 27.0919 19.5032V20.0235C27.1639 20.0235 27.3088 19.9485 27.3813 19.9485V19.5032ZM27.3813 20.467L27.0919 20.0958V20.9116L27.1639 20.9859H27.0919V21.5055C27.1639 21.5055 27.3088 21.5055 27.3813 21.5055V20.467ZM27.3813 24.2519V24.92H27.0919V24.2519H27.3813ZM27.3813 25.6617V26.2549H27.0919V25.6617H27.3813ZM27.3813 27.2935V27.8873H27.0919V27.2935H27.3813ZM27.3813 28.7044V29.2234H27.0919V28.7044H27.3813ZM27.3813 32.9336V33.6751C27.2357 33.7494 27.1644 33.7494 27.0919 33.8237V33.0814C27.1644 33.082 27.3094 33.0077 27.3813 32.9336ZM27.3813 35.3824V35.8279C27.3094 35.9014 27.1644 35.9014 27.0919 35.9762V35.5302C27.1644 35.4567 27.3094 35.4567 27.3813 35.3824ZM27.3813 36.6437V37.2375L27.2357 37.3105C27.3813 37.9049 27.3094 38.424 27.0926 38.7945V36.7179L27.3813 36.6437ZM26.729 1.91615V2.58481C26.8746 2.58481 27.0196 2.65905 27.0926 2.65905V1.991C27.0196 1.99038 26.8746 1.91615 26.729 1.91615ZM27.0926 41.7635V41.0961C27.0201 41.1704 26.8753 41.1704 26.729 41.2446V41.8385C26.8746 41.8385 27.0196 41.7635 27.0926 41.7635ZM27.0926 8.81749C27.0201 8.74268 26.8753 8.74268 26.729 8.66965V8.96589C26.8746 9.04015 26.9459 9.11442 27.0926 9.18744V8.81749ZM27.0926 9.93023C27.0201 9.8561 26.8753 9.78183 26.729 9.70757V10.4499C26.8746 10.5241 27.0196 10.5983 27.0926 10.6719V9.93023ZM27.0926 15.0502V15.6439H26.729V15.0502H27.0926ZM27.0926 16.6825V17.2016C27.0201 17.0537 26.9464 16.9802 26.8753 16.9052C26.8033 16.9052 26.8033 16.8311 26.7297 16.8311V16.3856C26.8033 16.3856 26.8033 16.4599 26.8033 16.4599C26.9459 16.5341 27.0196 16.609 27.0926 16.6825ZM27.0926 17.6476V18.2414L26.729 17.9438V17.4249C26.8746 17.4985 27.0196 17.5733 27.0926 17.6476ZM27.0926 18.2414V19.0567H26.729V18.2414H27.0926ZM27.0926 19.5032V20.0235V20.0971V20.9129L26.729 20.394V19.5032C26.8028 19.5032 26.8746 19.5032 26.9459 19.5032C27.0196 19.5032 27.0196 19.5032 27.0926 19.5032ZM27.0926 20.9866V21.5062C26.9464 21.5062 26.8753 21.5062 26.729 21.4307V20.9859C26.8746 20.9866 26.9459 20.9866 27.0926 20.9866ZM27.0926 24.2519H26.729V24.92H27.0926V24.2519ZM27.0926 25.6617H26.729V26.2549H27.0926V25.6617ZM27.0926 27.2935H26.729V27.8873H27.0926V27.2935ZM27.0926 28.7044H26.729V29.2234H27.0926V28.7044ZM27.0926 33.082C27.0201 33.1556 26.8753 33.2311 26.729 33.3041V34.0463C26.8746 33.9721 27.0196 33.8985 27.0926 33.8242V33.082ZM27.0926 35.5309C27.0201 35.5309 26.8753 35.6045 26.729 35.6793V36.1248C26.8746 36.0511 27.0196 35.9775 27.0926 35.9775V35.5309ZM27.0926 36.7179L26.9464 36.7922L26.7297 36.2732V39.1669C26.8753 39.0939 27.0201 38.9453 27.0932 38.7962L27.0926 36.7179ZM26.2225 1.76769C26.3674 1.76769 26.5854 1.84254 26.729 1.91553V2.58421C26.5854 2.50935 26.3674 2.43574 26.2225 2.36152V1.76769ZM26.729 41.8385C26.5854 41.9121 26.3674 41.9869 26.2225 42.0611V41.3937C26.3674 41.3188 26.5854 41.3188 26.729 41.2446V41.8385ZM26.729 8.66965V8.96589C26.729 8.96589 26.729 8.96589 26.729 8.89176V8.59415C26.729 8.59415 26.729 8.59415 26.729 8.66965ZM26.729 9.70757V10.4499C26.5854 10.3027 26.3674 10.2278 26.2225 10.1536V9.4856C26.3674 9.55918 26.5854 9.63344 26.729 9.70757ZM26.729 15.0502H26.2225V15.6439H26.729V15.0502ZM26.729 16.3856C26.5854 16.312 26.3674 16.2372 26.2225 16.1637V16.6825H26.2949C26.4392 16.6825 26.5847 16.7568 26.729 16.8311V16.3856ZM26.729 17.4249C26.729 17.3506 26.6572 17.3506 26.6572 17.3506C26.5129 17.2021 26.3679 17.1285 26.2225 17.1285V17.6476H26.2949L26.729 17.9438V17.4249ZM26.729 18.2414H26.2225V19.0567H26.729V18.2414ZM26.729 19.5032C26.5129 19.5032 26.3674 19.5768 26.2225 19.7253V21.2086C26.3674 21.2835 26.5122 21.4301 26.729 21.4301V20.9854C26.5854 20.9854 26.5129 20.9111 26.4399 20.8375C26.2955 20.6149 26.3679 20.3921 26.6572 20.1689L26.729 20.3915V19.5032ZM26.729 24.2519V24.92V25.6617V26.2555V27.294V27.8879H26.2225V24.2519H26.729ZM26.729 28.7044V29.2234H26.2225V28.7044H26.729ZM26.729 33.3041V34.0463C26.5854 34.1211 26.3674 34.1954 26.2225 34.3432V33.601C26.3674 33.5273 26.5854 33.4532 26.729 33.3041ZM26.729 35.6793V36.1248C26.729 36.1248 26.7291 36.1248 26.6572 36.1248L26.729 36.2732V39.1669C26.5854 39.2417 26.3674 39.2417 26.2225 39.2417V38.8705C26.6572 38.9448 26.8746 38.2774 26.5854 37.6087C26.4399 37.6087 26.2955 37.6823 26.2225 37.6823V37.0891C26.2949 37.0142 26.2949 37.0142 26.3674 36.9413L26.2225 36.5695V35.9014C26.3674 35.8279 26.5854 35.7536 26.729 35.6793ZM20.5004 0.876953V1.54501C22.455 1.54501 24.4121 1.84191 26.223 2.3609V1.76769C24.4115 1.17448 22.455 0.876953 20.5004 0.876953ZM26.2225 42.0611V41.3937C24.4115 41.9869 22.455 42.2831 20.4997 42.2831V42.8764C22.455 42.877 24.4115 42.58 26.2225 42.0611ZM26.2225 9.48491C24.4839 8.59415 22.5287 8.14883 20.4997 8.14883V8.74199C22.528 8.74199 24.4839 9.26156 26.2225 10.1523V9.48491ZM26.2225 15.0502H24.4839V28.7044H23.615V27.8879H22.9634L22.6742 27.4425V25.8838C22.8916 25.5874 23.0359 25.7353 23.3251 25.1409L23.4701 24.6961C23.615 24.6225 23.6875 24.3256 23.6875 24.028H23.1077C23.1077 24.6219 22.6005 24.8445 22.3112 24.8445V23.7318C22.5287 23.6582 22.6742 23.6582 22.9634 23.2863L23.1796 22.9153C23.3246 22.8405 23.3969 22.7667 23.4694 22.6177V22.3214H22.7454L22.6736 22.8405H21.8765V22.0988C22.2394 21.8767 22.7454 21.6533 22.8186 21.1344C22.8916 21.1344 23.1802 20.9116 23.2533 20.9116V20.4663H22.6742L22.4555 20.8393C22.3119 21.1357 21.6591 21.0614 21.7316 21.0614V20.2449C22.0951 20.0971 22.4555 19.8737 22.6011 19.5768L22.9641 19.4297V18.8358H22.3119C22.3119 19.0579 22.1663 19.2811 21.949 19.4297C21.8052 19.4297 21.7316 19.4297 21.5866 19.4297V18.6873C21.949 18.4646 22.3832 18.315 22.455 17.7967L22.8186 17.6476V17.2021H22.1657C22.1657 17.3506 21.949 17.5745 21.8765 17.7224H21.5129V17.128C21.8765 16.9052 22.0938 16.6083 22.1651 16.163L22.6005 16.0894V15.5691H21.9483C21.8047 16.2372 21.5129 16.2372 21.3693 16.163V15.5691C21.7309 15.347 21.7309 15.2729 22.0938 14.9011C22.3832 14.7533 22.6005 14.0852 22.3107 14.1595H22.0215C21.8047 14.1595 21.8047 14.5312 21.6579 14.6784C21.5861 14.6784 21.3686 14.7526 21.223 14.7526V14.0846C21.5861 14.0109 22.0208 13.7135 22.0933 13.2681H22.31C22.31 13.1944 22.31 13.046 22.382 12.897C22.1646 12.897 21.9471 12.897 21.8034 12.897C21.7297 13.1939 21.5124 13.3435 21.2955 13.4165C21.0064 13.1944 20.9326 13.1944 20.8608 12.8234C20.8608 12.3031 21.368 11.8578 21.0057 11.264L20.9326 10.8928C20.9326 10.2996 20.7153 10.2247 20.4985 10.002V29.2216H26.2213V28.7019H24.9168V15.6439H26.2213V15.0502H26.2225ZM26.2225 16.1637V16.6825H25.7876L25.4985 16.1637H26.2225ZM26.2225 17.1285V17.6476H25.8601L25.4985 17.055C25.7146 17.055 25.8601 17.055 26.0775 17.055C26.15 17.0543 26.15 17.0543 26.2225 17.1285ZM26.2225 18.2414V19.0567H25.8601L25.5708 18.2414H26.2225ZM26.2225 19.7253V21.2086C26.0057 20.9866 25.8601 20.7632 25.8601 20.4663C25.7876 20.1701 25.9332 19.8737 26.2225 19.7253ZM26.2225 24.2519H26.0782V27.8879H26.2225V24.2519ZM26.2225 33.601C24.4839 34.4911 22.5287 35.0114 20.4997 35.0114V35.604C22.528 35.604 24.4839 35.1585 26.2225 34.3432V33.601ZM26.2225 35.9014C24.4115 36.6437 22.5287 37.0884 20.4997 37.0884V40.1305L20.862 40.4275V39.1656C21.1512 39.0178 21.3693 38.9441 21.5861 38.7951C22.0938 38.4233 22.9629 38.1276 23.1796 38.6466C23.3246 39.0926 22.5287 39.3888 21.8765 39.2405C21.8047 39.4626 21.7309 39.6865 21.6584 39.8343C22.2394 39.9086 23.1802 39.9821 23.4701 39.314C23.7593 38.573 23.5419 37.9056 22.5287 37.9056C22.0215 37.8314 21.4411 38.1276 20.862 38.4245V37.4596C22.7454 37.4596 24.4839 37.0884 26.15 36.4198L26.2225 36.5689V35.9014ZM26.2225 37.0884C24.9181 37.6817 25.0636 38.7957 25.8601 39.1656C25.9326 39.1656 26.0775 39.2405 26.2225 39.2405V38.8693C26.15 38.8693 26.0057 38.7951 25.9332 38.7951C25.499 38.4988 25.5708 37.9785 26.2225 37.6817V37.0884ZM20.5004 5.77477V5.18156L22.2394 2.21306L23.6875 7.03665C24.0498 8.2231 24.7007 8.29791 25.499 7.25807L25.7151 7.48072C24.7737 8.81625 23.3969 8.44576 23.0352 7.33233L21.8765 3.62154L20.5004 5.77477ZM20.5004 42.877C18.109 42.877 15.7189 42.431 13.5457 41.6151V40.9483C15.7189 41.763 18.109 42.2838 20.5004 42.2838V42.877ZM13.5457 2.13884C15.7189 1.32232 18.109 0.876953 20.5004 0.876953V1.54501C18.109 1.54501 15.7189 1.99038 13.5457 2.80689V2.13884ZM20.5004 5.18094V5.77415L19.7033 7.11023L18.2552 3.62154C17.7485 5.62507 16.661 8.29722 15.0681 8.51878L14.8506 8.37094C17.0251 7.55499 17.6036 4.43866 18.3995 2.13822L19.9942 5.99621L20.5004 5.18094ZM20.5004 8.14939V8.74268C17.9653 8.74268 15.5746 9.55918 13.5457 10.8953V10.153C15.5741 8.89176 17.9646 8.14939 20.5004 8.14939ZM20.5004 10.0039V29.2234H13.5457V28.7044H16.0088V15.6439H13.5457V15.0502H16.516V28.7044H17.3844V27.9616H17.9646L18.3265 27.4425V25.8838C17.9646 25.661 17.6749 25.3648 17.5306 24.6961L17.2407 24.5488V24.1028H17.7485C17.8205 24.6225 18.1827 24.8445 18.472 24.8445V23.7318C18.1827 23.7318 17.9653 23.5091 17.7485 23.0637L17.6755 22.841C17.5311 22.841 17.3856 22.7674 17.3131 22.6184V22.322H18.0371L18.109 22.841H18.472L18.5444 22.0993C18.1821 21.8031 17.8928 21.4307 17.6755 20.9866C17.603 20.9866 17.5311 20.9123 17.4581 20.9123C17.4581 20.7645 17.4581 20.616 17.4581 20.467H18.0378V20.8393C18.0378 21.1357 18.6899 21.0614 18.6899 21.0614L18.6181 20.2449C18.3277 20.1706 18.0378 19.7995 17.821 19.5032L17.5318 19.4297V18.9837H18.1834C18.1834 19.1315 18.2557 19.2799 18.4725 19.4297C18.545 19.4297 18.6899 19.4297 18.8354 19.4297V18.6873C18.3995 18.4646 18.1102 18.1671 18.0384 17.6476H17.7492V17.2016H18.3995C18.3995 17.35 18.4725 17.5739 18.6181 17.7217L18.9067 17.6463V17.128C18.545 16.9052 18.2557 16.6083 18.1834 16.163L17.821 16.0894V15.5691H18.3277C18.4725 16.2372 18.8354 16.2372 19.0528 16.163V15.5691C18.6899 15.4213 18.3995 15.2729 18.3277 14.9011C18.0384 14.7533 17.7492 14.233 18.0384 14.233H18.3277C18.545 14.233 18.6181 14.6048 18.7631 14.8274C18.8354 14.8274 18.9792 14.8274 19.0528 14.8274V14.1595C18.6899 14.1595 18.3995 13.714 18.3277 13.2687H18.1102C18.0384 13.1951 18.0384 13.0466 18.0384 12.8975C18.2557 12.8975 18.4 12.8975 18.6188 12.8975C18.6906 13.1944 18.9073 13.3442 19.1248 13.4171L19.2691 13.1951C19.2691 13.046 19.2691 12.8982 19.2691 12.7491C19.1248 12.1553 18.8354 11.7105 19.4146 11.2652L19.1971 10.6714C19.0535 9.48491 19.5607 9.85541 19.9942 9.48491C20.0674 9.33583 20.2847 9.41065 20.3572 9.55849C20.3554 9.78183 20.4272 9.93023 20.5004 10.0039ZM20.5004 35.0119V35.6045C17.9653 35.6045 15.5746 34.8628 13.5457 33.6016V32.9341C15.5741 34.1954 17.9646 35.0119 20.5004 35.0119ZM20.5004 37.0884V40.1305L20.4279 39.9827V39.3147C19.6313 39.611 18.7619 39.7613 18.0371 39.3895C17.4574 39.0184 17.2407 38.4245 18.109 38.054C18.6175 37.7578 19.1959 37.7578 19.8488 38.1283C19.7033 38.2019 19.5595 38.3504 19.487 38.4995C18.6894 38.2025 18.109 38.4252 18.1821 38.7957C18.2545 39.241 19.0516 39.241 20.4279 38.7209L20.356 37.4596C18.9785 37.4596 17.6755 37.3111 16.3712 36.9406L15.4291 39.611L15.2117 38.9435L15.8639 36.7167C15.4291 36.6431 14.9943 36.4198 14.5608 36.2719L14.4883 36.6437C14.85 36.7915 15.0674 37.1632 14.9218 37.6823C14.7782 38.2019 14.271 38.4988 13.5463 38.573V37.9785C14.0535 38.0535 14.4889 37.9786 14.5614 37.608C14.6327 37.2375 14.2715 36.9406 13.5463 36.9406V36.4198L13.9086 36.4953L14.0535 36.0493C13.9086 35.9757 13.7636 35.9007 13.5463 35.7529V35.3076C14.1978 35.6788 14.85 35.9762 15.5028 36.1971C15.2854 35.5297 14.9943 35.0837 14.4153 35.0837V34.5647C15.0674 34.7132 15.6466 35.158 16.0818 36.0486H16.5892L16.661 36.5683C17.8923 36.8663 19.1954 37.0884 20.5004 37.0884ZM13.5457 27.8879H14.0529L14.7039 24.8452V27.8879H15.3567V24.2519H14.3421L13.6906 27.1462L13.5457 26.6266V27.8879ZM13.5457 20.7645H14.2703V22.3232L14.9213 22.8423V19.0579H15.4291L15.2117 18.315H13.5457V19.0579H14.2703V20.0235H13.5457V20.7645ZM13.5457 9.63344C13.8356 9.26157 13.9079 8.74268 13.8356 8.14939H13.5457V9.63344ZM13.5457 41.6151V40.9483C12.3863 40.5023 11.228 39.9086 10.1406 39.241V39.9827C11.228 40.6514 12.3863 41.1704 13.5457 41.6151ZM10.1406 3.77185V4.51351C11.228 3.84545 12.3863 3.25224 13.5457 2.80689V2.13884C12.3863 2.58421 11.228 3.1774 10.1406 3.77185ZM13.5457 8.14939C13.6906 9.4856 13.1828 9.93023 12.0971 9.33583L10.1411 8.37149V9.26101L11.8796 10.0775C12.5325 10.3737 13.1834 10.1518 13.5463 9.6322L13.5457 8.14939ZM13.5457 10.153C12.2426 10.9676 11.0832 12.0081 10.1406 13.1951V14.16C11.0832 12.8982 12.2414 11.7118 13.5457 10.8958V10.153ZM13.5457 15.0502H10.6478V28.7044V29.2234H13.5457V28.7044H11.155V15.6439H13.5457V15.0502ZM13.5457 18.315H11.7341L11.9516 19.0579H12.3145V20.0235C11.7341 20.2449 11.6617 20.4676 12.0251 21.062C12.1689 21.3589 12.4605 21.581 12.8217 21.581C13.0385 21.3596 12.9665 21.1362 12.9665 20.765H13.5457V20.0228H12.9665V19.0579H13.5457V18.315ZM13.5457 26.626L13.0385 24.2514H11.9516V27.8873H12.6761V24.8445L13.3277 27.8873H13.545L13.5457 26.626ZM13.5457 32.9336C12.2426 32.0434 11.0832 30.9306 10.1406 29.5946V30.5589C11.0832 31.8202 12.2414 32.7851 13.5457 33.6003V32.9336ZM13.5457 35.3083C13.5457 35.3083 13.4732 35.234 13.4007 35.234L13.1834 35.6045C13.3284 35.6793 13.4732 35.7536 13.5463 35.7536L13.5457 35.3083ZM13.5457 36.4205H13.3284C12.8935 35.6793 12.3145 35.234 11.6617 35.234C11.0107 35.234 10.504 35.8279 11.228 37.3111L11.7341 37.0891C11.3005 36.6444 11.0832 36.1241 11.4443 35.8279C11.7341 35.4567 12.1689 35.7536 12.6043 36.4205L12.5325 36.5695L12.6043 37.0142C12.9672 36.9413 13.3284 36.9413 13.5463 36.9413L13.5457 36.4205ZM13.5457 37.9792C13.4007 37.9792 13.1828 37.9062 13.0385 37.8319V38.4995C13.2559 38.5736 13.4007 38.5736 13.5457 38.5736V37.9792ZM10.1406 31.8943V31.0049C10.4298 31.0049 10.6478 31.1533 10.6478 31.4502C10.6478 31.6716 10.431 31.8943 10.1406 31.8943ZM10.1406 39.9827C10.0681 39.9086 9.99624 39.8349 9.92374 39.8349V39.0932C9.99624 39.1662 10.0681 39.241 10.1406 39.241V39.9827ZM9.92374 3.91907C9.99624 3.91907 10.0681 3.84545 10.1406 3.77185V4.51351C10.0681 4.58773 9.99624 4.58773 9.92374 4.66135V3.91907ZM10.1406 8.37218V9.26156L9.92374 9.11373V8.29791L10.1406 8.37218ZM10.1406 13.1951V14.16C10.0681 14.3085 9.99624 14.4564 9.92374 14.5318V13.492C9.99624 13.4178 10.0681 13.2687 10.1406 13.1951ZM10.1406 29.5946V30.5589C10.0681 30.4852 9.99624 30.3368 9.92374 30.2625V29.2239C9.99624 29.3712 10.0681 29.446 10.1406 29.5946ZM10.1406 31.0042V31.8937C10.0681 31.8937 9.99624 31.8195 9.92374 31.8195V31.0785C9.99624 31.0042 10.0681 31.0042 10.1406 31.0042ZM9.92374 32.9336V32.4876C9.99624 32.5619 10.0681 32.636 10.1406 32.7108L9.92374 32.9336ZM9.92374 39.8349V39.0932C9.48956 38.7964 9.05537 38.4995 8.61944 38.2025V38.9448C9.05483 39.241 9.48956 39.5386 9.92374 39.8349ZM8.61944 4.80981V5.55209C9.05537 5.25578 9.48956 4.95825 9.92374 4.66197V3.91969C9.48956 4.2166 9.05483 4.51351 8.61944 4.80981ZM9.92374 8.29791L8.61944 7.62925V8.51933L9.92374 9.11373V8.29791ZM9.92374 13.492C9.41652 14.16 8.98112 14.8281 8.61944 15.5691V16.9795C8.9818 16.163 9.41652 15.3459 9.92374 14.5312V13.492ZM9.92374 29.2234C9.41652 28.4817 8.98112 27.6646 8.61944 26.7744V28.1842C8.9818 28.9259 9.41652 29.5939 9.92374 30.2613V29.2234ZM9.92374 31.0785C9.77888 31.1528 9.70692 31.2263 9.70692 31.4495C9.70692 31.5981 9.77888 31.7465 9.92374 31.8207V31.0785ZM9.92374 32.4881C9.41652 32.0434 8.98112 31.5238 8.61944 30.9306V31.4495L9.12666 32.1176L8.61944 32.4888V33.2318L9.41652 32.563C9.56206 32.712 9.70638 32.8599 9.85124 33.009L9.92374 32.9348V32.4881ZM8.61944 12.1565V11.3406L8.90862 11.4891L8.61944 10.5235V9.26156L9.48956 12.4522L8.61944 12.1565ZM8.61944 38.9441C7.60553 38.2019 6.66359 37.3111 5.72218 36.4205V35.5309C6.59109 36.4965 7.60553 37.386 8.61944 38.2019V38.9441ZM5.72218 7.33288C6.66359 6.44282 7.60553 5.55208 8.61944 4.80981V5.55209C7.60553 6.36859 6.59163 7.25876 5.72218 8.2231V7.33288ZM8.61944 7.62925V8.51933L8.40207 8.44575L8.61944 9.26101V10.5228L7.67803 7.18449L8.61944 7.62925ZM8.61944 11.34V12.1558L5.93954 11.1915C7.02702 12.9718 8.25829 15.5691 7.31634 16.9046L7.02702 16.9795C7.75107 15.2716 6.73662 13.2681 5.72272 11.4136V10.3009L8.61944 11.34ZM8.61944 15.5691V16.9795C8.04039 18.5376 7.67803 20.1694 7.67803 21.8767C7.67803 23.5839 8.04039 25.2157 8.61944 26.7739V28.1835C7.67803 26.3279 7.09831 24.1758 7.09831 21.876C7.09831 19.5768 7.67803 17.4249 8.61944 15.5691ZM8.61944 30.9306V31.4495L8.11221 30.8564C7.89607 31.8207 7.38817 32.0434 6.51859 31.5986C6.51859 32.3403 7.24385 32.712 8.11221 32.8606L8.61944 32.4881V33.2311L7.31634 34.3439L7.17081 33.7501L7.67857 33.2311C5.86771 32.712 5.86772 31.7477 6.30244 30.633C6.88149 31.4495 7.46188 31.3754 7.67857 30.262C7.31634 29.743 7.02702 29.1491 6.73595 28.556L5.72218 28.9265V27.2199C5.93887 27.4425 6.01136 27.8137 6.1569 28.1848L6.51926 28.0369C6.22994 27.2947 5.93954 26.553 5.72272 25.8101V23.5097C5.86772 24.8458 6.15758 26.107 6.66412 27.294C7.0277 26.8494 7.17135 26.3291 6.88149 25.8101L7.31688 25.5881C7.53371 26.1818 7.46188 26.923 7.0277 27.815L7.24506 28.259L7.09952 28.4081C7.53303 29.2976 8.04039 30.1884 8.61944 30.9306ZM5.72218 36.4205V35.5309C5.50595 35.2346 5.28736 34.9371 4.99871 34.6414V35.6058C5.28736 35.9014 5.50536 36.1241 5.72218 36.4205ZM4.99871 8.14939V9.11497C5.28797 8.81874 5.50595 8.52057 5.72218 8.22434V7.33413C5.50536 7.62925 5.28736 7.92618 4.99871 8.14939ZM5.72218 10.3021L4.99871 10.0045C5.2155 10.4505 5.50595 10.9688 5.72218 11.4148V10.3021ZM5.72218 23.5091C5.72218 22.9901 5.64968 22.3957 5.64968 21.8767H5.28736C5.28736 22.3227 5.28736 22.6926 5.28736 23.0637L4.99811 23.1392V23.7318L5.43228 23.6582L5.57718 24.6961L4.99811 24.7709V25.439L5.64901 25.2905C5.64901 25.5126 5.72151 25.6617 5.72151 25.8095L5.72218 23.5091ZM5.72218 27.2199C5.57786 26.923 5.28736 26.7009 4.99871 26.6266V27.294C5.28797 27.5161 5.50595 28.1094 5.64968 29.0013L5.72218 28.9265V27.2199ZM4.99871 29.3712V28.705C5.14304 28.7781 5.2155 28.8516 5.28797 29.0013L4.99871 29.3712ZM4.99871 19.5768V18.9837H5.72218L5.43288 19.5768H4.99871ZM4.99871 18.2414V17.5733H5.72218L5.50534 18.2414H4.99871ZM4.99871 35.6045C4.41841 34.8628 3.83931 34.0463 3.2596 33.2311V32.0434C3.76745 32.9336 4.34655 33.8242 4.99871 34.6407V35.6045ZM3.2596 10.5241C3.83931 9.70757 4.41841 8.89176 4.99871 8.14939V9.11497C4.34655 9.93023 3.76745 10.8217 3.2596 11.7118V10.5241ZM4.99871 10.0039V17.5733V18.2414H3.2596V17.796L3.40393 17.5739H4.99871V10.0039ZM4.99871 18.983H3.40393L3.2596 19.1308V19.5763H4.99871V18.983ZM4.99871 23.1392V23.7318H4.41841L4.56333 24.8445L4.99871 24.7704V25.4384L3.2596 25.6598V25.1396L3.91118 24.9923L3.76745 23.8789C3.62192 23.8789 3.40393 23.8041 3.2596 23.8041V23.1379C3.33147 23.1379 3.40393 23.1379 3.40393 23.1379C3.62132 23.0624 3.69318 22.8405 3.62132 22.6171C3.54946 22.395 3.40393 22.2459 3.25901 22.2459V21.578C3.76685 21.5042 4.27348 21.8742 4.41781 23.1372H4.99871V23.1392ZM4.99871 26.626V27.2935C4.92565 27.2192 4.85319 27.2192 4.70947 27.2192C4.05731 27.2192 4.12916 28.1087 4.49148 28.4811C4.70947 28.5553 4.85378 28.5553 4.99932 28.7038V29.37L4.92626 29.4448L4.2747 29.297L3.62253 29.6681C3.55066 29.7417 3.40514 29.816 3.26021 29.816V29.0007L3.33208 28.9259L3.62192 29.1486L3.91118 28.8516L3.2596 28.4811V27.8873L3.76745 28.2578C3.62192 27.2935 3.91118 26.7003 4.6358 26.626C4.78072 26.626 4.92565 26.626 4.99871 26.626ZM3.2596 33.2311V32.0434C1.59297 29.075 0.65156 25.5874 0.65156 21.8767C0.65156 18.1665 1.59357 14.6784 3.2596 11.7105V10.5228C1.23186 13.7877 2.2378e-07 17.7217 2.2378e-07 21.8767C-0.000606179 26.0327 1.23125 29.9651 3.2596 33.2311ZM3.2596 17.796L3.04282 18.2414H3.2596V17.796ZM3.2596 19.1315V19.5768H2.97036L3.2596 19.1315ZM3.2596 21.5804C2.89669 21.6546 2.53498 22.1 2.53498 22.6932C2.53498 23.2122 2.75298 23.5839 3.2596 23.806V23.1397C3.11408 23.1397 2.97036 22.9906 2.97036 22.7674C2.8973 22.5453 2.97036 22.2479 3.18654 22.2479C3.18654 22.1741 3.2596 22.1741 3.2596 22.2479V21.5804ZM3.2596 25.1414H3.04282C2.97036 24.7709 2.82483 24.4004 2.60745 24.0287L2.3182 24.1771C2.75358 25.0666 2.39006 25.6605 1.95588 25.2162C1.44864 24.7709 1.81096 23.8809 1.95588 23.287L1.7385 23.2122C1.37558 24.0287 1.1588 24.7716 1.7385 25.661C2.17448 26.3291 2.60745 26.1065 3.04282 25.7353L3.2596 25.661V25.1414ZM3.2596 27.8879L2.75297 27.5909L2.53498 27.9628L3.2596 28.4829V27.8879ZM3.2596 29.0013L2.82423 29.3718L3.04222 29.6694C3.11347 29.743 3.18595 29.8172 3.25901 29.8172L3.2596 29.0013Z" fill="#322F3B"/>
<path d="M205.354 31.8198V30.8748C205.354 30.8748 205.354 30.8748 205.419 30.8748C205.805 30.8748 206.128 30.698 206.45 30.4612V27.6864C206.192 27.8051 205.742 28.0407 205.354 28.1589V27.4496C205.87 27.2727 206.257 27.0959 206.45 26.9184V26.5053C206.45 25.5603 206 25.0884 205.354 24.9704V24.2029C205.547 24.1436 205.676 24.1436 205.87 24.1436C206.71 24.1436 207.419 24.3792 207.869 24.7335C208.451 25.206 208.645 25.8553 208.645 26.5634V29.8101C208.645 30.5775 208.903 30.8137 209.162 30.8137C209.421 30.8137 209.614 30.7544 209.806 30.6956L210 31.2874L207.999 32.1723C207.611 32.1723 207.289 32.0542 207.03 31.8179C206.772 31.5811 206.643 31.3455 206.578 31.1687C206.193 31.4067 205.743 31.6429 205.354 31.8198ZM205.354 24.2047C204.322 24.441 203.29 24.9722 202.71 25.3265C202.321 25.6216 202.129 25.8577 202.129 26.1521C202.129 26.6252 202.84 26.9789 203.29 26.9789C203.611 26.9789 203.871 26.802 203.999 26.5071C204.129 25.916 204.258 25.5034 204.451 25.2671C204.644 25.0903 204.902 24.9722 205.225 24.9722C205.289 24.9722 205.289 24.9722 205.354 24.9722V24.2047ZM205.354 27.4514C204.644 27.6876 203.805 27.9233 203.29 28.1601C202.387 28.5138 201.935 29.1044 201.935 29.9899C201.935 31.0523 202.903 32.1741 204.387 32.1741C204.646 32.1741 204.969 32.056 205.355 31.8198V30.8748C204.839 30.8748 204.258 30.4024 204.258 29.6356C204.258 28.9857 204.516 28.632 205.032 28.3363C205.162 28.2763 205.225 28.2182 205.354 28.1595V27.4514ZM166.312 31.8198V30.8748C166.312 30.8748 166.312 30.8748 166.377 30.8748C166.765 30.8748 167.087 30.698 167.41 30.4612V27.6864C167.15 27.8051 166.699 28.0407 166.311 28.1589V27.4496C166.829 27.2727 167.214 27.0959 167.41 26.9184V26.5053C167.41 25.5603 166.957 25.0884 166.311 24.9704V24.2029C166.506 24.1436 166.635 24.1436 166.829 24.1436C167.668 24.1436 168.378 24.3792 168.829 24.7335C169.409 25.206 169.602 25.8553 169.602 26.5634V29.8101C169.602 30.5775 169.862 30.8137 170.119 30.8137C170.378 30.8137 170.572 30.7544 170.765 30.6956L170.958 31.2874L168.958 32.1723C168.57 32.1723 168.248 32.0542 167.989 31.8179C167.73 31.5811 167.602 31.3455 167.537 31.1687C167.152 31.4067 166.7 31.6429 166.312 31.8198ZM177.478 26.3889C177.413 26.094 177.219 24.8541 177.026 24.441C176.573 24.2642 175.993 24.1466 175.155 24.1466C173.153 24.1466 171.929 25.209 171.929 26.5664C171.929 27.9245 173.478 28.5732 174.379 28.9276C175.412 29.2819 175.8 29.8131 175.8 30.4624C175.8 31.1117 175.349 31.4661 174.702 31.4661C173.605 31.4661 172.637 30.285 172.315 29.2231L171.671 29.2819C171.671 30.0494 171.864 31.2298 171.93 31.4661C172.317 31.8198 173.348 32.1748 174.381 32.1748C175.995 32.1748 177.801 31.4061 177.801 29.6361C177.801 28.3369 176.703 27.6295 175.285 27.0983C174.381 26.8032 173.801 26.3896 173.801 25.799C173.801 25.2671 174.252 24.8541 174.898 24.8541C175.478 24.8541 176.253 25.3259 176.771 26.5659L177.478 26.3889ZM179.671 30.1668C179.671 31.2293 179.542 31.2898 178.445 31.4067V31.9978H182.703V31.4067C181.93 31.2898 181.865 31.2293 181.865 30.1668V26.034C182.253 25.5628 182.768 25.3853 183.286 25.3853C184.059 25.3853 184.64 25.9165 184.64 27.0971V30.1668C184.64 31.2293 184.512 31.2898 183.737 31.4067V31.9978H187.867V31.4067C186.962 31.2898 186.834 31.2293 186.834 30.1668V26.802C186.834 25.0903 185.995 24.146 184.317 24.146C183.349 24.146 182.445 24.6766 181.865 25.2085V19.7764C180.768 20.0132 179.542 20.2488 178.51 20.3676V20.8988C179.608 21.0163 179.671 21.0163 179.671 22.0199V30.1668ZM189.351 30.0487C189.351 31.5835 190.125 32.1748 191.481 32.1748C191.675 32.1748 191.934 32.1148 192.256 31.9973L193.61 31.4661L193.418 30.8748C193.157 30.993 192.901 31.0518 192.514 31.0518C192.062 31.0518 191.546 30.7567 191.546 29.5162V25.2085H193.157C193.482 25.0903 193.482 24.4998 193.288 24.3228H191.546V22.0793L191.287 21.9606L189.352 23.2599V24.3235H188.641L188.125 24.9722L188.253 25.209H189.352L189.351 30.0487ZM195.611 30.1668C195.611 31.2293 195.547 31.2898 194.448 31.4067V31.9978H199.289V31.4067C197.998 31.2898 197.869 31.2293 197.869 30.108V26.9789C198.192 26.2109 198.579 25.9753 198.901 25.9753C199.224 25.9753 199.418 26.0934 199.74 26.329C199.87 26.4477 200.063 26.4477 200.258 26.3889C200.708 26.2121 201.161 25.7984 201.161 25.209C201.161 24.6179 200.643 24.1466 199.998 24.1466C199.289 24.1466 198.579 24.7366 197.869 25.8577V24.086C196.902 24.441 195.804 24.6179 194.578 24.7947V25.2671C195.611 25.4446 195.611 25.504 195.611 26.5071V30.1668ZM166.312 24.2047C165.281 24.441 164.248 24.9722 163.667 25.3265C163.279 25.6216 163.086 25.8577 163.086 26.1521C163.086 26.6252 163.797 26.9789 164.248 26.9789C164.571 26.9789 164.828 26.802 164.958 26.5071C165.088 25.916 165.216 25.5034 165.409 25.2671C165.603 25.0903 165.861 24.9722 166.184 24.9722C166.248 24.9722 166.248 24.9722 166.312 24.9722V24.2047ZM166.312 27.4514C165.603 27.6876 164.763 27.9233 164.312 28.1601C163.343 28.5138 162.891 29.1044 162.891 29.9899C162.891 31.0523 163.862 32.1741 165.345 32.1741C165.603 32.1741 165.926 32.056 166.312 31.8198V30.8748C165.796 30.8748 165.215 30.4024 165.215 29.6356C165.215 28.9857 165.473 28.632 165.989 28.3363C166.119 28.2763 166.183 28.2182 166.311 28.1595V27.4508H166.312V27.4514ZM150.308 31.8198V30.8748C150.697 30.8748 151.083 30.698 151.407 30.4612V27.6864C151.148 27.8051 150.633 28.0407 150.308 28.1589V27.4496C150.76 27.2727 151.212 27.0959 151.407 26.9184V26.5053C151.407 25.5603 150.889 25.0884 150.308 24.9704V24.2029C150.438 24.1436 150.631 24.1436 150.76 24.1436C151.6 24.1436 152.311 24.3792 152.825 24.7335C153.406 25.206 153.6 25.8553 153.6 26.5634V29.8101C153.6 30.5775 153.793 30.8137 154.116 30.8137C154.309 30.8137 154.504 30.7544 154.697 30.6956L154.955 31.2874L152.955 32.1723C152.567 32.1723 152.18 32.0542 151.986 31.8179C151.727 31.5811 151.534 31.3455 151.469 31.1687C151.148 31.4067 150.697 31.6429 150.308 31.8198ZM156.634 30.1668C156.634 31.2293 156.504 31.2898 155.473 31.4067V31.9978H160.249V31.4067C158.956 31.2898 158.828 31.2293 158.828 30.108V26.9789C159.151 26.2109 159.538 25.9753 159.859 25.9753C160.184 25.9753 160.377 26.0934 160.699 26.329C160.829 26.4477 161.022 26.4477 161.215 26.3889C161.668 26.2121 162.119 25.7984 162.119 25.209C162.119 24.6179 161.603 24.1466 160.957 24.1466C160.249 24.1466 159.538 24.7366 158.828 25.8577V24.086C157.859 24.441 156.763 24.6179 155.537 24.7947V25.2671C156.569 25.4446 156.634 25.504 156.634 26.5071V30.1668ZM150.308 24.2047C149.277 24.441 148.179 24.9722 147.663 25.3265C147.211 25.6216 147.019 25.8577 147.019 26.1521C147.019 26.6252 147.729 26.9789 148.179 26.9789C148.567 26.9789 148.824 26.802 148.89 26.5071C149.02 25.916 149.212 25.5034 149.407 25.2671C149.6 25.0903 149.858 24.9722 150.118 24.9722C150.181 24.9722 150.246 24.9722 150.31 24.9722V24.2047H150.308ZM150.308 27.4514C149.6 27.6876 148.759 27.9233 148.244 28.1601C147.341 28.5138 146.89 29.1044 146.89 29.9899C146.89 31.0523 147.858 32.1741 149.342 32.1741C149.6 32.1741 149.922 32.056 150.31 31.8198V30.8748C149.73 30.8748 149.212 30.4024 149.212 29.6356C149.212 28.9857 149.471 28.632 149.988 28.3363C150.05 28.2763 150.181 28.2182 150.308 28.1595V27.4514ZM131.66 31.8198V30.8748C132.048 30.8748 132.433 30.698 132.758 30.4612V27.6864C132.498 27.8051 132.048 28.0407 131.66 28.1589V27.4496C132.176 27.2727 132.563 27.0959 132.758 26.9184V26.5053C132.758 25.5603 132.24 25.0884 131.66 24.9704V24.2029C131.788 24.1436 131.982 24.1436 132.111 24.1436C132.951 24.1436 133.661 24.3792 134.176 24.7335C134.755 25.206 134.949 25.8553 134.949 26.5634V29.8101C134.949 30.5775 135.21 30.8137 135.466 30.8137C135.725 30.8137 135.918 30.7544 136.048 30.6956L136.304 31.2874L134.304 32.1723C133.916 32.1723 133.594 32.0542 133.336 31.8179C133.078 31.5811 132.885 31.3455 132.82 31.1687C132.498 31.4067 132.048 31.6429 131.66 31.8198ZM137.79 30.1668C137.79 31.2293 137.66 31.2898 136.628 31.4067L136.564 31.9978H140.823V31.4067C140.114 31.2898 139.984 31.2293 139.984 30.1668V26.034C140.372 25.5628 140.952 25.3853 141.468 25.3853C142.178 25.3853 142.758 25.9165 142.758 27.0971V30.1668C142.758 31.2293 142.695 31.2898 141.856 31.4067V31.9978H146.049V31.4067C145.081 31.2898 145.018 31.2293 145.018 30.1668V26.802C145.018 25.0903 144.115 24.146 142.436 24.146C141.468 24.146 140.566 24.6766 139.984 25.2085V19.7764C138.951 20.0132 137.725 20.2488 136.692 20.3676V20.8988C137.79 21.0163 137.79 21.0163 137.79 22.0199V30.1668ZM131.66 24.2047C130.627 24.441 129.595 24.9722 129.013 25.3265C128.562 25.6216 128.369 25.8577 128.369 26.1521C128.369 26.6252 129.08 26.9789 129.531 26.9789C129.918 26.9789 130.176 26.802 130.241 26.5071C130.37 25.916 130.564 25.5034 130.758 25.2671C130.95 25.0903 131.209 24.9722 131.532 24.9722C131.532 24.9722 131.595 24.9722 131.661 24.9722V24.2047H131.66ZM131.66 27.4514C130.949 27.6876 130.111 27.9233 129.595 28.1601C128.692 28.5138 128.24 29.1044 128.24 29.9899C128.24 31.0523 129.208 32.1741 130.692 32.1741C130.95 32.1741 131.273 32.056 131.661 31.8198V30.8748C131.144 30.8748 130.564 30.4024 130.564 29.6356C130.564 28.9857 130.822 28.632 131.337 28.3363C131.402 28.2763 131.53 28.2182 131.66 28.1595V27.4514ZM98.2327 32.1748V31.4061C98.2975 31.4661 98.3623 31.4661 98.4272 31.4661C99.1364 31.4661 99.9105 30.9349 99.9105 28.5138C99.9105 26.3884 99.3296 24.9717 98.2321 24.8541V24.146H98.2968C100.813 24.146 102.298 25.9758 102.298 27.9833C102.299 30.8162 100.298 32.1748 98.2327 32.1748ZM104.363 30.1668C104.363 31.1705 104.234 31.2898 103.331 31.4067V31.9978H108.042V31.4067C106.75 31.2898 106.558 31.1705 106.558 30.1668V25.2085H108.3C108.558 25.031 108.623 24.5584 108.558 24.3228H106.558V23.9085C106.493 22.3149 106.558 21.6069 106.621 21.3119C106.686 21.0163 106.88 20.84 107.266 20.84C107.718 20.84 108.428 21.2526 108.75 21.6074C108.943 21.725 109.137 21.725 109.395 21.6074C109.588 21.4306 109.782 21.2526 109.912 21.0163C109.976 20.8394 109.976 20.6025 109.782 20.4257C109.46 20.0713 108.943 19.7764 108.104 19.7764C107.329 19.8364 106.685 20.1308 105.974 20.6625C105.006 21.4306 104.684 22.2568 104.554 22.7281C104.424 23.0817 104.361 23.6148 104.361 24.0279V24.3235H103.651L103.135 24.9722L103.199 25.209H104.36V30.1668H104.363ZM113.59 20.8988V21.4894C115.011 21.6074 115.139 21.7843 115.011 23.8504L114.754 27.4514C114.623 28.9857 114.494 29.9305 114.365 30.4624C114.3 31.1117 113.978 31.2898 113.139 31.4073V31.9985H117.335V31.4073C116.172 31.2904 115.785 31.1123 115.721 30.4036C115.657 29.9312 115.657 29.0463 115.721 27.6295L115.914 23.0829H115.978L119.334 31.7617H119.979L123.657 22.8473H123.72V29.5181C123.72 31.1711 123.657 31.2904 122.301 31.4073V31.9985H127.463V31.4073C126.171 31.2904 126.042 31.1711 125.977 29.5181L125.85 23.3204C125.85 21.7267 125.913 21.6086 127.27 21.4906V20.9H123.592L120.365 28.3969L117.202 20.9L113.59 20.8988ZM98.2327 24.146C96.232 24.146 94.1029 25.6221 94.1029 28.3369C94.1029 30.2256 95.5227 32.1741 98.2327 32.1741V31.4055C97.2005 31.228 96.6197 29.7525 96.6197 27.6858C96.6197 25.7971 97.2647 24.8523 98.0395 24.8523C98.103 24.8523 98.1679 24.8523 98.2327 24.8523V24.146ZM65.4509 31.8198V30.8748C65.8391 30.8748 66.2255 30.698 66.5478 30.4612V27.6864C66.2897 27.8051 65.8391 28.0407 65.4509 28.1589V27.4496C65.9675 27.2727 66.3545 27.0959 66.5478 26.9184V26.5053C66.5478 25.5603 66.0317 25.0884 65.4509 24.9704V24.2029C65.581 24.1436 65.773 24.1436 65.9026 24.1436C66.7416 24.1436 67.4515 24.3792 67.9682 24.7335C68.549 25.206 68.7416 25.8553 68.7416 26.5634V29.8101C68.7416 30.5775 69.0003 30.8137 69.2589 30.8137C69.5164 30.8137 69.7102 30.7544 69.8386 30.6956L70.0979 31.2874L68.0966 32.1723C67.7101 32.1723 67.3867 32.0542 67.1286 31.8179C66.87 31.5811 66.7409 31.3455 66.6125 31.1687C66.2897 31.4067 65.8384 31.6429 65.4509 31.8198ZM71.7751 30.1668C71.7751 31.2293 71.646 31.2898 70.5496 31.4067V31.9978H74.8727V31.4067C74.0992 31.2898 73.9696 31.2293 73.9696 30.1668V26.0934C74.4869 25.6797 75.0018 25.4441 75.4535 25.4441C76.2271 25.4441 76.6802 25.916 76.6802 27.0377V30.1661C76.6802 31.2286 76.616 31.2891 75.7758 31.4061V31.9973H79.9062V31.4061C79.0031 31.2891 78.874 31.2286 78.874 30.1661V26.5652C78.874 25.1485 78.1006 24.1454 76.4864 24.1454C75.9691 24.1454 75.5184 24.3223 75.0018 24.6167C74.6789 24.8535 74.2931 25.0891 73.9696 25.2659V24.1448C73.0664 24.3804 71.9695 24.616 70.8071 24.7347V25.2659C71.7756 25.4434 71.7756 25.4434 71.7756 26.5058L71.7751 30.1668ZM81.7779 30.1668C81.7779 31.2293 81.6483 31.2898 80.487 31.4067V31.9978H85.1977V31.4067C84.1008 31.2898 83.9717 31.2293 83.9717 30.1668V28.2189C84.0359 28.2189 84.1013 28.2189 84.1643 28.2189C84.294 28.2189 84.4878 28.2775 84.681 28.6906C85.4558 29.8707 86.2311 30.993 87.004 31.9966H89.9725V31.4055C89.2633 31.2886 89.0701 31.1104 88.6182 30.6387C87.9076 29.87 86.423 27.8046 86.036 27.1558C86.6169 26.4471 87.004 26.0928 87.3273 25.739C87.8434 25.2078 88.2305 25.0303 89.3917 24.7935V24.2035L85.7785 24.3804V24.971C86.4879 25.0303 86.4879 25.1479 86.2304 25.5615C85.9718 25.9153 85.52 26.6245 85.0681 26.9783C84.8106 27.332 84.4878 27.5095 83.9712 27.5683V19.777C83.0025 20.0139 81.6476 20.2495 80.6803 20.3681V20.8994C81.7118 21.0168 81.7772 21.0168 81.7772 22.0206L81.7779 30.1668ZM56.1591 31.938C57.3203 31.8792 58.353 31.7017 59.1272 31.2898C60.0309 30.7579 60.7402 29.9305 60.7402 28.7506C60.7402 27.0976 59.3198 26.094 57.5142 25.8584C58.6746 25.6221 60.0309 24.9141 60.0309 23.3785C60.0309 22.5518 59.6426 21.9018 59.0617 21.4899C58.4167 21.0763 57.5135 20.8994 56.1585 20.8994V21.6669C56.9969 21.8437 57.6426 22.4349 57.6426 23.616C57.6426 24.7371 57.1253 25.3272 56.1585 25.5634V26.5083C57.3833 26.7439 58.1592 27.5119 58.1592 28.8693C58.1592 30.463 57.19 31.1717 56.1585 31.2904L56.1591 31.938ZM65.4509 24.2047C64.418 24.441 63.3859 24.9722 62.8057 25.3265C62.3544 25.6216 62.1605 25.8577 62.1605 26.1521C62.1605 26.6252 62.8705 26.9789 63.3217 26.9789C63.7093 26.9789 63.9661 26.802 64.0316 26.5071C64.1619 25.916 64.3545 25.5034 64.5489 25.2671C64.7422 25.0903 65.0002 24.9722 65.323 24.9722C65.323 24.9722 65.3872 24.9722 65.4514 24.9722L65.4509 24.2047ZM65.4509 27.4514C64.7415 27.6876 63.9026 27.9233 63.3859 28.1601C62.4828 28.5138 62.0316 29.1044 62.0316 29.9899C62.0316 31.0523 63.0001 32.1741 64.4834 32.1741C64.7422 32.1741 65.0644 32.056 65.4514 31.8198V30.8748C64.936 30.8748 64.3545 30.4024 64.3545 29.6356C64.3545 28.9857 64.6131 28.632 65.1279 28.3363C65.1928 28.2763 65.3225 28.2182 65.4509 28.1595V27.4514ZM52.48 29.7537V23.0824C52.48 21.7255 52.2868 21.6069 51.1257 21.4894V20.8988H56.0943H56.1591V21.6662C56.0301 21.6074 55.8363 21.6074 55.6419 21.6074C55.1906 21.6074 54.9974 21.6662 54.8678 21.7843C54.7387 21.8431 54.7387 22.0799 54.7387 22.5518V25.6809H55.1906C55.5777 25.6809 55.9005 25.6221 56.1591 25.5634V26.5083C55.9005 26.4489 55.5135 26.3901 55.1258 26.3901H54.7387V29.7555C54.7387 30.8773 54.932 31.291 55.8363 31.291C55.9659 31.291 56.0943 31.291 56.1591 31.291V31.9392C55.9005 31.9392 55.5777 31.9991 55.2548 31.9991H50.9961V31.408C52.2862 31.2891 52.48 31.1705 52.48 29.7537Z" fill="#322F3B"/>
<path d="M75.6724 1.75233H77.856V0H75.6724V1.75233ZM187.9 17.2926L189.352 17.8771L191.839 15.582L194.197 17.8771L195.656 17.2926L192.808 14.6098H190.871L187.9 17.2926ZM178.884 6.4242H178.395H176.944V12.6539V14.6038H174.763V12.6539V6.4242H173.311H172.822H170.985C171.59 6.71616 171.954 7.3782 171.954 8.17653C171.954 9.85074 170.622 11.233 168.806 11.4855C169.168 12.3038 169.942 12.8484 170.743 12.8484C171.203 12.8684 171.614 12.7896 171.954 12.6546V14.4069C171.614 14.5432 171.203 14.6044 170.743 14.6044C169.119 14.6044 167.473 13.3548 166.624 11.4867C166.358 11.4481 165.945 11.2923 165.411 11.0004L166.139 9.53998C166.671 9.79262 167.181 9.92941 167.592 9.92941C168.804 9.94888 169.773 9.1511 169.773 8.17775C169.798 7.20437 168.804 6.42542 167.592 6.42542H165.314H164.825H163.374V12.6551V14.605H161.194V12.6551V6.4242H159.741H159.252H158.02V8.76045H153.66C153.393 8.76045 153.176 8.9355 153.176 9.14934C153.15 9.47997 153.491 9.73382 153.902 9.73382C154.338 9.59689 154.749 9.53944 155.113 9.53944C156.977 9.53944 158.506 10.6684 158.506 12.0707C158.506 12.7134 158.166 13.4136 157.536 14.0168L155.839 13.044C156.155 12.7521 156.324 12.4007 156.324 12.0713C156.348 11.6424 155.791 11.2923 155.113 11.2923C153.902 11.2923 152.932 11.9932 152.932 12.8496C152.932 13.9205 154.337 14.8 156.081 14.8H158.019V16.3567H156.081C153.126 16.3567 150.752 14.7024 150.752 12.6558C150.728 11.838 151.187 11.0404 151.963 10.514C151.187 9.98889 150.752 9.42374 150.752 8.95726C150.752 7.98391 151.842 7.20435 153.174 7.20435H155.837V6.42601H149.782H149.292H147.843V12.6558V14.6056H145.662V12.6558V12.0707H142.513C142.536 12.7134 141.762 13.2385 140.816 13.2385C139.749 13.2385 138.877 12.5383 138.877 11.6824C138.877 10.9228 139.532 10.3195 140.332 10.3195V6.42601H138.026V4.86933H149.291H149.78H159.249H159.738H164.822H165.311H172.819H173.308H178.392H178.881H196.229V6.42601H194.169V9.1511H191.262C189.93 9.1511 188.839 9.85196 188.839 10.7091C188.839 11.8956 190.244 12.8496 191.989 12.8496C192.885 12.8496 193.781 12.577 194.533 12.0713L195.622 13.531C194.411 14.2319 193.127 14.605 191.989 14.605C189.662 14.605 187.604 13.511 186.901 11.8756C186.199 12.6158 185.084 13.044 183.873 13.044C181.522 13.0247 179.633 11.2917 179.633 9.15056V6.42542H178.883V6.4242H178.884ZM186.806 9.86953C187.339 8.40969 189.156 7.39758 191.263 7.39758H191.99V6.4242H182.298L186.806 9.86953ZM181.816 9.14934C181.791 10.2784 182.785 11.1935 183.995 11.1935C184.723 11.1749 185.376 10.8429 185.692 10.3183L181.817 7.3988L181.816 9.14934ZM142.52 6.4242V10.3178H145.668V6.4242H142.52ZM118.873 6.4242H119.82V9.73382C119.82 11.4462 121.346 12.8284 123.211 12.8484C123.913 12.8484 124.616 12.5565 125.149 12.0701V12.6539V14.6038H127.33V12.6539V9.73382C127.718 9.36372 128.349 9.14934 129.026 9.14934C129.825 9.14934 130.479 9.75261 130.479 10.5121C130.479 11.2711 129.825 11.8939 129.026 11.8751C128.661 11.8751 128.323 11.8163 128.057 11.6812V13.4329C128.323 13.5692 128.638 13.6473 129.026 13.6274C131.036 13.6274 132.66 12.285 132.66 10.6109C132.66 8.93672 131.036 7.57384 129.026 7.59444C128.299 7.59444 127.695 7.73072 127.33 7.98391V6.42662H133.677V4.86994H118.875H118.508H113.303H112.813H107.973V6.42662H109.183V8.56783H107.246V10.3207H109.183V12.6563V14.6062H111.365V12.6563V6.4242H112.814H113.304H114.757V12.6539V14.6038H116.938V12.6539V6.4242H118.508H118.873ZM121.999 9.73382V6.4242H125.147V9.73382C124.663 10.5709 123.913 11.1154 123.21 11.0966C122.531 11.0966 121.974 10.4933 121.999 9.73382ZM112.206 0.390076C112.206 2.10303 113.951 3.48467 116.083 3.50527C118.215 3.50527 119.939 2.10364 119.962 0.390076H118.019C118.019 1.24656 117.149 1.94676 116.083 1.94676C115.016 1.94676 114.145 1.24595 114.145 0.390076H112.206ZM97.916 10.1232C97.916 12.5953 100.194 14.6032 103.004 14.6032C105.281 14.6032 107.123 13.296 107.123 11.6806C107.123 10.6091 106.469 9.65501 105.427 9.14866C106.202 8.62352 106.662 7.90275 106.638 7.20193C106.638 5.80091 104.894 4.67126 102.762 4.67126C101.235 4.67126 99.8779 5.17764 99.1274 6.03412L100.58 7.39697C101.235 6.7737 102.034 6.40421 102.762 6.42359C103.707 6.42359 104.482 6.7737 104.457 7.20193C104.457 7.8446 103.804 8.36981 103.005 8.36981H101.793V10.1227H103.005C104.071 10.1227 104.942 10.8229 104.942 11.68C104.942 12.3221 104.071 12.8472 103.005 12.8472C101.26 12.8472 99.8556 11.5438 99.8556 9.92698L97.916 10.1232ZM77.3721 6.4242H77.0049H75.4344V12.6539V14.6038H73.2538V12.6539V12.8478C72.5269 13.3536 71.4844 13.6262 70.3457 13.6262C67.8029 13.6262 65.7429 12.147 65.7429 10.3171C65.7429 8.60352 67.8024 7.20193 70.3457 7.20193C71.4609 7.20193 72.5027 7.4745 73.2538 7.98088V6.42359H64.7695V4.86691H72.6445C71.3355 3.81539 70.0271 3.21209 69.0096 3.21209C68.3795 3.21209 67.8224 3.38775 67.434 3.69909L66.3449 2.33624C66.9985 1.88922 67.7738 1.6548 68.525 1.6548C69.8575 1.67479 71.9897 2.78447 74.4603 4.7706C73.2247 2.6294 72.2077 1.26593 71.3113 1.26593C70.9968 1.24656 70.6328 1.36346 70.3421 1.55789L69.2513 0.291942C69.6643 0.0981203 70.4141 0.000594593 71.4317 0.000594593C72.8606 0.000594593 74.7026 1.94737 76.0352 4.86811H77.0049H77.3721H92.8051V6.42481H85.998V7.59323C86.4577 7.34004 87.0398 7.20315 87.6934 7.20315C89.9708 7.22253 91.8122 8.6042 91.8122 10.3183C91.8122 12.0325 89.9708 13.4329 87.6934 13.4329C87.1603 13.4524 86.7479 13.3741 86.4819 13.2385V11.4862C86.7721 11.6231 87.1845 11.6812 87.6934 11.6812C88.7601 11.7 89.6317 11.0773 89.6317 10.3183C89.6317 9.55931 88.7601 8.95551 87.6934 8.95551C87.0641 8.95551 86.4577 9.09176 85.998 9.34493V12.6546V14.6044H83.8174V12.6546V13.1409C83.4043 13.336 82.8235 13.4329 82.1214 13.4329C79.8439 13.4136 78.002 12.0319 78.002 10.3183C78.002 8.60474 79.8439 7.20315 82.1214 7.20315C82.8235 7.20315 83.4043 7.30066 83.8174 7.49511V6.42359H77.3721V6.4242ZM79.9402 10.3178C79.9154 11.1749 80.9093 11.8744 82.1214 11.8744C82.8719 11.8744 83.4534 11.7381 83.8174 11.485V9.05121C83.4043 8.85737 82.8235 8.76045 82.1214 8.76045C80.9088 8.76045 79.9402 9.46132 79.9402 10.3178ZM67.9235 10.3178C67.9235 11.233 69.0621 11.972 70.4675 11.972C71.3882 11.9913 71.9441 11.9337 72.1628 11.7775L68.2869 9.53944C68.044 9.71449 67.9235 9.98699 67.9235 10.3178ZM69.2554 8.95483L73.0114 11.0961C73.1562 10.9591 73.2531 10.6866 73.2531 10.3171C73.2283 9.46064 71.9443 8.76045 70.3451 8.76045C69.8853 8.74099 69.5225 8.81858 69.2554 8.95483Z" fill="#322F3B"/>
<path d="M95.0821 40.1675V39.3418H97.7981V40.1675H96.8926V45.0005H95.9876V42.7369H94.4256V43.1222C94.4256 43.2281 94.3959 43.3184 94.3353 43.3935C94.2904 43.4547 94.2226 43.4844 94.1318 43.4844C93.9658 43.4844 93.7018 43.3105 93.339 42.9635C92.9773 42.6315 92.7961 42.3783 92.7961 42.205C92.7961 42.1222 92.8259 42.0507 92.8864 41.9907C92.9385 41.9379 93.0112 41.9035 93.1008 41.8889H93.5194V40.2929C93.5194 40.1717 93.4813 40.0664 93.4062 39.9767C93.3226 39.8858 93.2287 39.8398 93.1227 39.8398C93.0621 39.8398 93.0063 39.8779 92.9531 39.9536C92.9003 40.0215 92.8737 40.1045 92.8737 40.2026C92.8737 40.308 92.8931 40.4062 92.9306 40.4963C92.9833 40.572 93.0324 40.6103 93.0778 40.6103V41.3456C92.7763 41.3456 92.5158 41.236 92.2971 41.0173C92.0784 40.7829 91.9688 40.5122 91.9688 40.2026C91.9688 39.8706 92.0784 39.5842 92.2971 39.3425C92.5309 39.1081 92.7986 38.9912 93.1003 38.9912C93.4625 38.9912 93.7756 39.116 94.0397 39.3643C94.2965 39.6211 94.4244 39.9306 94.4244 40.2922V41.8877H95.9864V40.1675H95.0821ZM98.4766 44.9993H99.3821V40.1663H100.288V39.3406H97.5716V40.1663H98.4766V44.9993ZM100.061 40.1675V39.3418H104.26V40.1675H103.525V41.1748C103.525 41.5443 103.434 41.861 103.253 42.1251C103.079 42.3971 102.867 42.5328 102.619 42.5328H102.348C102.242 42.5177 102.193 42.4982 102.201 42.4759L103.841 44.6939L103.127 45.1695L100.31 41.3329L101.068 40.778C101.166 41.0495 101.313 41.2711 101.509 41.4462C101.706 41.62 101.901 41.7067 102.098 41.7067C102.249 41.7067 102.369 41.6539 102.46 41.548C102.566 41.4274 102.619 41.3026 102.619 41.1748V40.1675H100.061ZM104.034 40.1675H107.983V40.9604H105.924C105.525 40.9604 105.189 41.0881 104.918 41.3449C104.638 41.6018 104.5 41.9113 104.5 42.2729C104.5 42.7327 104.662 43.2045 104.986 43.6873C105.326 44.193 105.775 44.6492 106.333 45.0569L106.853 44.4341C106.393 44.1101 106.039 43.7636 105.789 43.3929C105.533 43.0234 105.405 42.6497 105.405 42.2723C105.419 42.1445 105.472 42.0343 105.563 41.944C105.653 41.8537 105.775 41.8078 105.926 41.8078H107.985V44.9998H108.89V40.1669H109.795V39.3413H104.035L104.034 40.1675ZM115.418 45.1695L112.997 41.457L113.777 40.9374C113.936 41.2087 114.071 41.4243 114.185 41.5812C114.298 41.7326 114.4 41.8078 114.491 41.8078C114.596 41.8078 114.695 41.7696 114.784 41.6945C114.868 41.6115 114.909 41.514 114.909 41.4008V40.1669H112.736V39.3413H119.186V40.1669H118.281V44.9998H117.375V42.5334H116.346L115.983 41.6848H117.375V40.1681H115.813V41.4359C115.813 41.7599 115.739 42.0434 115.588 42.2845C115.444 42.5255 115.267 42.643 115.056 42.6351C115.011 42.6351 114.95 42.6273 114.874 42.6122C114.836 42.6043 114.796 42.5782 114.75 42.5334L116.187 44.6946L115.418 45.1695ZM118.961 40.1675H121.518V41.1748C121.518 41.3026 121.467 41.4274 121.36 41.548C121.271 41.6533 121.148 41.7067 120.998 41.7067C120.802 41.7067 120.606 41.62 120.408 41.4462C120.212 41.2724 120.065 41.05 119.968 40.778L119.211 41.3329L122.026 45.1695L122.74 44.6939L121.099 42.4759C121.092 42.4989 121.141 42.517 121.246 42.5328H121.517C121.767 42.5328 121.978 42.3966 122.152 42.1251C122.333 41.8605 122.422 41.5443 122.422 41.1748V40.1675H123.159V39.3418H118.959V40.1675H118.961ZM126.045 44.9993V43.7884C125.932 43.8872 125.804 43.9581 125.66 44.0028C125.517 44.0482 125.345 44.067 125.139 44.0604C124.664 44.0604 124.246 43.9053 123.885 43.5953C123.543 43.2796 123.374 42.8939 123.374 42.4413C123.374 41.9743 123.559 41.5666 123.93 41.219C124.299 40.8871 124.739 40.7211 125.253 40.7211C125.479 40.7211 125.661 40.7519 125.796 40.8113L125.571 41.5922C125.69 41.6218 125.637 41.6151 125.411 41.5697C125.321 41.5697 125.204 41.5697 125.066 41.5697C124.927 41.5697 124.758 41.6564 124.562 41.8295C124.358 41.9955 124.265 42.1996 124.28 42.4408C124.28 42.6527 124.368 42.8326 124.539 42.9835C124.691 43.1349 124.891 43.21 125.139 43.21C125.298 43.21 125.46 43.1688 125.627 43.0853C125.777 43.0023 125.917 42.8932 126.045 42.7569V40.1657H122.933V39.3401H129.835V40.1657H126.949V41.1384C127.025 41.0403 127.148 40.9616 127.322 40.9004C127.487 40.8398 127.677 40.8107 127.889 40.8107C128.288 40.8107 128.635 40.9694 128.93 41.2863C129.208 41.5795 129.357 41.9501 129.372 42.3954C129.372 42.7272 129.273 43.0658 129.077 43.4141C128.873 43.7684 128.601 44.0895 128.263 44.376L127.594 43.7648C127.887 43.5079 128.104 43.2706 128.239 43.0519C128.389 42.8175 128.465 42.5988 128.465 42.3959C128.465 42.1996 128.401 42.0265 128.273 41.8749C128.152 41.7321 128.008 41.6606 127.843 41.6606C127.668 41.6606 127.504 41.7096 127.345 41.8071C127.195 41.9052 127.062 42.0451 126.949 42.2263V44.9986L126.045 44.9993ZM130.515 44.9993H131.421V40.1663H132.325V39.3406H129.611V40.1663H130.515V44.9993ZM132.099 40.1675V39.3418H136.298V40.1675H135.562V41.1748C135.562 41.5443 135.472 41.861 135.291 42.1251C135.118 42.3971 134.906 42.5328 134.657 42.5328H134.385C134.28 42.5177 134.231 42.4982 134.239 42.4759L135.88 44.6939L135.168 45.1695L132.349 41.3329L133.108 40.778C133.206 41.0495 133.352 41.2711 133.55 41.4462C133.744 41.62 133.942 41.7067 134.139 41.7067C134.289 41.7067 134.409 41.6539 134.501 41.548C134.607 41.4274 134.66 41.3026 134.66 41.1748V40.1675H132.099ZM142.352 44.9993V43.7884C142.239 43.8872 142.111 43.9581 141.967 44.0028C141.824 44.0482 141.652 44.067 141.448 44.0604C140.972 44.0604 140.553 43.9053 140.192 43.5953C139.851 43.2796 139.681 42.8939 139.681 42.4413C139.681 41.9743 139.868 41.5666 140.237 41.219C140.606 40.8871 141.048 40.7211 141.561 40.7211C141.787 40.7211 141.968 40.7519 142.105 40.8113L141.878 41.5922C141.998 41.6218 141.945 41.6151 141.718 41.5697C141.629 41.5697 141.513 41.5697 141.373 41.5697C141.234 41.5697 141.067 41.6564 140.871 41.8295C140.666 41.9955 140.572 42.1996 140.588 42.4408C140.588 42.6527 140.675 42.8326 140.846 42.9835C140.998 43.1349 141.198 43.21 141.448 43.21C141.606 43.21 141.768 43.1688 141.934 43.0853C142.086 43.0023 142.224 42.8932 142.352 42.7569V40.1657H139.24V39.3401H146.142V40.1657H143.256V41.1384C143.332 41.0403 143.456 40.9616 143.629 40.9004C143.794 40.8398 143.985 40.8107 144.197 40.8107C144.596 40.8107 144.943 40.9694 145.238 41.2863C145.516 41.5795 145.664 41.9501 145.679 42.3954C145.679 42.7272 145.58 43.0658 145.385 43.4141C145.181 43.7684 144.91 44.0895 144.57 44.376L143.902 43.7648C144.196 43.5079 144.412 43.2706 144.546 43.0519C144.697 42.8175 144.773 42.5988 144.773 42.3959C144.773 42.1996 144.709 42.0265 144.58 41.8749C144.461 41.7321 144.316 41.6606 144.15 41.6606C143.977 41.6606 143.811 41.7096 143.654 41.8071C143.502 41.9052 143.37 42.0451 143.256 42.2263V44.9986L142.352 44.9993ZM146.824 44.9993H147.728V40.1663H148.633V39.3406H145.918V40.1663H146.824V44.9993ZM155.164 44.9993C154.453 44.9993 153.792 44.6751 153.182 44.0265C152.571 43.3705 152.14 42.5328 151.892 41.5153L152.694 41.1984C152.943 42.0736 153.294 42.7865 153.747 43.3372C154.213 43.8883 154.686 44.1597 155.162 44.1519C155.373 44.1519 155.557 44.0653 155.716 43.8914C155.875 43.6952 155.946 43.4808 155.93 43.2469C155.93 42.9901 155.842 42.7757 155.669 42.6019C155.511 42.4213 155.308 42.3305 155.058 42.3305H154.131L153.825 41.4819H154.957C155.146 41.4819 155.315 41.4255 155.466 41.3129C155.602 41.1918 155.669 41.0482 155.669 40.8828C155.669 40.7926 155.639 40.6865 155.579 40.5666C155.504 40.4382 155.415 40.3062 155.308 40.1704H151.573V39.345H157.447V40.1704H156.395C156.5 40.3667 156.56 40.6047 156.576 40.884C156.576 41.1252 156.532 41.3371 156.441 41.5182C156.365 41.6915 156.248 41.8163 156.09 41.8913C156.323 42.0277 156.504 42.2154 156.632 42.4571C156.768 42.714 156.836 42.9774 156.836 43.2499C156.836 43.7327 156.673 44.147 156.348 44.4954C156.027 44.8303 155.631 44.9993 155.164 44.9993ZM161.998 44.9993H162.902V40.1663H163.808V39.3406H157.222V40.1663H159.859V40.5515H158.92C158.55 40.5661 158.248 40.6836 158.014 40.9016C157.766 41.1281 157.641 41.3959 157.641 41.7054C157.641 41.8944 157.713 42.0712 157.856 42.2372C157.998 42.411 158.183 42.5353 158.409 42.611C158.327 42.672 158.252 42.7738 158.183 42.9162C158.131 43.0221 158.105 43.1506 158.105 43.3014C158.105 43.6703 158.286 43.9883 158.647 44.2513C159.002 44.5074 159.436 44.6365 159.949 44.6365C160.4 44.6365 160.796 44.5692 161.135 44.4324C161.491 44.2967 161.777 44.0967 161.996 43.8333L161.998 44.9993ZM159.938 43.7884C159.681 43.7957 159.463 43.7503 159.282 43.6522C159.101 43.5546 159.011 43.4378 159.011 43.3021C159.004 43.1585 159.074 43.0265 159.225 42.9059C159.361 42.7921 159.531 42.7357 159.735 42.7357H160.55L160.245 42.1137H159.011C158.875 42.1137 158.766 42.0724 158.682 41.9894C158.593 41.9144 158.547 41.8199 158.547 41.706C158.532 41.6303 158.564 41.5588 158.648 41.4916C158.724 41.4304 158.812 41.4013 158.909 41.4013H160.765V40.1675H161.998V42.838C161.764 43.1324 161.458 43.3699 161.081 43.5509C160.734 43.7098 160.353 43.7884 159.938 43.7884ZM163.582 40.1675V39.3418H169.025V40.1675H168.121V45.0005H167.215V42.7369H165.473V43.3038C165.473 43.3712 165.447 43.4237 165.393 43.4625C165.349 43.5079 165.288 43.5304 165.212 43.5304C165.062 43.5304 164.805 43.3487 164.442 42.9871C164.065 42.6406 163.875 42.3917 163.875 42.2402C163.875 42.1427 163.898 42.0592 163.943 41.9919C163.989 41.924 164.048 41.8901 164.124 41.8901H164.566V40.1694L163.582 40.1675ZM165.473 41.8877H167.215V40.1669H165.473V41.8877Z" fill="#322F3B"/>
</svg>
