<svg width="40" height="40" viewBox="0 0 40 40" fill="none" xmlns="http://www.w3.org/2000/svg">
<path d="M34.98 19.24C35.4 19.28 35.77 19.27 36.11 19.35C37.05 19.56 37.77 20.31 37.79 21.26C37.83 24.21 37.84 27.16 37.79 30.11C37.77 31.24 36.81 32.05 35.67 32.1C35.45 32.1 35.23 32.1 34.98 32.1C34.98 33.07 34.98 33.99 34.98 34.9C34.98 35.25 34.98 35.61 34.92 35.95C34.72 36.96 33.93 37.67 32.91 37.79C32.72 37.81 32.52 37.82 32.33 37.82C23.57 37.82 14.81 37.82 6.04999 37.82C4.20999 37.82 2.85999 36.92 2.35999 35.34C2.23999 34.95 2.17999 34.52 2.17999 34.11C2.16999 26.6 2.16999 19.09 2.17999 11.57C2.17999 9.68999 3.34999 8.19999 5.10999 7.92999C5.90999 7.80999 6.74999 7.83999 7.55999 7.87999C8.14999 7.90999 8.41998 7.72999 8.68998 7.15999C10.26 3.88999 12.91 2.13999 16.53 2.17999C20.2 2.21999 22.81 4.07999 24.32 7.42999C24.47 7.76999 24.64 7.87999 25 7.86999C26.09 7.84999 27.18 7.85999 28.27 7.86999C29.72 7.86999 30.69 8.84999 30.69 10.29C30.69 11.37 30.69 12.44 30.69 13.57C31.29 13.57 31.86 13.6 32.42 13.57C33.94 13.48 35.04 14.68 34.98 16.11C34.94 17.15 34.98 18.18 34.98 19.24ZM3.62999 14.27C3.62999 14.42 3.60999 14.49 3.60999 14.55C3.60999 21.1 3.60999 27.65 3.60999 34.2C3.60999 35.5 4.51999 36.37 5.84999 36.37C14.73 36.37 23.6 36.37 32.48 36.37C33.22 36.37 33.55 36.04 33.56 35.3C33.56 34.43 33.56 33.56 33.56 32.69C33.56 32.5 33.56 32.31 33.56 32.09C33.34 32.09 33.19 32.09 33.04 32.09C30.96 32.09 28.88 32.14 26.8 32.07C23.45 31.96 20.77 29.15 20.72 25.8C20.66 22.22 23.51 19.29 27.1 19.27C29.1 19.26 31.1 19.27 33.1 19.27C33.24 19.27 33.38 19.27 33.56 19.27C33.56 18.21 33.56 17.2 33.56 16.19C33.56 15.28 33.26 14.98 32.34 14.98C23.72 14.98 15.11 14.98 6.48998 14.98C5.48998 14.98 4.51999 14.93 3.62999 14.26V14.27ZM31.13 30.67C32.53 30.67 33.94 30.67 35.34 30.67C36.14 30.67 36.39 30.42 36.39 29.62C36.39 27 36.39 24.37 36.39 21.75C36.39 20.96 36.12 20.69 35.34 20.69C32.64 20.69 29.93 20.69 27.23 20.69C26.86 20.69 26.47 20.72 26.11 20.8C23.52 21.36 21.9 23.65 22.18 26.34C22.43 28.75 24.61 30.66 27.15 30.67C28.48 30.67 29.8 30.67 31.13 30.67ZM17.18 13.54C17.24 13.56 17.28 13.57 17.31 13.57C19.12 13.57 20.92 13.57 22.73 13.57C22.85 13.57 23.01 13.42 23.06 13.29C23.43 12.4 23.6 11.47 23.56 10.51C23.41 6.52999 20.19 3.49999 16.21 3.59999C11.37 3.70999 8.03999 8.68999 9.75999 13.21C9.85999 13.48 9.98999 13.59 10.29 13.59C11.97 13.57 13.64 13.59 15.32 13.59H15.7V8.03999C15.57 8.15999 15.47 8.23999 15.38 8.32999C14.96 8.74999 14.54 9.17999 14.11 9.58999C13.78 9.90999 13.35 9.88999 13.07 9.58999C12.8 9.30999 12.81 8.88999 13.12 8.57999C14.04 7.64999 14.97 6.71999 15.9 5.79999C16.24 5.45999 16.62 5.46999 16.97 5.79999C17.24 6.04999 17.49 6.30999 17.74 6.56999C18.41 7.23999 19.08 7.90999 19.75 8.57999C19.97 8.79999 20.11 9.08999 19.93 9.34999C19.8 9.54999 19.55 9.75999 19.32 9.79999C19.13 9.82999 18.85 9.66999 18.68 9.51999C18.17 9.05999 17.7 8.55999 17.16 8.00999V13.56L17.18 13.54ZM29.27 13.56C29.27 12.38 29.29 11.24 29.27 10.1C29.27 9.66999 28.91 9.30999 28.5 9.30999C27.31 9.28999 26.12 9.30999 24.89 9.30999C25.14 10.77 24.99 12.17 24.53 13.57H29.28L29.27 13.56ZM7.99999 9.29999C7.11999 9.29999 6.28999 9.25999 5.45999 9.30999C4.46999 9.37999 3.65999 10.27 3.60999 11.26C3.54999 12.35 4.22999 13.37 5.25999 13.48C6.26999 13.59 7.28999 13.5 8.34999 13.5C7.87999 12.15 7.77999 10.75 7.99999 9.29999Z" fill="#231F20"/>
<path d="M11.7401 32.07C12.8701 32.07 14.0001 32.07 15.1301 32.07C15.6601 32.07 15.9601 32.33 15.9601 32.78C15.9601 33.22 15.6601 33.48 15.1201 33.48C12.8301 33.48 10.5501 33.48 8.26005 33.48C7.73005 33.48 7.43005 33.21 7.43005 32.77C7.43005 32.32 7.73005 32.07 8.27005 32.07C9.43005 32.07 10.5801 32.07 11.7401 32.07Z" fill="#231F20"/>
<path d="M27.14 23.56C28.32 23.56 29.27 24.51 29.28 25.69C29.28 26.87 28.3 27.84 27.11 27.83C25.93 27.82 24.99 26.86 25 25.68C25 24.51 25.96 23.56 27.14 23.57V23.56ZM27.84 25.67C27.84 25.28 27.5 24.96 27.11 24.98C26.74 24.99 26.42 25.32 26.42 25.69C26.42 26.08 26.74 26.4 27.14 26.4C27.54 26.4 27.85 26.08 27.84 25.68V25.67Z" fill="#231F20"/>
</svg>
