<svg width="40" height="40" viewBox="0 0 40 40" fill="none" xmlns="http://www.w3.org/2000/svg">
<path d="M4.41003 37.59C4.17003 37.5 3.93003 37.44 3.71003 37.33C2.90003 36.91 2.47003 36.23 2.43003 35.32C2.40003 34.74 2.42003 34.15 2.43003 33.57C2.43003 33.13 2.65003 32.92 3.08003 32.91C3.43003 32.91 3.79003 32.91 4.19003 32.91C4.19003 32.74 4.19003 32.59 4.19003 32.45C4.19003 26.42 4.19003 20.39 4.19003 14.35C4.19003 12.95 4.71003 11.84 5.93003 11.14C6.37003 10.89 6.91003 10.7 7.41003 10.67C8.66003 10.6 9.92003 10.65 11.2 10.65V11.8C11.06 11.8 10.94 11.8 10.82 11.8C9.81003 11.8 8.81003 11.8 7.80003 11.8C6.34003 11.82 5.38003 12.79 5.37003 14.25C5.37003 20.35 5.37003 26.45 5.37003 32.55C5.37003 32.65 5.37003 32.75 5.39003 32.9C5.54003 32.9 5.67003 32.9 5.81003 32.9C8.72003 32.9 11.62 32.9 14.53 32.9C14.85 32.9 15.13 32.96 15.31 33.23C15.83 33.97 16.53 34.13 17.41 34.1C19.46 34.03 21.51 34.08 23.56 34.07C23.74 34.07 23.99 33.98 24.09 33.85C24.68 33.06 25.44 32.86 26.41 32.88C29.01 32.95 31.61 32.9 34.2 32.9C34.34 32.9 34.47 32.9 34.64 32.9C34.64 32.76 34.66 32.64 34.66 32.52C34.66 26.45 34.66 20.39 34.66 14.32C34.66 12.76 33.7 11.81 32.13 11.8C31.16 11.8 30.18 11.8 29.21 11.8C29.09 11.8 28.96 11.8 28.82 11.8V10.67C28.82 10.67 28.88 10.63 28.91 10.63C30.17 10.63 31.43 10.59 32.68 10.66C34.33 10.75 35.72 12.21 35.81 13.86C35.82 14.08 35.83 14.29 35.83 14.51C35.83 20.47 35.83 26.44 35.83 32.4C35.83 32.55 35.83 32.69 35.83 32.9C36.15 32.9 36.44 32.92 36.73 32.9C37.09 32.87 37.38 32.97 37.59 33.26V35.6C37.43 35.95 37.32 36.32 37.12 36.64C36.77 37.18 36.21 37.43 35.6 37.59H4.41003ZM36.41 34.08H35.96C32.88 34.08 29.8 34.11 26.73 34.06C25.86 34.05 25.18 34.2 24.67 34.93C24.49 35.19 24.21 35.26 23.88 35.26C21.58 35.26 19.28 35.26 16.98 35.26C15.35 35.26 15.9 35.47 14.73 34.33C14.56 34.17 14.4 34.09 14.16 34.09C10.76 34.09 7.36003 34.09 3.96003 34.09H3.58003C3.58003 34.43 3.58003 34.71 3.58003 35C3.58003 36.01 4.01003 36.43 5.03003 36.43C15.01 36.43 24.99 36.43 34.96 36.43C35.07 36.43 35.19 36.43 35.3 36.43C35.89 36.38 36.36 35.93 36.39 35.34C36.41 34.94 36.39 34.54 36.39 34.09L36.41 34.08Z" fill="#231F20"/>
<path d="M11.19 12.97V14.14C11.07 14.14 10.95 14.14 10.83 14.14C10.02 14.14 9.20002 14.14 8.39002 14.14C7.90002 14.14 7.70002 14.34 7.70002 14.82C7.70002 19.97 7.70002 25.12 7.70002 30.27C7.70002 30.35 7.71002 30.43 7.72002 30.52H32.3V30.14C32.3 25.08 32.3 20.02 32.3 14.96C32.3 14.29 32.14 14.13 31.47 14.13C30.59 14.13 29.71 14.13 28.81 14.13V12.98C29.9 12.98 30.97 12.93 32.04 13C32.79 13.04 33.41 13.78 33.46 14.54C33.46 14.68 33.46 14.81 33.46 14.95C33.46 20.25 33.46 25.55 33.46 30.85C33.46 31.56 33.3 31.71 32.59 31.71C24.19 31.71 15.79 31.71 7.39002 31.71C6.67002 31.71 6.52002 31.55 6.52002 30.85C6.52002 25.54 6.52002 20.23 6.52002 14.92C6.52002 13.64 7.20002 12.96 8.49002 12.96C9.38002 12.96 10.27 12.96 11.18 12.96L11.19 12.97Z" fill="#231F20"/>
<path d="M19.99 20V21.15C19.88 21.15 19.77 21.17 19.66 21.17C17.86 21.17 16.07 21.17 14.27 21.17C13.12 21.17 12.38 20.44 12.38 19.28C12.38 16.67 12.38 14.06 12.38 11.45C12.38 10.15 13.07 9.45001 14.36 9.44001C14.46 9.44001 14.56 9.44001 14.72 9.44001C14.72 9.26001 14.72 9.09001 14.72 8.92001C14.78 8.07001 14.72 7.19001 14.92 6.37001C15.51 3.88001 17.86 2.23001 20.39 2.42001C22.92 2.61001 24.94 4.57001 25.23 7.10001C25.23 7.17001 25.25 7.24001 25.26 7.30001C25.34 8.04001 25.14 8.26001 24.4 8.26001C23.82 8.26001 23.23 8.26001 22.65 8.26001C21.92 8.26001 21.83 8.18001 21.73 7.46001C21.63 6.78001 21.26 6.30001 20.63 6.05001C20 5.80001 19.41 5.91001 18.89 6.32001C18.53 6.60001 18.29 6.97001 18.27 7.43001C18.24 8.08001 18.27 8.73001 18.27 9.42001C18.4 9.42001 18.53 9.44001 18.66 9.44001C20.97 9.44001 23.28 9.44001 25.59 9.44001C26.93 9.44001 27.62 10.13 27.62 11.47C27.62 12.61 27.62 13.76 27.62 14.9C27.62 15.02 27.62 15.15 27.62 15.29H26.47C26.47 15.17 26.45 15.05 26.45 14.93C26.45 13.76 26.45 12.6 26.45 11.43C26.45 10.81 26.27 10.62 25.66 10.62C21.88 10.62 18.11 10.62 14.33 10.62C13.74 10.62 13.55 10.81 13.55 11.4C13.55 14.01 13.55 16.62 13.55 19.23C13.55 19.8 13.75 20 14.31 20C16.07 20 17.83 20 19.6 20C19.72 20 19.85 20 19.98 20H19.99ZM24.07 7.10001C23.77 5.59001 22.99 4.51001 21.61 3.93001C20.17 3.32001 18.78 3.50001 17.53 4.43001C15.81 5.70001 15.79 7.54001 15.93 9.42001H17.07C17.07 8.83001 17.06 8.27001 17.07 7.71001C17.11 6.02001 18.41 4.74001 20.05 4.76001C21.32 4.78001 22.4 5.60001 22.82 6.84001C22.85 6.94001 22.97 7.08001 23.06 7.09001C23.38 7.12001 23.7 7.10001 24.07 7.10001Z" fill="#231F20"/>
<path d="M28.18 26.31C28.55 26.4 28.9 26.49 29.25 26.58C29.14 27.53 28.18 28.48 27.12 28.71C26.91 28.76 26.69 28.78 26.47 28.78C22.17 28.78 17.86 28.78 13.56 28.78C12.21 28.78 11.07 27.88 10.73 26.6C10.4 25.32 10.93 23.97 12.09 23.34C12.49 23.12 12.97 22.96 13.42 22.96C15.74 22.92 18.07 22.94 20.39 22.94C20.44 22.94 20.5 22.96 20.57 22.97V24.11C20.42 24.11 20.29 24.11 20.16 24.11C17.96 24.11 15.77 24.11 13.57 24.11C12.84 24.11 12.29 24.45 11.98 25.11C11.67 25.75 11.75 26.39 12.18 26.95C12.56 27.44 13.08 27.63 13.69 27.62C16.57 27.62 19.46 27.62 22.34 27.62C23.62 27.62 24.9 27.62 26.19 27.62C27.24 27.62 27.73 27.3 28.18 26.31Z" fill="#231F20"/>
<path d="M29.37 20.67C29.74 20.62 30.1 20.57 30.46 20.52C30.96 22.2 29.75 24.5 27.91 25.39C25.84 26.39 23.34 25.75 22.02 23.87C20.71 21.99 20.94 19.44 22.57 17.84C24.17 16.27 26.75 16.04 28.53 17.35C28.31 17.66 28.1 17.97 27.88 18.28C26.1 17.17 24.29 17.72 23.31 18.76C22.22 19.92 22.04 21.64 22.87 23.01C23.68 24.34 25.29 24.98 26.79 24.56C28.48 24.09 29.37 22.76 29.37 20.67Z" fill="#231F20"/>
<path d="M20.59 18.22H19.41C19.41 17.94 19.39 17.68 19.41 17.42C19.44 17.12 19.34 16.96 19.04 16.84C18.12 16.46 17.61 15.58 17.65 14.56C17.69 13.64 18.33 12.81 19.22 12.5C20.41 12.09 21.72 12.69 22.17 13.87C22.62 15.05 22.07 16.39 20.89 16.86C20.63 16.97 20.54 17.09 20.56 17.36C20.58 17.63 20.56 17.91 20.56 18.22H20.59ZM21.17 14.72C21.17 14.07 20.62 13.54 19.98 13.56C19.35 13.57 18.83 14.09 18.83 14.73C18.83 15.39 19.34 15.9 20 15.9C20.66 15.9 21.17 15.38 21.17 14.73V14.72Z" fill="#231F20"/>
<path d="M29.52 17.83C29.83 18.14 30.09 18.4 30.36 18.67C29 20.03 27.64 21.4 26.28 22.75C26.03 23 25.72 23.01 25.48 22.78C24.88 22.2 24.3 21.6 23.71 21C23.98 20.74 24.24 20.48 24.52 20.21C24.94 20.66 25.37 21.11 25.81 21.58C27.09 20.29 28.3 19.07 29.52 17.84V17.83Z" fill="#231F20"/>
<path d="M14.7 26.44H13.57V25.32H14.7V26.44Z" fill="#231F20"/>
<path d="M17.05 26.43H15.93V25.3H17.05V26.43Z" fill="#231F20"/>
<path d="M19.4 25.31V26.42H18.26V25.31H19.4Z" fill="#231F20"/>
<path d="M20.61 26.43V25.31H21.74V26.43H20.61Z" fill="#231F20"/>
</svg>
