<svg width="40" height="40" viewBox="0 0 40 40" fill="none" xmlns="http://www.w3.org/2000/svg">
<path d="M6.86003 37.43C6.55003 37.32 6.23003 37.24 5.94003 37.1C4.84003 36.55 4.22003 35.66 4.12003 34.43C4.10003 34.24 4.10003 34.04 4.10003 33.85C4.10003 26.41 4.10003 18.97 4.10003 11.53C4.10003 11.37 4.10003 11.21 4.12003 11.06C4.17003 10.8 4.34003 10.67 4.60003 10.67C4.86003 10.67 5.04003 10.79 5.09003 11.05C5.12003 11.2 5.12003 11.37 5.12003 11.52C5.12003 18.97 5.12003 26.42 5.12003 33.88C5.12003 34.16 5.12003 34.45 5.19003 34.72C5.42003 35.71 6.29003 36.4 7.31003 36.4C12.18 36.4 17.04 36.4 21.91 36.4C23.08 36.4 24 35.51 24.09 34.35C24.09 34.23 24.1 34.1 24.1 33.98C24.1 31.25 24.1 28.51 24.1 25.78C24.1 25.66 24.1 25.53 24.1 25.38H23.35C23.35 25.51 23.35 25.64 23.35 25.77C23.35 27.17 23.35 28.56 23.35 29.96C23.35 30.1 23.35 30.24 23.32 30.37C23.26 30.61 23.08 30.72 22.84 30.72C22.6 30.72 22.42 30.61 22.36 30.37C22.33 30.24 22.33 30.1 22.33 29.96C22.33 28.58 22.33 27.19 22.33 25.81C22.33 25.68 22.33 25.54 22.33 25.36C22.15 25.36 22.01 25.36 21.87 25.36C18.22 25.36 14.56 25.36 10.91 25.36C10.64 25.36 10.36 25.36 10.1 25.29C9.35003 25.11 8.81003 24.46 8.73003 23.69C8.72003 23.57 8.71003 23.44 8.71003 23.32C8.71003 18.9 8.71003 14.47 8.71003 10.05C8.71003 9.55003 8.80003 9.08003 9.13003 8.68003C9.54003 8.19003 10.06 8.00003 10.69 8.00003C14.41 8.00003 18.13 8.00003 21.85 8.00003C21.99 8.00003 22.14 8.00003 22.31 8.00003C22.31 7.23003 22.31 6.51003 22.31 5.78003C22.31 5.53003 22.13 5.38003 21.89 5.38003C21.02 5.38003 20.14 5.38003 19.26 5.38003C19.16 5.68003 19.06 5.97003 18.96 6.25003C18.79 6.71003 18.51 6.92003 18.01 6.93003C15.74 6.93003 13.47 6.93003 11.2 6.93003C10.69 6.93003 10.42 6.72003 10.24 6.22003C10.14 5.94003 10.05 5.67003 9.94003 5.38003C9.07003 5.38003 8.20003 5.38003 7.34003 5.38003C7.06003 5.38003 6.90003 5.54003 6.88003 5.82003C6.88003 5.92003 6.88003 6.02003 6.88003 6.13003C6.88003 15.39 6.88003 24.64 6.88003 33.9C6.88003 33.98 6.88003 34.06 6.88003 34.14C6.90003 34.5 7.05003 34.65 7.41003 34.65C7.97003 34.65 8.52003 34.65 9.08003 34.65C13.27 34.65 17.45 34.65 21.64 34.65C22.23 34.65 22.33 34.55 22.33 33.95C22.33 33.53 22.33 33.11 22.33 32.69C22.33 32.3 22.52 32.11 22.85 32.11C23.16 32.11 23.34 32.3 23.35 32.67C23.36 33.19 23.37 33.71 23.35 34.23C23.31 35.08 22.7 35.65 21.84 35.66C17.02 35.66 12.2 35.66 7.38003 35.66C6.52003 35.66 5.92003 35.08 5.87003 34.23C5.87003 34.12 5.87003 34 5.87003 33.89C5.87003 24.63 5.87003 15.38 5.87003 6.12003C5.87003 5.88003 5.87003 5.64003 5.93003 5.41003C6.08003 4.81003 6.65003 4.37003 7.28003 4.36003C8.20003 4.35003 9.12003 4.36003 10.04 4.36003C10.46 4.36003 10.75 4.57003 10.9 4.96003C10.9 4.98003 10.92 5.00003 10.93 5.02003C11.04 5.31003 11.06 5.71003 11.27 5.85003C11.49 6.00003 11.88 5.91003 12.2 5.91003C14.04 5.91003 15.88 5.91003 17.71 5.91003C17.94 5.91003 18.06 5.85003 18.11 5.62003C18.17 5.39003 18.26 5.17003 18.34 4.95003C18.48 4.57003 18.77 4.36003 19.17 4.36003C20.1 4.36003 21.03 4.34003 21.96 4.36003C22.73 4.38003 23.32 4.98003 23.35 5.79003C23.37 6.39003 23.35 6.99003 23.35 7.59003C23.35 7.71003 23.35 7.83003 23.35 7.97003H24.05C24.05 7.08003 24.14 6.20003 24.03 5.34003C23.9 4.30003 22.93 3.60003 21.83 3.60003C18.89 3.60003 15.95 3.60003 13.02 3.60003C11.17 3.60003 9.32003 3.60003 7.47003 3.60003C6.05003 3.60003 5.13003 4.52003 5.12003 5.94003C5.12003 6.73003 5.12003 7.53003 5.12003 8.32003C5.12003 8.41003 5.12003 8.50003 5.12003 8.59003C5.12003 9.02003 4.93003 9.25003 4.60003 9.24003C4.28003 9.24003 4.11003 9.02003 4.10003 8.60003C4.10003 7.85003 4.09003 7.10003 4.10003 6.35003C4.10003 5.92003 4.10003 5.48003 4.20003 5.07003C4.52003 3.63003 5.78003 2.58003 7.25003 2.58003C12.16 2.57003 17.07 2.56003 21.99 2.58003C23.65 2.58003 25.02 3.92003 25.11 5.58003C25.15 6.36003 25.11 7.14003 25.11 7.96003C25.27 7.97003 25.39 7.99003 25.51 7.99003C26.6 7.99003 27.69 7.99003 28.78 7.99003C28.9 7.99003 29.03 7.99003 29.15 8.01003C29.4 8.05003 29.52 8.22003 29.53 8.46003C29.54 8.72003 29.44 8.91003 29.18 8.97003C29.02 9.01003 28.84 9.01003 28.67 9.01003C22.77 9.01003 16.87 9.01003 10.97 9.01003C10.87 9.01003 10.77 9.01003 10.66 9.01003C10.05 9.02003 9.74003 9.32003 9.74003 9.94003C9.74003 11.03 9.74003 12.12 9.74003 13.21C9.74003 14.74 9.74003 16.27 9.74003 17.8C9.74003 17.93 9.74003 18.07 9.74003 18.24C9.91003 18.24 10.04 18.24 10.17 18.24C11.8 18.24 13.44 18.24 15.07 18.24C16.29 18.24 17.15 18.89 17.41 19.97C17.76 21.39 16.8 22.74 15.34 22.78C13.63 22.83 11.91 22.8 10.2 22.8C10.07 22.8 9.93003 22.8 9.73003 22.8C9.75003 23.14 9.73003 23.46 9.80003 23.76C9.87003 24.05 10.1 24.24 10.4 24.29C10.56 24.32 10.72 24.32 10.87 24.32C18.48 24.32 26.09 24.32 33.71 24.32C33.87 24.32 34.03 24.32 34.18 24.29C34.52 24.23 34.77 23.98 34.82 23.63C34.84 23.5 34.84 23.36 34.84 23.22C34.84 18.84 34.84 14.46 34.84 10.08C34.84 10 34.84 9.92003 34.84 9.84003C34.81 9.30003 34.51 9.01003 33.97 9.00003C33.22 8.99003 32.47 9.00003 31.72 9.00003C31.61 9.00003 31.49 9.00003 31.38 8.99003C31.07 8.95003 30.9 8.76003 30.92 8.47003C30.94 8.17003 31.11 8.00003 31.4 8.00003C32.35 8.00003 33.31 7.97003 34.26 8.02003C35.08 8.06003 35.75 8.77003 35.84 9.59003C35.86 9.74003 35.86 9.88003 35.86 10.03C35.86 14.45 35.86 18.88 35.86 23.3C35.86 24.32 35.37 25.03 34.51 25.26C34.25 25.33 33.97 25.34 33.7 25.34C31 25.34 28.3 25.34 25.6 25.34C25.45 25.34 25.31 25.34 25.11 25.34C25.11 25.51 25.11 25.65 25.11 25.79C25.11 28.52 25.11 31.26 25.11 33.99C25.11 35.57 24.29 36.77 22.9 37.24C22.7 37.31 22.49 37.36 22.28 37.41H6.86003V37.43ZM9.77003 21.78C9.88003 21.78 9.96003 21.79 10.04 21.79C11.74 21.79 13.44 21.79 15.14 21.79C16.03 21.79 16.56 21.21 16.47 20.37C16.4 19.7 15.88 19.28 15.1 19.28C13.42 19.28 11.75 19.28 10.07 19.28C9.97003 19.28 9.88003 19.3 9.77003 19.31V21.78Z" fill="#231F20"/>
<path d="M14.64 27.39C15.5 27.39 16.36 27.38 17.23 27.39C18.64 27.42 19.53 28.61 19.12 29.92C18.89 30.66 18.36 31.08 17.61 31.22C17.44 31.25 17.27 31.26 17.1 31.26C15.46 31.26 13.81 31.26 12.17 31.26C11.09 31.26 10.38 30.76 10.13 29.86C9.78998 28.65 10.57 27.48 11.83 27.41C12.77 27.36 13.71 27.4 14.65 27.4C14.65 27.4 14.65 27.4 14.65 27.39H14.64ZM14.64 28.41C13.77 28.41 12.89 28.41 12.02 28.41C11.41 28.41 11.04 28.8 11.06 29.36C11.08 29.9 11.46 30.23 12.1 30.24C13.78 30.24 15.46 30.24 17.13 30.24C17.3 30.24 17.47 30.21 17.63 30.15C18.03 30 18.23 29.59 18.17 29.16C18.1 28.73 17.76 28.42 17.29 28.41C16.41 28.4 15.52 28.41 14.64 28.41Z" fill="#231F20"/>
<path d="M14.83 10.65C15.5 10.65 16.17 10.65 16.84 10.65C17.5 10.65 17.85 10.99 17.86 11.66C17.87 12.51 17.87 13.36 17.86 14.21C17.86 14.84 17.52 15.19 16.89 15.2C15.52 15.22 14.15 15.22 12.77 15.2C12.15 15.2 11.81 14.83 11.8 14.21C11.79 13.35 11.79 12.49 11.8 11.62C11.81 11 12.16 10.66 12.78 10.65C13.46 10.65 14.14 10.65 14.82 10.65H14.83ZM16.84 11.7H12.86V14.18C14.15 14.18 15.4 14.18 16.66 14.18C16.72 14.18 16.84 14.05 16.84 13.97C16.85 13.22 16.84 12.48 16.84 11.7Z" fill="#231F20"/>
<path d="M30.05 22.58C29.94 22.7 29.85 22.9 29.7 22.95C29.55 23 29.34 22.92 29.17 22.87C29.1 22.85 29.03 22.73 29.02 22.65C28.93 22.09 28.58 21.96 28.08 22.05C28.02 22.05 27.97 22.05 27.91 22.05C27.38 21.97 26.98 22.05 26.85 22.69C26.79 22.99 26.45 23.08 26.18 22.97C25.91 22.85 25.81 22.58 25.94 22.25C26.37 21.11 26.81 19.96 27.25 18.82C27.29 18.7 27.34 18.59 27.38 18.47C27.48 18.21 27.67 18.06 27.95 18.06C28.23 18.06 28.42 18.21 28.52 18.47C28.68 18.89 28.84 19.32 29 19.74C29.3 20.54 29.61 21.35 29.91 22.15C29.95 22.27 29.98 22.39 30.04 22.58H30.05ZM27.95 19.85C27.79 20.28 27.65 20.64 27.52 21.01H28.39C28.25 20.63 28.11 20.28 27.95 19.85Z" fill="#231F20"/>
<path d="M24.04 21.29C24.04 21.67 24.04 22.02 24.04 22.37C24.04 22.8 23.87 23 23.54 23C23.21 23 23.02 22.8 23.02 22.39C23.02 21.15 23.02 19.92 23.02 18.68C23.02 18.23 23.2 18.06 23.64 18.05C24.04 18.05 24.44 18.04 24.83 18.08C25.71 18.18 26.28 18.85 26.26 19.73C26.24 20.58 25.6 21.23 24.72 21.29C24.51 21.3 24.29 21.29 24.04 21.29ZM24.07 20.27C24.48 20.26 24.92 20.4 25.15 19.97C25.24 19.81 25.22 19.51 25.12 19.35C24.87 18.96 24.45 19.09 24.07 19.09V20.28V20.27Z" fill="#231F20"/>
<path d="M31.38 19.55C31.66 19.12 31.9 18.75 32.14 18.38C32.35 18.07 32.63 17.98 32.89 18.14C33.17 18.31 33.21 18.6 33 18.94C32.7 19.42 32.37 19.88 32.08 20.37C31.98 20.54 31.92 20.76 31.91 20.97C31.88 21.4 31.9 21.83 31.9 22.26C31.9 22.35 31.9 22.44 31.89 22.53C31.85 22.84 31.65 23.01 31.37 23C31.09 23 30.89 22.81 30.89 22.5C30.88 22.02 30.88 21.55 30.89 21.07C30.89 20.79 30.84 20.55 30.67 20.31C30.36 19.87 30.07 19.4 29.77 18.95C29.55 18.61 29.58 18.32 29.85 18.15C30.11 17.98 30.4 18.06 30.62 18.39C30.87 18.76 31.12 19.14 31.39 19.56L31.38 19.55Z" fill="#231F20"/>
<path d="M26.81 12.8C26.81 12.95 26.82 13.1 26.81 13.24C26.78 13.53 26.6 13.69 26.32 13.7C26.03 13.7 25.84 13.54 25.81 13.26C25.78 12.96 25.79 12.65 25.81 12.35C25.83 12.05 26.05 11.88 26.34 11.89C26.63 11.91 26.79 12.08 26.82 12.36C26.83 12.51 26.82 12.65 26.82 12.8H26.81Z" fill="#231F20"/>
<path d="M29.66 12.76C29.66 12.61 29.65 12.47 29.66 12.32C29.69 12.06 29.84 11.91 30.1 11.89C30.37 11.87 30.6 11.98 30.63 12.25C30.67 12.61 30.67 12.97 30.63 13.33C30.6 13.6 30.37 13.72 30.11 13.7C29.86 13.68 29.69 13.53 29.67 13.27C29.65 13.1 29.67 12.93 29.67 12.76H29.66Z" fill="#231F20"/>
<path d="M22.24 12.79C22.24 12.95 22.26 13.11 22.24 13.26C22.19 13.54 22.01 13.7 21.72 13.69C21.43 13.69 21.25 13.52 21.24 13.23C21.22 12.95 21.23 12.67 21.24 12.38C21.25 12.07 21.44 11.89 21.73 11.88C22.02 11.88 22.22 12.05 22.25 12.34C22.27 12.48 22.25 12.63 22.25 12.78L22.24 12.79Z" fill="#231F20"/>
<path d="M23.87 12.76C23.87 12.62 23.87 12.49 23.87 12.35C23.89 12.08 24.04 11.91 24.32 11.89C24.59 11.87 24.81 11.98 24.84 12.26C24.88 12.61 24.88 12.98 24.84 13.33C24.81 13.6 24.58 13.72 24.31 13.69C24.05 13.67 23.89 13.52 23.87 13.26C23.85 13.09 23.87 12.92 23.87 12.75V12.76Z" fill="#231F20"/>
<path d="M32.46 12.81C32.46 12.97 32.48 13.13 32.46 13.28C32.43 13.54 32.25 13.68 32 13.69C31.75 13.7 31.53 13.59 31.5 13.33C31.46 12.96 31.46 12.59 31.5 12.22C31.53 11.96 31.75 11.86 32.01 11.88C32.27 11.9 32.43 12.04 32.46 12.3C32.48 12.47 32.46 12.64 32.46 12.81Z" fill="#231F20"/>
</svg>
