<svg width="40" height="40" viewBox="0 0 40 40" fill="none" xmlns="http://www.w3.org/2000/svg">
<path d="M33.6108 19.2605C33.6108 19.4205 33.6308 19.5405 33.6308 19.6605C33.6308 23.3105 33.6308 26.9605 33.6308 30.6105C33.6308 32.3505 32.6708 33.6405 31.1008 34.0105C30.7608 34.0905 30.3908 34.1205 30.0408 34.1205C21.9008 34.1205 13.7608 34.1205 5.63078 34.1205C3.43078 34.1205 2.05078 32.7405 2.05078 30.5505C2.05078 26.4505 2.05078 22.3405 2.05078 18.2405V17.7505C2.22078 17.7505 2.36078 17.7305 2.50078 17.7305C11.0408 17.7305 19.5708 17.7305 28.1108 17.7305C28.3508 17.7305 28.6208 17.8305 28.8208 17.9605C30.1008 18.8105 31.5008 19.2705 33.0408 19.2505C33.2208 19.2505 33.4008 19.2505 33.6108 19.2505V19.2605Z" stroke="#231F20" stroke-width="0.5" stroke-miterlimit="10"/>
<path d="M25.69 11.3501C25.58 13.2201 26.06 14.8701 27.16 16.3801H2C2.05 15.5101 2 14.6301 2.18 13.8001C2.49 12.3201 3.84 11.3601 5.43 11.3501C6.76 11.3401 8.09 11.3501 9.42 11.3501C14.66 11.3501 19.9 11.3501 25.14 11.3501H25.69V11.3501Z" stroke="#231F20" stroke-width="0.5" stroke-miterlimit="10"/>
<path d="M38.9283 11.92C38.9283 15.32 36.3483 17.9 32.9183 17.91C29.6083 17.92 26.9883 15.29 26.9883 11.97C26.9883 8.69003 29.6983 5.99003 32.9783 6.00003C36.2283 6.00003 38.9183 8.69003 38.9283 11.92V11.92ZM37.5183 11.32C37.3883 9.13003 35.1083 7.22003 32.8383 7.32003C30.5283 7.43003 28.3383 9.40003 28.4283 11.32C29.2483 11.32 30.0683 11.32 30.8883 11.32C30.9883 11.32 31.1283 11.21 31.1883 11.12C32.0583 9.64003 33.8883 9.64003 34.7483 11.12C34.8083 11.22 34.9383 11.33 35.0383 11.33C35.8583 11.35 36.6783 11.33 37.5283 11.33L37.5183 11.32ZM28.3983 12.64C28.5583 14.58 30.6883 16.67 32.3083 16.49C32.3083 15.67 32.3083 14.85 32.3083 14.03C32.3083 13.95 32.2283 13.82 32.1483 13.78C31.7183 13.56 31.3883 13.25 31.1783 12.81C31.1383 12.73 31.0183 12.65 30.9383 12.65C30.1083 12.64 29.2683 12.65 28.4083 12.65L28.3983 12.64ZM33.6283 16.52C35.4583 16.47 37.5683 14.35 37.4983 12.64C36.6683 12.64 35.8283 12.64 34.9983 12.64C34.9183 12.64 34.8283 12.74 34.7583 12.81C34.4383 13.12 34.1283 13.43 33.8183 13.75C33.7383 13.83 33.6283 13.93 33.6283 14.02C33.6183 14.84 33.6283 15.66 33.6283 16.51V16.52ZM33.6083 11.99C33.6183 11.62 33.3483 11.33 32.9883 11.32C32.6283 11.32 32.3383 11.59 32.3283 11.96C32.3283 12.32 32.5983 12.63 32.9483 12.64C33.2983 12.65 33.5983 12.35 33.6083 11.99Z" stroke="#231F20" stroke-width="0.5" stroke-miterlimit="10"/>
<path d="M15.6204 29.4896C15.3904 29.0296 15.3604 28.4696 14.9604 28.1096C14.7804 27.9496 14.5404 27.8196 14.3104 27.7396C13.9404 27.6096 13.5604 27.5196 13.2004 27.3796C12.7704 27.2096 12.3604 26.9996 11.9404 26.8096C11.8104 26.7496 11.6304 26.7096 11.5704 26.6096C11.5004 26.4996 11.5604 26.3196 11.5404 26.1796C11.5304 26.0696 11.5804 25.9996 11.6604 25.9296C12.1504 25.5296 12.4404 25.0196 12.5404 24.3896C12.5404 24.3396 12.5904 24.2796 12.6404 24.2596C12.9004 24.1496 13.0204 23.9696 13.0204 23.6796C13.0204 23.0196 13.0004 22.3496 13.0204 21.6896C13.0404 21.1696 12.7604 20.6996 12.1204 20.6596C12.1204 20.5996 12.1104 20.5396 12.0904 20.4796C12.0004 20.0796 11.6704 19.7896 11.2504 19.7896C10.4704 19.7896 9.68044 19.7796 8.90044 19.7896C8.01044 19.8096 7.27044 20.5496 7.23044 21.4396C7.23044 21.4596 7.23044 21.4796 7.23044 21.4996C7.23044 21.6396 7.32044 21.7296 7.45044 21.7296C7.57044 21.7296 7.65044 21.6396 7.66044 21.4996C7.73044 20.6896 8.25044 20.2096 9.06044 20.2096C9.76044 20.2096 10.4504 20.2096 11.1504 20.2096C11.4704 20.2096 11.6304 20.3496 11.6704 20.6696C11.7004 20.9196 11.8604 21.0696 12.1104 21.0896C12.4004 21.1096 12.5704 21.2796 12.5704 21.5696C12.5704 21.9596 12.5704 22.3496 12.5704 22.7596C12.4904 22.7596 12.4204 22.7596 12.3604 22.7596C12.1804 22.7596 12.0904 22.6696 12.0804 22.4896C12.0804 22.4096 12.0804 22.3396 12.0804 22.2596C12.0604 21.7996 11.6404 21.4596 11.2004 21.5996C10.4704 21.8196 9.75044 21.8196 9.02044 21.5996C8.58044 21.4596 8.15044 21.7896 8.14044 22.2596C8.14044 22.2896 8.14044 22.3296 8.14044 22.3596C8.17044 22.7696 7.97044 22.7996 7.65044 22.7496C7.65044 22.6696 7.65044 22.5896 7.65044 22.5096C7.65044 22.3796 7.56044 22.2996 7.44044 22.2996C7.32044 22.2996 7.22044 22.3796 7.22044 22.4996C7.22044 22.9296 7.21044 23.3596 7.22044 23.7896C7.22044 24.0096 7.36044 24.1696 7.56044 24.2396C7.66044 24.2796 7.68044 24.3296 7.70044 24.4196C7.80044 25.0396 8.10044 25.5496 8.59044 25.9396C8.66044 25.9996 8.70044 26.0596 8.70044 26.1496C8.69044 26.2996 8.74044 26.4896 8.68044 26.5996C8.61044 26.7096 8.42044 26.7496 8.29044 26.8196C7.60044 27.1996 6.87044 27.4696 6.12044 27.6796C5.40044 27.8796 4.90044 28.3996 4.75044 29.1396C4.69044 29.4396 4.73044 29.7596 4.75044 30.0596C5.89044 31.3096 7.32044 32.0796 9.02044 32.3196C11.4304 32.6596 13.5204 31.9696 15.2704 30.2796C15.4104 30.1396 15.5504 29.9896 15.6804 29.8496C15.6804 29.8496 15.7004 29.8296 15.7004 29.8196C15.7604 29.7596 15.6804 29.6596 15.6404 29.6096C15.6204 29.5696 15.6004 29.5296 15.5804 29.4896H15.6204ZM8.17044 24.3296C8.17044 24.3296 8.16044 24.2396 8.15044 24.1896C8.12044 23.9796 8.04044 23.8896 7.84044 23.8496C7.73044 23.8296 7.68044 23.7796 7.68044 23.6696C7.68044 23.5096 7.68044 23.3596 7.68044 23.1796C7.78044 23.1796 7.86044 23.1796 7.94044 23.1796C8.30044 23.1696 8.58044 22.8796 8.59044 22.5296C8.59044 22.4596 8.59044 22.3896 8.59044 22.3196C8.59044 22.0696 8.74044 21.9696 8.99044 22.0196C9.30044 22.0896 9.60044 22.1496 9.91044 22.1896C10.3704 22.2396 10.8104 22.1696 11.2504 22.0396C11.5404 21.9496 11.6704 22.0596 11.6804 22.3596C11.6804 22.4696 11.6804 22.5896 11.7104 22.6996C11.7804 22.9796 12.0304 23.1796 12.3204 23.1896C12.4004 23.1896 12.4904 23.1896 12.5904 23.1896C12.5904 23.3796 12.6004 23.5496 12.5904 23.7196C12.5904 23.7696 12.5104 23.8396 12.4604 23.8496C12.2304 23.9096 12.1704 23.9696 12.1304 24.2196C12.0004 25.1796 11.3804 25.8396 10.4704 26.0096C9.40044 26.2096 8.30044 25.4196 8.16044 24.3296H8.17044ZM9.86044 28.0896C9.68044 28.2396 9.50044 28.3896 9.33044 28.5396C9.25044 28.6096 9.19044 28.5896 9.11044 28.5096C8.96044 28.3596 8.90044 28.1896 8.91044 27.9696C8.92044 27.6996 8.92044 27.4196 9.02044 27.1396C9.31044 27.4596 9.58044 27.7796 9.86044 28.0896ZM9.16044 26.2596C9.83044 26.5296 10.4704 26.5296 11.1104 26.2696C11.1504 26.5096 11.1304 26.6996 10.9504 26.8796C10.7104 27.1296 10.5004 27.4096 10.2704 27.6696C10.2404 27.7096 10.2104 27.7396 10.1704 27.7796C9.84044 27.4096 9.51044 27.0596 9.22044 26.6896C9.15044 26.5996 9.18044 26.4196 9.17044 26.2596H9.16044ZM10.1704 28.3996C10.3004 28.5096 10.4204 28.6096 10.5604 28.7296C10.4504 28.8096 10.4504 28.9796 10.2704 28.9696C10.0704 28.9696 9.84044 29.0296 9.76044 28.7396C9.88044 28.6396 10.0204 28.5196 10.1704 28.3996ZM10.4704 28.0896C10.7404 27.7696 11.0004 27.4696 11.2604 27.1696H11.3004C11.3304 27.3496 11.3604 27.5196 11.3704 27.6996C11.3804 27.8196 11.3704 27.9496 11.3704 28.0696C11.3904 28.2796 11.2604 28.4096 11.1304 28.5296C11.1104 28.5596 11.0104 28.5496 10.9804 28.5296C10.8004 28.3896 10.6404 28.2396 10.4604 28.0896H10.4704ZM8.44044 31.7596C7.22044 31.4496 6.16044 30.8496 5.28044 29.9596C5.23044 29.9096 5.20044 29.8196 5.20044 29.7496C5.20044 29.5396 5.20044 29.3296 5.23044 29.1196C5.33044 28.6596 5.61044 28.3296 6.05044 28.1596C6.45044 28.0096 6.86044 27.8896 7.29044 27.7596C7.39044 27.9496 7.48044 28.1196 7.56044 28.2896C7.58044 28.3396 7.56044 28.4196 7.53044 28.4696C7.50044 28.5296 7.44044 28.5696 7.39044 28.6096C7.21044 28.7896 7.17044 29.0096 7.26044 29.2396C7.43044 29.6996 7.70044 30.0996 8.01044 30.4596C8.39044 30.9096 8.79044 31.3296 9.19044 31.7596C9.22044 31.7996 9.26044 31.8296 9.28044 31.9096C9.00044 31.8496 8.71044 31.8096 8.44044 31.7396V31.7596ZM7.85044 29.5096C7.81044 29.4396 7.77044 29.3696 7.74044 29.2996C7.65377 29.1196 7.68044 28.9563 7.82044 28.8096C8.04044 28.5796 8.07044 28.3596 7.93044 28.0796C7.85044 27.9296 7.77044 27.7796 7.69044 27.6096C7.97044 27.4696 8.25044 27.3296 8.55044 27.1896C8.54044 27.2796 8.53044 27.3496 8.52044 27.4096C8.42044 28.1796 8.56044 28.9296 8.79044 29.6596C8.95044 30.1896 9.16044 30.6996 9.35044 31.2196C9.37044 31.2596 9.38044 31.3096 9.40044 31.3496C8.82044 30.7896 8.27044 30.2096 7.86044 29.5096H7.85044ZM9.34044 30.0396C9.24044 29.6996 9.14044 29.3596 9.04044 28.9996C9.16044 28.9996 9.25044 28.9996 9.34044 28.9996C9.41044 28.9996 9.59044 29.1896 9.57044 29.2696C9.51044 29.5296 9.44044 29.7796 9.34044 30.0396ZM10.6404 30.8096C10.4804 31.1696 10.3204 31.5296 10.1604 31.8896C10.1404 31.8896 10.1304 31.8896 10.1104 31.8896C9.95044 31.5296 9.79044 31.1796 9.64044 30.8196C9.63044 30.7996 9.63044 30.7596 9.64044 30.7396C9.75044 30.2896 9.87044 29.8496 9.98044 29.3996H10.3104C10.4304 29.8496 10.5404 30.2996 10.6504 30.7396C10.6504 30.7596 10.6504 30.7896 10.6504 30.8096H10.6404ZM10.7704 29.1396C10.8204 29.0196 10.9104 28.9396 11.0604 28.9896C11.1104 28.9996 11.1604 28.9896 11.2504 28.9796C11.1504 29.3396 11.0504 29.6896 10.9504 30.0396C10.9404 30.0396 10.9304 30.0396 10.9104 30.0396C10.8504 29.8096 10.7904 29.5796 10.7404 29.3496C10.7304 29.2896 10.7404 29.2096 10.7704 29.1396ZM14.7604 30.1896C13.7104 31.1396 12.4804 31.6996 11.0804 31.8996C11.0504 31.8996 11.0204 31.8996 10.9604 31.8996C11.0104 31.8396 11.0504 31.8096 11.0804 31.7696C11.4604 31.3496 11.8504 30.9296 12.2304 30.5096C12.2804 30.4596 12.3204 30.3696 12.3004 30.3096C12.2904 30.2396 12.2104 30.1496 12.1604 30.1396C12.0904 30.1296 11.9804 30.1596 11.9304 30.2196C11.7604 30.3996 11.6104 30.5996 11.4404 30.7796C11.2704 30.9696 11.0904 31.1596 10.9004 31.3396C11.4104 29.9996 11.9704 28.6696 11.7504 27.1696C12.0404 27.3096 12.3104 27.4496 12.6004 27.5896C12.5204 27.7496 12.4404 27.8996 12.3604 28.0496C12.2104 28.3396 12.2504 28.5696 12.4804 28.7996C12.6804 28.9996 12.6804 28.9996 12.5604 29.2496C12.5304 29.3096 12.5004 29.3696 12.4804 29.4296C12.4504 29.5396 12.4804 29.6296 12.5804 29.6796C12.6804 29.7296 12.7804 29.7196 12.8404 29.6296C12.9604 29.4396 13.0704 29.2296 13.0804 28.9996C13.0804 28.8196 12.9904 28.6796 12.8704 28.5596C12.6804 28.3696 12.6804 28.3696 12.8004 28.1496C12.8704 28.0196 12.9204 27.8196 13.0304 27.7696C13.1304 27.7196 13.3004 27.8296 13.4404 27.8796C13.6804 27.9596 13.9204 28.0296 14.1604 28.1096C14.7404 28.2996 15.1004 28.7996 15.1004 29.4096C15.1004 29.8696 15.1004 29.8696 14.7704 30.1696L14.7604 30.1896Z" fill="#231F20"/>
<path d="M29.312 22.1699H18.582" stroke="#231F20" stroke-width="0.5" stroke-miterlimit="10" stroke-linecap="round"/>
<path d="M29.312 24.0312H18.582" stroke="#231F20" stroke-width="0.5" stroke-miterlimit="10" stroke-linecap="round"/>
<path d="M29.312 25.8809H18.582" stroke="#231F20" stroke-width="0.5" stroke-miterlimit="10" stroke-linecap="round"/>
<path d="M27.012 27.7305H18.582" stroke="#231F20" stroke-width="0.5" stroke-miterlimit="10" stroke-linecap="round"/>
<path d="M29.312 29.5898H18.582" stroke="#231F20" stroke-width="0.5" stroke-miterlimit="10" stroke-linecap="round"/>
</svg>
