<svg width="19" height="15" viewBox="0 0 19 15" fill="none" xmlns="http://www.w3.org/2000/svg">
<path d="M17.7227 2.95117V11.2845C17.7227 11.837 17.5038 12.3669 17.1141 12.7576C16.7243 13.1483 16.1958 13.3678 15.6446 13.3678H3.17579C2.62463 13.3678 2.09605 13.1483 1.70633 12.7576C1.3166 12.3669 1.09766 11.837 1.09766 11.2845V2.95117" stroke="#212121" stroke-opacity="0.8" stroke-width="1.4" stroke-linecap="round" stroke-linejoin="round"/>
<path d="M17.7227 2.95052C17.7227 2.39799 17.5038 1.86808 17.1141 1.47738C16.7243 1.08668 16.1958 0.867188 15.6446 0.867188H3.17579C2.62463 0.867188 2.09605 1.08668 1.70633 1.47738C1.3166 1.86808 1.09766 2.39799 1.09766 2.95052L8.30878 7.46441C8.63906 7.67135 9.02071 7.78108 9.41019 7.78108C9.79968 7.78108 10.1813 7.67135 10.5116 7.46441L17.7227 2.95052Z" stroke="#212121" stroke-opacity="0.8" stroke-width="1.4" stroke-linecap="round" stroke-linejoin="round"/>
</svg>
