<svg width="272" height="38" viewBox="0 0 272 38" fill="none" xmlns="http://www.w3.org/2000/svg">
<path d="M159.351 1.27061V19.5036H155.166V1.27061H159.351Z" fill="#322F3B"/>
<path d="M163.009 10.4943C163.009 8.84428 162.954 7.43679 162.9 6.27351H166.511L166.703 8.08691H166.785C167.332 7.24869 168.699 5.9765 170.916 5.9765C173.651 5.9765 175.704 7.76185 175.704 11.6576V19.5019H171.545V12.1708C171.545 10.4663 170.943 9.303 169.44 9.303C168.29 9.303 167.606 10.0884 167.334 10.8458C167.224 11.09 167.169 11.4959 167.169 11.8738V19.5019H163.011V10.4943H163.009Z" fill="#322F3B"/>
<path d="M179.62 19.5036V9.30462H177.87V6.27513H179.62V5.76196C179.62 4.16637 180.113 2.40742 181.317 1.32499C182.357 0.35146 183.807 0 185.01 0C185.94 0 186.652 0.108903 187.226 0.270608L187.063 3.4354C186.707 3.3265 186.268 3.24564 185.721 3.24564C184.354 3.24564 183.779 4.30167 183.779 5.59861V6.27513H186.46V9.30462H183.807V19.5036H179.622H179.62Z" fill="#322F3B"/>
<path d="M201.533 12.74C201.533 17.5829 198.059 19.8005 194.475 19.8005C190.564 19.8005 187.554 17.2578 187.554 12.9842C187.554 8.71055 190.399 5.97807 194.694 5.97807C198.989 5.97807 201.532 8.765 201.532 12.7416L201.533 12.74ZM191.849 12.8753C191.849 15.1474 192.807 16.8519 194.584 16.8519C196.197 16.8519 197.237 15.2563 197.237 12.8753C197.237 10.9002 196.471 8.89866 194.584 8.89866C192.586 8.89866 191.849 10.9282 191.849 12.8753Z" fill="#322F3B"/>
<path d="M204.494 15.2563C205.615 15.8239 207.339 16.3915 209.118 16.3915C211.033 16.3915 212.045 15.6077 212.045 14.4164C212.045 13.2251 211.169 12.6311 208.953 11.8456C205.889 10.7913 203.892 9.11317 203.892 6.46319C203.892 3.35286 206.518 0.97184 210.867 0.97184C212.946 0.97184 214.477 1.40415 215.572 1.89092L214.643 5.21906C213.903 4.8676 212.592 4.35279 210.785 4.35279C208.978 4.35279 208.103 5.16461 208.103 6.11174C208.103 7.27502 209.143 7.78983 211.524 8.68251C214.779 9.87219 216.311 11.5503 216.311 14.1194C216.311 17.1769 213.932 19.7725 208.871 19.7725C206.765 19.7725 204.686 19.2313 203.646 18.6636L204.494 15.2546V15.2563Z" fill="#322F3B"/>
<path d="M222.489 14.2003C222.626 15.9048 224.323 16.7166 226.263 16.7166C227.686 16.7166 228.835 16.5268 229.957 16.1754L230.505 18.9623C229.138 19.5035 227.47 19.7741 225.662 19.7741C221.122 19.7741 218.522 17.1769 218.522 13.0386C218.522 9.68408 220.628 5.97807 225.28 5.97807C229.602 5.97807 231.244 9.30622 231.244 12.5783C231.244 13.2812 231.162 13.9033 231.107 14.2019H222.49L222.489 14.2003ZM227.386 11.3869C227.386 10.3853 226.947 8.7089 225.033 8.7089C223.283 8.7089 222.571 10.2781 222.462 11.3869H227.386Z" fill="#322F3B"/>
<path d="M233.847 10.6296C233.847 8.68093 233.792 7.41039 233.738 6.27351H237.322L237.459 8.70898H237.568C238.252 6.78832 239.894 5.9765 241.179 5.9765C241.561 5.9765 241.753 5.9765 242.055 6.03095V9.89866C241.753 9.84421 241.397 9.79141 240.933 9.79141C239.402 9.79141 238.362 10.6032 238.088 11.8738C238.033 12.1444 238.007 12.4694 238.007 12.7928V19.5019H233.848V10.6296H233.847Z" fill="#322F3B"/>
<path d="M247.941 6.27515L249.747 12.4166C250.075 13.5255 250.321 14.5815 250.513 15.6359H250.594C250.813 14.5534 251.033 13.5535 251.334 12.4166L253.057 6.27515H257.434L252.455 19.5036H248.297L243.428 6.27515H247.941Z" fill="#322F3B"/>
<path d="M262.25 14.2003C262.386 15.9048 264.083 16.7166 266.024 16.7166C267.447 16.7166 268.595 16.5268 269.718 16.1754L270.266 18.9623C268.899 19.5035 267.23 19.7741 265.423 19.7741C260.883 19.7741 258.283 17.1769 258.283 13.0386C258.283 9.68408 260.389 5.97807 265.041 5.97807C269.363 5.97807 271.005 9.30622 271.005 12.5783C271.005 13.2812 270.923 13.9033 270.868 14.2019H262.251L262.25 14.2003ZM267.147 11.3869C267.147 10.3853 266.708 8.7089 264.794 8.7089C263.044 8.7089 262.331 10.2781 262.223 11.3869H267.147Z" fill="#322F3B"/>
<path d="M49.5977 0.97345H60.8691V4.35439H53.7842V8.52076H60.4036V11.8753H53.7842V19.2065H49.5993V0.97345H49.5977Z" fill="#322F3B"/>
<path d="M76.7062 12.4429C76.7062 17.2858 73.2322 19.5035 69.648 19.5035C65.7367 19.5035 62.7266 16.9608 62.7266 12.6871C62.7266 8.41352 65.5715 5.68105 69.8666 5.68105C74.1616 5.68105 76.7062 8.46797 76.7062 12.4446V12.4429ZM67.0216 12.5782C67.0216 14.8504 67.9777 16.5549 69.7564 16.5549C71.37 16.5549 72.4095 14.9593 72.4095 12.5782C72.4095 10.6031 71.6436 8.60163 69.7564 8.60163C67.7591 8.60163 67.0216 10.6312 67.0216 12.5782Z" fill="#322F3B"/>
<path d="M79.6124 10.3325C79.6124 8.38381 79.5573 7.11327 79.5039 5.97639H83.0881L83.2249 8.41186H83.3334C84.0175 6.4912 85.6594 5.67938 86.9443 5.67938C87.3264 5.67938 87.5183 5.67938 87.8203 5.73383V9.60154C87.5183 9.54709 87.1628 9.49429 86.699 9.49429C85.1672 9.49429 84.1276 10.3061 83.854 11.5767C83.7989 11.8473 83.7722 12.1723 83.7722 12.4957V19.2048H79.614V10.3325H79.6124Z" fill="#322F3B"/>
<path d="M95.5544 2.18951V5.97637H98.5362V9.00586H95.5544V13.7943C95.5544 15.3899 95.9382 16.1209 97.1963 16.1209C97.7152 16.1209 98.1257 16.0664 98.4277 16.012L98.4545 19.1223C97.9071 19.3385 96.9227 19.4738 95.7463 19.4738C94.4047 19.4738 93.2834 19.0134 92.6276 18.3369C91.8617 17.5531 91.478 16.2809 91.478 14.4147V9.00421H89.6992V5.97472H91.478V3.10694L95.5544 2.18786V2.18951Z" fill="#322F3B"/>
<path d="M113.892 14.9593C113.892 16.6902 113.947 18.0976 114.002 19.2065H110.392L110.2 17.3403H110.118C109.599 18.1521 108.341 19.5051 105.933 19.5051C103.225 19.5051 101.228 17.827 101.228 13.7432V5.97971H105.412V13.0947C105.412 15.0154 106.041 16.1786 107.492 16.1786C108.641 16.1786 109.297 15.3949 109.571 14.7448C109.681 14.5005 109.707 14.1771 109.707 13.8521V5.97971H113.892V14.9609V14.9593Z" fill="#322F3B"/>
<path d="M117.562 10.1972C117.562 8.54716 117.507 7.13967 117.453 5.97639H121.064L121.256 7.78979H121.338C121.885 6.95157 123.253 5.67938 125.469 5.67938C128.204 5.67938 130.256 7.46473 130.256 11.3605V19.2048H126.098V11.8737C126.098 10.1692 125.496 9.00588 123.992 9.00588C122.843 9.00588 122.159 9.7913 121.887 10.5487C121.778 10.7929 121.723 11.1988 121.723 11.5767V19.2048H117.565V10.1972H117.562Z" fill="#322F3B"/>
<path d="M137.116 13.9032C137.253 15.6077 138.95 16.4195 140.89 16.4195C142.313 16.4195 143.461 16.2298 144.584 15.8783L145.132 18.6653C143.765 19.2065 142.095 19.4771 140.289 19.4771C135.749 19.4771 133.149 16.8799 133.149 12.7416C133.149 9.38705 135.255 5.68105 139.907 5.68105C144.229 5.68105 145.871 9.00919 145.871 12.2812C145.871 12.9842 145.789 13.6062 145.734 13.9049H137.117L137.116 13.9032ZM142.013 11.0899C142.013 10.0883 141.574 8.41187 139.66 8.41187C137.91 8.41187 137.197 9.98107 137.089 11.0899H142.013Z" fill="#322F3B"/>
<path d="M135.897 29.2536H140.503V29.7536H136.485V32.9068H139.859V33.4068H136.485V37.0765H140.63V37.5765H135.897V29.2536Z" fill="#322F3B"/>
<path d="M143.466 31.5126H143.943L144.005 32.4515H144.033C144.659 31.836 145.298 31.3608 146.142 31.3608C147.409 31.3608 147.996 32.1215 147.996 33.6874V37.5765H147.432V33.76C147.432 32.4746 147.022 31.8624 146.035 31.8624C145.305 31.8624 144.776 32.2436 144.03 33.001V37.5749H143.466V31.511V31.5126Z" fill="#322F3B"/>
<path d="M150.808 34.5553C150.808 32.5983 152.064 31.3608 153.527 31.3608C154.263 31.3608 154.764 31.6363 155.376 32.1066L155.346 30.9928V28.493H155.91V37.5781H155.433L155.371 36.7927H155.343C154.841 37.2894 154.158 37.7299 153.344 37.7299C151.805 37.7299 150.808 36.603 150.808 34.5569V34.5553ZM155.346 36.2334V32.6363C154.7 32.067 154.162 31.8558 153.557 31.8558C152.339 31.8558 151.398 33.0323 151.398 34.5536C151.398 36.1674 152.124 37.2333 153.424 37.2333C154.101 37.2333 154.7 36.8818 155.345 36.2334H155.346Z" fill="#322F3B"/>
<path d="M159.324 36.7631V28.4914H159.888V36.839C159.888 37.1096 160 37.235 160.154 37.235C160.207 37.235 160.259 37.235 160.384 37.2102L160.479 37.6656C160.364 37.6986 160.259 37.7283 160.073 37.7283C159.581 37.7283 159.326 37.428 159.326 36.7631H159.324Z" fill="#322F3B"/>
<path d="M162.895 34.5553C162.895 32.5769 164.194 31.3608 165.568 31.3608C167.021 31.3608 167.915 32.3838 167.915 34.1675C167.915 34.3193 167.91 34.4711 167.884 34.623H163.474C163.494 36.1542 164.401 37.2482 165.783 37.2482C166.447 37.2482 166.971 37.0304 167.43 36.7103L167.663 37.1343C167.181 37.433 166.629 37.73 165.73 37.73C164.164 37.73 162.895 36.5403 162.895 34.5569V34.5553ZM167.385 34.1609C167.385 32.6132 166.674 31.8426 165.574 31.8426C164.536 31.8426 163.6 32.7122 163.472 34.1609H167.385Z" fill="#322F3B"/>
<path d="M169.877 36.8901L170.204 36.4842C170.723 36.9132 171.282 37.2514 172.153 37.2514C173.117 37.2514 173.62 36.6937 173.62 36.0552C173.62 35.2945 172.825 34.9612 172.118 34.7087C171.193 34.3837 170.164 34.0108 170.164 32.9762C170.164 32.1016 170.863 31.3624 172.141 31.3624C172.797 31.3624 173.446 31.6314 173.893 31.9911L173.59 32.3921C173.176 32.0868 172.74 31.8393 172.126 31.8393C171.17 31.8393 170.736 32.3838 170.736 32.9432C170.736 33.6345 171.459 33.8985 172.19 34.1708C173.139 34.5289 174.192 34.8374 174.192 36.0189C174.192 36.933 173.453 37.7283 172.126 37.7283C171.217 37.7283 170.428 37.3521 169.879 36.8901H169.877Z" fill="#322F3B"/>
<path d="M176.104 36.8901L176.431 36.4842C176.949 36.9132 177.507 37.2514 178.38 37.2514C179.344 37.2514 179.846 36.6937 179.846 36.0552C179.846 35.2945 179.052 34.9612 178.344 34.7087C177.42 34.3837 176.391 34.0108 176.391 32.9762C176.391 32.1016 177.09 31.3624 178.368 31.3624C179.024 31.3624 179.673 31.6314 180.12 31.9911L179.816 32.3921C179.402 32.0868 178.967 31.8393 178.353 31.8393C177.397 31.8393 176.963 32.3838 176.963 32.9432C176.963 33.6345 177.685 33.8985 178.416 34.1708C179.367 34.5289 180.419 34.8374 180.419 36.0189C180.419 36.933 179.679 37.7283 178.353 37.7283C177.443 37.7283 176.654 37.3521 176.105 36.8901H176.104Z" fill="#322F3B"/>
<path d="M185.849 29.4053H187.97C189.875 29.4053 191.02 30.0159 191.02 31.7237C191.02 33.4315 189.896 34.1492 188.022 34.1492H186.438V37.7282H185.851V29.4053H185.849ZM187.871 33.6592C189.59 33.6592 190.413 33.0932 190.413 31.7237C190.413 30.3541 189.56 29.8954 187.82 29.8954H186.436V33.6592H187.871Z" fill="#322F3B"/>
<path d="M192.884 34.707C192.884 32.6791 194.164 31.5125 195.637 31.5125C197.111 31.5125 198.391 32.6791 198.391 34.707C198.391 36.7349 197.111 37.8801 195.637 37.8801C194.164 37.8801 192.884 36.7135 192.884 34.707ZM197.798 34.707C197.798 33.1114 196.876 32.0043 195.637 32.0043C194.399 32.0043 193.477 33.1098 193.477 34.707C193.477 36.3043 194.399 37.3867 195.637 37.3867C196.876 37.3867 197.798 36.3026 197.798 34.707Z" fill="#322F3B"/>
<path d="M200.372 37.0418L200.699 36.6359C201.218 37.0649 201.775 37.4031 202.648 37.4031C203.613 37.4031 204.115 36.8454 204.115 36.2068C204.115 35.4462 203.321 35.1129 202.613 34.8604C201.689 34.5353 200.659 34.1624 200.659 33.1279C200.659 32.2533 201.358 31.5141 202.636 31.5141C203.292 31.5141 203.941 31.7831 204.388 32.1428L204.085 32.5437C203.671 32.2385 203.235 31.991 202.621 31.991C201.665 31.991 201.231 32.5355 201.231 33.0949C201.231 33.7862 201.954 34.0502 202.685 34.3225C203.636 34.6806 204.687 34.9891 204.687 36.1705C204.687 37.0847 203.948 37.88 202.621 37.88C201.712 37.88 200.923 37.5038 200.374 37.0418H200.372Z" fill="#322F3B"/>
<path d="M206.462 37.0418L206.789 36.6359C207.308 37.0649 207.867 37.4031 208.738 37.4031C209.704 37.4031 210.205 36.8454 210.205 36.2068C210.205 35.4462 209.41 35.1129 208.703 34.8604C207.778 34.5353 206.749 34.1624 206.749 33.1279C206.749 32.2533 207.448 31.5141 208.726 31.5141C209.382 31.5141 210.031 31.7831 210.478 32.1428L210.175 32.5437C209.761 32.2385 209.325 31.991 208.711 31.991C207.755 31.991 207.321 32.5355 207.321 33.0949C207.321 33.7862 208.044 34.0502 208.775 34.3225C209.724 34.6806 210.777 34.9891 210.777 36.1705C210.777 37.0847 210.039 37.88 208.711 37.88C207.802 37.88 207.013 37.5038 206.464 37.0418H206.462Z" fill="#322F3B"/>
<path d="M213.091 29.7041C213.091 29.3906 213.326 29.2091 213.605 29.2091C213.883 29.2091 214.119 29.3906 214.119 29.7041C214.119 29.9945 213.883 30.1991 213.605 30.1991C213.326 30.1991 213.091 29.9945 213.091 29.7041ZM213.311 31.6644H213.875V37.7283H213.311V31.6644Z" fill="#322F3B"/>
<path d="M217.721 37.1145H217.692L217.629 37.7283H217.158V28.6431H217.722V31.2799L217.694 32.4613C218.313 31.9432 219.059 31.5109 219.805 31.5109C221.45 31.5109 222.261 32.7286 222.261 34.6031C222.261 36.6623 221.004 37.8784 219.559 37.8784C218.974 37.8784 218.296 37.5781 217.721 37.1128V37.1145ZM221.668 34.6097C221.668 33.1197 221.133 32.0076 219.718 32.0076C219.11 32.0076 218.44 32.3607 217.722 33.0075V36.6046C218.391 37.1739 219.064 37.3851 219.528 37.3851C220.774 37.3851 221.668 36.2531 221.668 34.6097Z" fill="#322F3B"/>
<path d="M224.778 29.7041C224.778 29.3906 225.014 29.2091 225.292 29.2091C225.571 29.2091 225.806 29.3906 225.806 29.7041C225.806 29.9945 225.571 30.1991 225.292 30.1991C225.014 30.1991 224.778 29.9945 224.778 29.7041ZM224.999 31.6644H225.563V37.7283H224.999V31.6644Z" fill="#322F3B"/>
<path d="M228.837 36.9148V28.6431H229.401V36.9907C229.401 37.2613 229.513 37.3867 229.667 37.3867C229.72 37.3867 229.772 37.3867 229.895 37.362L229.99 37.8174C229.875 37.8504 229.77 37.8801 229.585 37.8801C229.093 37.8801 228.837 37.5798 228.837 36.9148Z" fill="#322F3B"/>
<path d="M232.59 29.4961H234.472V37.7265H232.59V29.4961Z" fill="#322F3B"/>
<path d="M238.981 31.0571H236.69V29.4961H243.155V31.0571H240.864V37.7282H238.981V31.0571Z" fill="#322F3B"/>
<path d="M245.345 29.7041C245.345 29.3906 245.58 29.2091 245.859 29.2091C246.137 29.2091 246.373 29.3906 246.373 29.7041C246.373 29.9945 246.137 30.1991 245.859 30.1991C245.58 30.1991 245.345 29.9945 245.345 29.7041ZM245.565 31.6644H246.129V37.7283H245.565V31.6644Z" fill="#322F3B"/>
<path d="M248.891 34.707C248.891 32.7286 250.19 31.5125 251.565 31.5125C253.019 31.5125 253.913 32.5356 253.913 34.3193C253.913 34.4711 253.908 34.6229 253.881 34.7747H249.471C249.491 36.3059 250.399 37.3999 251.781 37.3999C252.445 37.3999 252.969 37.1821 253.428 36.862L253.661 37.2861C253.179 37.5847 252.627 37.8817 251.727 37.8817C250.162 37.8817 248.892 36.692 248.892 34.7087L248.891 34.707ZM253.381 34.3127C253.381 32.7649 252.67 31.9944 251.569 31.9944C250.533 31.9944 249.595 32.8639 249.466 34.3127H253.379H253.381Z" fill="#322F3B"/>
<path d="M255.731 37.0418L256.058 36.6359C256.577 37.0649 257.134 37.4031 258.007 37.4031C258.971 37.4031 259.474 36.8454 259.474 36.2068C259.474 35.4462 258.679 35.1129 257.972 34.8604C257.047 34.5353 256.018 34.1624 256.018 33.1279C256.018 32.2533 256.717 31.5141 257.995 31.5141C258.651 31.5141 259.3 31.7831 259.747 32.1428L259.444 32.5437C259.03 32.2385 258.594 31.991 257.98 31.991C257.024 31.991 256.59 32.5355 256.59 33.0949C256.59 33.7862 257.313 34.0502 258.044 34.3225C258.993 34.6806 260.046 34.9891 260.046 36.1705C260.046 37.0847 259.307 37.88 257.98 37.88C257.071 37.88 256.282 37.5038 255.733 37.0418H255.731Z" fill="#322F3B"/>
<path d="M262.264 37.3157C262.264 36.9461 262.524 36.7299 262.806 36.7299C263.088 36.7299 263.349 36.9461 263.349 37.3157C263.349 37.6622 263.087 37.8784 262.806 37.8784C262.526 37.8784 262.264 37.6606 262.264 37.3157Z" fill="#322F3B"/>
<path d="M265.982 37.3157C265.982 36.9461 266.243 36.7299 266.525 36.7299C266.807 36.7299 267.067 36.9461 267.067 37.3157C267.067 37.6622 266.805 37.8784 266.525 37.8784C266.244 37.8784 265.982 37.6606 265.982 37.3157Z" fill="#322F3B"/>
<path d="M269.694 37.3157C269.694 36.9461 269.955 36.7299 270.237 36.7299C270.519 36.7299 270.779 36.9461 270.779 37.3157C270.779 37.6622 270.517 37.8784 270.237 37.8784C269.956 37.8784 269.694 37.6606 269.694 37.3157Z" fill="#322F3B"/>
<path d="M8.59198 13.6389L6.43112 20.5526H14.2853C14.2853 20.5526 15.1213 25.7882 10.359 32.1096H4.29696L3.19902 36.7511C3.19902 36.7511 2.00095 36.7511 1.60049 36.7511C0.676073 36.7528 0.00195312 35.6654 0.00195312 35.6654V2.478C0.00195312 2.478 0.701102 0.00952911 2.0994 0.00952911H23.174C23.174 0.00952911 15.782 7.41659 16.0824 13.6406H8.59198V13.6389Z" fill="#322F3B"/>
<path d="M32.9123 20.3237L33.6582 14.1096H25.804C25.804 14.1096 24.968 10.9729 29.7303 4.65154H35.7923L36.8903 0.00995824C36.8903 0.00995824 41.6258 0.00995824 42.0263 0.00995824C42.9507 0.00830819 43.6248 1.09569 43.6248 1.09569V34.2831C43.6248 34.2831 42.9257 36.7516 41.5274 36.7516H17.7129C17.7129 36.7516 23.1726 26.6434 24.7127 20.322H32.9106L32.9123 20.3237Z" fill="#322F3B"/>
</svg>
