<svg width="129" height="52" viewBox="0 0 129 52" fill="none" xmlns="http://www.w3.org/2000/svg">
<path d="M24.0505 41.7557C24.0505 44.6018 22.9907 46.7886 20.8711 48.3158C18.7857 49.8777 15.914 50.6587 12.256 50.6587C8.22194 50.6587 5.2135 49.9818 3.23066 48.6282C1.24782 47.3092 0.170934 45.6605 0 43.682L5.48699 42.7969C5.35024 44.6366 5.77758 46.0944 6.769 47.1704C7.79461 48.2811 9.6236 48.8364 12.256 48.8364C14.7174 48.8364 16.7003 48.3678 18.2045 47.4307C19.7429 46.4935 20.5121 45.1398 20.5121 43.3697C20.5121 42.1201 20.0506 41.1656 19.1276 40.5061C18.2387 39.8813 16.7516 39.569 14.6662 39.569H8.82021C7.00831 39.569 5.57246 39.3086 4.51267 38.788C3.48706 38.2673 2.76914 37.6252 2.35889 36.8616C1.94865 36.0633 1.74353 35.2476 1.74353 34.4146C1.74353 33.408 2.01703 32.4188 2.56402 31.4469C3.111 30.4403 4.05114 29.4511 5.38443 28.4792C3.9144 27.8198 2.71786 26.8479 1.79481 25.5636C0.871765 24.2794 0.410242 22.6827 0.410242 20.7737C0.410242 18.83 0.854672 17.2333 1.74353 15.9838C2.63239 14.6995 3.82893 13.745 5.33315 13.1202C6.83737 12.4608 8.51253 12.131 10.3586 12.131H11.2304C13.2132 12.131 14.9226 12.4608 16.3584 13.1202L23.7428 9.42366L24.3581 14.526H18.5122C19.3327 15.2549 19.9651 16.14 20.4096 17.1813C20.8882 18.1878 21.1275 19.3853 21.1275 20.7737C21.1275 22.648 20.6831 24.2273 19.7942 25.5116C18.9053 26.7958 17.7088 27.7677 16.2046 28.4272C14.7345 29.0867 13.0765 29.4164 11.2304 29.4164H10.3586C9.33302 29.4164 8.3245 29.3123 7.33308 29.104C6.47841 29.6941 5.88014 30.2668 5.53827 30.8221C5.23059 31.3428 5.07675 31.8461 5.07675 32.332C5.07675 32.8874 5.31606 33.3039 5.79467 33.5815C6.30748 33.8592 7.12796 33.9981 8.25613 33.9981H14.9226C17.8626 33.9981 20.119 34.6749 21.6916 36.0286C23.2642 37.3475 24.0505 39.2566 24.0505 41.7557ZM11.2304 27.5941C12.3244 27.5941 13.2645 27.1082 14.0508 26.1363C14.8371 25.1645 15.2302 23.3769 15.2302 20.7737C15.2302 18.1705 14.8371 16.3829 14.0508 15.4111C13.2645 14.4392 12.3244 13.9533 11.2304 13.9533H10.3586C9.26464 13.9533 8.30741 14.4392 7.48692 15.4111C6.70063 16.3829 6.30748 18.1705 6.30748 20.7737C6.30748 23.3769 6.70063 25.1645 7.48692 26.1363C8.30741 27.1082 9.26464 27.5941 10.3586 27.5941H11.2304Z" fill="black"/>
<path d="M33.19 8.17411C32.1302 8.17411 31.2755 7.84437 30.626 7.18489C29.9764 6.4907 29.6516 5.6056 29.6516 4.5296C29.6516 3.45361 29.9764 2.58587 30.626 1.92638C31.2755 1.2669 32.1302 0.93716 33.19 0.93716C34.2156 0.93716 35.0703 1.2669 35.754 1.92638C36.4377 2.58587 36.7796 3.45361 36.7796 4.5296C36.7796 5.6056 36.4377 6.4907 35.754 7.18489C35.0703 7.84437 34.2156 8.17411 33.19 8.17411ZM26.3184 14.1095V12.6517H36.1642V34.6749C36.1642 35.855 36.2155 36.5666 36.3181 36.8095C36.4206 37.0178 36.7454 37.1566 37.2924 37.2261L40.1128 37.5905V39.0483H26.3184V37.5905L29.1388 37.2261C29.6858 37.1566 30.0106 37.0178 30.1132 36.8095C30.2157 36.5666 30.267 35.855 30.267 34.6749V17.0251C30.267 15.8449 30.2157 15.1507 30.1132 14.9425C30.0106 14.6995 29.6858 14.5433 29.1388 14.4739L26.3184 14.1095Z" fill="black"/>
<path d="M63.6549 17.0251L56.3731 39.0483H51.7066L44.4248 17.0251C44.1855 16.2267 43.9803 15.6714 43.8094 15.359C43.6726 15.0119 43.5017 14.7863 43.2966 14.6822C43.1257 14.578 42.8522 14.5086 42.4761 14.4739L39.6557 14.1095V12.6517H53.5014V14.1095L50.681 14.4739C50.1682 14.5433 49.8947 14.6822 49.8605 14.8904C49.8263 15.0987 49.9972 15.8102 50.3733 17.0251L56.0141 34.3104L61.7062 17.0251C62.0823 15.8102 62.2532 15.0987 62.219 14.8904C62.219 14.6822 61.9455 14.5433 61.3985 14.4739L58.5781 14.1095V12.6517H68.3727V14.1095L65.5522 14.4739C65.2104 14.5086 64.9369 14.578 64.7318 14.6822C64.5608 14.7863 64.407 15.0119 64.2702 15.359C64.1335 15.6714 63.9284 16.2267 63.6549 17.0251Z" fill="black"/>
<path d="M97.2335 37.7467V39.0483H86.2595V37.7467L89.0799 37.4864C89.6269 37.417 89.9517 37.2781 90.0542 37.0699C90.1568 36.8616 90.2081 36.1501 90.2081 34.9352V15.2549H77.388V34.9352C77.388 36.1501 77.4393 36.8616 77.5418 37.0699C77.6444 37.2781 77.9692 37.417 78.5162 37.4864L81.3366 37.7467V39.0483H70.3626V37.7467L73.183 37.4864C73.73 37.417 74.0548 37.2781 74.1573 37.0699C74.2599 36.8616 74.3112 36.1501 74.3112 34.9352V17.806C74.3112 16.5912 74.2599 15.8796 74.1573 15.6714C74.0889 15.4284 73.7642 15.2896 73.183 15.2549L70.3626 14.9946V13.6929H74.3112V11.4021C74.3112 9.38895 74.6359 7.53199 75.2855 5.83122C75.935 4.09574 76.9948 2.69 78.4649 1.614C79.9349 0.537999 81.9177 0 84.4134 0C87.5244 0 89.832 0.815677 91.3362 2.44703C92.8404 4.04367 93.4045 6.09154 93.0285 8.59063L90.1055 9.05921C90.7892 4.06103 88.8919 1.56193 84.4134 1.56193C83.0459 1.56193 81.8323 1.82226 80.7725 2.3429C79.7127 2.82883 78.8751 3.74864 78.2598 5.10231C77.6786 6.45599 77.388 8.38237 77.388 10.8815V13.6929H93.2849V34.9352C93.2849 36.1501 93.3362 36.8616 93.4387 37.0699C93.5413 37.2781 93.8661 37.417 94.413 37.4864L97.2335 37.7467Z" fill="black"/>
<path d="M129 37.7467V39.0483H118.026V37.7467L120.846 37.4864C121.393 37.417 121.718 37.2781 121.821 37.0699C121.923 36.8616 121.975 36.1501 121.975 34.9352V22.0753C121.975 19.4027 121.53 17.5457 120.641 16.5044C119.752 15.4631 118.488 14.9425 116.847 14.9425C115.547 14.9425 114.18 15.2722 112.744 15.9317C111.308 16.5912 109.855 17.8407 108.385 19.6803V34.9352C108.385 36.1501 108.437 36.8616 108.539 37.0699C108.642 37.2781 108.966 37.417 109.513 37.4864L112.334 37.7467V39.0483H101.36V37.7467L104.18 37.4864C104.727 37.417 105.052 37.2781 105.155 37.0699C105.257 36.8616 105.309 36.1501 105.309 34.9352V17.806C105.309 16.5912 105.257 15.8796 105.155 15.6714C105.052 15.4284 104.727 15.2896 104.18 15.2549L101.36 14.9946V13.6929H108.18V17.754C109.582 16.1226 111.052 14.9598 112.59 14.2656C114.163 13.5367 115.735 13.1723 117.308 13.1723C119.838 13.1723 121.752 13.9533 123.051 15.5152C124.385 17.0424 125.051 19.2118 125.051 22.0232V34.9352C125.051 36.1501 125.103 36.8616 125.205 37.0699C125.308 37.2781 125.633 37.417 126.18 37.4864L129 37.7467Z" fill="black"/>
<path d="M75.8864 51.7488V51.9302H74.2644V51.7488L74.6424 51.7069C74.7158 51.6976 74.7593 51.679 74.773 51.6511C74.7868 51.6232 74.7936 51.5278 74.7936 51.365V48.6995H73.1923V51.365C73.1923 51.5278 73.1992 51.6232 73.2129 51.6511C73.2267 51.679 73.2702 51.6976 73.3435 51.7069L73.7215 51.7488V51.9302H72.0996V51.7488L72.4776 51.7069C72.5509 51.6976 72.5944 51.679 72.6081 51.6511C72.6219 51.6232 72.6288 51.5278 72.6288 51.365V49.0415C72.6288 48.8786 72.6219 48.7833 72.6081 48.7554C72.599 48.7275 72.5555 48.7089 72.4776 48.6995L72.0996 48.6647V48.4763H72.6288V48.1972C72.6288 47.9366 72.6723 47.6924 72.7593 47.4645C72.851 47.2366 72.9999 47.0528 73.2061 46.9133C73.4168 46.7691 73.6986 46.6969 74.0514 46.6969C74.3446 46.6969 74.5898 46.7481 74.7868 46.8505C74.9884 46.9481 75.135 47.083 75.2266 47.2552C75.3183 47.4226 75.3457 47.611 75.3091 47.8204L74.773 47.8971C74.8601 47.2459 74.6195 46.9202 74.0514 46.9202C73.8819 46.9202 73.733 46.9551 73.6047 47.0249C73.4764 47.09 73.3756 47.2086 73.3023 47.3808C73.229 47.5482 73.1923 47.7878 73.1923 48.0995V48.4763H75.3572V51.365C75.3572 51.5278 75.3641 51.6232 75.3778 51.6511C75.3916 51.679 75.4351 51.6976 75.5084 51.7069L75.8864 51.7488Z" fill="#322F3B"/>
<path d="M80.1696 51.7488V51.9302H78.5477V51.7488L78.9257 51.7069C78.999 51.6976 79.0425 51.679 79.0563 51.6511C79.07 51.6232 79.0769 51.5278 79.0769 51.365V49.6276C79.0769 49.2833 79.0219 49.0415 78.9119 48.9019C78.802 48.7577 78.6439 48.6856 78.4377 48.6856C78.2865 48.6856 78.1193 48.7321 77.936 48.8251C77.7528 48.9182 77.581 49.0996 77.4206 49.3694V51.365C77.4206 51.5278 77.4275 51.6232 77.4412 51.6511C77.455 51.679 77.4985 51.6976 77.5718 51.7069L77.9498 51.7488V51.9302H76.3278V51.7488L76.7058 51.7069C76.7791 51.6976 76.8227 51.679 76.8364 51.6511C76.8502 51.6232 76.857 51.5278 76.857 51.365V49.0415C76.857 48.8786 76.8502 48.7833 76.8364 48.7554C76.8227 48.7275 76.7791 48.7089 76.7058 48.6995L76.3278 48.6647V48.4763H77.3862V49.0415C77.5512 48.8182 77.7367 48.6577 77.9429 48.56C78.1537 48.4577 78.3644 48.4065 78.5752 48.4065C78.9142 48.4065 79.1754 48.5135 79.3587 48.7275C79.5465 48.9368 79.6404 49.2345 79.6404 49.6206V51.365C79.6404 51.5278 79.6473 51.6232 79.6611 51.6511C79.6748 51.679 79.7183 51.6976 79.7916 51.7069L80.1696 51.7488Z" fill="#322F3B"/>
<path d="M83.4011 51.9791C83.0437 51.9791 82.8329 51.8116 82.7688 51.4767C82.6084 51.6627 82.432 51.7976 82.2396 51.8814C82.0471 51.9605 81.857 52 81.6692 52C81.3484 52 81.1125 51.9093 80.9613 51.7279C80.8101 51.5465 80.7345 51.3278 80.7345 51.072C80.7345 50.7975 80.8261 50.5812 81.0094 50.423C81.1972 50.2602 81.5203 50.1788 81.9784 50.1788H82.755V49.6136C82.755 49.2415 82.6909 48.9856 82.5626 48.8461C82.4389 48.7019 82.2694 48.6298 82.054 48.6298C81.9166 48.6298 81.7929 48.6577 81.6829 48.7135C81.5729 48.7693 81.4928 48.8717 81.4424 49.0205C81.3965 49.1647 81.392 49.3764 81.4286 49.6555L80.8857 49.5718C80.8628 49.3531 80.8903 49.1577 80.9681 48.9856C81.0506 48.8089 81.1835 48.6693 81.3668 48.567C81.5546 48.46 81.7883 48.4065 82.0678 48.4065C82.4022 48.4065 82.6588 48.4646 82.8375 48.5809C83.0162 48.6926 83.1399 48.8391 83.2086 49.0205C83.2819 49.2019 83.3186 49.3996 83.3186 49.6136V51.1836C83.3186 51.4209 83.3438 51.5697 83.3942 51.6302C83.4492 51.6907 83.5087 51.7209 83.5729 51.7209C83.6141 51.7209 83.6576 51.7116 83.7035 51.693C83.7493 51.6697 83.7997 51.6348 83.8547 51.5883L83.9784 51.7628C83.9096 51.8232 83.8272 51.8744 83.7309 51.9163C83.6393 51.9581 83.5293 51.9791 83.4011 51.9791ZM81.8616 51.7069C81.9899 51.7069 82.1273 51.6721 82.2739 51.6023C82.4251 51.5278 82.5855 51.3813 82.755 51.1627V50.4021H82.054C81.7974 50.4021 81.6096 50.4556 81.4905 50.5626C81.3759 50.6649 81.3186 50.8254 81.3186 51.0441C81.3186 51.2534 81.3622 51.4162 81.4492 51.5325C81.5409 51.6488 81.6783 51.7069 81.8616 51.7069Z" fill="#322F3B"/>
<path d="M88.1228 51.7488V51.9302H86.5009V51.7488L86.8789 51.7069C86.9522 51.6976 86.9957 51.679 87.0095 51.6511C87.0232 51.6232 87.0301 51.5278 87.0301 51.365V49.6276C87.0301 49.2833 86.9751 49.0415 86.8651 48.9019C86.7552 48.7577 86.5971 48.6856 86.3909 48.6856C86.2397 48.6856 86.0725 48.7321 85.8892 48.8251C85.7059 48.9182 85.5341 49.0996 85.3738 49.3694V51.365C85.3738 51.5278 85.3806 51.6232 85.3944 51.6511C85.4081 51.679 85.4516 51.6976 85.525 51.7069L85.903 51.7488V51.9302H84.281V51.7488L84.659 51.7069C84.7323 51.6976 84.7758 51.679 84.7896 51.6511C84.8033 51.6232 84.8102 51.5278 84.8102 51.365V49.0415C84.8102 48.8786 84.8033 48.7833 84.7896 48.7554C84.7758 48.7275 84.7323 48.7089 84.659 48.6995L84.281 48.6647V48.4763H85.3394V49.0415C85.5043 48.8182 85.6899 48.6577 85.8961 48.56C86.1068 48.4577 86.3176 48.4065 86.5284 48.4065C86.8674 48.4065 87.1286 48.5135 87.3118 48.7275C87.4997 48.9368 87.5936 49.2345 87.5936 49.6206V51.365C87.5936 51.5278 87.6005 51.6232 87.6142 51.6511C87.628 51.679 87.6715 51.6976 87.7448 51.7069L88.1228 51.7488Z" fill="#322F3B"/>
<path d="M90.1309 48.6298C89.8789 48.6298 89.6819 48.7368 89.5399 48.9507C89.4024 49.1601 89.3337 49.5066 89.3337 49.9904V50.4091C89.3337 50.8975 89.4024 51.2487 89.5399 51.4627C89.6819 51.672 89.911 51.7767 90.2271 51.7767C90.4425 51.7767 90.6166 51.7209 90.7494 51.6093C90.8823 51.4976 90.9717 51.3046 91.0175 51.0301L91.3817 51.1348C91.2992 51.4511 91.148 51.6744 90.9281 51.8046C90.7082 51.9349 90.4631 52 90.1928 52C89.6979 52 89.3268 51.8442 89.0794 51.5325C88.8366 51.2162 88.7151 50.7952 88.7151 50.2695V50.13C88.7151 49.609 88.8366 49.1926 89.0794 48.881C89.3222 48.5646 89.6727 48.4065 90.1309 48.4065C90.4241 48.4065 90.667 48.4646 90.8594 48.5809C91.0564 48.6972 91.1962 48.8554 91.2786 49.0554C91.3611 49.2508 91.384 49.4671 91.3474 49.7043L90.8044 49.7881C90.8548 49.4159 90.8205 49.1298 90.7013 48.9298C90.5868 48.7298 90.3967 48.6298 90.1309 48.6298Z" fill="#322F3B"/>
<path d="M94.9002 51.1348C94.8177 51.4511 94.6619 51.6744 94.4328 51.8046C94.2083 51.9349 93.9586 52 93.6837 52C93.1751 52 92.7949 51.8442 92.5429 51.5325C92.2909 51.2162 92.1649 50.7952 92.1649 50.2695V50.13C92.1649 49.609 92.2863 49.1926 92.5291 48.881C92.772 48.5646 93.1248 48.4065 93.5875 48.4065C93.8349 48.4065 94.0594 48.4577 94.261 48.56C94.4672 48.6623 94.6299 48.8135 94.749 49.0135C94.8727 49.2136 94.9345 49.4624 94.9345 49.7602C94.9345 49.8997 94.9208 50.0462 94.8933 50.1998H92.7834V50.4091C92.7834 50.8975 92.8567 51.2487 93.0033 51.4627C93.1545 51.672 93.3974 51.7767 93.7318 51.7767C93.9426 51.7767 94.1167 51.7209 94.2542 51.6093C94.3962 51.4976 94.4901 51.3046 94.5359 51.0301L94.9002 51.1348ZM93.5875 48.6298C93.3172 48.6298 93.1156 48.7344 92.9827 48.9438C92.8499 49.1531 92.7834 49.4973 92.7834 49.9765H94.3298V49.9555C94.3389 49.8951 94.3458 49.8369 94.3504 49.7811C94.355 49.7206 94.3572 49.6671 94.3572 49.6206C94.3572 49.2717 94.2862 49.0205 94.1442 48.867C94.0022 48.7089 93.8166 48.6298 93.5875 48.6298Z" fill="#322F3B"/>
<path d="M98.8997 51.7488V51.9302H97.1403V51.7488L97.5183 51.7069C97.5916 51.6976 97.6352 51.679 97.6489 51.6511C97.6627 51.6232 97.6695 51.5278 97.6695 51.365V49.0415C97.6695 48.8786 97.6627 48.7833 97.6489 48.7554C97.6397 48.7275 97.5962 48.7089 97.5183 48.6995L97.1403 48.6647V48.4763H97.6695V47.9739C97.6695 47.7552 97.7016 47.5482 97.7657 47.3529C97.8345 47.1575 97.9513 46.9993 98.1162 46.8784C98.2812 46.7574 98.508 46.6969 98.7966 46.6969C99.1769 46.6969 99.4587 46.8016 99.642 47.0109C99.8252 47.2203 99.8917 47.4761 99.8413 47.7785L99.3052 47.8552C99.3464 47.5343 99.3235 47.2994 99.2365 47.1505C99.154 46.997 99.0074 46.9202 98.7966 46.9202C98.6775 46.9202 98.5744 46.9481 98.4874 47.004C98.4049 47.0551 98.3408 47.1505 98.2949 47.29C98.2537 47.4249 98.2331 47.6203 98.2331 47.8762V48.4763H99.3258V48.6995H98.2331V51.365C98.2331 51.5278 98.24 51.6255 98.2537 51.6581C98.2674 51.686 98.311 51.7023 98.3843 51.7069L98.8997 51.7488Z" fill="#322F3B"/>
<path d="M102.738 50.13V50.2695C102.738 50.7952 102.607 51.2162 102.346 51.5325C102.09 51.8442 101.723 52 101.247 52C100.775 52 100.408 51.8442 100.147 51.5325C99.8905 51.2162 99.7622 50.7952 99.7622 50.2695V50.13C99.7622 49.609 99.8905 49.1926 100.147 48.881C100.404 48.5646 100.77 48.4065 101.247 48.4065C101.723 48.4065 102.09 48.5646 102.346 48.881C102.607 49.1926 102.738 49.609 102.738 50.13ZM102.119 49.9904C102.119 49.5066 102.044 49.1601 101.893 48.9507C101.746 48.7368 101.531 48.6298 101.247 48.6298C100.967 48.6298 100.752 48.7368 100.601 48.9507C100.454 49.1601 100.381 49.5066 100.381 49.9904V50.4091C100.381 50.8975 100.454 51.2487 100.601 51.4627C100.752 51.672 100.967 51.7767 101.247 51.7767C101.531 51.7767 101.746 51.672 101.893 51.4627C102.044 51.2487 102.119 50.8975 102.119 50.4091V49.9904Z" fill="#322F3B"/>
<path d="M103.402 48.6647V48.4763H104.461V49.0345C104.621 48.8158 104.781 48.6577 104.942 48.56C105.107 48.4577 105.274 48.4065 105.443 48.4065C105.59 48.4065 105.727 48.4507 105.856 48.5391C105.984 48.6274 106.092 48.7693 106.179 48.9647L105.732 49.2368C105.663 49.0694 105.585 48.9531 105.498 48.8879C105.411 48.8228 105.315 48.7903 105.21 48.7903C105.095 48.7903 104.981 48.8275 104.866 48.9019C104.756 48.9763 104.632 49.1159 104.495 49.3206V51.365C104.495 51.5278 104.502 51.6255 104.516 51.6581C104.529 51.686 104.573 51.7023 104.646 51.7069L105.162 51.7488V51.9302H103.402V51.7488L103.78 51.7069C103.854 51.6976 103.897 51.679 103.911 51.6511C103.925 51.6232 103.931 51.5278 103.931 51.365V49.0415C103.931 48.8786 103.925 48.7833 103.911 48.7554C103.897 48.7275 103.854 48.7089 103.78 48.6995L103.402 48.6647Z" fill="#322F3B"/>
<path d="M107.883 46.9551V46.7667H108.976V48.9787C109.109 48.7786 109.26 48.6344 109.43 48.546C109.599 48.453 109.782 48.4065 109.979 48.4065C110.373 48.4065 110.678 48.5577 110.893 48.86C111.113 49.1624 111.223 49.5857 111.223 50.13V50.2695C111.223 50.7998 111.097 51.2208 110.845 51.5325C110.598 51.8442 110.25 52 109.801 52C109.443 52 109.15 51.8814 108.921 51.6441C108.857 51.6814 108.797 51.7279 108.742 51.7837C108.687 51.8395 108.632 51.9 108.577 51.9651H108.412V47.3319C108.412 47.1691 108.406 47.0737 108.392 47.0458C108.378 47.0179 108.335 46.9993 108.261 46.99L107.883 46.9551ZM109.89 48.6577C109.748 48.6577 109.599 48.7042 109.443 48.7972C109.292 48.8903 109.136 49.0787 108.976 49.3624V51.3581C109.173 51.6325 109.434 51.7697 109.759 51.7697C110.057 51.7697 110.273 51.6558 110.406 51.4278C110.538 51.1952 110.605 50.8789 110.605 50.4789V49.9206C110.605 49.4834 110.543 49.1647 110.419 48.9647C110.296 48.76 110.119 48.6577 109.89 48.6577Z" fill="#322F3B"/>
<path d="M114.847 51.1348C114.764 51.4511 114.609 51.6744 114.38 51.8046C114.155 51.9349 113.905 52 113.63 52C113.122 52 112.742 51.8442 112.49 51.5325C112.238 51.2162 112.112 50.7952 112.112 50.2695V50.13C112.112 49.609 112.233 49.1926 112.476 48.881C112.719 48.5646 113.071 48.4065 113.534 48.4065C113.782 48.4065 114.006 48.4577 114.208 48.56C114.414 48.6623 114.577 48.8135 114.696 49.0135C114.819 49.2136 114.881 49.4624 114.881 49.7602C114.881 49.8997 114.868 50.0462 114.84 50.1998H112.73V50.4091C112.73 50.8975 112.803 51.2487 112.95 51.4627C113.101 51.672 113.344 51.7767 113.679 51.7767C113.889 51.7767 114.063 51.7209 114.201 51.6093C114.343 51.4976 114.437 51.3046 114.483 51.0301L114.847 51.1348ZM113.534 48.6298C113.264 48.6298 113.062 48.7344 112.929 48.9438C112.797 49.1531 112.73 49.4973 112.73 49.9765H114.276V49.9555C114.286 49.8951 114.292 49.8369 114.297 49.7811C114.302 49.7206 114.304 49.6671 114.304 49.6206C114.304 49.2717 114.233 49.0205 114.091 48.867C113.949 48.7089 113.763 48.6298 113.534 48.6298Z" fill="#322F3B"/>
<path d="M117.798 51.2185C117.729 51.4883 117.622 51.686 117.475 51.8116C117.328 51.9372 117.14 52 116.911 52C116.691 52 116.513 51.9512 116.375 51.8535C116.238 51.7511 116.137 51.6186 116.073 51.4557C116.009 51.2929 115.977 51.1231 115.977 50.9464V49.0415C115.977 48.8786 115.97 48.7833 115.956 48.7554C115.947 48.7275 115.903 48.7089 115.825 48.6995L115.447 48.6647V48.4763H115.977V47.5622L116.54 47.4436V48.4763H117.66V48.6995H116.54V51.0022C116.54 51.2952 116.579 51.4976 116.657 51.6093C116.74 51.7209 116.847 51.7767 116.98 51.7767C117.113 51.7767 117.214 51.7255 117.282 51.6232C117.356 51.5209 117.408 51.3534 117.441 51.1208L117.798 51.2185Z" fill="#322F3B"/>
<path d="M120.456 51.2185C120.387 51.4883 120.279 51.686 120.133 51.8116C119.986 51.9372 119.798 52 119.569 52C119.349 52 119.171 51.9512 119.033 51.8535C118.896 51.7511 118.795 51.6186 118.731 51.4557C118.667 51.2929 118.634 51.1231 118.634 50.9464V49.0415C118.634 48.8786 118.628 48.7833 118.614 48.7554C118.605 48.7275 118.561 48.7089 118.483 48.6995L118.105 48.6647V48.4763H118.634V47.5622L119.198 47.4436V48.4763H120.318V48.6995H119.198V51.0022C119.198 51.2952 119.237 51.4976 119.315 51.6093C119.397 51.7209 119.505 51.7767 119.638 51.7767C119.771 51.7767 119.872 51.7255 119.94 51.6232C120.014 51.5209 120.066 51.3534 120.098 51.1208L120.456 51.2185Z" fill="#322F3B"/>
<path d="M123.773 51.1348C123.691 51.4511 123.535 51.6744 123.306 51.8046C123.081 51.9349 122.832 52 122.557 52C122.048 52 121.668 51.8442 121.416 51.5325C121.164 51.2162 121.038 50.7952 121.038 50.2695V50.13C121.038 49.609 121.159 49.1926 121.402 48.881C121.645 48.5646 121.998 48.4065 122.461 48.4065C122.708 48.4065 122.932 48.4577 123.134 48.56C123.34 48.6623 123.503 48.8135 123.622 49.0135C123.746 49.2136 123.808 49.4624 123.808 49.7602C123.808 49.8997 123.794 50.0462 123.766 50.1998H121.656V50.4091C121.656 50.8975 121.73 51.2487 121.876 51.4627C122.028 51.672 122.27 51.7767 122.605 51.7767C122.816 51.7767 122.99 51.7209 123.127 51.6093C123.269 51.4976 123.363 51.3046 123.409 51.0301L123.773 51.1348ZM122.461 48.6298C122.19 48.6298 121.989 48.7344 121.856 48.9438C121.723 49.1531 121.656 49.4973 121.656 49.9765H123.203V49.9555C123.212 49.8951 123.219 49.8369 123.223 49.7811C123.228 49.7206 123.23 49.6671 123.23 49.6206C123.23 49.2717 123.159 49.0205 123.017 48.867C122.875 48.7089 122.69 48.6298 122.461 48.6298Z" fill="#322F3B"/>
<path d="M124.456 48.6647V48.4763H125.515V49.0345C125.675 48.8158 125.835 48.6577 125.996 48.56C126.161 48.4577 126.328 48.4065 126.497 48.4065C126.644 48.4065 126.782 48.4507 126.91 48.5391C127.038 48.6274 127.146 48.7693 127.233 48.9647L126.786 49.2368C126.717 49.0694 126.639 48.9531 126.552 48.8879C126.465 48.8228 126.369 48.7903 126.264 48.7903C126.149 48.7903 126.035 48.8275 125.92 48.9019C125.81 48.9763 125.687 49.1159 125.549 49.3206V51.365C125.549 51.5278 125.556 51.6255 125.57 51.6581C125.583 51.686 125.627 51.7023 125.7 51.7069L126.216 51.7488V51.9302H124.456V51.7488L124.834 51.7069C124.908 51.6976 124.951 51.679 124.965 51.6511C124.979 51.6232 124.985 51.5278 124.985 51.365V49.0415C124.985 48.8786 124.979 48.7833 124.965 48.7554C124.951 48.7275 124.908 48.7089 124.834 48.6995L124.456 48.6647Z" fill="#322F3B"/>
</svg>
