<svg width="40" height="40" viewBox="0 0 40 40" fill="none" xmlns="http://www.w3.org/2000/svg">
<path d="M35.3186 15.8796C36.2686 16.3296 36.4386 17.1596 36.4386 18.1296C36.4186 23.9396 36.4386 29.7496 36.4386 35.5496C36.4386 36.9496 35.7286 37.6496 34.3286 37.6496C24.7786 37.6496 15.2286 37.6496 5.67859 37.6496C4.25859 37.6496 3.55859 36.9496 3.55859 35.5196C3.55859 29.6196 3.55859 23.7296 3.55859 17.8296C3.55859 16.4496 4.26859 15.7396 5.63859 15.7396C10.0086 15.7396 14.3886 15.7396 18.7586 15.7396H19.2186C18.0186 13.2996 17.8286 10.8396 18.7386 8.32962C19.4286 6.43962 20.6386 4.93962 22.3186 3.82962C25.6486 1.63962 30.0186 1.89962 33.1586 4.47962C36.0486 6.84962 37.6386 11.4596 35.3186 15.8896V15.8796ZM4.77859 23.0596C4.77859 23.2096 4.77859 23.3196 4.77859 23.4296C4.77859 27.4896 4.77859 31.5396 4.77859 35.5996C4.77859 36.2496 4.96859 36.4396 5.61859 36.4396C15.1986 36.4396 24.7886 36.4396 34.3686 36.4396C35.0386 36.4396 35.2186 36.2496 35.2186 35.5796C35.2186 31.5396 35.2186 27.4896 35.2186 23.4496C35.2186 23.3296 35.2086 23.2096 35.1986 23.0696H4.77859V23.0596ZM35.1986 19.3896C34.1786 19.3896 33.1886 19.3796 32.2086 19.3896C31.9786 19.3896 31.7286 19.4496 31.5286 19.5596C28.6986 20.9696 25.8786 20.9496 23.0586 19.5396C22.8786 19.4496 22.6486 19.3896 22.4486 19.3896C16.6886 19.3896 10.9386 19.3896 5.17859 19.3896C5.05859 19.3896 4.93859 19.3996 4.81859 19.4096V21.8096H35.2086V19.3996L35.1986 19.3896ZM19.3886 11.4796C19.3986 15.8596 22.9486 19.3996 27.2986 19.3896C31.6986 19.3896 35.2186 15.8296 35.2086 11.3996C35.2086 7.08962 31.6186 3.55962 27.2586 3.56962C22.9286 3.56962 19.3786 7.14962 19.3886 11.4796ZM4.77859 18.1496H21.0386C20.7486 17.8196 20.4586 17.5296 20.2186 17.2196C20.0586 17.0196 19.8986 16.9496 19.6486 16.9496C16.0986 16.9496 12.5586 16.9496 9.00859 16.9496C7.83859 16.9496 6.67859 16.9496 5.50859 16.9496C5.00859 16.9496 4.78859 17.1696 4.77859 17.6596C4.77859 17.8096 4.77859 17.9596 4.77859 18.1396V18.1496ZM33.5486 18.1496H35.2286C35.1986 17.8596 35.2186 17.5696 35.1386 17.3196C35.0386 16.9896 34.6886 16.8796 34.5086 17.0696C34.1986 17.4096 33.8886 17.7596 33.5486 18.1496Z" fill="black"/>
<path d="M16.9278 10.8597H15.7578V9.67969H16.9278V10.8597Z" fill="black"/>
<path d="M4.75984 14.5098H3.58984V13.3398H4.75984V14.5098Z" fill="black"/>
<path d="M7.23828 13.3193H8.40828V14.4893H7.23828V13.3193Z" fill="black"/>
<path d="M12.0467 14.5198H10.8867V13.3398H12.0467V14.5198Z" fill="black"/>
<path d="M12.0977 9.66992H13.2677V10.8499H12.0977V9.66992Z" fill="black"/>
<path d="M9.63703 9.67969V10.8397H8.45703V9.67969H9.63703Z" fill="black"/>
<path d="M4.78906 10.8497V9.67969H5.96906V10.8497H4.78906Z" fill="black"/>
<path d="M14.5273 7.1993V6.0293H15.7073V7.1993H14.5273Z" fill="black"/>
<path d="M10.8789 6.01953H12.0489V7.19953H10.8789V6.01953Z" fill="black"/>
<path d="M7.23047 7.1893V6.0293H8.41047V7.1893H7.23047Z" fill="black"/>
<path d="M3.57812 7.18953V6.01953H4.75813V7.18953H3.57812Z" fill="black"/>
<path d="M15.6991 14.5198H14.5391V13.3398H15.6991V14.5198Z" fill="black"/>
<path d="M30.3384 29.0995C30.8584 29.2995 30.9484 29.4195 30.9484 29.9495C30.9484 31.4495 30.9484 32.9395 30.9484 34.4395C30.9484 35.0095 30.7384 35.2295 30.1784 35.2295C28.2484 35.2295 26.3284 35.2295 24.3984 35.2295C23.8584 35.2295 23.6484 35.0095 23.6484 34.4595C23.6484 32.9795 23.6484 31.4995 23.6484 30.0095C23.6484 29.5495 23.7484 29.1995 24.2584 29.1195C24.2584 28.5095 24.2584 27.9295 24.2584 27.3495C24.2784 25.6195 25.6084 24.2695 27.3084 24.2695C28.9884 24.2695 30.3184 25.6095 30.3384 27.3295C30.3384 27.9095 30.3384 28.4895 30.3384 29.0995ZM29.7184 30.3795H24.8984V33.9795H29.7184V30.3795ZM29.1284 29.1195C29.1284 28.4695 29.1384 27.8695 29.1284 27.2595C29.1084 26.3395 28.4084 25.5895 27.5084 25.4895C26.5984 25.3895 25.6884 25.9695 25.5484 26.8995C25.4384 27.6195 25.5284 28.3695 25.5284 29.1195H29.1284Z" fill="black"/>
<path d="M14.5273 35.1895V34.0195H19.9573V35.1895H14.5273Z" fill="black"/>
<path d="M19.9769 31.5898V32.7598H14.5469V31.5898H19.9769Z" fill="black"/>
<path d="M10.847 31.5898V32.7598H8.45703V31.5898H10.847Z" fill="black"/>
<path d="M10.8392 35.1995H8.44922V34.0195H10.8392V35.1995Z" fill="black"/>
<path d="M7.20734 31.5898V32.7498H6.02734V31.5898H7.20734Z" fill="black"/>
<path d="M13.2694 32.7698H12.1094V31.5898H13.2694V32.7698Z" fill="black"/>
<path d="M6.00781 34.0195H7.17781V35.1995H6.00781V34.0195Z" fill="black"/>
<path d="M12.1094 34.0098H13.2694V35.1898H12.1094V34.0098Z" fill="black"/>
<path d="M27.887 31.5898V32.7598H26.707V31.5898H27.887Z" fill="black"/>
<path d="M27.2994 4.01955C31.4094 4.01955 34.7494 7.36955 34.7294 11.4596C34.7194 15.5696 31.3694 18.8996 27.2894 18.8896C23.1794 18.8796 19.8494 15.5296 19.8594 11.4496C19.8694 7.33955 23.2094 4.00955 27.2994 4.01955ZM27.2894 18.3496C31.0794 18.3596 34.1794 15.2596 34.1794 11.4596C34.1794 7.66955 31.1194 4.59955 27.3094 4.56955C23.5294 4.53955 20.4294 7.63955 20.4094 11.4496C20.3894 15.2296 23.4894 18.3396 27.2894 18.3496Z" fill="black"/>
<path d="M23.7288 7.47934C24.2788 8.02934 24.8088 8.55934 25.3388 9.08934C26.6388 8.16934 27.9488 8.15934 29.2488 9.07934C29.7788 8.54934 30.3088 8.01934 30.8788 7.44934C30.8688 7.44934 30.8188 7.42934 30.7788 7.39934C29.1088 6.05934 27.2688 5.76934 25.2688 6.52934C25.2388 6.53934 25.1988 6.55934 25.1688 6.56934C24.9688 6.64934 24.8088 6.59934 24.7488 6.43934C24.6888 6.27934 24.7488 6.12934 24.9488 6.05934C25.3388 5.91934 25.7188 5.76934 26.1188 5.68934C29.3888 5.02934 32.4788 7.08934 33.0888 10.3693C33.4588 12.3393 32.9088 14.0893 31.5288 15.5493C31.3588 15.7393 31.2188 15.7293 31.0288 15.5493C30.6488 15.1693 30.2788 14.7993 29.8888 14.3993C29.8488 14.4593 29.8188 14.5093 29.7888 14.5593C29.6888 14.7393 29.5988 14.9093 29.4888 15.0893C29.3988 15.2293 29.2488 15.2593 29.1188 15.1893C28.9888 15.1193 28.9388 14.9693 29.0088 14.8293C29.0388 14.7593 29.0788 14.6993 29.1188 14.6393C29.8588 13.3193 30.5988 11.9993 31.3388 10.6693C31.3688 10.6193 31.3988 10.5593 31.4188 10.5093C31.4588 10.3793 31.4388 10.2593 31.3288 10.1793C31.2088 10.0993 31.0888 10.0993 30.9788 10.1893C30.9488 10.2093 30.9288 10.2393 30.8988 10.2693C29.4588 11.7093 28.0188 13.1493 26.5788 14.5993C26.1188 15.0593 26.0788 15.7193 26.4788 16.1893C26.9688 16.7693 27.8688 16.7193 28.2988 16.0893C28.3788 15.9793 28.4288 15.8493 28.5088 15.7493C28.5988 15.6193 28.7388 15.5993 28.8688 15.6793C28.9888 15.7493 29.0388 15.8693 28.9788 16.0093C28.6288 16.8093 27.9688 17.1893 27.2188 17.1393C26.4588 17.0893 25.8288 16.5193 25.6888 15.7593C25.5788 15.1593 25.7588 14.6493 26.1888 14.2193C26.9488 13.4493 27.7188 12.6893 28.4788 11.9193C28.8488 11.5493 29.2188 11.1693 29.5988 10.7993C29.6788 10.7193 29.6988 10.6593 29.6588 10.5493C29.2288 9.42934 28.0688 8.77934 26.8488 8.99934C25.7088 9.19934 24.8388 10.2193 24.8188 11.3893C24.8088 12.0793 25.0288 12.6693 25.4988 13.1793C25.6788 13.3793 25.6788 13.4893 25.4988 13.6793C24.8688 14.3093 24.2488 14.9393 23.6188 15.5593C23.4288 15.7493 23.2988 15.7493 23.1088 15.5593C20.6388 13.0193 20.9788 8.84934 23.8188 6.73934C23.8488 6.71934 23.8788 6.69934 23.9088 6.67934C24.0588 6.57934 24.2088 6.59934 24.2988 6.71934C24.3988 6.84934 24.3688 6.99934 24.2288 7.11934C24.0788 7.23934 23.9288 7.35934 23.7588 7.48934L23.7288 7.47934ZM24.9088 9.51934C24.3788 8.98934 23.8388 8.44934 23.3088 7.91934C21.4488 9.93934 21.5788 13.1593 23.3288 14.9893C23.8588 14.4593 24.3888 13.9293 24.9188 13.3993C23.9988 12.1093 23.9988 10.7993 24.9088 9.51934ZM30.1388 10.2593C30.2788 10.1093 30.4088 9.96934 30.5388 9.83934C30.8588 9.51934 31.3188 9.48934 31.6588 9.74934C31.9888 9.99934 32.0788 10.4493 31.8688 10.8393C31.7588 11.0393 31.6488 11.2293 31.5388 11.4293C31.0988 12.2093 30.6588 12.9993 30.2188 13.7793C30.1888 13.8293 30.1788 13.9393 30.2088 13.9693C30.5488 14.3293 30.8988 14.6693 31.2488 15.0193C33.1488 13.0093 33.0088 9.69934 31.2588 7.91934C30.7288 8.44934 30.1988 8.97934 29.6688 9.50934C29.8088 9.74934 29.9588 9.98934 30.1288 10.2593H30.1388Z" fill="black"/>
<path d="M27.2985 10.9094C26.9485 10.9094 26.5985 10.9094 26.2485 10.9094C26.0385 10.9094 25.9085 10.7994 25.9185 10.6294C25.9185 10.4694 26.0485 10.3594 26.2485 10.3594C26.9485 10.3594 27.6385 10.3594 28.3385 10.3594C28.5485 10.3594 28.6785 10.4694 28.6685 10.6394C28.6685 10.8094 28.5485 10.9094 28.3485 10.9094C27.9985 10.9094 27.6485 10.9094 27.2985 10.9094Z" fill="black"/>
<path d="M27.2992 11.8195C27.1192 11.8195 26.9492 11.8195 26.7692 11.8195C26.5692 11.8195 26.4492 11.7095 26.4492 11.5395C26.4492 11.3795 26.5692 11.2695 26.7492 11.2695C27.1092 11.2695 27.4692 11.2695 27.8292 11.2695C28.0192 11.2695 28.1292 11.3795 28.1392 11.5395C28.1392 11.7095 28.0192 11.8195 27.8292 11.8195C27.6492 11.8195 27.4792 11.8195 27.2992 11.8195Z" fill="black"/>
</svg>
