<svg width="40" height="40" viewBox="0 0 40 40" fill="none" xmlns="http://www.w3.org/2000/svg">
<path d="M1.67188 27.3896C1.81188 26.7096 1.90187 26.0196 2.10187 25.3596C2.77187 23.0696 4.12187 21.2596 6.10187 19.9296C6.31187 19.7896 6.46187 19.6696 6.37187 19.3896C6.35187 19.3396 6.37187 19.2696 6.37187 19.2096C6.37187 13.8596 6.37187 8.50957 6.37187 3.15957C6.37187 2.75957 6.45188 2.39957 6.76188 2.11957C7.03188 1.86957 7.36187 1.80957 7.72187 1.80957C11.3019 1.80957 14.8819 1.80957 18.4619 1.80957C22.9519 1.80957 27.4419 1.80957 31.9319 1.80957C32.9419 1.80957 33.3619 2.22957 33.3619 3.24957C33.3619 8.53957 33.3619 13.8296 33.3619 19.1196C33.3619 20.1396 32.9419 20.5596 31.9319 20.5596C30.7219 20.5596 29.5219 20.5596 28.3219 20.5596C28.4419 20.9196 28.5419 21.2596 28.6719 21.5996C28.7019 21.6696 28.8219 21.7396 28.9119 21.7596C30.4619 21.9996 30.8019 23.7596 30.1019 24.7096C29.6119 25.3696 29.0719 25.9996 28.5719 26.6496C28.5119 26.7296 28.4919 26.8696 28.5119 26.9696C28.9419 29.3096 28.5119 31.4896 27.3219 33.5296C27.2119 33.7196 27.1919 33.8396 27.3219 34.0396C27.4319 34.2196 27.4919 34.4596 27.4919 34.6796C27.5119 35.4296 27.5019 36.1896 27.4919 36.9396C27.4919 37.6796 27.0119 38.1496 26.2719 38.1496C23.1819 38.1496 20.0919 38.1496 17.0119 38.1496C16.4119 38.1496 16.0219 37.8496 15.8119 37.2996C15.1719 37.4996 14.5419 37.7296 13.9019 37.8896C8.41187 39.2396 2.70188 35.4196 1.84188 29.8296C1.80188 29.5596 1.75188 29.2896 1.70188 29.0196C1.70188 28.4696 1.70188 27.9196 1.70188 27.3696L1.67188 27.3896ZM19.2419 13.5796C19.3519 12.7196 19.7519 12.3696 20.6619 12.3696C24.3519 12.3696 28.0319 12.3696 31.7219 12.3696H32.1319V3.00957H7.56187V19.4196H7.97187C10.3619 19.4196 12.7619 19.4196 15.1519 19.4196C16.1219 19.4196 16.1619 19.4196 16.3219 18.4696C16.5219 17.2896 16.6619 16.0996 16.8219 14.9196C16.9219 14.2396 17.3819 13.7096 18.0519 13.5996C18.4319 13.5396 18.8319 13.5896 19.2419 13.5896V13.5796ZM19.3619 27.2896C19.5419 27.0196 19.7119 26.8096 19.8319 26.5596C20.0219 26.1696 20.2519 25.7696 20.3319 25.3496C20.5819 24.0596 20.3419 22.7996 19.7019 21.6796C19.2419 20.8796 19.2519 20.2396 19.7319 19.4696C20.2519 18.6396 20.4519 17.6796 20.4219 16.6896C20.3819 15.6596 19.5419 14.7996 18.5219 14.7396C18.1319 14.7196 18.0119 14.8096 17.9619 15.2096C17.8119 16.3196 17.7519 17.4596 17.4919 18.5496C17.1919 19.7896 16.7219 20.9796 16.2819 22.1796C15.6319 23.9896 15.5719 25.7996 16.1319 27.6396C16.7019 29.4796 17.2719 31.3196 17.8219 33.1596C17.9019 33.4196 18.0119 33.5096 18.2919 33.5096C20.5019 33.4996 22.7219 33.4496 24.9319 33.5296C25.7719 33.5596 26.1819 33.2696 26.5319 32.5496C27.3419 30.8696 27.6719 29.1296 27.3219 27.2896C27.3019 27.1796 27.2119 27.0296 27.1219 27.0096C26.2519 26.7796 25.7919 26.2096 25.6919 25.3096C24.9319 25.2496 24.3819 24.8596 24.0519 24.1596C23.2519 24.8596 22.4419 24.8696 21.6019 24.2896C21.6019 25.8096 21.0619 27.2596 20.2819 27.9296C19.9919 27.7296 19.6919 27.5296 19.3619 27.3096V27.2896ZM21.1719 19.3896H32.1419V13.5696H20.3519C20.4419 13.8996 20.4419 14.2496 20.6219 14.4396C21.3419 15.2196 21.7119 16.1096 21.5819 17.1496C21.4919 17.8996 21.3119 18.6396 21.1719 19.3896ZM9.08187 25.2696C8.59188 27.2496 8.58187 29.1796 9.08187 31.1096H14.2119C14.6819 29.2296 14.7019 27.3596 14.2519 25.4896C14.2319 25.3996 14.0919 25.2796 14.0019 25.2796C12.3719 25.2696 10.7519 25.2796 9.09188 25.2796L9.08187 25.2696ZM7.86188 25.2996C7.77187 25.2896 7.72188 25.2696 7.67188 25.2696C6.31187 25.2696 4.94187 25.2696 3.58187 25.2696C3.33187 25.2696 3.29188 25.4096 3.24188 25.5896C2.71188 27.3296 2.71188 29.0696 3.24188 30.8096C3.31188 31.0496 3.41188 31.1496 3.68188 31.1396C4.84188 31.1196 6.00187 31.1396 7.16187 31.1396C7.38187 31.1396 7.61188 31.1396 7.86188 31.1396C7.43188 29.1796 7.43188 27.2596 7.86188 25.3096V25.2996ZM16.9319 34.6696V36.9896H26.2819V34.6696H16.9319ZM3.85187 32.3096C5.38187 34.9396 7.55188 36.4596 10.5419 36.9296C10.4419 36.7496 10.3819 36.6396 10.3119 36.5296C9.53188 35.2396 8.72187 33.9696 8.25187 32.5196C8.22187 32.4196 8.03187 32.3196 7.91187 32.3196C7.06187 32.2996 6.21187 32.3196 5.36188 32.3196C4.88188 32.3196 4.41187 32.3196 3.85187 32.3196V32.3096ZM9.89188 20.5796C9.05188 20.5796 8.29187 20.5796 7.53188 20.5796C7.36188 20.5796 7.18188 20.6296 7.03188 20.7196C5.78188 21.4796 4.79188 22.4896 4.05188 23.7496C3.99188 23.8496 3.95187 23.9496 3.88188 24.0896C5.29187 24.0896 6.65188 24.0896 8.01188 24.0796C8.10188 24.0796 8.23187 23.9396 8.28187 23.8296C8.62187 23.0996 8.94187 22.3496 9.29187 21.6196C9.45187 21.2796 9.67187 20.9596 9.90187 20.5696L9.89188 20.5796ZM9.44187 32.3396C9.94187 33.8396 10.8419 35.0896 11.6319 36.4596C12.4219 35.0696 13.3319 33.8296 13.8119 32.3396H9.44187ZM13.7819 24.0796C13.7819 24.0796 13.8019 24.0096 13.7819 23.9996C13.2119 22.8996 12.6419 21.7996 12.0519 20.7096C11.9319 20.4896 11.2719 20.5396 11.1519 20.7696C10.6419 21.6796 10.1519 22.5896 9.66187 23.4996C9.56187 23.6796 9.51188 23.8796 9.43188 24.1096C10.8719 24.1096 12.2619 24.1096 13.6519 24.1096C13.6919 24.1096 13.7419 24.0996 13.7819 24.0896V24.0796ZM12.7519 36.8696C12.7519 36.8696 12.8019 36.9596 12.8319 36.9996C13.6019 36.7596 14.3719 36.4996 15.1419 36.2796C15.6119 36.1396 15.8319 35.8796 15.7419 35.3796C15.7019 35.1696 15.7419 34.9496 15.7419 34.7296C15.7419 34.0796 16.1019 33.6996 16.6919 33.4896C16.6719 33.3996 16.6519 33.3296 16.6319 33.2596C16.3419 32.2696 16.3419 32.2596 15.3219 32.3296C15.2119 32.3296 15.0419 32.4596 15.0019 32.5696C14.6119 33.6896 14.0519 34.7396 13.4319 35.7396C13.2019 36.1096 12.9819 36.4896 12.7519 36.8696ZM24.5719 21.3296C24.5319 21.0296 24.4719 20.7796 24.1919 20.6496C23.9419 20.5296 23.7019 20.5696 23.5419 20.7696C23.1019 21.3196 22.6719 21.8796 22.2719 22.4596C22.0619 22.7696 22.1919 23.2496 22.4619 23.4196C22.7519 23.5996 23.0519 23.5196 23.3219 23.1696C23.6619 22.7196 24.0019 22.2796 24.3319 21.8196C24.4419 21.6696 24.4919 21.4896 24.5719 21.3196V21.3296ZM25.0719 23.4096C25.1019 23.7196 25.2119 23.9496 25.4919 24.0596C25.7419 24.1596 25.9819 24.0996 26.1419 23.8896C26.5619 23.3496 26.9719 22.8096 27.3619 22.2496C27.5719 21.9496 27.4719 21.4596 27.2019 21.2796C26.9119 21.0696 26.5919 21.1596 26.3119 21.5196C25.9619 21.9796 25.6119 22.4296 25.2819 22.8996C25.1819 23.0496 25.1319 23.2396 25.0619 23.4096H25.0719ZM29.3119 23.5696C29.1619 23.3696 29.0619 23.1096 28.8719 23.0196C28.7119 22.9396 28.3719 22.9796 28.2619 23.0996C27.7919 23.6496 27.3519 24.2396 26.9419 24.8396C26.7319 25.1496 26.8719 25.5896 27.1419 25.7696C27.4319 25.9596 27.7419 25.8696 28.0019 25.5296C28.3419 25.0796 28.6819 24.6396 29.0119 24.1796C29.1219 24.0196 29.1819 23.8296 29.3019 23.5796L29.3119 23.5696ZM13.4119 20.5896C13.8719 21.4596 14.3119 22.2796 14.7419 23.0896C15.0219 22.2596 15.3019 21.4296 15.5819 20.5896H13.4019H13.4119ZM20.5219 20.5996C20.7419 21.0896 20.9419 21.5396 21.1419 21.9896C21.4719 21.5296 21.8019 21.0896 22.1519 20.5996H20.5119H20.5219ZM15.6219 29.9996C15.5419 30.4396 15.4819 30.7696 15.4219 31.1196H15.9719C15.8619 30.7596 15.7519 30.4296 15.6219 29.9996Z" fill="black"/>
<path d="M30.8488 26.7196C30.6588 26.9596 30.4588 27.2096 30.2588 27.4596C29.9588 27.1596 29.6988 26.8896 29.4688 26.6596C30.1787 25.9496 30.8888 25.2396 31.5688 24.5596C32.2488 25.2396 32.9588 25.9496 33.6788 26.6696C33.4488 26.8796 33.1787 27.1296 32.8687 27.4196C32.6987 27.2096 32.5088 26.9596 32.3188 26.7196C32.2788 26.7496 32.2287 26.7696 32.1887 26.7996V38.1596H30.9888V26.8096C30.9888 26.8096 30.8888 26.7596 30.8488 26.7296V26.7196Z" fill="black"/>
<path d="M35.0184 34.8502C35.1784 35.0502 35.3684 35.3002 35.5584 35.5402C35.5984 35.5202 35.6384 35.5002 35.6784 35.4802V24.7002H36.8584V35.5602C37.1184 35.2602 37.3184 35.0202 37.5384 34.7702C37.8684 35.1202 38.1184 35.3902 38.3384 35.6202C37.6484 36.3102 36.9384 37.0302 36.2484 37.7302C35.5884 37.0702 34.8784 36.3602 34.1484 35.6302C34.3984 35.4102 34.6684 35.1702 35.0184 34.8502Z" fill="black"/>
<path d="M12.2388 4.1702C14.1788 4.1702 15.7488 5.7602 15.7488 7.6902C15.7488 9.6202 14.1488 11.2102 12.2188 11.1902C10.2788 11.1802 8.7088 9.6002 8.7188 7.6602C8.7188 5.7202 10.3088 4.1502 12.2488 4.1602L12.2388 4.1702ZM12.2588 8.2802V10.0002C13.3088 10.0202 14.3788 9.1702 14.4288 8.2802H12.2588ZM12.2188 5.3502C11.1588 5.3302 10.0688 6.2102 10.0388 7.0602H12.2188V5.3502ZM9.9788 8.2902C10.1588 8.9102 10.4988 9.3402 11.0388 9.6902V8.2902H9.9788ZM14.4788 7.0702C14.2888 6.4602 13.9588 6.0202 13.4088 5.6702V7.0702H14.4788Z" fill="black"/>
<path d="M26.8512 10.0198C25.9212 10.0198 24.9912 10.0198 24.0512 10.0198C23.2512 10.0198 22.7812 9.54984 22.7812 8.74984C22.7812 8.01984 22.7812 7.28984 22.7812 6.55984C22.7812 5.82984 23.2612 5.33984 23.9912 5.33984C25.9112 5.33984 27.8412 5.33984 29.7612 5.33984C30.5012 5.33984 30.9712 5.81984 30.9812 6.54984C30.9812 7.29984 30.9812 8.05984 30.9812 8.80984C30.9812 9.54984 30.5012 10.0098 29.7612 10.0198C28.7912 10.0198 27.8212 10.0198 26.8612 10.0198H26.8512ZM23.9812 6.51984V8.82984H25.1012V6.51984H23.9812ZM29.8012 8.83984V6.51984H28.6712V8.83984H29.8012ZM27.4412 8.83984V6.51984H26.3212V8.83984H27.4412Z" fill="black"/>
<path d="M11.6492 14.7197C12.1992 14.7197 12.7492 14.7197 13.2992 14.7197C14.0992 14.7197 14.5592 15.1897 14.5692 15.9997C14.5692 16.3297 14.5692 16.6697 14.5692 16.9997C14.5492 17.7297 14.1192 18.2097 13.3892 18.2297C12.2192 18.2597 11.0492 18.2597 9.87922 18.2297C9.13922 18.2097 8.70922 17.7197 8.69922 16.9697C8.69922 16.6197 8.69922 16.2797 8.69922 15.9297C8.70922 15.2197 9.16922 14.7497 9.88922 14.7197C9.90922 14.7197 9.93922 14.7197 9.95922 14.7197C10.5192 14.7197 11.0792 14.7197 11.6392 14.7197H11.6492ZM9.88922 17.0297H11.0292V15.9097H9.88922V17.0297ZM12.2392 17.0297H13.3692V15.9097H12.2392V17.0297Z" fill="black"/>
<path d="M19.2396 10.0198C18.8696 10.0198 18.4996 10.0198 18.1296 10.0198C17.4296 10.0098 16.9396 9.55984 16.9096 8.86984C16.8896 8.06984 16.8796 7.26984 16.9096 6.46984C16.9296 5.79984 17.4296 5.34984 18.0996 5.33984C18.8596 5.33984 19.6296 5.33984 20.3896 5.33984C21.0696 5.33984 21.5596 5.78984 21.5796 6.46984C21.6096 7.27984 21.6096 8.09984 21.5796 8.90984C21.5496 9.58984 21.0596 10.0098 20.3696 10.0198C19.9896 10.0198 19.6096 10.0198 19.2196 10.0198H19.2396ZM20.4096 6.51984H18.1096V8.82984H20.4096V6.51984Z" fill="black"/>
<path d="M16.8887 12.4004V13.5304H8.71875V12.4004H16.8787H16.8887Z" fill="black"/>
<path d="M21.0391 30.9899C21.4091 29.3499 22.2391 28.0899 23.6191 27.1299C23.8391 27.4499 24.0391 27.7599 24.2691 28.0999C23.1491 28.8799 22.4591 29.9399 22.1691 31.2699C21.7791 31.1699 21.4291 31.0899 21.0391 30.9899Z" fill="black"/>
<path d="M25.1192 16.4897C25.1192 16.8197 24.8392 17.0697 24.5092 17.0597C24.1992 17.0397 23.9492 16.7797 23.9492 16.4697C23.9492 16.1497 24.2392 15.8897 24.5692 15.8997C24.8792 15.9097 25.1292 16.1797 25.1192 16.4897Z" fill="black"/>
<path d="M29.8088 16.4896C29.7988 16.8196 29.5188 17.0696 29.1888 17.0496C28.8688 17.0296 28.6388 16.7796 28.6488 16.4596C28.6488 16.1296 28.9288 15.8796 29.2588 15.8996C29.5688 15.9196 29.8188 16.1796 29.8088 16.4896Z" fill="black"/>
<path d="M27.4608 16.4799C27.4608 16.7999 27.2108 17.0499 26.8908 17.0499C26.5608 17.0499 26.3008 16.7999 26.3008 16.4599C26.3008 16.1299 26.5708 15.8799 26.9108 15.8899C27.2308 15.8999 27.4708 16.1499 27.4608 16.4799Z" fill="black"/>
</svg>
