<svg width="170" height="34" viewBox="0 0 170 34" fill="none" xmlns="http://www.w3.org/2000/svg">
<path d="M158.39 15.6949H155.747V1.25659H159.949L162.512 11.0246L165.023 1.25659H169.225V15.6949H166.582V4.40066L163.828 15.6949H161.143L158.384 4.3854L158.39 15.6949ZM147.169 4.67542L145.329 10.002H149.129L147.169 4.67542ZM140.297 15.6949L145.726 1.25659H148.733L154.299 15.6949H151.185L150.002 12.4592H144.447L143.326 15.6949H140.297ZM130.488 7.31072H133.738C134.388 7.35762 135.037 7.20242 135.588 6.86812C135.796 6.70882 135.96 6.50332 136.067 6.26932C136.174 6.03542 136.22 5.77992 136.201 5.52502C136.219 5.26862 136.173 5.01192 136.066 4.77632C135.96 4.54084 135.796 4.33346 135.588 4.17173C135.038 3.83323 134.389 3.67609 133.738 3.72403H130.488V7.31072ZM127.676 1.25659H133.183C135.174 1.25659 136.659 1.59576 137.639 2.27409C138.131 2.63604 138.522 3.11008 138.777 3.65357C139.031 4.19705 139.142 4.79292 139.098 5.38762C139.137 5.99722 139.009 6.60592 138.726 7.15262C138.443 7.69922 138.015 8.16432 137.486 8.50122C136.838 8.88652 136.121 9.15062 135.371 9.27952C136.357 9.91012 137.191 10.7357 137.819 11.7012L140.208 15.6898H136.83L135.514 13.553C134.865 12.4265 134.095 11.3692 133.215 10.3988C132.986 10.1577 132.709 9.96392 132.4 9.82922C132.091 9.69452 131.757 9.62182 131.418 9.61532H130.488V15.6949H127.676V1.25659ZM124.674 10.0681C124.674 12.1998 124.256 13.7158 123.4 14.6214C122.544 15.527 121.138 15.9594 119.135 15.9594C117.131 15.9594 115.699 15.5066 114.848 14.6011C113.997 13.6955 113.574 12.1998 113.574 10.0681V1.25659H116.381V10.0071C116.381 11.2789 116.592 12.1794 117.015 12.7187C117.59 13.2322 118.345 13.5175 119.129 13.5175C119.913 13.5175 120.669 13.2322 121.243 12.7187C121.666 12.1794 121.878 11.2789 121.878 10.0071V1.25659H124.674V10.0681ZM103.373 7.75842H105.461C106.224 7.80962 106.985 7.63182 107.639 7.24962C107.877 7.08282 108.069 6.86162 108.197 6.60602C108.326 6.35032 108.386 6.06812 108.373 5.78442C108.396 5.49292 108.343 5.20052 108.218 4.93392C108.094 4.66732 107.902 4.435 107.66 4.25821C107.006 3.87604 106.245 3.6983 105.482 3.74946H103.394L103.373 7.75842ZM100.561 15.6949V1.25659H105.794C107.628 1.25659 108.997 1.62289 109.901 2.36567C110.805 3.10844 111.27 4.25821 111.27 5.78442C111.27 7.31072 110.768 8.41982 109.758 9.16252C108.749 9.90532 107.211 10.2716 105.144 10.2716H103.394V15.6949H100.561ZM90.3709 7.75842H92.485C93.2496 7.80792 94.0116 7.63042 94.6679 7.24962C94.9017 7.08002 95.0885 6.85762 95.2117 6.60212C95.3357 6.34662 95.3917 6.06582 95.3757 5.78442C95.3987 5.49292 95.3457 5.20052 95.2217 4.93392C95.0966 4.66732 94.9045 4.435 94.6626 4.25821C94.0063 3.87749 93.2443 3.69991 92.4797 3.74946H90.3656L90.3709 7.75842ZM87.5643 15.6949V1.25659H92.7969C94.6309 1.25659 95.9997 1.62289 96.9037 2.36567C97.8077 3.10844 98.2727 4.25821 98.2727 5.78442C98.2727 7.31072 97.7437 8.41982 96.7607 9.16252C95.7777 9.90532 94.2134 10.2716 92.1468 10.2716H90.392V15.6949H87.5643ZM78.949 4.67542L77.1044 10.002H80.9046L78.949 4.67542ZM72.0779 15.6949L77.5219 1.25659H80.5293L86.0896 15.6949H82.9765L81.7873 12.4592H76.2429L75.1276 15.6949H72.0779ZM62.0937 15.6949H59.451V1.25659H62.1994L67.8919 10.8109V1.25659H70.5346V15.6949H67.7492L62.1201 6.20162L62.0937 15.6949ZM50.8304 4.67542L48.9911 10.002H52.7913L50.8304 4.67542ZM43.9594 15.6949L49.3875 1.25659H52.3949L57.9605 15.6949H54.8474L53.6582 12.4592H48.1084L46.9774 15.6949H43.9594ZM31.7394 15.6949H29.0967V1.25659H33.325L35.8779 11.0246L38.3832 1.25659H42.6116V15.6949H39.9689V4.40066L37.1993 15.6949H34.5037L31.7447 4.3854L31.7394 15.6949Z" fill="#322F3B"/>
<path d="M163.257 31.2932H165.202C165.534 31.3233 165.868 31.2652 166.168 31.1253C166.468 30.9854 166.723 30.7689 166.904 30.4995C167.237 29.9908 167.401 29.0547 167.401 27.7573C167.401 26.46 167.221 25.5341 166.872 25.005C166.661 24.7266 166.377 24.5064 166.05 24.3662C165.723 24.2261 165.363 24.1709 165.007 24.2063H163.257V31.2932ZM161.312 33.1603V22.3392H165.012C166.538 22.3392 167.656 22.7716 168.368 23.6365C169.08 24.5013 169.432 25.858 169.425 27.7065V27.7472C169.425 29.5481 169.076 30.8963 168.368 31.8172C167.994 32.2741 167.509 32.6359 166.957 32.8709C166.404 33.1059 165.8 33.207 165.197 33.1653H161.307L161.312 33.1603ZM150.461 33.1603V22.3392H157.602V24.1808H152.39V26.5669H157.232V28.4085H152.39V31.3237H157.787V33.1603H150.461ZM142.533 33.1603V24.1808H139.673V22.3392H147.337V24.1808H144.473V33.1603H142.533ZM134.684 33.1603V22.3392H136.629V33.1603H134.684ZM123.437 33.1603H121.613V22.3392H124.52L126.259 29.6601L127.993 22.3392H130.9V33.1603H129.076V24.6947L127.168 33.1603H125.308L123.399 24.6896L123.437 33.1603ZM115.958 33.1603V22.3392H117.897V33.1603H115.958ZM105.958 33.1603V22.3392H107.897V31.3237H112.749V33.1603H105.958ZM91.2954 33.1603V22.3392H98.4467V24.1808H93.2352V26.5669H98.0767V28.4085H93.2352V31.3237H98.6317V33.1603H91.2954ZM87.7489 29.8127C87.5868 30.8112 87.0958 31.7333 86.3482 32.4429C85.6397 33.0662 84.7072 33.4 83.7478 33.3739C83.1228 33.3993 82.5009 33.2771 81.9362 33.0182C81.3715 32.7593 80.8812 32.3714 80.5078 31.8884C79.7308 30.8709 79.3397 29.5227 79.3397 27.7573C79.3397 25.992 79.7308 24.6133 80.5078 23.6212C80.8797 23.136 81.3695 22.7459 81.9344 22.4851C82.4992 22.2244 83.1219 22.1009 83.7478 22.1255C84.669 22.0985 85.5688 22.395 86.2795 22.9598C87.0176 23.5952 87.5312 24.4364 87.7489 25.3662L85.8144 25.875C85.7497 25.3446 85.5087 24.8485 85.1273 24.4606C84.7497 24.1309 84.2517 23.9589 83.7425 23.9824C83.3804 23.9806 83.0248 24.0746 82.7145 24.254C82.4041 24.4334 82.1509 24.6914 81.9824 24.9999C81.514 25.85 81.2947 26.8067 81.3482 27.7675C81.2948 28.7251 81.5141 29.6785 81.9824 30.5249C82.1495 30.8345 82.4024 31.0935 82.7131 31.2731C83.0238 31.4527 83.3801 31.546 83.7425 31.5424C84.0011 31.5446 84.2569 31.4909 84.4911 31.3852C84.7253 31.2796 84.9319 31.1247 85.0956 30.9319C85.4953 30.4239 85.7438 29.8206 85.8144 29.1869L87.7489 29.8127ZM69.9211 33.1603H68.0976V22.3392H70.0003L73.938 29.5024V22.3392H75.7562V33.1603H73.8323L69.9211 26.0378V33.1603ZM60.1906 24.9033L58.9168 28.8969H61.5595L60.1906 24.9033ZM55.4337 33.1603L59.181 22.3392H61.2635L65.1166 33.1603H62.9601L62.1567 30.7132H58.3195L57.5478 33.1603H55.4337ZM46.6545 33.1603H44.8628V22.3392H46.7655L50.6767 29.5024V22.3392H52.5002V33.1603H50.5763L46.6651 26.0378L46.6545 33.1603ZM39.1281 33.1603V22.3392H41.0731V33.1603H39.1281ZM29.0857 33.1603V22.3392H35.7242V24.1808H31.0519V26.7246H35.0583V28.5612H31.0519V33.1399H29.1068L29.0857 33.1603Z" fill="#322F3B"/>
<path fill-rule="evenodd" clip-rule="evenodd" d="M7.76959 20.3245L6.50109 22.4969C5.46629 21.9534 4.51906 21.2679 3.68924 20.4619L5.34359 18.5795C4.76306 18.0059 4.25884 17.365 3.84252 16.6717L1.6702 17.9334C1.08283 16.9531 0.64158 15.8981 0.35941 14.7995L2.74315 13.9601C2.5897 13.2797 2.51175 12.5856 2.51059 11.8895C2.51059 11.7877 2.51059 11.686 2.51059 11.5842L0 11.3095C0.05517 10.2075 0.26315 9.11762 0.6184 8.06872L3.10784 8.63352C3.36528 7.91872 3.70945 7.23562 4.13322 6.59852L2.14589 5.07222C2.7511 4.20619 3.47066 3.41952 4.2865 2.73198L6.15759 4.44138C6.76949 3.96055 7.44049 3.5539 8.15549 3.23056L7.14589 0.94627C8.17539 0.48604 9.26839 0.17078 10.3912 0.01018L10.9779 2.45217C11.3686 2.40264 11.7624 2.37884 12.1565 2.38095C12.5683 2.3807 12.9797 2.4062 13.388 2.45726L13.869 0C14.9839 0.15437 16.0698 0.4628 17.0931 0.91575L16.2263 3.24073C16.9528 3.57199 17.6315 3.99268 18.2454 4.49226L20.0213 2.73198C20.8711 3.44221 21.6146 4.26231 22.2306 5.16892L20.1957 6.64422C20.6619 7.32552 21.0333 8.06272 21.3004 8.83702L23.8004 8.38932C24.1037 9.36522 24.2812 10.3733 24.3289 11.3909L21.8183 11.5944C21.8183 11.6859 21.8183 11.7724 21.8183 11.864C21.8188 12.5793 21.7372 13.2925 21.5752 13.9906L23.9008 15.0437C23.6178 16.0423 23.2021 17.0016 22.664 17.8978L20.4177 16.7633C19.9621 17.4275 19.4302 18.0402 18.8321 18.5897L20.5498 20.5382C19.7899 21.2523 18.9393 21.8711 18.0181 22.3799L16.369 20.2787C15.8421 20.4338 15.3831 20.7522 15.0635 21.1843C14.7867 21.5094 14.6285 21.913 14.6132 22.333C14.5979 22.7531 14.7264 23.1664 14.979 23.5093H13.869C14.0182 23.6183 14.1417 23.7565 14.2314 23.9148C14.321 24.073 14.3749 24.2478 14.3894 24.4275C14.4038 24.6073 14.3786 24.7879 14.3154 24.9576C14.2521 25.1273 14.1522 25.2821 14.0223 25.412C14.0223 25.412 20.2116 27.6963 20.2327 27.6963V31.7663C19.6037 31.7663 18.3881 31.7663 18.3669 31.7663C17.5813 31.1484 16.6677 30.6992 15.6872 30.4486C14.7972 30.2306 13.8874 30.096 12.9705 30.0467C11.7404 30.0105 10.5099 30.1077 9.30239 30.3367C8.10289 30.6399 6.96349 31.1315 5.93029 31.7917C5.26959 31.7917 4.61948 31.7917 3.96409 31.7917V27.62C3.99051 27.62 10.1851 25.3815 10.2009 25.3917C10.0612 25.2708 9.95109 25.1217 9.87859 24.9549C9.80599 24.7882 9.77289 24.608 9.78149 24.4274C9.78999 24.2469 9.84019 24.0704 9.92829 23.9107C10.0164 23.751 10.1402 23.6122 10.2908 23.5042H9.34469C9.50979 23.2469 9.62009 22.9606 9.66909 22.6618C9.71809 22.3631 9.70479 22.058 9.63009 21.7643C9.27069 20.5534 7.77489 20.3245 7.77489 20.3194L7.76959 20.3245Z" fill="#231F20"/>
<path fill-rule="evenodd" clip-rule="evenodd" d="M20.4599 11.9708C20.4839 14.156 19.6075 16.2613 18.0226 17.826C16.4376 19.3907 14.2733 20.2872 12.0032 20.3194C9.73259 20.2885 7.56739 19.3924 5.98219 17.8274C4.39695 16.2625 3.52103 14.1564 3.54644 11.9708C3.52104 9.78572 4.39712 7.68012 5.98249 6.11602C7.56789 4.55182 9.73309 3.65682 12.0032 3.62732C14.2728 3.65816 16.4372 4.55358 18.0223 6.11742C19.6073 7.68132 20.4839 9.78612 20.4599 11.9708Z" fill="white"/>
<path fill-rule="evenodd" clip-rule="evenodd" d="M19.7831 11.9708C19.7831 16.2748 16.2894 19.7649 11.9765 19.7649C7.66349 19.7649 4.16455 16.2748 4.16455 11.9708C4.14284 10.9648 4.32803 9.96461 4.70946 9.02781C5.0909 8.09101 5.66109 7.23602 6.38709 6.51212C7.11309 5.78822 7.98079 5.20962 8.93999 4.80972C9.89929 4.40979 10.9312 4.19642 11.9765 4.18188C13.0213 4.19708 14.0526 4.41095 15.0113 4.81112C15.9699 5.21132 16.8369 5.79002 17.5624 6.51392C18.2879 7.23772 18.8575 8.09252 19.2386 9.02902C19.6198 9.96552 19.8048 10.9652 19.7831 11.9708Z" fill="#231F20"/>
<path fill-rule="evenodd" clip-rule="evenodd" d="M4.63533 31.1812V28.0524L10.3595 25.9411C10.408 25.9242 10.4613 25.9245 10.5096 25.9421C10.5579 25.9597 10.5981 25.9933 10.623 26.0368C10.6479 26.0804 10.6557 26.1311 10.6452 26.1797C10.6347 26.2284 10.6065 26.2719 10.5656 26.3023C10.3542 26.4295 5.08988 28.3373 5.08459 28.3373V30.8047C5.30059 30.8283 5.51869 30.8283 5.73469 30.8047C6.41609 30.4475 7.12259 30.1364 7.84889 29.8737C9.01369 29.5471 10.2084 29.3291 11.4166 29.2225C11.85 29.2225 13.1185 29.2225 13.5889 29.2632C14.3123 29.3226 15.0298 29.4366 15.7348 29.604C16.7798 29.9304 17.7833 30.369 18.7263 30.9115C18.8509 30.9266 18.977 30.9266 19.1016 30.9115V28.3627L13.8162 26.3277C13.5677 26.231 13.684 25.8546 13.9007 25.9105C13.943 25.9105 19.5931 28.0473 19.5984 28.0473C19.5984 28.1338 19.5984 31.2575 19.5984 31.2524C19.5984 31.2473 18.5413 31.2524 18.5413 31.2524C17.8876 30.857 17.1998 30.5166 16.4853 30.2349C15.5359 29.9009 14.547 29.6821 13.5413 29.5837C12.6369 29.5545 11.7316 29.5766 10.8299 29.6498C9.50739 29.824 8.21179 30.152 6.97149 30.6266C6.55919 30.8301 5.80869 31.1964 5.79809 31.1964C5.78759 31.1964 4.65647 31.1964 4.62476 31.1964" fill="white"/>
<path fill-rule="evenodd" clip-rule="evenodd" d="M13.4094 22.1356V21.7998H13.6638V21.8201H13.7009V21.8557H13.7274V22.0491H13.7009V22.0745H13.6638V22.1101H13.6373V22.1356H13.4094Z" fill="#231F20"/>
<path fill-rule="evenodd" clip-rule="evenodd" d="M21.5171 16.0459V16.0205H21.5435V15.9645H21.5752V15.8781H21.6017V15.7967H21.6281V15.7356H21.6598V15.6491H21.6862V15.5982H21.7127V15.5168H21.7444V15.4558H21.7708V15.4812H21.7972V15.5168H21.8554V15.5423H21.8818V15.5677H21.9135V15.5982H21.9399V15.6237H21.9664V15.6491H21.9981V15.6847H22.0245V15.7102H22.0826V15.7356H22.1091V15.7712H22.1355V15.7967H22.1672V15.8221H22.1936V15.8526H22.2201V15.8781H22.2571V15.9035H22.3046V15.9391H22.3416V15.9645H22.3628V15.99H22.3892V16.0205H22.4262V16.0459H21.5171Z" fill="#231F20"/>
<path fill-rule="evenodd" clip-rule="evenodd" d="M12.0562 14.2345C12.0304 14.2142 12.0119 14.1865 12.0033 14.1555C11.9948 14.1244 11.9967 14.0915 12.0087 14.0616C12.0505 13.9643 12.1275 13.8848 12.2254 13.8377C12.2835 13.8377 12.3892 13.8021 12.3998 13.8377C12.4103 13.8733 12.5266 13.9649 12.5055 14.0259C12.456 14.0964 12.389 14.1539 12.3105 14.193C12.232 14.2321 12.1446 14.2516 12.0562 14.2498" fill="white"/>
<path fill-rule="evenodd" clip-rule="evenodd" d="M11.4959 14.0772C11.3743 13.9042 11.9451 13.4463 12.1037 13.4972C12.1037 13.4972 12.2781 13.6295 12.2411 13.6854C12.1072 13.8449 11.9507 13.9853 11.776 14.1026C11.591 14.184 11.5276 14.1026 11.4959 14.0772Z" fill="white"/>
<path fill-rule="evenodd" clip-rule="evenodd" d="M11.4592 12.6984C11.2901 12.5559 10.9043 12.8612 10.6664 12.9171C10.4578 12.9305 10.2489 12.8938 10.0586 12.8103C10.0586 12.8103 10.0586 10.8109 10.0586 10.7244C10.32 10.6913 10.5848 10.6913 10.8461 10.7244C11.1832 10.8199 11.4902 10.9948 11.7394 11.2332C11.7394 11.2332 13.5787 12.7594 13.5787 13.1664C13.5787 13.1664 13.5364 13.2885 13.4201 13.2631C13.4201 13.2631 12.9339 12.6526 12.7648 12.7543C12.733 12.7798 12.7648 12.8612 12.7648 12.8663C12.8757 13.0291 13.3462 13.3241 13.2933 13.4818C13.2933 13.4818 13.2404 13.7108 13.0502 13.5785C12.8599 13.4462 12.4846 13.0698 12.4106 13.1766C12.3366 13.2834 12.881 13.6294 12.9392 13.6853C12.9973 13.7413 12.992 13.9957 12.6643 13.9143C12.3366 13.8329 11.4223 12.7136 11.4275 12.7187" fill="white"/>
<path fill-rule="evenodd" clip-rule="evenodd" d="M11.1209 13.6243C11.27 13.4464 11.4486 13.2934 11.6494 13.1715C11.7181 13.1715 11.9084 13.3241 11.8714 13.4004C11.8344 13.4767 11.29 13.9092 11.1896 13.8735C11.0891 13.8379 11.0469 13.7718 11.105 13.6243" fill="white"/>
<path fill-rule="evenodd" clip-rule="evenodd" d="M10.7348 13.3595C10.6978 13.2629 11.2158 12.8508 11.2634 12.8101C11.4325 12.7033 11.5699 12.9118 11.5171 13.0034C11.351 13.1825 11.1746 13.3524 10.9885 13.5122C10.9634 13.5225 10.9361 13.5274 10.9088 13.5264C10.8814 13.5253 10.8547 13.5185 10.8304 13.5063C10.8061 13.4942 10.785 13.477 10.7684 13.456C10.7519 13.435 10.7404 13.4108 10.7348 13.385" fill="white"/>
<path d="M9.85201 10.4952H9.00641V13.1153H9.85201V10.4952Z" fill="white"/>
<path d="M15.2485 10.4701H14.4028V13.0901H15.2485V10.4701Z" fill="white"/>
<path fill-rule="evenodd" clip-rule="evenodd" d="M13.8106 12.9068C13.7155 12.8458 11.6594 10.8973 11.6647 10.9023C11.4375 10.7308 11.1553 10.6409 10.8666 10.648C10.7539 10.6297 10.6532 10.5694 10.5865 10.4801C10.5336 10.4292 10.5283 10.2257 10.5283 10.2003H10.9512C10.9512 10.2003 11.1256 10.1647 11.1362 10.1647C11.668 10.28 12.1609 10.5233 12.5685 10.8718C12.7799 11.0092 13.7683 10.8718 14.207 10.8718C14.207 11.5027 14.207 12.7287 14.207 12.7796C14.207 12.8305 13.9004 12.9577 13.8106 12.9017" fill="white"/>
<path fill-rule="evenodd" clip-rule="evenodd" d="M12.9336 10.6938C12.7045 10.6257 12.4922 10.5131 12.3099 10.3631C12.3049 10.3519 12.3025 10.3397 12.3028 10.3274C12.3031 10.3151 12.306 10.3031 12.3115 10.292C12.317 10.2809 12.3249 10.2711 12.3347 10.2632C12.3444 10.2553 12.3558 10.2495 12.368 10.2461C12.368 10.2461 13.2454 10.0223 13.5308 10.2207C13.5689 10.2626 13.5935 10.3141 13.602 10.3691C13.6104 10.4242 13.6022 10.4804 13.5784 10.531C13.4985 10.615 13.3955 10.6753 13.2813 10.7051C13.1671 10.7348 13.0465 10.7327 12.9336 10.6989" fill="white"/>
<path fill-rule="evenodd" clip-rule="evenodd" d="M22.7645 10.3275V10.297H22.7063V10.2716H22.6798V10.2411H22.6428V10.2156H22.6164V10.1902H22.5954V10.1037H22.5583V9.90021H22.5954V9.79341H22.6798V9.76791H22.812V9.73231H22.9811V9.70691H23.1027V9.73231H23.1291V9.93581H23.1502V10.1037H23.1291V10.1902H23.1027V10.2156H23.0658V10.2411H23.0445V10.2716H23.0181V10.297H22.96V10.3275H22.7645Z" fill="#231F20"/>
<path fill-rule="evenodd" clip-rule="evenodd" d="M11.073 18.096C11.0202 18.096 10.9198 18.0401 10.9356 17.9943C11.0836 17.6076 11.702 17.2617 11.702 17.2362C10.946 17.0358 10.2073 16.7789 9.49266 16.468C9.32356 16.3205 9.46096 16.1424 9.54026 16.1933C10.3399 16.5657 11.1709 16.8721 12.0244 17.1091C12.8667 16.9971 13.6876 16.7674 14.461 16.4273C14.5139 16.4273 14.572 16.524 14.5509 16.6003C14.4399 17.0226 12.2993 17.3227 12.2993 17.3329C12.5389 17.4677 12.7375 17.6607 12.8754 17.8925C12.9441 18.0248 12.9124 18.2232 12.7485 18.0909C12.5847 17.9587 12.0297 17.4855 11.9769 17.4855C11.6882 17.6756 11.4095 17.8794 11.1418 18.096C11.1418 18.096 11.0889 18.096 11.073 18.096Z" fill="white"/>
<path fill-rule="evenodd" clip-rule="evenodd" d="M16.7919 12.2455C16.7021 11.9148 17.4526 11.3145 17.4684 11.3043C17.5101 11.652 17.4516 12.004 17.2993 12.3218C17.2359 12.4337 16.8606 12.5151 16.7708 12.2557" fill="white"/>
<path fill-rule="evenodd" clip-rule="evenodd" d="M16.6702 13.0595C16.6966 12.7186 17.6004 12.3879 17.6163 12.3879C17.5443 12.7243 17.3759 13.0345 17.13 13.2833C17.0349 13.3698 16.6543 13.3291 16.6702 13.0595Z" fill="white"/>
<path fill-rule="evenodd" clip-rule="evenodd" d="M16.427 13.9244C16.5169 13.5937 17.4841 13.4513 17.4841 13.4513C17.3541 13.7706 17.1345 14.0489 16.8498 14.2551C16.7389 14.3212 16.3742 14.2042 16.4482 13.9448" fill="white"/>
<path fill-rule="evenodd" clip-rule="evenodd" d="M16.0623 14.7943C16.2103 14.484 17.1722 14.5043 17.1881 14.5094C16.9988 14.7958 16.7295 15.025 16.4111 15.1708C16.2843 15.2166 15.946 15.0385 16.0623 14.7943Z" fill="white"/>
<path fill-rule="evenodd" clip-rule="evenodd" d="M15.5707 15.4507C15.7716 15.1708 16.7124 15.3693 16.7282 15.3743C16.4886 15.6219 16.1806 15.7984 15.8403 15.8831C15.7081 15.8831 15.4121 15.6694 15.5707 15.4507Z" fill="white"/>
<path fill-rule="evenodd" clip-rule="evenodd" d="M14.9209 16.1476C15.1693 15.9085 16.0625 16.2545 16.0784 16.2647C15.8 16.4699 15.466 16.5936 15.1164 16.6208C14.9843 16.6208 14.7306 16.3359 14.9209 16.1476Z" fill="white"/>
<path fill-rule="evenodd" clip-rule="evenodd" d="M14.5298 16.1781C14.2444 15.995 14.3977 15.0487 14.403 15.0334C14.6597 15.2665 14.8429 15.5645 14.9315 15.8932C14.9633 16.0204 14.736 16.3307 14.5087 16.1781" fill="white"/>
<path fill-rule="evenodd" clip-rule="evenodd" d="M14.8997 15.4505C14.6724 15.191 15.0794 14.3262 15.09 14.3109C15.2812 14.6036 15.3837 14.9419 15.386 15.2877C15.386 15.42 15.0741 15.654 14.8997 15.4505Z" fill="white"/>
<path fill-rule="evenodd" clip-rule="evenodd" d="M16.0676 11.8894C15.9351 11.6342 15.8424 11.3616 15.7927 11.0804L15.9513 11.1466C16.0094 11.1466 16.5961 11.3908 16.7018 11.8232C16.6968 11.8913 16.666 11.9552 16.6154 12.003C16.5648 12.0508 16.4978 12.0791 16.427 12.0827C16.2939 12.0501 16.1765 11.9747 16.094 11.869" fill="white"/>
<path fill-rule="evenodd" clip-rule="evenodd" d="M15.9886 12.7696C15.9199 12.4948 15.8879 12.2127 15.8935 11.9301L16.0362 12.0319C16.1794 12.1294 16.3002 12.2543 16.3911 12.3987C16.482 12.5431 16.5411 12.704 16.5647 12.8713C16.5438 12.9371 16.498 12.993 16.4363 13.0279C16.3746 13.0627 16.3016 13.074 16.2317 13.0596C16.1117 12.9935 16.0171 12.8917 15.9622 12.7696" fill="white"/>
<path fill-rule="evenodd" clip-rule="evenodd" d="M15.365 14.4686C15.3879 14.1878 15.4538 13.9118 15.5606 13.6495L15.6557 13.792C15.7627 13.9305 15.8394 14.0885 15.8812 14.2564C15.923 14.4243 15.929 14.5986 15.8988 14.7688C15.8558 14.8224 15.7936 14.8588 15.7244 14.8711C15.6551 14.8833 15.5836 14.8704 15.5236 14.8349C15.4324 14.7317 15.377 14.6036 15.365 14.4686Z" fill="white"/>
<path fill-rule="evenodd" clip-rule="evenodd" d="M15.7398 13.6699C15.7403 13.386 15.7812 13.1036 15.8613 12.8304C15.8613 12.8304 15.9406 12.9271 15.9723 12.9678C16.096 13.0954 16.1909 13.2462 16.2509 13.4108C16.311 13.5755 16.3349 13.7503 16.3212 13.9243C16.283 13.9817 16.2239 14.0234 16.1555 14.0413C16.0872 14.0591 16.0143 14.0519 15.9512 14.0209C15.8529 13.9275 15.7881 13.8063 15.7662 13.675" fill="white"/>
<path fill-rule="evenodd" clip-rule="evenodd" d="M16.7128 10.9329C16.792 10.6022 17.3681 10.2206 17.3946 10.2003C17.3975 10.2443 17.3975 10.2885 17.3946 10.3326C17.3946 11.1211 17.1197 11.2585 17.0774 11.289C17.0352 11.3195 16.5912 11.3959 16.6969 10.9329" fill="white"/>
<path fill-rule="evenodd" clip-rule="evenodd" d="M6.8078 10.9482C6.7288 10.8164 6.6768 10.6714 6.6546 10.5208C6.6573 10.3114 6.6857 10.1031 6.7391 9.90015C6.878 10.0355 7.0069 10.18 7.125 10.3326C7.1672 10.4038 7.4368 10.7243 7.2677 10.9227C7.2036 10.9754 7.122 11.0043 7.0377 11.0043C6.9535 11.0043 6.8719 10.9754 6.8078 10.9227" fill="white"/>
<path fill-rule="evenodd" clip-rule="evenodd" d="M6.80749 11.9147C6.68719 11.8156 6.58839 11.6945 6.51679 11.5586C6.44829 11.361 6.40569 11.1559 6.38989 10.9481C6.57249 11.0297 6.74909 11.1232 6.91839 11.2279C6.98189 11.2788 7.34129 11.4925 7.25139 11.7367C7.21389 11.8094 7.15089 11.8671 7.07359 11.8997C6.99629 11.9322 6.90959 11.9375 6.82859 11.9147" fill="white"/>
<path fill-rule="evenodd" clip-rule="evenodd" d="M6.83407 12.8611C6.71137 12.7649 6.61057 12.6454 6.53807 12.5101C6.46377 12.31 6.41747 12.1012 6.40057 11.8894C6.58417 11.9652 6.76097 12.0554 6.92917 12.159C6.99787 12.2099 7.36257 12.4185 7.27267 12.6678C7.23707 12.741 7.17547 12.7997 7.09897 12.8332C7.02247 12.8668 6.93607 12.8731 6.85517 12.8509" fill="white"/>
<path fill-rule="evenodd" clip-rule="evenodd" d="M7.99677 14.3314C8.00657 14.1769 8.04977 14.0262 8.12367 13.8888C8.24387 13.7195 8.38597 13.5656 8.54647 13.4309C8.58117 13.6192 8.60237 13.8096 8.60997 14.0007C8.60997 14.0821 8.64167 14.5094 8.38797 14.5705C8.30406 14.5804 8.21916 14.562 8.14787 14.5184C8.07647 14.4748 8.02316 14.4087 7.99677 14.3314Z" fill="white"/>
<path fill-rule="evenodd" clip-rule="evenodd" d="M8.56248 15.1198C8.55268 14.966 8.57608 14.8118 8.63118 14.6671C8.72708 14.4817 8.84978 14.3104 8.99588 14.1583C9.05378 14.3416 9.09798 14.5286 9.12798 14.7179C9.12798 14.7993 9.22308 15.2267 8.97998 15.3081C8.89848 15.3299 8.81158 15.3229 8.73508 15.2883C8.65848 15.2538 8.59718 15.194 8.56248 15.1198Z" fill="white"/>
<path fill-rule="evenodd" clip-rule="evenodd" d="M9.16467 15.7914C9.14157 15.64 9.15237 15.4856 9.19637 15.3386C9.28176 15.148 9.39187 14.9685 9.52407 14.8044C9.59367 14.9823 9.65197 15.1641 9.69847 15.3488C9.69847 15.4353 9.83057 15.8575 9.59277 15.9491C9.51367 15.977 9.42667 15.9764 9.34797 15.9474C9.26927 15.9185 9.20417 15.863 9.16467 15.7914Z" fill="white"/>
<path fill-rule="evenodd" clip-rule="evenodd" d="M7.02976 13.9243C6.89976 13.8383 6.79136 13.7253 6.71266 13.5936C6.62566 13.4037 6.56516 13.2036 6.53296 12.9984C6.71546 13.0623 6.89226 13.1405 7.06146 13.2324C7.13016 13.2782 7.50546 13.4614 7.43676 13.7106C7.40606 13.7868 7.34836 13.85 7.27386 13.8891C7.19936 13.9282 7.11286 13.9407 7.02976 13.9243Z" fill="white"/>
<path fill-rule="evenodd" clip-rule="evenodd" d="M7.5792 14.8552C7.4375 14.7893 7.31289 14.6937 7.21449 14.5754C7.10119 14.3991 7.0124 14.2092 6.9502 14.0107C7.1386 14.0513 7.32399 14.104 7.50519 14.1684C7.58449 14.204 7.9809 14.3261 7.94919 14.5907C7.92949 14.6695 7.8816 14.7392 7.814 14.7876C7.7464 14.8359 7.66329 14.8599 7.5792 14.8552Z" fill="white"/>
<path fill-rule="evenodd" clip-rule="evenodd" d="M8.15545 15.6796C8.00315 15.6484 7.86035 15.584 7.73795 15.4914C7.58385 15.35 7.45055 15.1891 7.34155 15.0132C7.53315 14.9967 7.72595 14.9967 7.91765 15.0132C8.00215 15.0132 8.41975 15.0539 8.44615 15.3133C8.44665 15.3958 8.41745 15.4758 8.36345 15.5399C8.30945 15.6039 8.23415 15.6479 8.15015 15.6644" fill="white"/>
<path fill-rule="evenodd" clip-rule="evenodd" d="M8.92151 16.3968C8.76571 16.3951 8.61231 16.3604 8.47221 16.295C8.29501 16.183 8.13341 16.0496 7.99121 15.8982C8.17881 15.8536 8.36961 15.823 8.56211 15.8066C8.64661 15.8066 9.05891 15.7456 9.14351 15.9949C9.16101 16.0763 9.14841 16.161 9.10791 16.2344C9.06731 16.3078 9.00141 16.3653 8.92151 16.3968Z" fill="white"/>
<path fill-rule="evenodd" clip-rule="evenodd" d="M15.6345 10.124C15.7931 10.18 16.6335 10.5717 16.4802 11.0194C16.4632 11.0478 16.4406 11.0727 16.4136 11.0927C16.3866 11.1127 16.3558 11.1274 16.3229 11.1359C16.29 11.1444 16.2557 11.1466 16.2219 11.1423C16.1881 11.138 16.1556 11.1274 16.1261 11.111C15.7085 10.8566 15.6345 10.124 15.6345 10.124Z" fill="white"/>
<path fill-rule="evenodd" clip-rule="evenodd" d="M7.65881 10.872C7.55841 10.872 7.39991 10.872 7.41041 10.6736C7.51031 10.485 7.66131 10.3259 7.84731 10.2131C8.03341 10.1002 8.24771 10.0379 8.46751 10.0326C8.50451 10.0326 8.22441 10.8262 7.67471 10.872" fill="white"/>
<path fill-rule="evenodd" clip-rule="evenodd" d="M7.63191 11.752C7.52101 11.752 7.35181 11.752 7.35181 11.5485C7.43751 11.3369 7.58091 11.1514 7.76701 11.0117C7.95301 10.8721 8.17481 10.7833 8.40891 10.7548C8.44591 10.7548 8.19751 11.6655 7.61611 11.7723" fill="white"/>
<path fill-rule="evenodd" clip-rule="evenodd" d="M7.60585 12.7541C7.50015 12.7541 7.33105 12.7541 7.33105 12.5506C7.41395 12.3368 7.55646 12.1491 7.74296 12.0082C7.92946 11.8673 8.15265 11.7786 8.38815 11.7518C8.42515 11.7518 8.18196 12.6625 7.59525 12.7693" fill="white"/>
<path fill-rule="evenodd" clip-rule="evenodd" d="M7.90199 13.7106C7.79629 13.7412 7.62719 13.7717 7.57959 13.5733C7.61519 13.3456 7.71339 13.1313 7.86389 12.9524C8.01449 12.7735 8.21189 12.6366 8.43579 12.5558C8.46759 12.5558 8.43579 13.4919 7.90729 13.7157" fill="white"/>
<path fill-rule="evenodd" clip-rule="evenodd" d="M16.5435 10.4446C16.4633 10.4395 16.3874 10.4078 16.3286 10.3549C16.2699 10.3021 16.2319 10.2313 16.2211 10.1546C16.1686 9.7838 16.1544 9.4089 16.1788 9.0354C16.1788 9.0354 16.9875 9.8341 16.9293 10.1139C16.9097 10.2013 16.8617 10.2803 16.7924 10.3397C16.723 10.3992 16.6359 10.4359 16.5435 10.4446Z" fill="white"/>
<path fill-rule="evenodd" clip-rule="evenodd" d="M7.21967 9.69676C7.40627 9.33597 7.68446 9.02626 8.02837 8.79626C8.05567 9.04826 8.05567 9.30237 8.02837 9.55437C7.97556 9.82397 7.74827 10.1496 7.62137 10.17C7.56057 10.1725 7.49997 10.161 7.44467 10.1363C7.38947 10.1117 7.34117 10.0746 7.30387 10.0283C7.26657 9.98186 7.24137 9.92756 7.23037 9.86986C7.21947 9.81226 7.22307 9.75286 7.24087 9.69676" fill="white"/>
<path fill-rule="evenodd" clip-rule="evenodd" d="M11.6385 4.65503H11.802V5.67253H11.6279L11.6385 4.65503Z" fill="white"/>
<path fill-rule="evenodd" clip-rule="evenodd" d="M12.0564 5.44355C12.0564 5.32145 12.0828 4.71095 12.0881 4.63965H12.2731C12.2731 4.82795 12.2255 5.36715 12.2308 5.41805C12.2361 5.46895 12.4052 5.52495 12.4475 5.41805C12.4898 5.31125 12.5321 4.68035 12.5374 4.64475H12.7171C12.7171 4.64475 12.6801 5.27565 12.6219 5.47915C12.5638 5.68265 12.0564 5.73855 12.0405 5.44355" fill="white"/>
<path fill-rule="evenodd" clip-rule="evenodd" d="M13.0131 4.73145L13.1774 4.75695L13.0343 5.77445C12.9778 5.77725 12.9212 5.77725 12.8648 5.77445L13.0131 4.73145Z" fill="white"/>
<path fill-rule="evenodd" clip-rule="evenodd" d="M13.3139 5.60635C13.3139 5.47915 13.4672 4.88905 13.483 4.81775L13.668 4.85845C13.631 5.04165 13.4936 5.56565 13.4883 5.61655C13.483 5.66735 13.6469 5.75385 13.6997 5.66735C13.7526 5.58095 13.9111 4.95515 13.9217 4.92465C13.9809 4.93575 14.0392 4.95105 14.0961 4.97045C14.0961 4.97045 13.9587 5.53515 13.8794 5.73355C13.8002 5.93195 13.2769 5.90145 13.3139 5.60635Z" fill="white"/>
<path fill-rule="evenodd" clip-rule="evenodd" d="M14.3451 5.04675L14.4984 5.09765L14.2077 6.05915C14.1504 6.04525 14.0939 6.02835 14.0386 6.00835L14.3451 5.04675Z" fill="white"/>
<path fill-rule="evenodd" clip-rule="evenodd" d="M14.4927 5.94217C14.535 5.82517 14.7887 5.27067 14.8204 5.20447L14.9896 5.28087C14.9156 5.45377 14.6777 5.94217 14.6619 5.99307C14.646 6.04397 14.7887 6.15587 14.8574 6.08467C14.9262 6.01347 15.2116 5.42327 15.2274 5.39787C15.2823 5.41917 15.3353 5.44467 15.386 5.47417C15.386 5.47417 15.1429 5.98287 15.0213 6.18127C14.8997 6.37977 14.4029 6.22197 14.4927 5.94217Z" fill="white"/>
<path fill-rule="evenodd" clip-rule="evenodd" d="M15.6451 5.61658L15.7878 5.69798L15.291 6.57808L15.1377 6.49668L15.6451 5.61658Z" fill="white"/>
<path fill-rule="evenodd" clip-rule="evenodd" d="M15.5813 6.53735C15.6395 6.43055 15.9936 5.93195 16.0359 5.87085L16.1892 5.97775C16.0834 6.13545 15.761 6.56785 15.7399 6.61365C15.7328 6.63565 15.7328 6.65925 15.7401 6.68115C15.7474 6.70315 15.7616 6.72235 15.7807 6.73625C15.7997 6.75015 15.8228 6.75805 15.8467 6.75885C15.8707 6.75975 15.8943 6.75345 15.9143 6.74085C15.9883 6.68995 16.3794 6.16085 16.4059 6.13545C16.4554 6.16635 16.5015 6.20215 16.5433 6.24225C16.5433 6.24225 16.205 6.71545 16.057 6.86805C15.909 7.02065 15.4386 6.79685 15.5813 6.53735Z" fill="white"/>
<path fill-rule="evenodd" clip-rule="evenodd" d="M16.7706 6.42542L16.8975 6.53222L16.2474 7.31062L16.1152 7.20382L16.7706 6.42542Z" fill="white"/>
<path fill-rule="evenodd" clip-rule="evenodd" d="M16.5329 7.31067C16.6122 7.21907 17.0615 6.80187 17.109 6.74597L17.2359 6.87307C17.1038 7.01047 16.7073 7.38187 16.6703 7.41747C16.6333 7.45307 16.7285 7.61587 16.8236 7.57517C16.9188 7.53447 17.3892 7.09187 17.4156 7.06647C17.4587 7.10647 17.4993 7.14897 17.5372 7.19367C17.5372 7.19367 17.1143 7.59557 16.9346 7.70237C16.7549 7.80917 16.3215 7.55487 16.5329 7.31067Z" fill="white"/>
<path fill-rule="evenodd" clip-rule="evenodd" d="M17.722 7.43774L17.8277 7.56494L17.0402 8.20594L16.9292 8.07374L17.722 7.43774Z" fill="white"/>
<path fill-rule="evenodd" clip-rule="evenodd" d="M17.3208 8.27736C17.4159 8.19596 17.9286 7.85516 17.9867 7.81946L18.0924 7.96706C17.9392 8.07896 17.4793 8.36896 17.4423 8.40456C17.4053 8.44016 17.4423 8.61316 17.5586 8.58776C17.6749 8.56226 18.2034 8.20616 18.2351 8.19086C18.2669 8.17566 18.3144 8.31296 18.3303 8.34356C18.3461 8.37406 17.844 8.66406 17.6485 8.75556C17.4529 8.84716 17.1199 8.47066 17.3208 8.27736Z" fill="white"/>
<path fill-rule="evenodd" clip-rule="evenodd" d="M18.4726 8.5929L18.5519 8.7404L17.6692 9.24909C17.6353 9.20049 17.6053 9.1495 17.5794 9.0965L18.4726 8.5929Z" fill="white"/>
<path fill-rule="evenodd" clip-rule="evenodd" d="M17.9071 9.34562C18.0128 9.28452 18.5836 9.05052 18.647 9.02002C18.647 9.07092 18.721 9.19302 18.721 9.19302C18.5466 9.26932 18.0392 9.46772 17.9969 9.49312C17.9546 9.51862 17.9969 9.69662 18.0762 9.69152C18.3276 9.62022 18.5747 9.53532 18.8162 9.43722C18.8413 9.48992 18.8625 9.54432 18.8796 9.60002C18.8796 9.60002 18.351 9.82382 18.1291 9.87472C17.9071 9.92562 17.6481 9.48812 17.9071 9.36602" fill="white"/>
<path fill-rule="evenodd" clip-rule="evenodd" d="M18.9643 9.85437L19.0119 10.007L18.0658 10.3631L18.013 10.2003L18.9643 9.85437Z" fill="white"/>
<path fill-rule="evenodd" clip-rule="evenodd" d="M18.2981 10.5159C18.4144 10.4752 19.0169 10.3429 19.0856 10.3276C19.1543 10.3124 19.1279 10.5057 19.1279 10.5057C18.9429 10.5515 18.4091 10.6583 18.3615 10.6787C18.3139 10.699 18.3034 10.8771 18.4038 10.8872C18.5042 10.8974 19.1438 10.7702 19.1755 10.7651C19.1909 10.8222 19.2032 10.8799 19.2125 10.9381C19.2125 10.9381 18.6416 11.0602 18.4249 11.0755C18.2082 11.0907 18.018 10.6125 18.2981 10.5159Z" fill="white"/>
<path fill-rule="evenodd" clip-rule="evenodd" d="M19.2549 11.2279V11.3907L18.2454 11.528V11.3551L19.2549 11.2279Z" fill="white"/>
<path fill-rule="evenodd" clip-rule="evenodd" d="M18.4673 11.747C18.5889 11.747 19.202 11.6961 19.276 11.691C19.35 11.6859 19.276 11.8742 19.276 11.8742C19.0857 11.8742 18.5413 11.9047 18.4937 11.9148C18.4462 11.925 18.4039 12.1031 18.4937 12.1336C18.7543 12.1462 19.0154 12.1462 19.276 12.1336C19.276 12.1336 19.276 12.2812 19.276 12.3117C19.276 12.3422 18.6946 12.3117 18.4779 12.3117C18.2612 12.3117 18.1502 11.8029 18.4462 11.7368" fill="white"/>
<path fill-rule="evenodd" clip-rule="evenodd" d="M19.2759 12.6016V12.7644L18.2664 12.683V12.51L19.2759 12.6016Z" fill="white"/>
<path fill-rule="evenodd" clip-rule="evenodd" d="M18.4041 12.9374C18.5256 12.9374 19.1335 13.0595 19.2022 13.0748C19.2022 13.1307 19.1704 13.2579 19.1704 13.2579C18.9802 13.2274 18.4463 13.1104 18.3988 13.1104C18.3512 13.1104 18.2666 13.2732 18.3512 13.3241C18.4358 13.3749 19.0806 13.5072 19.1123 13.5174C19.102 13.5742 19.0879 13.6302 19.07 13.6853C19.07 13.6853 18.4992 13.5733 18.2931 13.5021C18.0869 13.4309 18.1081 12.912 18.4041 12.9374Z" fill="white"/>
<path fill-rule="evenodd" clip-rule="evenodd" d="M19.0276 13.9702L18.9641 14.1279L17.9863 13.8532C17.9991 13.7981 18.0149 13.7438 18.0339 13.6904L19.0276 13.9702Z" fill="white"/>
<path fill-rule="evenodd" clip-rule="evenodd" d="M18.1131 14.1431C18.2294 14.1737 18.8002 14.3975 18.869 14.428C18.869 14.4789 18.8055 14.601 18.8055 14.601C18.6258 14.5349 18.1237 14.3212 18.0709 14.311C18.018 14.3009 17.9123 14.4484 17.9916 14.5145C18.0709 14.5807 18.6681 14.8249 18.6998 14.8401C18.7315 14.8554 18.6417 14.9775 18.6311 15.0029C18.6205 15.0284 18.1026 14.7893 17.8964 14.6824C17.6903 14.5756 17.8224 14.0668 18.1131 14.1431Z" fill="white"/>
<path fill-rule="evenodd" clip-rule="evenodd" d="M18.5307 15.2726L18.4567 15.4201L17.5476 14.9724C17.5691 14.9202 17.5938 14.8692 17.6216 14.8198L18.5307 15.2726Z" fill="white"/>
<path fill-rule="evenodd" clip-rule="evenodd" d="M17.6005 15.2725C17.7115 15.3233 18.2242 15.6591 18.2876 15.6998L18.1872 15.8575C18.0234 15.7558 17.5741 15.4505 17.5265 15.4302C17.479 15.4098 17.3468 15.5268 17.405 15.6082C17.4631 15.6896 18.0075 16.0508 18.0339 16.0712C18.0054 16.1217 17.9717 16.1694 17.9335 16.2136C17.9335 16.2136 17.4472 15.8982 17.2834 15.7558C17.1195 15.6133 17.3362 15.1351 17.6005 15.247" fill="white"/>
<path fill-rule="evenodd" clip-rule="evenodd" d="M17.7854 16.4681L17.6797 16.6004L16.8816 15.9594C16.9138 15.9115 16.9491 15.8656 16.9873 15.822L17.7854 16.4681Z" fill="white"/>
<path fill-rule="evenodd" clip-rule="evenodd" d="M16.8819 16.2698C16.9771 16.3461 17.4105 16.7786 17.4633 16.8244L17.3365 16.9566C17.1991 16.8295 16.8079 16.4479 16.7762 16.4072C16.7445 16.3665 16.5807 16.4682 16.623 16.5598C16.6652 16.6514 17.1515 17.1144 17.1515 17.1398C17.11 17.183 17.0659 17.2238 17.0194 17.2619C17.0194 17.2619 16.6071 16.8498 16.4908 16.6819C16.3745 16.514 16.6652 16.0867 16.9031 16.2698" fill="white"/>
<path fill-rule="evenodd" clip-rule="evenodd" d="M16.8503 17.4856L16.7234 17.5924L16.0628 16.8242C16.1025 16.7843 16.1448 16.7469 16.1896 16.7123L16.8503 17.4856Z" fill="white"/>
<path fill-rule="evenodd" clip-rule="evenodd" d="M15.9408 17.1345C16.0253 17.2261 16.4006 17.7094 16.4429 17.7705L16.2949 17.8824C16.1786 17.7349 15.8562 17.2973 15.8192 17.2617C15.7822 17.2261 15.6131 17.2922 15.6448 17.3889C15.6765 17.4856 16.0623 18.0096 16.0782 18.035C16.0339 18.0729 15.9861 18.107 15.9355 18.1368C15.9355 18.1368 15.5814 17.6738 15.4809 17.4856C15.3805 17.2973 15.7346 16.9209 15.9408 17.1345Z" fill="white"/>
<path fill-rule="evenodd" clip-rule="evenodd" d="M15.6609 18.3099L15.5182 18.3862L15.0266 17.4857L15.1799 17.3993L15.6609 18.3099Z" fill="white"/>
<path fill-rule="evenodd" clip-rule="evenodd" d="M14.8945 17.8011C14.9579 17.908 15.2169 18.4625 15.2486 18.5286L15.0795 18.6049C14.9949 18.4371 14.7782 17.9385 14.7465 17.8978C14.7148 17.8571 14.5403 17.8978 14.5509 17.9894C14.5615 18.0809 14.8258 18.6813 14.8363 18.7118C14.7846 18.7399 14.7296 18.7621 14.6725 18.7779C14.6725 18.7779 14.4293 18.2692 14.3659 18.0453C14.3025 17.8215 14.7359 17.5366 14.8945 17.8011Z" fill="white"/>
<path fill-rule="evenodd" clip-rule="evenodd" d="M14.4026 18.8897L14.2493 18.9457L13.8899 17.9943L14.0485 17.9282L14.4026 18.8897Z" fill="white"/>
<path fill-rule="evenodd" clip-rule="evenodd" d="M13.7212 18.2539C13.7688 18.3658 13.9274 18.9559 13.9485 19.0272L13.7688 19.073C13.716 18.8949 13.5838 18.3658 13.5627 18.32C13.5415 18.2742 13.3565 18.2742 13.3513 18.376C13.346 18.4777 13.5045 19.1035 13.5098 19.1391C13.4544 19.1562 13.3979 19.1698 13.3407 19.1798C13.3407 19.1798 13.1874 18.6202 13.161 18.4065C13.1346 18.1928 13.6102 17.9741 13.7212 18.2539Z" fill="white"/>
<path fill-rule="evenodd" clip-rule="evenodd" d="M13.0497 19.2153L12.8911 19.2458L12.6956 18.2283L12.8647 18.1927L13.0497 19.2153Z" fill="white"/>
<path fill-rule="evenodd" clip-rule="evenodd" d="M12.4789 18.4624C12.5053 18.5845 12.5582 19.1899 12.5635 19.2662H12.3785C12.3785 19.078 12.3256 18.5387 12.3098 18.4878C12.2939 18.4369 12.1195 18.4064 12.0931 18.4878C12.0667 18.5692 12.0931 19.2357 12.0931 19.2662H11.9134C11.9134 19.2662 11.8658 18.6862 11.8817 18.4725C11.8975 18.2589 12.4102 18.1317 12.4578 18.4217" fill="white"/>
<path fill-rule="evenodd" clip-rule="evenodd" d="M11.6435 19.2917H11.48V18.2743H11.654L11.6435 19.2917Z" fill="white"/>
<path fill-rule="evenodd" clip-rule="evenodd" d="M11.237 18.4269C11.237 18.549 11.1524 19.1544 11.1418 19.2256L10.9568 19.2002C10.9568 19.0119 11.0626 18.4777 11.0626 18.4269C11.0626 18.376 10.8934 18.3048 10.8458 18.3963C10.7829 18.6481 10.7335 18.9028 10.6979 19.1595L10.5076 19.1289C10.5076 19.1289 10.5869 18.554 10.645 18.3505C10.7031 18.147 11.2264 18.1318 11.2211 18.4269" fill="white"/>
<path fill-rule="evenodd" clip-rule="evenodd" d="M10.243 19.073L10.0791 19.0425L10.2535 18.025L10.4227 18.0555L10.243 19.073Z" fill="white"/>
<path fill-rule="evenodd" clip-rule="evenodd" d="M10.0162 18.1826C9.98978 18.2996 9.78888 18.8795 9.76248 18.9457L9.58808 18.8846C9.64618 18.7066 9.83648 18.1978 9.84698 18.1469C9.85758 18.0961 9.70428 17.9943 9.64088 18.0757C9.57748 18.1571 9.35548 18.7625 9.33958 18.7931L9.17578 18.732C9.17578 18.732 9.36608 18.1826 9.46648 17.9892C9.56688 17.7959 10.0849 17.8926 9.99498 18.1826" fill="white"/>
<path fill-rule="evenodd" clip-rule="evenodd" d="M8.9223 18.6455L8.7691 18.5845L9.139 17.6433C9.1948 17.6606 9.2495 17.6809 9.3029 17.7043L8.9223 18.6455Z" fill="white"/>
<path fill-rule="evenodd" clip-rule="evenodd" d="M8.87959 17.7044C8.83209 17.8163 8.51489 18.3403 8.47259 18.4014L8.31409 18.3098C8.40919 18.1419 8.69989 17.684 8.72109 17.6382C8.72609 17.6158 8.72379 17.5924 8.71449 17.5712C8.70529 17.5501 8.68949 17.5322 8.66929 17.52C8.64909 17.5077 8.62549 17.5018 8.60159 17.5029C8.57779 17.5041 8.55489 17.5122 8.53609 17.5263C8.46739 17.5823 8.11319 18.1419 8.09209 18.1673C8.03959 18.1398 7.98999 18.1075 7.94409 18.0707C7.94409 18.0707 8.24539 17.5619 8.38279 17.4093C8.52019 17.2567 9.00649 17.4093 8.87959 17.7044Z" fill="white"/>
<path fill-rule="evenodd" clip-rule="evenodd" d="M7.71117 17.913L7.57367 17.8214L8.12867 16.9769C8.17997 17.0045 8.22937 17.035 8.27667 17.0685L7.71117 17.913Z" fill="white"/>
<path fill-rule="evenodd" clip-rule="evenodd" d="M7.86438 16.9769C7.79568 17.0837 7.40988 17.5568 7.36758 17.6128L7.19848 17.4856C7.31478 17.333 7.66888 16.9209 7.68998 16.8751C7.71118 16.8293 7.61068 16.6818 7.52618 16.7377C7.33898 16.9198 7.16258 17.1117 6.99758 17.3126C6.94968 17.2779 6.90548 17.2387 6.86548 17.1956C6.86548 17.1956 7.23018 16.7479 7.39398 16.6004C7.55788 16.4528 8.00708 16.7123 7.84858 16.9616" fill="white"/>
<path fill-rule="evenodd" clip-rule="evenodd" d="M6.63339 16.977L6.51709 16.86L7.24119 16.1528L7.36809 16.2749L6.63339 16.977Z" fill="white"/>
<path fill-rule="evenodd" clip-rule="evenodd" d="M6.96116 16.1019C6.87126 16.1884 6.39566 16.57 6.33746 16.6107L6.22116 16.4682C6.36386 16.341 6.79726 16.0154 6.83426 15.9595C6.87126 15.9035 6.79206 15.7611 6.69686 15.7916C6.60176 15.8221 6.08906 16.224 6.05736 16.2393C6.01956 16.1953 5.98436 16.1495 5.95166 16.1019C5.95166 16.1019 6.41146 15.7407 6.59646 15.6288C6.78146 15.5169 7.17256 15.8679 6.96116 16.0816" fill="white"/>
<path fill-rule="evenodd" clip-rule="evenodd" d="M5.75037 15.8373L5.66577 15.6949L6.52197 15.1556L6.61717 15.3032L5.75037 15.8373Z" fill="white"/>
<path fill-rule="evenodd" clip-rule="evenodd" d="M6.27917 15.0488C6.17347 15.1149 5.62377 15.3846 5.56027 15.4202L5.47577 15.2523C5.64487 15.1658 6.13647 14.9369 6.17867 14.9064C6.22097 14.8758 6.17867 14.6978 6.08357 14.7079C5.98847 14.7181 5.39117 15.003 5.36477 15.0132C5.33597 14.9625 5.31117 14.9098 5.29077 14.8555C5.52787 14.7348 5.77127 14.6261 6.02017 14.5299C6.26327 14.4485 6.54867 14.886 6.27917 15.0386" fill="white"/>
<path fill-rule="evenodd" clip-rule="evenodd" d="M5.13236 14.5347L5.07422 14.3821L6.03089 14.0361L6.09429 14.1989L5.13236 14.5347Z" fill="white"/>
<path fill-rule="evenodd" clip-rule="evenodd" d="M5.75058 13.8583C5.63958 13.9041 5.04765 14.0822 4.97894 14.1025L4.9261 13.9245C5.10579 13.8634 5.63438 13.721 5.67658 13.7006C5.71888 13.6803 5.71888 13.4971 5.61848 13.492C5.51808 13.4869 4.88909 13.665 4.85738 13.6701C4.83776 13.6134 4.82187 13.5557 4.80981 13.4971C4.80981 13.4971 5.37008 13.3343 5.58678 13.3038C5.80348 13.2733 6.02548 13.7413 5.75058 13.8583Z" fill="white"/>
<path fill-rule="evenodd" clip-rule="evenodd" d="M4.78351 13.2171L4.75708 13.0543L5.75079 12.8712L5.78249 13.0391L4.78351 13.2171Z" fill="white"/>
<path fill-rule="evenodd" clip-rule="evenodd" d="M5.52869 12.6269C5.40709 12.6574 4.79927 12.7286 4.72527 12.7388C4.65128 12.749 4.72527 12.5557 4.72527 12.5557C4.91026 12.5251 5.45469 12.4743 5.50219 12.459C5.52369 12.4498 5.54189 12.4348 5.55469 12.4158C5.56739 12.3969 5.57419 12.3748 5.57419 12.3522C5.57419 12.3296 5.56739 12.3075 5.55469 12.2885C5.54189 12.2695 5.52369 12.2545 5.50219 12.2453C5.41239 12.2453 4.7517 12.2911 4.71999 12.2911C4.71691 12.2335 4.71691 12.1758 4.71999 12.1181C4.71999 12.1181 5.30139 12.0469 5.51809 12.052C5.73479 12.0571 5.87749 12.5607 5.58679 12.6269" fill="white"/>
<path fill-rule="evenodd" clip-rule="evenodd" d="M4.66211 11.8341V11.6705H5.67689V11.8443L4.66211 11.8341Z" fill="white"/>
<path fill-rule="evenodd" clip-rule="evenodd" d="M5.51299 11.3807C5.39139 11.3807 4.77827 11.3807 4.70428 11.3807C4.63028 11.3807 4.70428 11.1975 4.70428 11.1975C4.89455 11.1975 5.43899 11.2382 5.49179 11.2331C5.54469 11.228 5.59749 11.0551 5.49179 11.0144C5.38609 10.9737 4.74656 10.9381 4.71485 10.933C4.68313 10.9279 4.71485 10.7905 4.71485 10.7549C4.71485 10.7193 5.29629 10.7854 5.50769 10.8261C5.71909 10.8668 5.77719 11.3858 5.48119 11.4061" fill="white"/>
<path fill-rule="evenodd" clip-rule="evenodd" d="M4.81494 10.4547L4.84137 10.2919L5.84559 10.4496C5.83979 10.5059 5.83099 10.562 5.81919 10.6175L4.81494 10.4547Z" fill="white"/>
<path fill-rule="evenodd" clip-rule="evenodd" d="M5.75029 10.1546C5.62349 10.1546 5.02623 10.002 4.95752 9.98672C4.95752 9.93082 4.99981 9.80872 4.99981 9.80872C5.18479 9.84432 5.71339 9.98162 5.76619 9.98162C5.81909 9.98162 5.89829 9.82902 5.81379 9.77302C5.72919 9.71712 5.09494 9.56452 5.06323 9.55432C5.03152 9.54412 5.10023 9.41182 5.1108 9.38132C5.12137 9.35082 5.67639 9.51362 5.88249 9.59502C6.08859 9.67642 6.04629 10.1902 5.75029 10.1546Z" fill="white"/>
<path fill-rule="evenodd" clip-rule="evenodd" d="M5.22192 9.11645L5.28012 8.96375L6.23672 9.29445C6.22232 9.34964 6.20462 9.40405 6.18392 9.45725L5.22192 9.11645Z" fill="white"/>
<path fill-rule="evenodd" clip-rule="evenodd" d="M6.22079 8.99463C6.09929 8.95393 5.53899 8.70973 5.47559 8.67923L5.54959 8.51133C5.75039 8.58253 6.21559 8.83693 6.27899 8.83693C6.34239 8.83693 6.44279 8.70973 6.36879 8.63853C6.29479 8.56723 5.69759 8.29763 5.67119 8.28233C5.69329 8.22783 5.71979 8.17513 5.75039 8.12463C5.99439 8.22973 6.23259 8.34693 6.46399 8.47573C6.68599 8.61303 6.51679 9.09123 6.23139 8.98443" fill="white"/>
<path fill-rule="evenodd" clip-rule="evenodd" d="M5.90887 7.87544L5.99347 7.73804L6.87617 8.24684L6.79157 8.39434L5.90887 7.87544Z" fill="white"/>
<path fill-rule="evenodd" clip-rule="evenodd" d="M6.89221 7.93138C6.78121 7.87538 6.27911 7.51928 6.22101 7.47858L6.32671 7.32598C6.48521 7.43278 6.92391 7.75838 6.97151 7.77878C7.01911 7.79908 7.15651 7.68718 7.09831 7.60068C7.04021 7.51418 6.51171 7.13778 6.49051 7.11738C6.52221 7.06758 6.55751 7.01998 6.59621 6.97498C6.59621 6.97498 7.07191 7.31068 7.22521 7.48368C7.37851 7.65668 7.15121 8.09928 6.89221 7.95178" fill="white"/>
<path fill-rule="evenodd" clip-rule="evenodd" d="M6.70697 6.84265L6.81277 6.71545L7.59497 7.36665L7.48397 7.49895L6.70697 6.84265Z" fill="white"/>
<path fill-rule="evenodd" clip-rule="evenodd" d="M7.60055 7.14283C7.51075 7.06643 7.07205 6.63403 7.04565 6.56283C7.08265 6.52213 7.17775 6.43563 7.17775 6.43563C7.30985 6.57303 7.66925 6.98003 7.70625 7.01053C7.74325 7.04103 7.90715 6.95963 7.87015 6.86293C7.83315 6.76633 7.39445 6.28813 7.37335 6.26263C7.41485 6.22113 7.45905 6.18203 7.50545 6.14563C7.50545 6.14563 7.90185 6.57303 8.03395 6.75103C8.16615 6.92913 7.83315 7.33613 7.60585 7.14283" fill="white"/>
<path fill-rule="evenodd" clip-rule="evenodd" d="M7.7168 6.0132L7.8489 5.9115L8.4726 6.7102L8.3352 6.8171L7.7168 6.0132Z" fill="white"/>
<path fill-rule="evenodd" clip-rule="evenodd" d="M8.5357 6.43055C8.4564 6.33385 8.13929 5.80985 8.10229 5.74885L8.26089 5.65215C8.36659 5.80985 8.6361 6.28295 8.6678 6.31865C8.6996 6.35425 8.8793 6.31865 8.8581 6.20665C8.837 6.09475 8.50399 5.55035 8.49339 5.51985C8.54239 5.48775 8.5936 5.45885 8.6467 5.43335C8.6467 5.43335 8.948 5.94215 9.0325 6.13035C9.1171 6.31865 8.71539 6.66455 8.5357 6.43055Z" fill="white"/>
<path fill-rule="evenodd" clip-rule="evenodd" d="M8.8374 5.3317L8.9854 5.2605L9.44 6.1661L9.2867 6.2424L8.8374 5.3317Z" fill="white"/>
<path fill-rule="evenodd" clip-rule="evenodd" d="M9.59841 5.90639C9.52971 5.80459 9.28121 5.24499 9.24951 5.17889L9.41871 5.10259C9.50321 5.27039 9.71461 5.77409 9.74111 5.81479C9.76751 5.85549 9.95251 5.81479 9.94191 5.72829C9.86131 5.48139 9.76781 5.23859 9.66181 5.00079C9.71461 4.97479 9.76941 4.95269 9.82561 4.93469C9.82561 4.93469 10.0688 5.44339 10.1269 5.67239C10.185 5.90129 9.74641 6.18109 9.59841 5.90639Z" fill="white"/>
<path fill-rule="evenodd" clip-rule="evenodd" d="M10.8299 5.58605C10.7876 5.46905 10.666 4.87385 10.6502 4.80255L10.8299 4.76185C10.8774 4.94505 10.9726 5.47925 10.9937 5.52505C11.0149 5.57085 11.1893 5.58605 11.2051 5.48435C11.221 5.38255 11.0941 4.74665 11.0941 4.71615C11.1516 4.70255 11.2098 4.69235 11.2686 4.68555C11.2686 4.68555 11.3848 5.25535 11.3954 5.46905C11.406 5.68275 10.9197 5.87095 10.8299 5.58605Z" fill="white"/>
<path fill-rule="evenodd" clip-rule="evenodd" d="M10.1638 4.83816L10.3224 4.79236L10.5972 5.76416C10.5443 5.78566 10.4894 5.80266 10.4334 5.81496L10.1638 4.83816Z" fill="white"/>
<path fill-rule="evenodd" clip-rule="evenodd" d="M4.0645 5.25022V5.22482H4.04335V5.16882H4.00635V5.11792H3.97992V5.08232H3.95879V5.03142H3.92178V4.97042H3.89536V4.95002H3.87421V4.88902H3.83722V4.86362H3.81079V4.80252H3.78436V4.74152H3.75266V4.72112H3.72622V4.66012H3.69979V4.60922H3.66809V4.57359H3.64165V4.52271H3.61523V4.49219H3.64165V4.52271H3.69979V4.54815H3.75266V4.57359H3.81079V4.60922H3.87421V4.63462H3.92178V4.66012H3.97992V4.69572H4.04335V4.72112H4.09092V4.74152H4.14907V4.77712H4.21248V4.80252H4.26005V4.82792H4.31819V4.86362H4.38162V4.88902H4.40276V4.91442H4.38162V4.97042H4.34462V4.99582H4.31819V5.03142H4.29705V5.05692H4.26005V5.08232H4.23362V5.11792H4.21248V5.14342H4.17548V5.16882H4.14907V5.19932H4.12792V5.22482H4.09092V5.25022H4.0645Z" fill="#231F20"/>
<path fill-rule="evenodd" clip-rule="evenodd" d="M15.0795 1.82102V1.78541H14.8522V1.75997H14.7412V1.69892H14.7677V1.59208H14.7994V1.48016H14.8258V1.39367H14.8522V1.27666H14.8839V1.25122H14.9949V1.27666H15.0795V1.31227H15.1376V1.33771H15.1905V1.36315H15.2222V1.39367H15.2486V1.41911H15.2751V1.5056H15.3068V1.69892H15.2751V1.73453H15.2486V1.75997H15.2222V1.78541H15.1376V1.82102H15.0795Z" fill="#231F20"/>
<path fill-rule="evenodd" clip-rule="evenodd" d="M8.78427 1.78561V1.69912H8.75247V1.61772H8.72607V1.53123H8.69967V1.44474H8.66797V1.39387H8.69967V1.36334H8.75247V1.33791H8.83707V1.31247H8.97977V1.27686H9.03797V1.31247H9.14897V1.33791H9.17537V1.36334H9.20707V1.41931H9.23347V1.64824H9.20707V1.67368H9.14897V1.69912H9.12247V1.73473H9.06437V1.76017H8.95337V1.78561H8.78427Z" fill="#231F20"/>
<path d="M5.31728 29.8788L5.66088 29.6956C5.64708 29.756 5.64708 29.8184 5.66088 29.8788C5.68728 29.9347 5.73489 29.9449 5.80359 29.9144C5.85669 29.8879 5.90068 29.8473 5.93048 29.7974C5.96028 29.7526 5.98008 29.7024 5.98858 29.6498C5.99598 29.6329 5.99978 29.6148 5.99978 29.5964C5.99978 29.5781 5.99598 29.5599 5.98858 29.543C5.98858 29.543 5.90928 29.5125 5.81948 29.543C5.76398 29.5556 5.70628 29.5562 5.65049 29.5447C5.59479 29.5333 5.54238 29.5101 5.49698 29.4769C5.46188 29.4362 5.43578 29.389 5.42028 29.3383C5.40488 29.2875 5.40038 29.2343 5.40718 29.1818C5.40788 29.0869 5.42958 28.9933 5.47058 28.9071C5.50678 28.8155 5.56258 28.7323 5.63448 28.6629C5.71688 28.5853 5.81618 28.5262 5.92518 28.4899C5.97638 28.4636 6.03358 28.4499 6.09168 28.4499C6.14968 28.4499 6.20688 28.4636 6.25818 28.4899C6.33208 28.5357 6.36908 28.6374 6.37438 28.8002L6.03618 28.9681C6.03938 28.9181 6.02228 28.8689 5.98858 28.8308C5.97158 28.8191 5.95128 28.8129 5.93048 28.8129C5.90958 28.8129 5.88929 28.8191 5.87228 28.8308C5.83148 28.8456 5.79638 28.8723 5.77188 28.9071C5.75169 28.9394 5.74078 28.9762 5.74018 29.0139C5.73458 29.0241 5.73168 29.0354 5.73168 29.047C5.73168 29.0585 5.73458 29.0698 5.74018 29.08C5.74018 29.08 5.79298 29.08 5.85648 29.08C5.96448 29.0581 6.07609 29.0581 6.18419 29.08C6.21509 29.0876 6.24368 29.1022 6.26758 29.1226C6.29148 29.1429 6.30998 29.1684 6.32158 29.197C6.35228 29.2695 6.36318 29.3483 6.35328 29.426C6.33408 29.5447 6.30038 29.6608 6.25288 29.7719C6.20459 29.8833 6.14048 29.9877 6.06258 30.0823C5.98358 30.1728 5.88648 30.2472 5.77718 30.301C5.57628 30.3977 5.43358 30.4028 5.37018 30.301C5.29528 30.1784 5.27078 30.0332 5.30149 29.894M6.61758 28.2406L6.98228 28.1032C6.98228 28.2304 6.95578 28.3576 6.94528 28.4848C6.93468 28.612 6.94528 28.7443 6.94528 28.8765C6.94528 29.0088 6.94528 29.1462 6.90828 29.2835C6.87128 29.4209 6.88178 29.5583 6.87128 29.7007L6.50658 29.8889C6.50658 29.7465 6.50658 29.599 6.54888 29.4565C6.59108 29.3141 6.58059 29.1716 6.58578 29.0342C6.59108 28.8969 6.58578 28.7646 6.58578 28.6323L6.61758 28.2406ZM5.94628 29.6397L6.28458 29.5176L6.37968 29.6855C6.40608 29.7414 6.43788 29.8025 6.46958 29.8584L6.56468 30.0314L6.67038 30.2044C6.67038 30.1331 6.67038 30.0619 6.67038 29.9958C6.67038 29.9296 6.67038 29.8533 6.67038 29.7821C6.67038 29.7109 6.67038 29.6397 6.67038 29.5684V29.3497L7.01398 29.2225C7.01398 29.3548 7.01399 29.4921 6.98748 29.6244C6.96108 29.7567 6.98748 29.8889 6.98748 30.0161C6.98748 30.1433 6.98748 30.2756 6.98748 30.4028L6.95578 30.7793L6.59108 30.8759C6.55408 30.82 6.52238 30.764 6.49068 30.708L6.40088 30.5351L6.30569 30.3672L6.20529 30.1993C6.20529 30.2654 6.20529 30.3366 6.20529 30.4079C6.20529 30.4791 6.20529 30.5452 6.20529 30.6165C6.20529 30.6877 6.20529 30.764 6.20529 30.8352C6.20529 30.9064 6.20529 30.9777 6.20529 31.0489L5.86168 31.2066C5.86168 31.0692 5.86168 30.937 5.89868 30.7996C5.93568 30.6622 5.93048 30.5351 5.93568 30.4028C5.94098 30.2705 5.93568 30.1484 5.96218 30.0212C5.98858 29.894 7.25178 28.1134 7.26238 27.9862L5.94628 29.6397ZM8.09748 29.8533L8.44098 29.8991C8.42548 30.0202 8.39168 30.1385 8.34058 30.2502C8.29688 30.3413 8.23178 30.4215 8.15028 30.4842C8.06748 30.5484 7.96938 30.5921 7.86488 30.6114C7.75268 30.6423 7.63358 30.6423 7.52138 30.6114C7.42528 30.571 7.34948 30.4962 7.30998 30.4028C7.27978 30.3418 7.26008 30.2765 7.25178 30.2095C7.24288 30.1249 7.24288 30.0397 7.25178 29.9551C7.25658 29.8313 7.27618 29.7084 7.30998 29.5888C7.34278 29.4821 7.38898 29.3796 7.44738 29.2835C7.54918 29.1066 7.70898 28.967 7.90189 28.8867C7.95588 28.8573 8.01688 28.8418 8.07898 28.8418C8.14098 28.8418 8.20198 28.8573 8.25598 28.8867C8.35828 28.9788 8.42218 29.1036 8.43578 29.2377L8.09748 29.4565C8.09128 29.4198 8.08068 29.384 8.06578 29.3497C8.05148 29.3194 8.02738 29.2943 7.99708 29.2784C7.96488 29.2657 7.92878 29.2657 7.89658 29.2784C7.84888 29.2972 7.80588 29.3255 7.77028 29.3615C7.73478 29.3974 7.70758 29.4402 7.69049 29.487C7.87198 29.6442 8.11098 29.7256 8.35478 29.7132C8.59869 29.7008 8.82738 29.5956 8.99068 29.4209C9.15398 29.2462 9.23848 29.0161 9.22568 28.7814C9.21278 28.5467 9.10349 28.3266 8.92198 28.1694C8.90969 28.2898 8.93159 28.4111 8.98538 28.5204C9.00379 28.5471 9.03128 28.5669 9.06308 28.5761C9.09499 28.5854 9.12918 28.5837 9.15988 28.5713C9.19578 28.5645 9.22968 28.55 9.25888 28.5289C9.28818 28.5077 9.31218 28.4805 9.32898 28.4492C9.37368 28.3721 9.40238 28.2875 9.41358 28.1999L8.09748 29.8533ZM8.62598 28.6374L9.61968 28.261C9.61968 28.4085 9.61968 28.556 9.61968 28.6985L8.98538 28.9071V29.2072L9.58268 29.0342C9.58268 29.1716 9.58269 29.2988 9.60909 29.4311L9.00128 29.5837L9.03298 29.9296L11.0362 28.1287C11.0362 28.2711 11.0679 28.4085 11.0785 28.5458C10.7032 28.612 10.3279 28.6781 9.95798 28.7544C9.97908 28.6171 9.93148 27.1519 9.93148 26.984L8.62598 28.6374Z" fill="white"/>
<path fill-rule="evenodd" clip-rule="evenodd" d="M10.1482 21.464H10.608L10.867 22.3085L11.1947 21.464H11.6176L11.0362 22.9292H10.682L10.1482 21.464Z" fill="white"/>
<path d="M12.4365 22.3543L12.8065 22.4153C12.7892 22.5132 12.7552 22.6078 12.7061 22.6951C12.6619 22.7689 12.6003 22.8316 12.5264 22.8783C12.4435 22.9258 12.3479 22.9488 12.2515 22.9444C12.1581 22.9461 12.0652 22.9323 11.9767 22.9037C11.9051 22.8718 11.8419 22.8248 11.7917 22.7663C11.7358 22.7005 11.6944 22.6243 11.6701 22.5425C11.6343 22.434 11.6182 22.3204 11.6225 22.2067C11.6196 22.0823 11.6393 21.9583 11.6807 21.8404C11.7041 21.7722 11.7399 21.7084 11.7864 21.6522C11.8352 21.5868 11.9008 21.5346 11.9767 21.5008C12.0527 21.4669 12.1364 21.4525 12.2198 21.4589C12.2897 21.4544 12.3597 21.4634 12.426 21.4852C12.4922 21.507 12.5533 21.5413 12.6056 21.586C12.7015 21.6866 12.764 21.8123 12.7853 21.9473L12.4206 22.0185C12.4102 21.9688 12.3886 21.9219 12.3572 21.8811C12.3405 21.8655 12.3206 21.8533 12.2988 21.8455C12.2769 21.8376 12.2536 21.8341 12.2304 21.8353C12.1979 21.8356 12.1661 21.8448 12.1389 21.8619C12.1118 21.8791 12.0903 21.9034 12.0771 21.932C12.028 22.021 12.006 22.1215 12.0137 22.222C12.0079 22.3136 12.028 22.405 12.0718 22.4865C12.0871 22.5131 12.1092 22.5355 12.1361 22.5515C12.1629 22.5676 12.1935 22.5767 12.2251 22.5781C12.2499 22.5781 12.2745 22.5731 12.2972 22.5635C12.32 22.5538 12.3404 22.5398 12.3572 22.5221C12.3979 22.4735 12.4252 22.4157 12.4365 22.3543Z" fill="white"/>
<path d="M13.013 21.4641H13.7529C13.8171 21.4598 13.8815 21.468 13.9423 21.4881C14.0031 21.5082 14.0591 21.5398 14.107 21.5811C14.1498 21.6263 14.1826 21.6793 14.2035 21.737C14.2244 21.7947 14.2329 21.8559 14.2286 21.9169C14.2334 21.981 14.2242 22.0455 14.2014 22.106C14.1786 22.1664 14.1429 22.2216 14.0965 22.2679C14.0428 22.3139 13.98 22.349 13.9119 22.3708C13.8437 22.3927 13.7716 22.401 13.7001 22.3951H13.4622V22.9395H13.013V21.4641ZM13.4622 22.0949H13.5679C13.6316 22.1007 13.6953 22.0845 13.7476 22.0492C13.7806 22.0184 13.7995 21.9763 13.8005 21.9321C13.801 21.9106 13.7971 21.8891 13.7889 21.869C13.7807 21.849 13.7685 21.8306 13.7529 21.8151C13.7529 21.7795 13.6683 21.7643 13.5838 21.7643H13.4622V22.0949Z" fill="white"/>
<path fill-rule="evenodd" clip-rule="evenodd" d="M12.9388 24.3895C12.9462 24.2862 12.9311 24.1826 12.8947 24.0852C12.8583 23.9879 12.8013 23.8988 12.7272 23.8237C12.6532 23.7486 12.5638 23.6892 12.4647 23.6491C12.3655 23.609 12.2588 23.5891 12.1513 23.5908C12.0417 23.5894 11.9329 23.6091 11.8313 23.6487C11.7297 23.6883 11.6373 23.747 11.5595 23.8214C11.4818 23.8958 11.4202 23.9843 11.3784 24.0819C11.3366 24.1794 11.3155 24.284 11.3162 24.3895C11.3329 24.5296 11.3837 24.6639 11.4646 24.7814C11.5454 24.899 11.6539 24.9966 11.7813 25.0661V28.3221C11.7803 28.3685 11.7895 28.4145 11.8085 28.4572C11.8274 28.4998 11.8556 28.538 11.8911 28.5693C11.9266 28.6007 11.9687 28.6243 12.0145 28.6387C12.0602 28.6531 12.1087 28.6579 12.1566 28.6528C12.2057 28.6578 12.2553 28.6528 12.3022 28.6383C12.3492 28.6237 12.3925 28.5998 12.4293 28.5682C12.4661 28.5366 12.4957 28.4979 12.5161 28.4547C12.5365 28.4114 12.5472 28.3645 12.5477 28.3171V25.0763C12.6642 24.9989 12.7606 24.8967 12.8294 24.7776C12.8982 24.6584 12.9374 24.5256 12.9441 24.3895" fill="white"/>
<path d="M13.2456 27.3808L13.605 27.3656L13.6473 28.6476L13.272 28.6374L13.2456 27.3808Z" fill="white"/>
<path d="M14.4875 28.4899C14.4875 28.5815 14.5615 28.6374 14.6831 28.6578C14.72 28.6661 14.7584 28.6659 14.7952 28.657C14.832 28.6482 14.866 28.631 14.8945 28.6069C14.9321 28.5747 14.9626 28.5356 14.9844 28.4919C15.0062 28.4483 15.0187 28.4009 15.0214 28.3525C14.9687 28.3831 14.9099 28.4026 14.8489 28.4096C14.7878 28.4166 14.7259 28.411 14.6672 28.3932C14.5285 28.3711 14.4008 28.3069 14.3025 28.2101C14.2555 28.1647 14.2204 28.1092 14.2002 28.0481C14.1799 27.9871 14.1752 27.9222 14.1863 27.859C14.1967 27.7762 14.2358 27.6991 14.2973 27.6403C14.3565 27.5806 14.4345 27.5412 14.5192 27.5284C14.6257 27.5079 14.7352 27.5079 14.8417 27.5284C14.9538 27.5486 15.0613 27.5883 15.1588 27.6454C15.2413 27.7007 15.307 27.7762 15.3491 27.8641C15.395 27.9631 15.415 28.0714 15.4072 28.1796C15.4072 28.1796 15.4072 28.2203 15.4072 28.2355C15.4035 28.2608 15.4035 28.2865 15.4072 28.3118C15.3854 28.4782 15.3117 28.6343 15.1958 28.7595C15.1242 28.8188 15.0382 28.8596 14.9458 28.8783C14.8534 28.897 14.7576 28.8929 14.6672 28.8664C14.527 28.843 14.3967 28.7812 14.292 28.6883C14.2503 28.6555 14.2165 28.6144 14.1928 28.5679C14.1691 28.5214 14.156 28.4705 14.1546 28.4187L14.4875 28.4899ZM14.6197 27.7726C14.5977 27.7893 14.5793 27.81 14.5657 27.8336C14.5521 27.8572 14.5435 27.8831 14.5404 27.9099C14.5279 27.9749 14.5411 28.0421 14.5774 28.0982C14.6 28.1269 14.6286 28.1508 14.6614 28.1683C14.6941 28.1859 14.7303 28.1966 14.7677 28.1999C14.8339 28.2251 14.9076 28.2251 14.9738 28.1999C15.0004 28.1809 15.0224 28.1565 15.0379 28.1283C15.0534 28.1001 15.0622 28.069 15.0636 28.0371C15.0671 28.006 15.0637 27.9745 15.0536 27.9447C15.0436 27.9149 15.0272 27.8874 15.0055 27.8641C14.9822 27.8365 14.9533 27.8137 14.9206 27.7971C14.8879 27.7805 14.8521 27.7704 14.8152 27.7675C14.7519 27.7445 14.6817 27.7463 14.6197 27.7726Z" fill="white"/>
<path d="M16.6648 28.1696L17.0507 28.3223L16.7864 29.0956L16.982 29.1719L16.9133 29.3601L16.7177 29.2838L16.6278 29.5585L16.2896 29.4212L16.3794 29.1515L15.7029 28.8819L15.7769 28.6682L16.6648 28.1696ZM16.4481 28.9582L16.6384 28.4495L16.0253 28.8107L16.4481 28.9582Z" fill="white"/>
<path d="M17.7382 29.66C17.7382 29.7515 17.7857 29.8228 17.9073 29.8686C17.9422 29.8837 17.98 29.8916 18.0183 29.8916C18.0566 29.8916 18.0944 29.8837 18.1293 29.8686C18.1722 29.8453 18.2098 29.8139 18.2398 29.7763C18.2697 29.7387 18.2915 29.6957 18.3037 29.6498C18.2423 29.667 18.178 29.6723 18.1145 29.6653C18.0509 29.6583 17.9895 29.6392 17.9337 29.6091C17.7989 29.5533 17.682 29.4637 17.5955 29.3496C17.5582 29.2974 17.5344 29.2374 17.5261 29.1746C17.5178 29.1117 17.5253 29.0479 17.5479 28.9884C17.5701 28.9096 17.6231 28.8421 17.6959 28.8002C17.7707 28.7573 17.8575 28.7378 17.9443 28.7442C18.0578 28.7475 18.1694 28.7735 18.272 28.8205C18.3813 28.8639 18.4816 28.926 18.568 29.0037C18.6439 29.073 18.6987 29.161 18.7265 29.2581C18.7556 29.3596 18.7556 29.4668 18.7265 29.5684C18.7296 29.5869 18.7296 29.6058 18.7265 29.6244C18.7265 29.6244 18.7265 29.6651 18.7265 29.6905C18.6771 29.847 18.5724 29.9819 18.4306 30.0721C18.3485 30.1115 18.258 30.132 18.1663 30.132C18.0746 30.132 17.9841 30.1115 17.902 30.0721C17.7622 30.0222 17.6396 29.9359 17.5479 29.8228C17.5122 29.7825 17.4861 29.7353 17.4715 29.6843C17.4569 29.6333 17.4541 29.5798 17.4633 29.5277L17.7382 29.66ZM18.0077 29.0088C17.9817 29.0182 17.9582 29.0331 17.9389 29.0525C17.9197 29.0719 17.9053 29.0952 17.8967 29.1207C17.8728 29.1813 17.8728 29.2483 17.8967 29.3089C17.9371 29.371 17.9961 29.4199 18.066 29.4489C18.1358 29.478 18.2132 29.486 18.2879 29.4717C18.3227 29.4647 18.3549 29.4487 18.381 29.4254C18.407 29.4021 18.426 29.3724 18.4358 29.3395C18.4488 29.3114 18.4555 29.2811 18.4555 29.2504C18.4555 29.2197 18.4488 29.1894 18.4358 29.1614C18.3959 29.0956 18.3318 29.0466 18.2561 29.024C18.2198 29.0007 18.1777 28.987 18.1341 28.9843C18.0904 28.9816 18.0469 28.9901 18.0077 29.0088Z" fill="white"/>
<path d="M5.77168 20.533L4.84672 20.7569L4.50317 20.5076L5.63958 18.9355L6.03068 19.2204L5.32238 20.2023L6.10468 20.009L6.16278 20.0497L6.23678 20.8484L6.94508 19.8665L7.33618 20.1514L6.20508 21.7235L5.86148 21.4793L5.77168 20.533Z" fill="white"/>
<path d="M1.32129 15.9594L2.73251 14.3873L2.94392 14.8961L2.66379 15.1962L3.0232 16.0102H3.43018L3.63632 16.4681L1.52214 16.5088L1.32129 15.9594ZM2.41538 15.4506L1.88683 16.0408L2.68494 16.0102L2.41538 15.4506Z" fill="white"/>
<path d="M0.887865 8.70959L2.83291 9.10639L2.74833 9.5083L1.28427 10.302L2.53164 10.5563L2.4365 11.0295L0.491455 10.6377L0.581305 10.2002L1.97667 9.4269L0.787435 9.18779L0.887865 8.70959Z" fill="white"/>
<path d="M3.51465 3.86633L5.75039 4.55823L5.40159 4.97542L4.96815 4.83292L4.37617 5.52482L4.60345 5.91152L4.24932 6.32362L3.10767 4.31403L3.51465 3.86633ZM4.57174 4.70072L3.71549 4.41578L4.16476 5.18402L4.57174 4.70072Z" fill="white"/>
<path d="M8.17651 0.931L9.08561 0.661371C9.17111 0.63177 9.26181 0.618771 9.35251 0.623141C9.44331 0.627511 9.53221 0.649141 9.61421 0.686801C9.68661 0.721171 9.75081 0.769681 9.80261 0.829241C9.85451 0.888801 9.89291 0.958111 9.91541 1.03275C9.94111 1.10999 9.94971 1.19155 9.94061 1.27217C9.93151 1.35279 9.90491 1.43068 9.86261 1.5008C9.76591 1.65909 9.60831 1.77426 9.42391 1.82131L9.01691 1.93833L9.27061 2.73198L8.74211 2.87951L8.17651 0.931ZM8.78961 1.1345L8.92711 1.5822L9.16491 1.51606C9.37101 1.44993 9.45561 1.34309 9.41331 1.19555C9.40671 1.1606 9.39051 1.128 9.36631 1.10115C9.34211 1.0743 9.31091 1.0542 9.27591 1.04293C9.17221 1.03278 9.06751 1.04495 8.96931 1.07854L8.78961 1.1345Z" fill="white"/>
<path d="M14.7357 0.513916L15.6078 0.793726C15.6975 0.816216 15.7812 0.856896 15.8532 0.913056C15.9252 0.969206 15.9839 1.03954 16.0254 1.11933C16.0882 1.2297 16.1141 1.35606 16.0994 1.48112C16.0848 1.60617 16.0303 1.72381 15.9435 1.81793C15.8567 1.91206 15.7418 1.97806 15.6146 2.00692C15.4873 2.03577 15.3539 2.02606 15.2326 1.97912L14.8415 1.85702L14.5825 2.65066L14.0962 2.49295L14.7357 0.513916ZM15.1057 1.02267L14.9577 1.48054L15.185 1.55685C15.3859 1.6179 15.5127 1.55685 15.5656 1.41949C15.5792 1.38616 15.584 1.35005 15.5794 1.31449C15.5747 1.27893 15.5609 1.24506 15.5391 1.21599C15.4681 1.14742 15.3783 1.09977 15.2801 1.07863L15.1057 1.02267Z" fill="white"/>
<path d="M21.147 4.4973L21.4906 4.87382L20.6185 5.66742C20.5304 5.75842 20.423 5.83012 20.3035 5.87752C20.184 5.92492 20.0553 5.94702 19.9261 5.94212C19.6535 5.89732 19.4084 5.75572 19.239 5.54532C19.0439 5.35332 18.9259 5.10092 18.906 4.83312C18.9091 4.70682 18.9399 4.58263 18.9964 4.46865C19.0528 4.35466 19.1337 4.25346 19.2337 4.1717L20.1111 3.37805L20.4547 3.74944L19.5667 4.55326C19.4689 4.64262 19.4103 4.76452 19.4029 4.89412C19.4034 5.02762 19.4585 5.15552 19.5561 5.25022C19.6445 5.35382 19.7718 5.41962 19.9103 5.43342C19.9806 5.43562 20.0505 5.42312 20.1153 5.39672C20.1801 5.37042 20.2382 5.33082 20.2855 5.28082L21.147 4.4973Z" fill="white"/>
<path d="M23.3617 9.10657L23.5256 10.0377C23.5602 10.2121 23.5283 10.3928 23.4357 10.5464C23.3925 10.6324 23.3249 10.705 23.2407 10.7557C23.1566 10.8065 23.0593 10.8334 22.96 10.8334C22.8608 10.8334 22.7635 10.8065 22.6793 10.7557C22.5952 10.705 22.5276 10.6324 22.4844 10.5464C22.4226 10.7001 22.3065 10.828 22.1567 10.9076L21.6281 11.2841L21.5277 10.7143C21.5911 10.6685 21.7074 10.5871 21.8871 10.4701C22.0112 10.3944 22.1219 10.2999 22.2148 10.1903C22.255 10.1299 22.2718 10.0579 22.2624 9.98677V9.83917L21.4273 9.98167L21.3374 9.47287L23.3617 9.10657ZM23.0763 9.69167L22.6059 9.77307L22.6535 10.0427C22.6628 10.1179 22.6982 10.1878 22.7539 10.2412C22.7793 10.2616 22.809 10.2763 22.841 10.2842C22.873 10.2921 22.9065 10.293 22.9389 10.2869C23.0922 10.2615 23.1556 10.1496 23.1186 9.95117L23.0763 9.69167Z" fill="white"/>
<path d="M22.754 16.4679H20.4548L20.661 15.9592H21.1102L21.4591 15.1401L21.1314 14.845L21.3375 14.3363L22.9813 15.9592L22.754 16.4679ZM21.5067 15.9897H22.3946L21.7498 15.4504L21.5067 15.9897Z" fill="white"/>
<path d="M18.4518 20.5076L18.4095 21.4692L18.0659 21.7235L16.8609 20.1311L17.2467 19.8412L17.9972 20.8332L18.0395 20.0243L18.0924 19.9836L18.8905 20.1668L18.1399 19.1696L18.5258 18.8796L19.7308 20.472L19.3979 20.7264L18.4518 20.5076Z" fill="white"/>
</svg>
