<svg width="271" height="50" viewBox="0 0 271 50" fill="none" xmlns="http://www.w3.org/2000/svg">
<path d="M25.6318 1.23258C29.993 1.23258 34.3574 1.33905 38.7137 1.20193C43.0536 1.06641 46.1486 2.96519 48.4579 6.38363C52.5912 12.4994 51.5529 20.8366 46.0436 25.715C44.0131 27.5121 41.5873 28.2429 38.8695 28.2349C30.4981 28.2091 22.1251 28.222 13.7537 28.2187C13.442 28.2187 13.1288 28.201 12.8188 28.222C7.66046 28.5656 4.19151 26.0925 1.80015 21.8303C-1.78853 15.4306 0.222307 6.75145 6.20727 2.78128C7.9114 1.65041 9.8058 1.21645 11.8462 1.22613C16.4403 1.24871 21.036 1.23258 25.6301 1.23258H25.6318ZM25.4759 7.18702C21.3116 7.18702 17.1488 7.18541 12.9844 7.18863C12.2857 7.18863 11.5887 7.18863 10.8998 7.3677C7.60633 8.22272 6.19907 10.5813 5.88908 13.6658C5.42819 18.2554 7.70638 22.2175 12.6138 22.2304C21.2131 22.2514 29.8142 22.2449 38.4136 22.2256C39.829 22.2224 41.1756 21.9045 42.3434 21.0253C44.9135 19.0959 45.3039 16.405 45.0579 13.5125C44.72 9.51814 42.1515 7.20315 38.0823 7.19186C33.8801 7.17896 29.6764 7.18863 25.4743 7.18702H25.4759Z" fill="#322F3B"/>
<path d="M86.5266 28.2187C80.8811 28.2187 75.2324 28.0865 69.5935 28.2591C64.7895 28.4075 61.5288 26.2909 59.2391 22.3514C56.072 16.9051 56.7051 9.76174 60.8137 5.05272C63.0017 2.54414 65.7194 1.20193 69.172 1.21645C81.1239 1.26646 93.0741 1.23258 105.026 1.23742C106.51 1.23742 107.658 1.92466 108.059 3.12006C108.467 4.33805 108.259 5.46409 107.281 6.38686C106.555 7.07248 105.653 7.18863 104.698 7.18863C93.2923 7.18541 81.8849 7.18863 70.4792 7.19509C69.4328 7.19509 68.3946 7.18057 67.3793 7.58872C65.5849 8.31306 64.2958 9.49717 63.6725 11.304C62.859 13.6642 62.818 16.0663 63.7726 18.3764C64.7288 20.6898 66.569 21.982 69.1293 22.1852C69.8658 22.2433 70.6071 22.2304 71.3469 22.2304C82.5197 22.2369 93.6925 22.2385 104.865 22.2482C106.884 22.2498 108.213 23.3903 108.251 25.1036C108.29 26.9314 106.984 28.1961 104.978 28.201C98.8278 28.2139 92.6772 28.2058 86.5266 28.2058V28.2155V28.2187Z" fill="#322F3B"/>
<path d="M141.877 28.2187C135.608 28.2187 129.335 28.0913 123.071 28.2607C118.523 28.3833 114.532 24.9455 114.522 20.0235C114.519 18.2231 114.514 16.4228 114.54 14.624C114.568 12.6962 115.321 11.938 117.291 11.796C117.68 11.7686 118.068 11.7589 118.459 11.7589C132.398 11.7573 146.34 11.7557 160.28 11.7589C161.956 11.7589 163.048 12.5284 163.43 13.9287C163.789 15.2435 163.242 16.5728 162.048 17.2923C161.31 17.7375 160.486 17.7069 159.671 17.7069C147.132 17.7101 134.593 17.7117 122.055 17.7133C121.058 17.7133 120.561 18.2065 120.565 19.1927C120.573 22.0771 120.724 22.2223 123.697 22.2239C136.197 22.2288 148.697 22.232 161.196 22.232C161.784 22.232 162.366 22.232 162.928 22.4191C164.142 22.8241 164.977 24.0598 164.926 25.3585C164.874 26.6765 163.885 27.8573 162.55 28.1203C162.059 28.2171 161.542 28.2171 161.039 28.2171C154.652 28.2236 148.267 28.2203 141.88 28.2203L141.877 28.2187Z" fill="#322F3B"/>
<path d="M270.935 13.4205C270.935 16.2533 270.915 19.0878 270.942 21.9206C270.963 24.3388 270.036 26.2699 267.874 27.454C265.718 28.6349 263.553 28.4106 261.46 27.1442C251.944 21.3882 242.422 15.6419 232.896 9.902C232.135 9.44384 231.353 8.99698 230.53 8.66949C229.437 8.23553 228.825 8.59851 228.56 9.73261C228.33 10.707 228.299 11.704 228.299 12.701C228.296 16.7599 228.302 20.8188 228.294 24.876C228.289 26.8345 227.105 28.1703 225.37 28.209C223.572 28.2493 222.265 26.9103 222.258 24.9212C222.238 19.0248 222.204 13.1285 222.265 7.2321C222.314 2.41015 227.284 -0.327507 231.482 2.1359C235.645 4.57833 239.762 7.09659 243.899 9.5842C249.813 13.1414 255.721 16.7082 261.643 20.2525C263.749 21.5124 264.679 21.0785 264.804 18.5989C265.04 13.8915 264.847 9.18411 264.921 4.4767C264.95 2.64568 265.982 1.3922 267.569 1.2583C269.421 1.10182 270.846 2.25528 270.886 4.11856C270.951 7.2192 270.904 10.3198 270.904 13.4221C270.915 13.4221 270.927 13.4221 270.938 13.4221L270.935 13.4205Z" fill="#322F3B"/>
<path d="M192.694 0.00161358C197.052 -0.00967905 199.229 1.89555 201.069 4.44768C203.178 7.37086 205.391 10.2231 207.564 13.0995C210.101 16.4566 212.655 19.804 215.184 23.1676C216.263 24.6034 216.329 25.7988 215.461 26.9636C214.172 28.6946 211.845 28.6091 210.441 26.7587C205.911 20.793 201.392 14.8208 196.862 8.85504C196.421 8.27427 195.978 7.68544 195.476 7.15792C194.174 5.78989 192.978 5.79151 191.733 7.22567C190.777 8.32751 189.914 9.51001 189.03 10.6715C184.941 16.0501 180.862 21.4334 176.775 26.8135C175.659 28.2816 173.857 28.6204 172.463 27.6379C171.016 26.6183 170.773 24.8083 171.913 23.2902C176.891 16.6582 181.871 10.0262 186.867 3.40554C188.549 1.17605 190.833 0.0451705 192.694 0V0.00161358Z" fill="#322F3B"/>
<path d="M139.814 1.2342C147.129 1.2342 154.446 1.22936 161.761 1.23742C163.158 1.23742 164.274 1.95531 164.707 3.0749C165.182 4.30579 164.902 5.47216 163.89 6.42235C163.158 7.10959 162.241 7.19025 161.292 7.18864C151.174 7.1838 141.057 7.18703 130.939 7.18541C126.542 7.18541 122.144 7.19348 117.747 7.17573C116.107 7.16928 114.955 6.30943 114.637 4.93657C114.301 3.48788 114.954 2.13116 116.272 1.49231C116.822 1.22613 117.399 1.2342 117.983 1.2342C125.261 1.2342 132.536 1.2342 139.814 1.2342Z" fill="#322F3B"/>
<path d="M5.96606 49.3344C4.56536 49.3344 3.16302 49.3279 1.76232 49.3376C1.1407 49.3408 0.517434 49.3085 0.509233 48.5052C0.501032 47.7195 1.08165 47.6389 1.72788 47.6437C4.41283 47.6598 7.09942 47.6614 9.78437 47.6501C10.3289 47.6485 11.126 47.8486 11.108 46.979C11.0916 46.2208 10.3453 46.3628 9.82866 46.3596C7.37661 46.3483 4.92128 46.2886 2.47415 46.387C0.732296 46.458 0.0253846 45.1432 0.00078216 44.0962C-0.0320212 42.7266 0.97012 41.7328 2.41675 41.7247C5.25751 41.7086 8.09828 41.728 10.9407 41.7215C11.5804 41.7215 12.1757 41.8183 12.1741 42.5846C12.1725 43.3299 11.6115 43.4767 10.9505 43.4735C8.30494 43.4606 5.65771 43.4444 3.01213 43.4896C2.49383 43.4977 1.53926 43.0976 1.5819 44.0962C1.62127 45.0173 2.53648 44.6624 3.08593 44.6721C5.38217 44.7076 7.6784 44.677 9.97463 44.6834C11.7132 44.6882 12.6432 45.5239 12.6219 47.0371C12.6005 48.5616 11.7821 49.3085 10.0534 49.3344C8.69202 49.3553 7.32904 49.3392 5.96606 49.3392C5.96606 49.3392 5.96606 49.3376 5.96606 49.336V49.3344Z" fill="#322F3B"/>
<path d="M269.388 49.315C266.316 49.3134 263.242 49.307 260.17 49.3134C259.561 49.3134 258.917 49.3441 258.884 48.5342C258.848 47.6582 259.497 47.6502 260.163 47.655C262.886 47.6711 265.609 47.6695 268.333 47.6631C268.82 47.6631 269.45 47.7776 269.437 47.0129C269.424 46.2854 268.817 46.3451 268.318 46.3435C265.789 46.337 263.262 46.3547 260.732 46.337C259.237 46.3257 258.389 45.4917 258.394 44.0994C258.398 42.6879 259.255 41.749 260.675 41.7506C263.862 41.7554 267.05 41.6135 270.236 41.8329C270.657 42.5782 270.427 43.1944 269.848 43.7429C269.803 43.6945 269.753 43.6913 269.701 43.7332C269.621 43.5703 269.547 43.3945 269.324 43.5848C269.283 43.5122 269.224 43.4961 269.151 43.5397C267.047 43.4138 264.943 43.4493 262.838 43.5187C262.145 43.4993 261.452 43.4703 260.759 43.4671C260.326 43.4654 259.837 43.4719 259.88 44.0849C259.917 44.6318 260.349 44.698 260.811 44.6963C262.897 44.6899 264.985 44.6947 267.072 44.6915C268.113 44.6915 269.161 44.6237 270.152 45.0432L270.191 45.069C271.297 46.7629 271.274 47.5034 270.072 49.0359L270.08 49.0327C269.955 49.0972 269.83 49.1618 269.707 49.2279C269.602 49.257 269.496 49.2876 269.391 49.3166L269.388 49.315Z" fill="#322F3B"/>
<path d="M227.585 44.001C228.338 42.2958 229.583 41.5731 231.535 41.6957C233.898 41.8441 236.28 41.7392 238.653 41.7279C239.284 41.7247 239.903 41.7763 239.937 42.541C239.975 43.3799 239.345 43.4751 238.655 43.4718C236.086 43.4589 233.519 43.4557 230.951 43.4718C229.53 43.4815 228.869 44.1445 228.863 45.4932C228.856 46.9532 229.506 47.6388 230.961 47.6517C233.101 47.6711 235.24 47.6678 237.38 47.6678C237.884 47.6678 238.495 47.7388 238.509 47.0161C238.522 46.2918 237.923 46.3418 237.41 46.3418C235.814 46.3434 234.22 46.3369 232.624 46.3482C232.014 46.3531 231.502 46.2385 231.52 45.5029C231.535 44.8415 232.036 44.7076 232.579 44.7043C234.408 44.6963 236.239 44.664 238.064 44.7205C239.325 44.7608 239.947 45.5771 239.96 47C239.972 48.4196 239.343 49.2601 238.082 49.2827C235.399 49.3327 232.712 49.323 230.029 49.294C228.841 49.2811 228.272 48.4132 227.836 47.4872C227.456 46.6789 227.375 45.7965 227.355 44.9124L227.4 44.8511L227.365 44.785C227.398 44.6769 227.431 44.5688 227.462 44.4607C227.503 44.3075 227.546 44.1542 227.587 44.001H227.585Z" fill="#322F3B"/>
<path d="M93.5924 46.5612C94.0697 46.9774 94.5585 47.392 95.0325 47.8227C95.431 48.1857 95.5131 48.6084 95.1522 49.0391C94.7832 49.4795 94.3813 49.2795 94.0172 49.0262C93.2578 48.497 92.5345 47.9147 91.7554 47.4146C89.8496 46.1917 87.6895 46.303 85.554 46.3724C84.8815 46.395 84.852 46.9145 84.7979 47.4484C84.729 48.1276 85.1816 49.2746 83.9909 49.2262C82.9363 49.1843 83.3365 48.0953 83.3299 47.442C83.3037 45.2028 83.858 44.6882 86.1592 44.685C88.3373 44.6817 90.5155 44.6898 92.692 44.6801C93.1791 44.6785 93.8401 44.7963 93.8532 44.0784C93.868 43.3282 93.1955 43.4799 92.7149 43.4783C89.9923 43.4686 87.2712 43.467 84.5485 43.4734C83.9187 43.4734 83.3463 43.4412 83.343 42.6136C83.3397 41.8005 83.8925 41.7215 84.5321 41.7231C87.2548 41.7295 89.9759 41.7166 92.6985 41.7279C94.2436 41.7344 94.9816 42.249 95.313 43.4992C95.6246 44.6688 95.0866 45.6448 93.7564 46.345C93.7007 46.374 93.6728 46.4547 93.5924 46.5628V46.5612Z" fill="#322F3B"/>
<path d="M20.3219 49.3181C19.2705 49.3181 18.2192 49.2923 17.1695 49.3261C16.1247 49.36 15.4063 48.889 14.8487 48.0678C13.8203 46.5498 13.8564 44.38 14.9569 42.8829C15.5162 42.1214 16.2428 41.7068 17.2302 41.7165C19.2935 41.7375 21.3568 41.7165 23.4202 41.7246C24.8537 41.731 25.8673 42.4522 26.3413 43.7605C26.7776 44.9623 26.7694 46.1594 26.3118 47.3532C25.8115 48.655 24.9045 49.3003 23.4759 49.331C22.4246 49.352 21.3732 49.3358 20.3235 49.3358C20.3235 49.331 20.3235 49.3245 20.3235 49.3197L20.3219 49.3181ZM20.3957 43.4701V43.4766C19.4264 43.4766 18.457 43.4766 17.4877 43.4766C17.4106 43.4766 17.3319 43.4749 17.2548 43.4782C16.1395 43.5395 15.6376 44.1154 15.59 45.3882C15.5375 46.7821 16.0558 47.5951 17.1695 47.6242C19.3001 47.679 21.4356 47.6839 23.5661 47.6339C24.6536 47.6081 25.2572 46.7079 25.203 45.4141C25.1522 44.1735 24.5535 43.504 23.4202 43.4766C22.4131 43.4524 21.4044 43.4717 20.3957 43.4717V43.4701Z" fill="#322F3B"/>
<path d="M62.6246 49.331C61.378 49.331 60.1331 49.3504 58.8883 49.3262C57.0972 49.2923 55.9884 48.3857 55.7572 46.5901C55.5932 45.306 55.6424 43.9945 55.6194 42.6942C55.6112 42.236 55.7933 41.8069 56.3132 41.7843C56.8823 41.7601 57.1316 42.1828 57.1464 42.6893C57.1759 43.7218 57.1349 44.7575 57.1808 45.79C57.2399 47.1338 57.7762 47.6275 59.154 47.6452C60.0872 47.6581 61.2304 47.9469 61.8963 47.5258C62.6246 47.066 61.7257 45.9771 61.8602 45.1253C61.9849 44.3397 61.8766 43.5202 61.8898 42.7168C61.898 42.2022 62.1292 41.765 62.6852 41.7666C63.2101 41.7698 63.361 42.2312 63.3675 42.6797C63.3823 43.5976 63.3298 44.5188 63.3741 45.4351C63.4578 47.1935 63.999 47.6516 65.877 47.65C67.5418 47.65 68.0732 47.1612 68.1618 45.4657C68.2126 44.5107 68.1749 43.5508 68.2126 42.5958C68.2274 42.1909 68.4143 41.8166 68.8801 41.7811C69.3394 41.7456 69.6477 42.0731 69.6625 42.4732C69.7199 44.1477 69.9823 45.8561 69.2754 47.4629C68.7375 48.6857 67.8058 49.3907 66.3609 49.3407C65.116 49.2971 63.8694 49.331 62.6246 49.331C62.6246 49.331 62.6246 49.3294 62.6246 49.3278V49.331Z" fill="#322F3B"/>
<path d="M198.767 46.2175C198.651 46.5385 198.529 46.8596 198.419 47.1822C197.929 48.626 197.007 49.3052 195.475 49.3149C193.607 49.3246 191.739 49.2826 189.873 49.331C188.861 49.3585 187.954 49.1875 187.161 48.5518V48.5534C186.525 47.4161 185.962 46.2562 186.203 44.9027C186.491 43.2846 187.611 41.6133 189.444 41.7117C191.224 41.8069 193.012 41.7585 194.796 41.7214C195.703 41.702 196.564 41.8005 197.376 42.207C197.442 42.2731 197.509 42.3409 197.575 42.407C198.232 43.1346 198.441 44.0703 198.785 44.943C198.779 45.3673 198.772 45.7916 198.766 46.2159L198.767 46.2175ZM192.474 47.6387V47.6533C193.483 47.6533 194.491 47.6807 195.498 47.6452C196.669 47.6049 197.34 46.7531 197.302 45.4335C197.268 44.2219 196.637 43.4927 195.523 43.4798C193.468 43.4589 191.413 43.4572 189.358 43.4895C188.234 43.5073 187.668 44.1977 187.63 45.4689C187.593 46.7402 188.216 47.5726 189.333 47.6275C190.378 47.6775 191.426 47.6387 192.474 47.6387Z" fill="#322F3B"/>
<path d="M225.423 47.8452C224.573 49.1019 223.352 49.4149 221.885 49.3391C220.293 49.2568 218.693 49.3133 217.098 49.3149C214.959 49.3181 214.167 48.7454 213.553 46.7498C213.497 46.5708 213.407 46.4014 213.333 46.2288C213.378 46.1675 213.373 46.1094 213.317 46.0578C213.25 44.8156 213.716 43.7186 214.278 42.649L214.27 42.6571C214.741 42.3522 215.211 42.0473 215.682 41.7424L215.676 41.752C217.778 41.744 219.884 41.8037 221.982 41.7069C223.381 41.644 224.493 42.015 225.353 43.0991C225.407 43.2411 225.461 43.3846 225.515 43.5266C225.566 43.8718 225.663 44.1993 225.892 44.4768L225.889 44.4736C225.969 45.3947 225.902 46.3046 225.692 47.2064C225.692 47.2064 225.681 47.2241 225.681 47.2225C225.548 47.2354 225.515 47.3064 225.556 47.4226C225.512 47.5629 225.466 47.7049 225.421 47.8452H225.423ZM219.62 43.4734C218.608 43.4734 217.596 43.4508 216.584 43.4798C215.454 43.5121 214.867 44.2042 214.836 45.4657C214.803 46.7515 215.431 47.6113 216.551 47.6355C218.613 47.6823 220.678 47.6823 222.74 47.642C223.862 47.621 224.505 46.7757 224.49 45.5093C224.475 44.28 223.865 43.5234 222.774 43.4814C221.725 43.4411 220.673 43.4734 219.622 43.4734H219.62Z" fill="#322F3B"/>
<path d="M152.187 49.3311C150.825 49.3311 149.464 49.3053 148.104 49.3391C147.102 49.365 146.416 48.9278 145.88 48.1389C144.865 46.645 144.845 44.543 145.842 43.0475C146.416 42.1877 147.171 41.7134 148.25 41.7198C150.973 41.7376 153.694 41.7279 156.417 41.7166C157.055 41.7134 157.645 41.7908 157.653 42.5732C157.661 43.4379 157.017 43.4718 156.344 43.4686C153.778 43.4589 151.211 43.4589 148.645 43.475C147.184 43.4847 146.52 44.172 146.535 45.59C146.549 46.9451 147.225 47.6307 148.624 47.642C151.112 47.6598 153.602 47.6372 156.09 47.6549C156.748 47.6598 157.663 47.4275 157.65 48.4986C157.638 49.4634 156.794 49.3004 156.154 49.3069C154.832 49.3198 153.51 49.3117 152.188 49.3117C152.188 49.3182 152.188 49.323 152.188 49.3295L152.187 49.3311Z" fill="#322F3B"/>
<path d="M183.134 43.9847C183.134 43.8347 183.134 43.6847 183.132 43.533C183.293 42.9813 183.139 42.3618 183.51 41.8553L183.546 41.8327C184.146 41.6649 184.684 41.9133 184.671 42.4667C184.617 44.651 185.187 46.8853 184.238 49.0116C183.377 49.4665 182.653 49.2632 181.879 48.7115C179.745 47.1902 177.567 45.7319 175.394 44.2654C174.502 43.6637 174.266 43.7831 174.234 44.8575C174.202 45.9642 174.239 47.0741 174.218 48.1824C174.208 48.6873 174.146 49.2858 173.472 49.2729C172.771 49.26 172.673 48.6905 172.678 48.1081C172.691 46.6175 172.689 45.1269 172.691 43.6363C172.691 42.9039 172.916 42.2957 173.598 41.902C174.328 41.481 174.853 41.944 175.402 42.2828C176.052 42.6828 176.686 43.1071 177.326 43.5217C178.164 44.2638 179.086 44.8849 180.078 45.4076L180.072 45.4028C180.708 46.0739 181.55 46.4691 182.293 46.9982C182.95 47.4677 183.195 47.1241 183.193 46.4788C183.191 45.648 183.155 44.8171 183.134 43.9863V43.9847Z" fill="#322F3B"/>
<path d="M137.314 44.6948C138.912 44.6948 140.507 44.6948 142.105 44.6948C142.743 44.6948 143.284 44.7867 143.26 45.6111C143.235 46.429 142.648 46.3499 142.103 46.3499C139.299 46.3499 136.496 46.3467 133.691 46.3548C133.255 46.3548 132.679 46.2096 132.733 46.9743C132.777 47.597 133.194 47.6663 133.715 47.6631C136.597 47.6502 139.479 47.6663 142.361 47.647C143.005 47.6421 143.601 47.7067 143.612 48.4778C143.624 49.2618 143.009 49.3247 142.376 49.3247C139.454 49.3247 136.533 49.3522 133.614 49.3393C132.09 49.3328 131.321 48.5907 131.226 47.1065C131.199 46.6871 131.239 46.2628 131.213 45.8434C131.158 44.9932 131.588 44.6738 132.408 44.6819C134.043 44.698 135.68 44.6867 137.316 44.6867V44.6931L137.314 44.6948Z" fill="#322F3B"/>
<path d="M103.44 49.315C101.962 49.315 100.484 49.3327 99.0062 49.3101C97.7482 49.2892 96.9166 48.5729 96.9002 47.3355C96.8608 44.422 96.523 44.7124 99.3014 44.6979C101.985 44.6834 104.668 44.6931 107.351 44.6931C108.004 44.6931 108.801 44.5382 108.847 45.5013C108.896 46.5305 108.062 46.3386 107.427 46.3402C104.704 46.3499 101.981 46.3434 99.2588 46.3499C98.8159 46.3499 98.3009 46.2095 98.3075 46.971C98.314 47.6663 98.7388 47.6598 99.2309 47.6582C102.109 47.6534 104.986 47.6582 107.865 47.6485C108.509 47.6469 109.244 47.6275 109.246 48.46C109.246 49.2714 108.534 49.3263 107.871 49.3214C106.393 49.3118 104.916 49.3182 103.438 49.3182V49.3134L103.44 49.315Z" fill="#322F3B"/>
<path d="M165.212 44.6849C166.34 44.6849 167.475 44.6204 168.597 44.7043C169.624 44.7801 169.913 44.3655 169.786 43.4476C169.74 43.112 169.767 42.7603 169.803 42.4199C169.844 42.0295 170.108 41.7714 170.495 41.7698C170.88 41.7682 171.187 42.0198 171.192 42.4119C171.22 44.401 171.238 46.3917 171.203 48.3808C171.197 48.7825 170.861 49.2536 170.446 49.2197C170.049 49.1874 169.801 48.7906 169.762 48.2873C169.611 46.3578 169.59 46.3594 167.549 46.3594C165.602 46.3594 163.655 46.3933 161.71 46.3482C160.89 46.3288 160.562 46.624 160.638 47.408C160.661 47.6355 160.656 47.8678 160.654 48.0969C160.649 48.6486 160.642 49.2746 159.886 49.2697C159.234 49.2649 159.129 48.7035 159.129 48.1776C159.125 46.4159 159.135 44.6559 159.138 42.8942C159.138 42.3506 159.298 41.7875 159.891 41.7763C160.605 41.7617 160.661 42.3973 160.661 42.9571C160.661 43.2636 160.661 43.5702 160.646 43.8751C160.62 44.4494 160.866 44.6978 161.474 44.6833C162.719 44.6543 163.965 44.6752 165.21 44.6752V44.6865L165.212 44.6849Z" fill="#322F3B"/>
<path d="M124.472 46.1983C124.472 46.9243 124.482 47.6502 124.472 48.3762C124.466 48.8456 124.269 49.2312 123.757 49.2667C123.158 49.307 122.94 48.8779 122.934 48.3746C122.917 47.0372 122.896 45.6982 122.953 44.3641C122.985 43.6462 122.737 43.43 122.027 43.4655C120.98 43.5155 119.929 43.4606 118.881 43.4784C118.218 43.4897 117.685 43.3429 117.693 42.5718C117.702 41.87 118.197 41.7167 118.815 41.7184C122.079 41.7264 125.343 41.728 128.605 41.72C129.237 41.72 129.699 41.9136 129.703 42.6024C129.708 43.2993 129.245 43.4865 128.61 43.4768C127.523 43.459 126.432 43.5187 125.348 43.4542C124.597 43.409 124.398 43.6833 124.461 44.3673C124.515 44.9739 124.472 45.5885 124.474 46.1999L124.472 46.1983Z" fill="#322F3B"/>
<path d="M48.1477 41.7232C49.7403 41.7232 51.3346 41.7361 52.9272 41.7184C53.6029 41.7103 54.1163 41.891 54.0917 42.646C54.0687 43.3316 53.5832 43.4945 52.955 43.4784C51.907 43.4526 50.8556 43.5058 49.8092 43.4623C49.0892 43.4332 48.7595 43.6107 48.8136 44.406C48.8891 45.5095 48.8169 46.621 48.8513 47.7293C48.8743 48.431 48.7005 49.1909 47.9821 49.1925C47.3309 49.1957 47.3129 48.4278 47.3342 47.818C47.3752 46.6726 47.3063 45.524 47.3588 44.3802C47.39 43.6946 47.1997 43.4252 46.46 43.4623C45.3758 43.5171 44.2851 43.4526 43.1977 43.4768C42.5679 43.4913 42.0906 43.338 42.084 42.6363C42.0791 41.8878 42.5662 41.7038 43.2518 41.7135C44.8838 41.7393 46.5158 41.7216 48.1477 41.7216V41.7232Z" fill="#322F3B"/>
<path d="M81.8033 48.3566C81.8164 48.8325 81.6294 49.1213 81.2718 49.2487C80.8159 49.4101 80.5502 49.1148 80.3238 48.7761C79.3233 47.2758 78.3113 45.7819 77.319 44.2768C76.4087 42.8958 76.2086 42.8942 75.2902 44.2703C74.3093 45.7383 73.317 47.1983 72.3247 48.6599C72.0393 49.081 71.7359 49.5633 71.1307 49.1423C70.6075 48.7793 70.6977 48.2985 71.0093 47.8275C72.2362 45.9723 73.4302 44.0945 74.703 42.2715C75.4706 41.1729 76.9303 41.0487 77.6848 42.0828C79.0888 44.0057 80.3501 46.0287 81.6638 48.0146C81.7459 48.1388 81.7787 48.2937 81.8033 48.3566Z" fill="#322F3B"/>
<path d="M34.261 44.6963C35.7748 44.6963 37.2904 44.7028 38.8042 44.6931C39.4521 44.6883 40.1721 44.6721 40.2 45.511C40.2328 46.4935 39.4127 46.3515 38.7649 46.3515C36.1242 46.3531 33.4819 46.4128 30.8445 46.3192C29.7456 46.2805 29.4815 46.6661 29.6127 47.6163C29.6587 47.9518 29.6193 48.3019 29.5996 48.6439C29.5734 49.0682 29.2667 49.2424 28.896 49.2618C28.4974 49.2828 28.2055 49.0617 28.1956 48.6568C28.1694 47.5518 28.1268 46.4418 28.1907 45.3384C28.2301 44.6544 28.8927 44.7092 29.3684 44.7012C30.9987 44.6721 32.6306 44.6899 34.261 44.6899V44.6931V44.6963Z" fill="#322F3B"/>
<path d="M137.323 43.4687C135.695 43.4687 134.064 43.4542 132.436 43.4752C131.776 43.4832 131.23 43.3639 131.243 42.5927C131.257 41.8264 131.826 41.7167 132.469 41.7184C135.805 41.7264 139.141 41.7296 142.477 41.7184C143.1 41.7167 143.587 41.8861 143.614 42.5588C143.645 43.3235 143.108 43.48 142.444 43.4736C140.737 43.459 139.031 43.4687 137.323 43.4687Z" fill="#322F3B"/>
<path d="M34.3857 43.4718C32.7144 43.4718 31.0414 43.4638 29.3701 43.4751C28.719 43.4799 28.1498 43.3525 28.1613 42.5813C28.1728 41.807 28.7616 41.7134 29.3996 41.715C32.7046 41.7199 36.0095 41.7215 39.3128 41.7118C39.9771 41.7102 40.5167 41.8715 40.5101 42.6249C40.5052 43.4009 39.9295 43.4912 39.2816 43.4848C37.6497 43.467 36.0161 43.4783 34.3841 43.4783C34.3841 43.4767 34.3841 43.4735 34.3841 43.4718H34.3857Z" fill="#322F3B"/>
<path d="M102.997 43.4557C101.326 43.4557 99.656 43.4396 97.9846 43.4638C97.3466 43.4735 96.8874 43.3138 96.8857 42.6104C96.8841 41.9119 97.3565 41.7231 97.9781 41.7247C101.358 41.728 104.739 41.7296 108.121 41.7199C108.757 41.7183 109.246 41.949 109.243 42.5943C109.239 43.2234 108.78 43.4832 108.127 43.4751C106.418 43.4525 104.708 43.467 102.999 43.467V43.4573L102.997 43.4557Z" fill="#322F3B"/>
<path d="M245.083 41.6989C248.419 41.7102 251.756 41.7215 255.092 41.7344C255.441 41.7344 255.797 41.7054 256.136 41.7634C256.614 41.8457 256.884 42.1667 256.86 42.6539C256.835 43.1395 256.551 43.4525 256.051 43.4541C252.482 43.467 248.913 43.488 245.344 43.446C244.465 43.4348 244.327 42.7491 244.927 41.736C244.99 41.7683 245.042 41.757 245.083 41.6989Z" fill="#322F3B"/>
<path d="M250.558 44.7044C252.038 44.706 253.515 44.7011 254.995 44.7092C255.646 44.7124 256.474 44.5818 256.504 45.5223C256.535 46.516 255.687 46.3354 255.046 46.337C252.4 46.3402 249.753 46.3241 247.107 46.3418C246.638 46.345 245.936 46.0579 245.984 47.0097C246.03 47.9002 246.692 47.6598 247.181 47.663C249.943 47.6792 252.707 47.663 255.469 47.6695C256.076 47.6695 256.833 47.5533 256.827 48.4842C256.82 49.3876 256.085 49.315 255.464 49.315C252.584 49.315 249.705 49.3182 246.825 49.2989C245.288 49.2892 244.573 48.5616 244.534 47.0323C244.493 45.4868 245.257 44.7114 246.825 44.706C248.07 44.7028 249.315 44.706 250.56 44.706L250.558 44.7044Z" fill="#322F3B"/>
<path d="M241.468 44.0284C241.468 43.5348 241.435 43.0395 241.478 42.5491C241.514 42.149 241.731 41.7877 242.178 41.7651C242.639 41.7409 242.902 42.0877 242.915 42.4943C242.949 43.5558 242.943 44.6189 242.905 45.6804C242.892 46.0401 242.662 46.3321 242.237 46.3386C241.758 46.3467 241.529 46.0224 241.489 45.6223C241.439 45.0948 241.476 44.5608 241.476 44.0284C241.473 44.0284 241.47 44.0284 241.465 44.0284H241.468Z" fill="#322F3B"/>
<path d="M241.476 49.3569C241.422 49.1375 241.347 48.9198 241.319 48.6971C241.233 47.9954 241.46 47.4404 242.257 47.4388C242.906 47.4388 243.215 47.9405 243.177 48.5277C243.133 49.2311 242.744 49.6522 241.948 49.5102C241.798 49.4828 241.653 49.4295 241.506 49.3876L241.443 49.4166L241.476 49.3569Z" fill="#322F3B"/>
<path d="M206.807 49.315C205.408 49.315 204.011 49.3359 202.612 49.3101C201.106 49.2811 200.245 48.4293 200.216 46.9435C200.189 45.6449 200.207 44.3462 200.206 43.0459C200.206 42.4974 200.202 41.8328 200.911 41.815C201.736 41.7941 201.669 42.5281 201.674 43.0943C201.684 44.2397 201.693 45.3867 201.661 46.5321C201.636 47.3646 201.985 47.684 202.838 47.6743C205.556 47.6437 208.275 47.6791 210.995 47.6533C211.654 47.6469 212.241 47.7372 212.256 48.4761C212.271 49.2504 211.633 49.3133 211.005 49.3085C209.606 49.2972 208.208 49.3053 206.809 49.3053V49.315H206.807Z" fill="#322F3B"/>
</svg>
