<svg width="186" height="161" viewBox="0 0 186 161" fill="none" xmlns="http://www.w3.org/2000/svg">
<path d="M1 139.525H21.2763" stroke="#2B4255" stroke-linecap="round" stroke-linejoin="round"/>
<path d="M72.5835 146.351H140.723" stroke="#FE6409" stroke-linecap="round" stroke-linejoin="round"/>
<path d="M79.3804 153.175H97.3358" stroke="#FE6409" stroke-linecap="round" stroke-linejoin="round"/>
<path d="M106.676 153.175H130.765" stroke="#FE6409" stroke-linecap="round" stroke-linejoin="round"/>
<path d="M93.0049 160H110.088" stroke="#FE6409" stroke-linecap="round" stroke-linejoin="round"/>
<path fill-rule="evenodd" clip-rule="evenodd" d="M58.3481 53.634C57.5398 53.634 56.8948 54.3121 56.9075 55.1205C56.9075 56.1357 56.4739 56.5957 55.4669 56.5957C53.4876 56.5616 53.4876 59.5519 55.4669 59.5235C56.4365 59.5235 56.9075 59.7932 56.9075 60.9357C56.8802 62.9153 59.8624 62.9153 59.8344 60.9357C59.8344 59.8973 60.3203 59.5235 61.2807 59.5235C63.2601 59.5577 63.2601 56.5678 61.2807 56.5957C59.9758 56.5957 59.8344 55.849 59.8344 55.1205C59.8446 54.2943 59.1743 53.621 58.3481 53.634Z" fill="#FE6409"/>
<path fill-rule="evenodd" clip-rule="evenodd" d="M49.4813 80.4659C49.0375 80.4659 48.6834 80.8382 48.6904 81.2822C48.6904 81.8394 48.4522 82.092 47.8995 82.092C46.8128 82.092 46.8128 83.715 47.8995 83.6993C48.4318 83.6993 48.6904 83.846 48.6904 84.4749C48.6733 85.5615 50.3126 85.5615 50.2972 84.4749C50.2972 83.9047 50.564 83.6993 51.0913 83.6993C52.178 83.6993 52.178 82.0766 51.0913 82.092C50.3748 82.092 50.2972 81.6821 50.2972 81.2822C50.3041 80.8283 49.9348 80.4588 49.4813 80.4659Z" fill="#2B4255"/>
<path fill-rule="evenodd" clip-rule="evenodd" d="M124.534 10.1739C124.09 10.1808 123.736 10.5462 123.743 10.9902C123.743 11.5474 123.504 11.8 122.952 11.8C121.865 11.8 121.865 13.423 122.952 13.4073C123.484 13.4073 123.743 13.5539 123.743 14.1825C123.726 15.2694 125.365 15.2694 125.349 14.1825C125.349 13.6123 125.616 13.4073 126.143 13.4073C127.23 13.4073 127.23 11.7846 126.143 11.8C125.427 11.8 125.349 11.3901 125.349 10.9902C125.356 10.5367 124.987 10.1668 124.534 10.1739Z" fill="#FE6409"/>
<path fill-rule="evenodd" clip-rule="evenodd" d="M146.337 85.2355C145.529 85.2355 144.884 85.9134 144.897 86.7218C144.897 87.737 144.463 88.1971 143.456 88.1971C141.477 88.163 141.477 91.1531 143.456 91.1251C144.426 91.1251 144.897 91.3945 144.897 92.537C144.869 94.5166 147.852 94.5166 147.824 92.537C147.824 91.4986 148.31 91.1251 149.27 91.1251C151.249 91.1592 151.249 88.1691 149.27 88.1971C147.965 88.1971 147.824 87.4504 147.824 86.7218C147.834 85.8957 147.164 85.2226 146.337 85.2355Z" fill="#FE6409"/>
<path fill-rule="evenodd" clip-rule="evenodd" d="M91.0961 0.000103786C90.641 0.00692875 90.2777 0.381927 90.2849 0.837187C90.2849 1.40871 90.0406 1.66802 89.4737 1.66802C88.359 1.65096 88.359 3.3325 89.4737 3.31657C90.0196 3.31657 90.2849 3.46785 90.2849 4.112C90.2712 5.22672 91.9489 5.22672 91.9331 4.112C91.9331 3.52713 92.207 3.31657 92.7475 3.31657C93.8621 3.33363 93.8621 1.65209 92.7475 1.66802C92.0127 1.66802 91.9331 1.24744 91.9331 0.837187C91.9365 0.371826 91.5612 -0.00719893 91.0961 0.000103786Z" fill="#2B4255"/>
<path d="M78.6611 82.1594C71.662 88.7206 67.2554 98.2684 67.2554 108.9C67.2554 113.557 68.1424 118.166 69.8294 122.475C75.0807 109.036 87.5385 100.256 101.37 100.251C115.211 100.251 127.669 109.055 132.911 122.505C134.607 118.186 135.48 113.567 135.485 108.9C135.485 98.1193 130.956 88.4534 123.786 81.8857" stroke="#2B4255" stroke-width="3" stroke-miterlimit="100" stroke-linejoin="round"/>
<path d="M83.4893 95.5164C85.5276 94.6233 87.6169 93.8908 89.7378 93.3182M94.0957 92.3101C94.8377 92.1736 93.3489 92.4091 94.0957 92.3101M99.0983 91.8419C105.89 91.504 112.741 92.729 119.103 95.518" stroke="#2B4255" stroke-width="3" stroke-miterlimit="100" stroke-linecap="round" stroke-linejoin="round"/>
<path d="M77.4976 68.1326C77.5385 80.3469 81.0547 92.6306 87.568 103.264C91.9706 101.462 96.6126 100.261 101.378 100.251C106.172 100.251 110.919 101.188 115.341 102.996C121.833 92.3537 125.249 80.3469 125.259 68.1326C125.221 48.6879 117.83 30.1009 102.583 16.7031C90.8813 27.0208 82.3429 40.3955 79.0222 54.8665M77.939 60.6122C77.8264 61.1817 77.7241 61.7529 77.6286 62.3255" stroke="#2B4255" stroke-width="3" stroke-miterlimit="100" stroke-linecap="round" stroke-linejoin="round"/>
<path d="M39.68 108.322C48.654 105.3 58.82 108.856 63.8148 117.343C66.5955 122.068 67.3638 127.713 65.9473 133.01C68.1587 127.897 73.265 124.083 78.7201 125.204C79.5293 128.501 80.7936 130.433 82.2022 131.932C78.0217 127.75 78.0217 120.971 82.2022 116.789C85.628 113.362 90.9278 112.664 95.1236 115.087L95.1578 120.759V101.154C98.6378 99.8445 102.245 100.055 105.926 101.154V126.838L105.96 114.716C110.155 112.293 115.908 113.066 119.333 116.493C123.514 120.675 123.514 127.454 119.333 131.636C121.282 129.847 121.616 127.468 122.93 125.098C128.385 123.976 134.731 127.265 136.942 132.378C136.169 129.486 136.584 126.502 137.932 124.002M142.259 119.547C147.715 116.396 154.691 118.266 157.841 123.723C160.991 129.181 159.122 136.347 153.666 139.498H28.5718C24.4797 132.544 24.9648 123.449 29.1214 116.73M32.7635 112.448C33.1896 111.958 33.6396 111.489 34.1128 111.042" stroke="#2B4255" stroke-width="3" stroke-linecap="round" stroke-linejoin="round"/>
<path d="M114.229 55.3338C114.229 62.1796 108.73 67.7353 101.869 67.7353C95.0134 67.7353 89.4346 62.1772 89.4346 55.3338C89.4346 48.4849 95.0109 42.9219 101.869 42.9219C105.861 42.9219 109.392 44.8042 111.647 47.7284" stroke="#2B4255" stroke-width="3" stroke-miterlimit="34.1783" stroke-linecap="round" stroke-linejoin="round"/>
<path d="M165.049 139.525H185.001" stroke="#2B4255" stroke-linecap="round" stroke-linejoin="round"/>
</svg>
