<svg width="217" height="162" viewBox="0 0 217 162" fill="none" xmlns="http://www.w3.org/2000/svg">
<path d="M35.4385 137.046L183.086 136.093" stroke="#2B4255" stroke-width="2.5" stroke-linecap="round"/>
<path d="M0.878418 137.372L24.5591 137.219" stroke="#2B4255" stroke-linecap="round" stroke-linejoin="round"/>
<path d="M75.8066 144.863L155.39 144.349" stroke="#FE6409" stroke-linecap="round" stroke-linejoin="round"/>
<path d="M83.8066 152.785L104.777 152.65" stroke="#FE6409" stroke-linecap="round" stroke-linejoin="round"/>
<path d="M115.684 152.579L143.817 152.398" stroke="#FE6409" stroke-linecap="round" stroke-linejoin="round"/>
<path d="M99.7534 160.655L119.705 160.527" stroke="#FE6409" stroke-linecap="round" stroke-linejoin="round"/>
<path d="M192.47 136.135L215.771 135.985" stroke="#2B4255" stroke-linecap="round" stroke-linejoin="round"/>
<path fill-rule="evenodd" clip-rule="evenodd" d="M47.8546 63.7407C46.9106 63.7467 46.1624 64.5438 46.1833 65.4882C46.1909 66.6743 45.688 67.2151 44.512 67.2227C42.2 67.1977 42.2226 70.6914 44.534 70.6433C45.6664 70.636 46.2185 70.9475 46.2271 72.2823C46.2102 74.5954 49.6931 74.5729 49.6454 72.2603C49.6376 71.0471 50.2023 70.6068 51.3239 70.5995C53.6359 70.6245 53.6133 67.1312 51.3018 67.1789C49.7778 67.1887 49.6071 66.3174 49.6016 65.4662C49.6073 64.5009 48.8193 63.7193 47.8546 63.7407Z" fill="#FE6409"/>
<path fill-rule="evenodd" clip-rule="evenodd" d="M78.4306 117.818C77.9123 117.821 77.5015 118.258 77.513 118.777C77.5172 119.428 77.241 119.725 76.5955 119.729C75.3263 119.737 75.3386 121.634 76.6076 121.607C77.2293 121.603 77.5323 121.773 77.5371 122.507C77.5254 123.777 79.4399 123.765 79.4138 122.495C79.4095 121.829 79.7195 121.587 80.3352 121.583C81.6044 121.575 81.5922 119.679 80.3231 119.705C79.4864 119.711 79.3927 119.232 79.3897 118.765C79.3942 118.235 78.9602 117.806 78.4306 117.818Z" fill="#2B4255"/>
<path fill-rule="evenodd" clip-rule="evenodd" d="M130.652 11.5369C130.134 11.5482 129.723 11.9779 129.734 12.4965C129.738 13.1476 129.462 13.4444 128.817 13.4486C127.548 13.4568 127.56 15.353 128.829 15.3264C129.45 15.3224 129.754 15.4918 129.758 16.2262C129.747 17.4962 131.661 17.4838 131.635 16.2141C131.631 15.5479 131.941 15.3064 132.556 15.3024C133.826 15.2942 133.813 13.3984 132.544 13.4245C131.708 13.4299 131.614 12.9517 131.611 12.4844C131.615 11.9545 131.181 11.5252 130.652 11.5369Z" fill="#FE6409"/>
<path fill-rule="evenodd" clip-rule="evenodd" d="M158.63 99.9499C157.686 99.956 156.938 100.753 156.959 101.697C156.967 102.883 156.464 103.424 155.288 103.432C152.976 103.407 152.998 106.9 155.31 106.853C156.442 106.845 156.994 107.157 157.003 108.491C156.986 110.804 160.469 110.782 160.421 108.469C160.413 107.256 160.978 106.816 162.1 106.809C164.412 106.834 164.389 103.34 162.078 103.388C160.554 103.398 160.383 102.526 160.377 101.675C160.383 100.71 159.595 99.9286 158.63 99.9499Z" fill="#FE6409"/>
<path fill-rule="evenodd" clip-rule="evenodd" d="M67.7628 25.9353C67.075 25.9397 66.5299 26.5205 66.5451 27.2086C66.5507 28.0725 66.1842 28.4668 65.3274 28.4724C63.6428 28.4434 63.6593 30.9995 65.3435 30.9647C66.1685 30.9594 66.5708 31.1839 66.577 32.1591C66.564 33.8441 69.1024 33.8278 69.0677 32.143C69.062 31.2587 69.4734 30.938 70.2906 30.9327C71.9752 30.9617 71.9587 28.4057 70.2745 28.4404C69.1641 28.4476 69.0397 27.8129 69.0357 27.1925C69.0391 26.4892 68.4657 25.9196 67.7628 25.9353Z" fill="#2B4255"/>
<path fill-rule="evenodd" clip-rule="evenodd" d="M93.4796 0.782797C92.9481 0.794202 92.5267 1.23506 92.5384 1.7669C92.5427 2.43463 92.2594 2.73943 91.5973 2.74371C90.2954 2.73218 90.3081 4.69678 91.6098 4.66976C92.2474 4.66564 92.5583 4.84039 92.5631 5.59296C92.5556 6.89543 94.5149 6.88278 94.4881 5.58054C94.4836 4.89722 94.802 4.64915 95.4332 4.64508C96.7351 4.65661 96.7225 2.69201 95.4208 2.71903C94.5626 2.72457 94.4664 2.23378 94.4634 1.75448C94.4638 1.21076 94.0227 0.770759 93.4796 0.782797Z" fill="#2B4255"/>
<path d="M60.8298 68.563L77.5712 42.929M60.8298 68.563L75.1061 68.4709M60.8298 68.563L75.2128 84.9871M77.5712 42.929L110.444 42.7168M77.5712 42.929L94.6422 68.3448M143.317 42.5046L160.388 67.9204M143.317 42.5046L127.327 68.1338M143.317 42.5046L110.444 42.7168M160.388 67.9204L111.546 126.045M160.388 67.9204L127.327 68.1338M111.546 126.045L127.327 68.1338M111.546 126.045L94.6422 68.3448M111.546 126.045L86.1878 97.3038M127.327 68.1338L94.6422 68.3448M127.327 68.1338L110.444 42.7168M110.444 42.7168L94.6422 68.3448" stroke="#2B4255" stroke-width="2.5" stroke-linecap="round"/>
<path d="M79.9937 68.4395L90.1374 68.374" stroke="#2B4255" stroke-width="2.5" stroke-linecap="round"/>
<path d="M78.2451 88.722L83.5436 94.694" stroke="#2B4255" stroke-width="2.5" stroke-linecap="round"/>
</svg>
