<svg width="272" height="40" viewBox="0 0 272 40" fill="none" xmlns="http://www.w3.org/2000/svg">
<path d="M7.31217 31.8602H0.00195312V39.8244H7.31217V31.8602Z" fill="black"/>
<path d="M15.2801 31.8602H7.3125V39.8244H15.2801V31.8602Z" fill="#322F3B"/>
<path d="M23.2499 31.8602H15.2822V39.8244H23.2499V31.8602Z" fill="black"/>
<path d="M31.2186 31.8602H23.251V39.8244H31.2186V31.8602Z" fill="#322F3B"/>
<path d="M39.1864 31.8602H31.2188V39.8244H39.1864V31.8602Z" fill="black"/>
<path d="M7.31217 23.8942H0.00195312V31.8585H7.31217V23.8942Z" fill="#322F3B"/>
<path d="M15.2801 23.8942H7.3125V31.8585H15.2801V23.8942Z" fill="black"/>
<path d="M23.2499 23.8942H15.2822V31.8585H23.2499V23.8942Z" fill="#322F3B"/>
<path d="M31.2186 23.8942H23.251V31.8585H31.2186V23.8942Z" fill="black"/>
<path d="M39.1864 23.8942H31.2188V31.8585H39.1864V23.8942Z" fill="#322F3B"/>
<path d="M7.31217 15.93H0.00195312V23.8942H7.31217V15.93Z" fill="black"/>
<path d="M15.2801 15.93H7.3125V23.8942H15.2801V15.93Z" fill="#322F3B"/>
<path d="M23.2499 15.93H15.2822V23.8942H23.2499V15.93Z" fill="black"/>
<path d="M31.2186 15.93H23.251V23.8942H31.2186V15.93Z" fill="#322F3B"/>
<path d="M39.1864 15.93H31.2188V23.8942H39.1864V15.93Z" fill="black"/>
<path d="M7.31217 7.96588H0.00195312V15.9301H7.31217V7.96588Z" fill="#322F3B"/>
<path d="M15.2801 7.9659H7.3125V15.9301H15.2801V7.9659Z" fill="black"/>
<path d="M23.2499 7.9659H15.2822V15.9301H23.2499V7.9659Z" fill="#322F3B"/>
<path d="M31.2186 7.9659H23.251V15.9301H31.2186V7.9659Z" fill="black"/>
<path d="M39.1864 7.9659H31.2188V15.9301H39.1864V7.9659Z" fill="#322F3B"/>
<path d="M7.31217 0H0.00195312V7.96423H7.31217V0Z" fill="black"/>
<path d="M15.2801 0H7.3125V7.96423H15.2801V0Z" fill="#322F3B"/>
<path d="M23.2499 0H15.2822V7.96423H23.2499V0Z" fill="black"/>
<path d="M31.2186 0H23.251V7.96423H31.2186V0Z" fill="#322F3B"/>
<path d="M39.1864 0H31.2188V7.96423H39.1864V0Z" fill="black"/>
<path d="M53.0166 14.0492V17.5953L42.7334 8.48714V5.82799H83.5291V20.8976L76.1231 28.2431H53.9052V39.8244H43.2357V30.7916L52.0231 20.2657H73.7371L75.872 17.8583V14.0492H53.0166Z" fill="#322F3B"/>
<path d="M87.459 6.08333H98.2475V28.9188L93.8048 33.9943H87.459V6.08333Z" fill="#322F3B"/>
<path d="M100.537 6.08333H113.356L121.987 13.9479L130.365 6.08333H143.437L128.968 20.0388L143.437 33.3596H130.746L121.987 25.7473L112.977 33.9943H99.5215L115.134 20.0388L100.537 6.08333Z" fill="#322F3B"/>
<path d="M145.476 6.08333H158.929L167.18 13.9062L175.43 6.08333H187.995L172.511 20.0388V28.7501L168.449 33.9943H162.076V20.0388L145.476 6.08333Z" fill="#322F3B"/>
<path d="M223.901 27.1001L231.009 19.4717V6.08333H190.141V33.9943H195.979L201.183 27.1017L213.114 27.3555L219.714 33.9943H231.519L223.903 27.1017L223.901 27.1001ZM201.435 18.5719V13.5254H224.028V16.4431L221.49 18.5719H201.437H201.435Z" fill="#322F3B"/>
<path d="M233.31 6.08333H271.007V9.08618L266.056 13.5254H245.368L243.084 16.0495H270.499V28.4963L266.183 33.9943H233.31V27.1001H261.994V23.5478L233.31 23.9285V6.08333Z" fill="#322F3B"/>
<rect x="40.3779" y="5.87923" width="19.0361" height="19.0361" transform="rotate(39.6603 40.3779 5.87923)" fill="white"/>
</svg>
