<svg width="40" height="40" viewBox="0 0 40 40" fill="none" xmlns="http://www.w3.org/2000/svg">
<path d="M2.03172 14.24C2.22172 13.98 2.47172 13.91 2.79172 13.91C4.95172 13.91 7.12172 13.91 9.28172 13.92C9.55172 13.92 9.71172 13.82 9.90172 13.63C10.4417 13.11 10.5517 12.55 10.1917 11.89C10.0917 11.71 10.0517 11.49 10.0017 11.29C9.88172 10.87 9.95172 10.5 10.2717 10.19C10.5817 9.89003 10.9517 9.80003 11.3717 9.95003C11.7717 10.09 12.1717 10.21 12.5617 10.38C12.8217 10.49 13.0117 10.45 13.2317 10.28C13.5517 10.02 13.8917 9.79003 14.2217 9.56003C14.5817 9.31003 14.9517 9.27003 15.3417 9.47003C15.7417 9.68003 15.9317 10.02 15.9217 10.47C15.9217 10.87 15.9217 11.27 15.8817 11.66C15.8517 11.95 15.9217 12.14 16.1817 12.3C16.4617 12.47 16.7117 12.68 16.9817 12.88C17.4917 13.25 17.5317 13.31 17.6817 13.92H18.1117C22.4317 13.92 26.7417 13.92 31.0617 13.92C31.7717 13.92 31.8917 14.04 31.8917 14.76C31.8917 18.22 31.8917 21.69 31.8917 25.15C31.8917 25.3 31.8917 25.45 31.8917 25.59C33.8817 25.97 34.9917 27.23 35.2317 29.3C35.3517 30.33 35.2517 31.32 34.7717 32.34C35.1617 32.34 35.5017 32.34 35.8517 32.34C37.1817 32.34 37.9617 33.12 37.9617 34.46C37.9617 35.41 37.9617 36.36 37.9617 37.3C37.9617 37.8 37.7817 37.98 37.2917 37.98C36.2317 37.98 35.1617 37.98 34.1017 37.98C33.6917 37.98 33.4517 37.79 33.4417 37.46C33.4417 37.12 33.6817 36.93 34.1117 36.92C35.0317 36.92 35.9517 36.92 36.9017 36.92C36.9017 35.97 36.9217 35.05 36.9017 34.13C36.8917 33.73 36.5317 33.44 36.1217 33.4C35.9917 33.39 35.8617 33.4 35.7317 33.4C32.6417 33.4 29.5517 33.4 26.4617 33.4H26.0117V36.93C26.5117 36.93 27.0017 36.93 27.4917 36.93C28.6617 36.93 29.8317 36.93 31.0017 36.93C31.4517 36.93 31.6717 37.12 31.6617 37.47C31.6617 37.81 31.4317 37.99 31.0117 37.99C22.0017 37.99 12.9917 37.99 3.98172 37.99C3.08172 37.99 2.39172 37.48 2.10172 36.63C2.08172 36.57 2.05172 36.51 2.02172 36.45C2.02172 31.11 2.02172 25.78 2.02172 20.44C2.21172 20.21 2.43172 20.05 2.74172 20.17C3.07172 20.29 3.08172 20.58 3.07172 20.87C3.07172 20.94 3.07172 21.01 3.07172 21.08C3.07172 25.9 3.08172 30.72 3.06172 35.54C3.06172 36.65 3.36172 36.98 4.48172 36.95C5.67172 36.91 6.86172 36.95 8.10172 36.95C8.10172 36.8 8.10172 36.67 8.10172 36.55C8.10172 35.86 8.10172 35.17 8.10172 34.48C8.10172 33.14 8.87172 32.37 10.2117 32.37C10.5517 32.37 10.9017 32.37 11.2817 32.37C11.2217 32.23 11.1917 32.16 11.1617 32.08C10.5017 30.32 10.6717 28.63 11.6817 27.05C12.1417 26.33 12.7917 25.84 13.6517 25.72C13.9317 25.68 14.0017 25.58 14.0017 25.3C14.0017 22 13.9917 18.7 14.0017 15.4C14.0017 15.07 13.9117 14.99 13.5917 14.99C10.2117 15 6.83172 14.99 3.45172 14.99C3.34172 14.99 3.22172 14.99 3.07172 15.01C3.07172 15.85 3.07172 16.66 3.07172 17.48C3.07172 17.78 3.03172 18.05 2.71172 18.17C2.38172 18.29 2.18172 18.09 2.01172 17.85V14.27L2.03172 14.24ZM23.0417 31.88C23.1217 31.77 23.1817 31.68 23.2417 31.6C24.4217 29.94 25.8117 28.48 27.4517 27.27C28.3717 26.59 29.3417 26.01 30.4817 25.78C30.7817 25.72 30.8517 25.61 30.8517 25.33C30.8517 22.01 30.8517 18.69 30.8517 15.37C30.8517 15.25 30.8417 15.12 30.8317 14.99H19.9617C19.9617 15.09 19.9417 15.17 19.9417 15.25C19.9417 19.52 19.9417 23.79 19.9417 28.06C19.9417 28.21 20.0417 28.38 20.1417 28.5C20.9117 29.38 21.6917 30.24 22.4617 31.12C22.6717 31.35 22.8417 31.62 23.0417 31.88ZM15.0817 25.69C16.4917 25.91 17.6917 26.57 18.8517 27.41V14.99H15.0817V25.69ZM24.0117 32.33C24.2417 32.33 24.3717 32.33 24.5017 32.33C27.3117 32.33 30.1117 32.31 32.9217 32.35C33.4717 32.35 33.7517 32.13 33.9217 31.68C34.4817 30.24 34.3517 28.86 33.5017 27.57C33.0317 26.86 32.3217 26.57 31.4917 26.7C30.9117 26.79 30.3117 26.91 29.7717 27.14C27.3217 28.21 25.6417 30.17 24.0117 32.33ZM22.0017 32.33C21.9717 32.24 21.9617 32.2 21.9417 32.18C21.0617 30.97 20.0817 29.83 18.9517 28.85C17.8417 27.88 16.6317 27.08 15.1517 26.77C13.8617 26.5 13.0117 26.81 12.4317 27.8C12.2717 28.08 12.1317 28.38 12.0417 28.7C11.7417 29.79 11.7217 30.87 12.2717 31.9C12.4317 32.2 12.6417 32.35 13.0217 32.35C15.8817 32.33 18.7517 32.35 21.6117 32.35H22.0017V32.33ZM9.17172 36.89H20.0617V33.38C19.9017 33.38 19.7717 33.38 19.6317 33.38C17.6917 33.38 15.7517 33.38 13.8117 33.38C12.5817 33.38 11.3617 33.38 10.1317 33.38C9.55172 33.38 9.19172 33.68 9.18172 34.23C9.16172 35.11 9.18172 35.98 9.18172 36.89H9.17172ZM24.9217 33.4H21.1517V36.89H24.9217V33.4ZM11.0717 13.88H16.5517C16.1417 13.58 15.8117 13.3 15.4417 13.07C14.9517 12.76 14.7717 12.33 14.8117 11.76C14.8417 11.33 14.8117 10.89 14.8117 10.41C14.4317 10.68 14.0617 10.93 13.7217 11.2C13.2717 11.56 12.8117 11.63 12.2817 11.4C11.8717 11.23 11.4417 11.1 10.9717 10.93C11.0617 11.21 11.1217 11.43 11.2017 11.63C11.5017 12.4 11.7217 13.16 11.0617 13.87L11.0717 13.88Z" fill="black"/>
<path d="M23.58 2.02953C24.24 2.24953 24.56 2.70953 24.66 3.38953C24.73 3.90953 24.88 4.41953 24.99 4.92953C25.03 5.13953 25.13 5.26953 25.35 5.34953C25.93 5.56953 26.5 5.80953 27.07 6.03953C27.57 6.23953 27.88 6.58953 27.93 7.12953C27.98 7.68953 27.72 8.08953 27.24 8.36953C26.7 8.67953 26.18 9.00953 25.64 9.30953C25.44 9.41953 25.36 9.55953 25.35 9.77953C25.31 10.4295 25.26 11.0895 25.21 11.7395C25.17 12.2395 24.9 12.5895 24.44 12.7795C23.96 12.9795 23.52 12.8995 23.13 12.5595C22.64 12.1295 22.16 11.6795 21.65 11.2695C21.53 11.1695 21.31 11.1195 21.16 11.1495C20.54 11.2695 19.93 11.4295 19.32 11.5895C18.79 11.7295 18.34 11.6095 17.99 11.1995C17.64 10.7795 17.6 10.3195 17.82 9.81953C18.08 9.25953 18.31 8.67953 18.57 8.11953C18.67 7.89953 18.65 7.73953 18.52 7.53953C18.18 7.01953 17.86 6.48953 17.53 5.96953C17.24 5.50953 17.21 5.03953 17.5 4.57953C17.79 4.11953 18.23 3.93953 18.76 3.99953C19.38 4.06953 19.99 4.11953 20.61 4.18953C20.83 4.21953 20.98 4.15953 21.12 3.97953C21.44 3.57953 21.76 3.16953 22.12 2.79953C22.41 2.50953 22.75 2.27953 23.07 2.01953C23.23 2.01953 23.4 2.01953 23.56 2.01953L23.58 2.02953ZM18.6 5.04953C18.6 5.04953 18.43 5.08953 18.4 5.14953C18.37 5.21953 18.4 5.34953 18.45 5.42953C18.79 5.98953 19.13 6.53953 19.48 7.09953C19.75 7.52953 19.78 7.96953 19.57 8.42953C19.31 8.99953 19.06 9.57953 18.82 10.1595C18.78 10.2695 18.79 10.3995 18.78 10.5195C18.9 10.5195 19.03 10.5695 19.14 10.5395C19.73 10.3995 20.32 10.2595 20.91 10.0995C21.45 9.94953 21.92 10.0695 22.33 10.4495C22.78 10.8595 23.23 11.2595 23.7 11.6595C23.79 11.7395 23.92 11.7695 24.03 11.8195C24.08 11.7095 24.15 11.5995 24.16 11.4795C24.22 10.8395 24.26 10.1995 24.3 9.55953C24.33 9.04953 24.58 8.68953 25.02 8.43953C25.52 8.15953 26.01 7.86953 26.5 7.56953C26.64 7.47953 26.75 7.34953 26.87 7.23953C26.74 7.13953 26.62 7.01953 26.47 6.94953C25.95 6.71953 25.41 6.50953 24.88 6.29953C24.38 6.10953 24.08 5.76953 23.97 5.23953C23.85 4.60953 23.7 3.97953 23.55 3.35953C23.53 3.25953 23.44 3.14953 23.35 3.09953C23.3 3.07953 23.17 3.17953 23.11 3.24953C22.73 3.68953 22.33 4.12953 21.98 4.58953C21.56 5.14953 21.03 5.32953 20.35 5.21953C19.79 5.12953 19.21 5.09953 18.57 5.03953L18.6 5.04953Z" fill="black"/>
<path d="M9.26164 2.02953C9.92164 2.11953 10.2316 2.63953 10.5516 3.11953C10.7616 3.42953 10.9916 3.56953 11.3616 3.50953C11.6416 3.46953 11.9216 3.46953 12.2016 3.45953C12.6116 3.44953 12.9316 3.59953 13.1316 3.95953C13.3316 4.31953 13.3116 4.67953 13.0916 5.01953C12.8416 5.39953 12.4416 5.75953 12.3816 6.15953C12.3316 6.54953 12.6416 6.98953 12.7916 7.40953C12.9316 7.79953 12.8716 8.14953 12.5816 8.44953C12.3016 8.73953 11.9516 8.83953 11.5516 8.70953C11.2216 8.60953 10.8716 8.51953 10.5516 8.39953C10.3416 8.31953 10.2016 8.36953 10.0416 8.49953C9.77164 8.73953 9.48164 8.96953 9.19164 9.17953C8.52164 9.66953 7.66164 9.27953 7.59164 8.44953C7.56164 8.08953 7.56164 7.71953 7.57164 7.35953C7.58164 7.12953 7.49164 6.99953 7.30164 6.87953C7.04164 6.72953 6.79164 6.53953 6.53164 6.37953C6.15164 6.14953 5.92164 5.82953 5.97164 5.36953C6.02164 4.87953 6.33164 4.60953 6.79164 4.46953C7.10164 4.37953 7.41164 4.26953 7.71164 4.13953C7.82164 4.08953 7.93164 3.96953 7.97164 3.85953C8.07164 3.59953 8.14164 3.32953 8.19164 3.04953C8.29164 2.47953 8.59164 2.11953 9.17164 2.01953H9.24164L9.26164 2.02953ZM7.11164 5.48953C7.42164 5.68953 7.67164 5.87953 7.94164 6.02953C8.43164 6.30953 8.66164 6.69953 8.62164 7.26953C8.60164 7.57953 8.62164 7.88953 8.62164 8.28953C8.96164 8.01953 9.23164 7.81953 9.48164 7.59953C9.85164 7.26953 10.2516 7.18953 10.7116 7.34953C11.0316 7.45953 11.3716 7.53953 11.7516 7.65953C11.6216 7.29953 11.5216 6.98953 11.3916 6.70953C11.1616 6.20953 11.2216 5.76953 11.5616 5.33953C11.7616 5.08953 11.9216 4.81953 12.1016 4.55953C11.6716 4.55953 11.3016 4.54953 10.9316 4.55953C10.5216 4.57953 10.2116 4.41953 9.97164 4.08953C9.75164 3.78953 9.52164 3.49953 9.26164 3.15953C9.15164 3.56953 9.04164 3.91953 8.96164 4.26953C8.86164 4.68953 8.61164 4.96953 8.19164 5.10953C7.84164 5.22953 7.49164 5.34953 7.09164 5.49953L7.11164 5.48953Z" fill="black"/>
<path d="M16.7689 2.03027C16.8089 2.08027 16.8589 2.13027 16.8989 2.18027C17.1089 2.43027 17.0889 2.77027 16.8689 2.96027C16.6689 3.13027 16.3489 3.12027 16.1689 2.93027C15.9789 2.72027 15.9989 2.36027 16.2189 2.14027C16.2589 2.10027 16.2989 2.07027 16.3489 2.03027C16.4889 2.03027 16.6289 2.03027 16.7689 2.03027Z" fill="black"/>
<path d="M28.6892 11.6204C28.6892 11.9104 28.4492 12.1304 28.1692 12.1304C27.8792 12.1304 27.6492 11.8704 27.6692 11.5704C27.6892 11.2704 27.9092 11.0704 28.1992 11.0804C28.4792 11.0904 28.6892 11.3304 28.6892 11.6204Z" fill="black"/>
<path d="M5.75132 10.8499C5.75132 11.1499 5.53132 11.3599 5.24132 11.3599C4.94132 11.3599 4.73132 11.1199 4.75132 10.7999C4.76132 10.4999 4.98132 10.2999 5.27132 10.3099C5.56132 10.3199 5.75132 10.5399 5.75132 10.8499Z" fill="black"/>
<path d="M15.5081 6.47996C15.5081 6.77996 15.2981 6.99996 15.0181 7.00996C14.7181 7.00996 14.4981 6.78996 14.5081 6.46996C14.5081 6.16996 14.7181 5.95996 15.0081 5.95996C15.2981 5.95996 15.5081 6.17996 15.5081 6.47996Z" fill="black"/>
</svg>
