<svg width="53" height="53" viewBox="0 0 53 53" fill="none" xmlns="http://www.w3.org/2000/svg">
<path d="M0.243631 25.7063L0.182724 25.7672C0.121816 25.8281 0.121816 25.8281 0.121816 25.8894C0.121816 25.8894 0.121816 25.9503 0.0609083 25.9503C0.0609083 26.0112 0 26.0726 0 26.1335V26.7434C0 26.8043 0.0609083 26.8656 0.0609083 26.9266C0.0609083 26.9266 0.0609079 26.9875 0.121816 26.9875C0.121816 27.0484 0.182724 27.1097 0.182724 27.1097L0.365876 27.2929L10.7462 36.2688C10.9903 36.452 11.2348 36.5742 11.5402 36.5742C11.9065 36.5742 12.2119 36.452 12.4559 36.1466C12.8836 35.658 12.8222 34.8641 12.3337 34.4369L4.45695 27.7212H25.2789V48.5431L18.4397 40.6664C18.0121 40.1779 17.2186 40.117 16.73 40.5442C16.2415 40.9718 16.1805 41.7653 16.6078 42.2539L25.5838 52.6341C25.6447 52.695 25.6447 52.695 25.706 52.7564L25.767 52.8173C25.8279 52.8782 25.8279 52.8782 25.8892 52.8782C25.8892 52.8782 25.9501 52.8782 25.9501 52.9391C26.011 52.9391 26.0723 53 26.1333 53H26.7432C26.8041 53 26.8654 52.9391 26.9263 52.9391C26.9263 52.9391 26.9873 52.9391 26.9873 52.8782C27.0482 52.8782 27.1095 52.8173 27.1095 52.8173L27.2927 52.6341L36.2687 42.2539C36.6963 41.7653 36.635 40.9714 36.1465 40.5442C35.6579 40.1165 34.8639 40.1779 34.4367 40.6664L27.7211 48.5431V27.7212H48.543L40.6663 34.5604C40.1778 34.988 40.1169 35.7815 40.5441 36.2701C40.7881 36.5755 41.1549 36.6978 41.4598 36.6978C41.7652 36.6978 42.0093 36.5755 42.2538 36.3924L52.6341 27.4164C52.695 27.3555 52.695 27.3555 52.7564 27.2941L52.8173 27.2332C52.8782 27.1723 52.8782 27.1723 52.8782 27.111C52.8782 27.111 52.8782 27.0501 52.9391 27.0501C52.9391 26.9892 53 26.9278 53 26.8669V26.257C53 26.1961 52.9391 26.1348 52.9391 26.0739C52.9391 26.0739 52.9391 26.013 52.8782 26.013C52.8782 25.952 52.8173 25.8907 52.8173 25.8907L52.6341 25.7076L42.2538 16.7316C41.7652 16.1809 40.9712 16.1809 40.544 16.7303C40.1164 17.2189 40.1777 18.0128 40.6663 18.44L48.543 25.2792H27.721V4.45738L34.5598 12.334C34.8039 12.6394 35.1706 12.7617 35.4755 12.7617C35.7809 12.7617 36.025 12.6394 36.2695 12.4563C36.758 12.0286 36.8189 11.2352 36.3917 10.7466L27.4157 0.366301C27.3548 0.305394 27.2934 0.244059 27.2934 0.244059C27.1103 0.121817 26.8658 0 26.5608 0C26.2554 0 26.0114 0.122242 25.8282 0.244059C25.7673 0.304966 25.706 0.304966 25.706 0.366301L16.7299 10.7466C16.1805 11.2351 16.1805 12.0291 16.7299 12.4563C17.2185 12.8839 18.0124 12.8226 18.4396 12.334L25.2789 4.45738V25.2792H4.45686L12.3336 18.4405C12.8221 18.0128 12.883 17.2193 12.4558 16.7308C12.0282 16.2422 11.2347 16.1813 10.7461 16.6085L0.365749 25.5845C0.304841 25.6454 0.243506 25.7063 0.243506 25.7063L0.243631 25.7063Z" fill="#322F3B"/>
</svg>
