<svg width="40" height="40" viewBox="0 0 40 40" fill="none" xmlns="http://www.w3.org/2000/svg">
<path d="M34.9801 19.24C35.4001 19.28 35.7701 19.27 36.1101 19.35C37.0501 19.56 37.7701 20.31 37.7901 21.26C37.8301 24.21 37.8401 27.16 37.7901 30.11C37.7701 31.24 36.8101 32.05 35.6701 32.1C35.4501 32.1 35.2301 32.1 34.9801 32.1C34.9801 33.07 34.9801 33.99 34.9801 34.9C34.9801 35.25 34.9801 35.61 34.9201 35.95C34.7201 36.96 33.9301 37.67 32.9101 37.79C32.7201 37.81 32.5201 37.82 32.3301 37.82C23.5701 37.82 14.8101 37.82 6.05011 37.82C4.21011 37.82 2.86011 36.92 2.36011 35.34C2.24011 34.95 2.18011 34.52 2.18011 34.11C2.17011 26.6 2.17011 19.09 2.18011 11.57C2.18011 9.68999 3.35011 8.19999 5.11011 7.92999C5.91011 7.80999 6.75011 7.83999 7.56011 7.87999C8.15011 7.90999 8.42011 7.72999 8.69011 7.15999C10.2601 3.88999 12.9101 2.13999 16.5301 2.17999C20.2001 2.21999 22.8101 4.07999 24.3201 7.42999C24.4701 7.76999 24.6401 7.87999 25.0001 7.86999C26.0901 7.84999 27.1801 7.85999 28.2701 7.86999C29.7201 7.86999 30.6901 8.84999 30.6901 10.29C30.6901 11.37 30.6901 12.44 30.6901 13.57C31.2901 13.57 31.8601 13.6 32.4201 13.57C33.9401 13.48 35.0401 14.68 34.9801 16.11C34.9401 17.15 34.9801 18.18 34.9801 19.24ZM3.63011 14.27C3.63011 14.42 3.61011 14.49 3.61011 14.55C3.61011 21.1 3.61011 27.65 3.61011 34.2C3.61011 35.5 4.52011 36.37 5.85011 36.37C14.7301 36.37 23.6001 36.37 32.4801 36.37C33.2201 36.37 33.5501 36.04 33.5601 35.3C33.5601 34.43 33.5601 33.56 33.5601 32.69C33.5601 32.5 33.5601 32.31 33.5601 32.09C33.3401 32.09 33.1901 32.09 33.0401 32.09C30.9601 32.09 28.8801 32.14 26.8001 32.07C23.4501 31.96 20.7701 29.15 20.7201 25.8C20.6601 22.22 23.5101 19.29 27.1001 19.27C29.1001 19.26 31.1001 19.27 33.1001 19.27C33.2401 19.27 33.3801 19.27 33.5601 19.27C33.5601 18.21 33.5601 17.2 33.5601 16.19C33.5601 15.28 33.2601 14.98 32.3401 14.98C23.7201 14.98 15.1101 14.98 6.49011 14.98C5.49011 14.98 4.52011 14.93 3.63011 14.26V14.27ZM31.1301 30.67C32.5301 30.67 33.9401 30.67 35.3401 30.67C36.1401 30.67 36.3901 30.42 36.3901 29.62C36.3901 27 36.3901 24.37 36.3901 21.75C36.3901 20.96 36.1201 20.69 35.3401 20.69C32.6401 20.69 29.9301 20.69 27.2301 20.69C26.8601 20.69 26.4701 20.72 26.1101 20.8C23.5201 21.36 21.9001 23.65 22.1801 26.34C22.4301 28.75 24.6101 30.66 27.1501 30.67C28.4801 30.67 29.8001 30.67 31.1301 30.67ZM17.1801 13.54C17.2401 13.56 17.2801 13.57 17.3101 13.57C19.1201 13.57 20.9201 13.57 22.7301 13.57C22.8501 13.57 23.0101 13.42 23.0601 13.29C23.4301 12.4 23.6001 11.47 23.5601 10.51C23.4101 6.52999 20.1901 3.49999 16.2101 3.59999C11.3701 3.70999 8.04011 8.68999 9.76011 13.21C9.86011 13.48 9.99011 13.59 10.2901 13.59C11.9701 13.57 13.6401 13.59 15.3201 13.59H15.7001V8.03999C15.5701 8.15999 15.4701 8.23999 15.3801 8.32999C14.9601 8.74999 14.5401 9.17999 14.1101 9.58999C13.7801 9.90999 13.3501 9.88999 13.0701 9.58999C12.8001 9.30999 12.8101 8.88999 13.1201 8.57999C14.0401 7.64999 14.9701 6.71999 15.9001 5.79999C16.2401 5.45999 16.6201 5.46999 16.9701 5.79999C17.2401 6.04999 17.4901 6.30999 17.7401 6.56999C18.4101 7.23999 19.0801 7.90999 19.7501 8.57999C19.9701 8.79999 20.1101 9.08999 19.9301 9.34999C19.8001 9.54999 19.5501 9.75999 19.3201 9.79999C19.1301 9.82999 18.8501 9.66999 18.6801 9.51999C18.1701 9.05999 17.7001 8.55999 17.1601 8.00999V13.56L17.1801 13.54ZM29.2701 13.56C29.2701 12.38 29.2901 11.24 29.2701 10.1C29.2701 9.66999 28.9101 9.30999 28.5001 9.30999C27.3101 9.28999 26.1201 9.30999 24.8901 9.30999C25.1401 10.77 24.9901 12.17 24.5301 13.57H29.2801L29.2701 13.56ZM8.00011 9.29999C7.12011 9.29999 6.29011 9.25999 5.46011 9.30999C4.47011 9.37999 3.66011 10.27 3.61011 11.26C3.55011 12.35 4.23011 13.37 5.26011 13.48C6.27011 13.59 7.29011 13.5 8.35011 13.5C7.88011 12.15 7.78011 10.75 8.00011 9.29999Z" fill="#231F20"/>
<path d="M11.7399 32.07C12.8699 32.07 13.9999 32.07 15.1299 32.07C15.6599 32.07 15.9599 32.33 15.9599 32.78C15.9599 33.22 15.6599 33.48 15.1199 33.48C12.8299 33.48 10.5499 33.48 8.25993 33.48C7.72993 33.48 7.42993 33.21 7.42993 32.77C7.42993 32.32 7.72993 32.07 8.26993 32.07C9.42993 32.07 10.5799 32.07 11.7399 32.07Z" fill="#231F20"/>
<path d="M27.1401 23.56C28.3201 23.56 29.2701 24.51 29.2801 25.69C29.2801 26.87 28.3001 27.84 27.1101 27.83C25.9301 27.82 24.9901 26.86 25.0001 25.68C25.0001 24.51 25.9601 23.56 27.1401 23.57V23.56ZM27.8401 25.67C27.8401 25.28 27.5001 24.96 27.1101 24.98C26.7401 24.99 26.4201 25.32 26.4201 25.69C26.4201 26.08 26.7401 26.4 27.1401 26.4C27.5401 26.4 27.8501 26.08 27.8401 25.68V25.67Z" fill="#231F20"/>
</svg>
