<svg width="40" height="40" viewBox="0 0 40 40" fill="none" xmlns="http://www.w3.org/2000/svg">
<path d="M23.4699 6.47999C24.0999 6.16999 24.6899 6.08999 25.3099 6.27999C26.2899 6.58999 26.9299 7.45999 26.9299 8.53999C26.9299 11.53 26.9299 14.52 26.9299 17.51C26.9299 17.65 26.9299 17.8 26.9299 17.99C28.1899 17.43 29.2299 17.71 30.0599 18.81C30.6099 18.42 31.2099 18.19 31.8999 18.31C32.5899 18.43 33.1099 18.81 33.4999 19.39C34.0999 18.96 34.7299 18.75 35.4399 18.9C36.4299 19.11 37.1999 19.87 37.2599 20.87C37.3199 21.97 37.3299 23.08 37.1899 24.17C37.0899 24.94 36.7299 25.68 36.4699 26.42C35.8199 28.26 35.1499 30.1 34.4999 31.94C34.4399 32.11 34.4099 32.29 34.4099 32.46C34.4099 33.79 34.4099 35.12 34.4099 36.46C34.4099 37.1 34.2399 37.28 33.6099 37.28C29.9299 37.28 26.2399 37.28 22.5599 37.28C21.9099 37.28 21.7399 37.11 21.7399 36.44C21.7399 35.47 21.6999 34.49 21.7499 33.52C21.7899 32.6 21.6399 31.74 21.2899 30.9C21.0699 30.37 21.0899 30.4 20.5199 30.35C20.0099 30.3 19.7199 30.48 19.4499 30.91C18.9599 31.69 18.3899 32.43 17.8799 33.19C17.7799 33.34 17.7199 33.54 17.7099 33.71C17.6899 34.66 17.7099 35.61 17.7099 36.55C17.7099 37.06 17.4999 37.26 16.9899 37.27C12.8599 37.27 8.7299 37.27 4.5999 37.27C4.0899 37.27 3.8699 37.06 3.8899 36.55C4.0099 33.52 3.6199 30.51 3.3299 27.5C3.1299 25.45 2.9099 23.39 2.7499 21.34C2.6799 20.43 2.6999 19.51 2.7499 18.6C2.8299 17.16 4.0499 16 5.4899 15.95C5.6999 15.95 5.9199 15.95 6.1899 15.95V15.51C6.1899 11.88 6.1899 8.25999 6.1899 4.62999C6.1899 3.37999 6.8799 2.67999 8.1199 2.67999C12.5999 2.67999 17.0699 2.67999 21.5499 2.67999C22.7699 2.67999 23.4699 3.37999 23.4699 4.59999C23.4699 5.19999 23.4699 5.79999 23.4699 6.44999V6.47999ZM7.3499 25.77H17.6899V26.92H7.3299C7.3299 27.44 7.3299 27.92 7.3299 28.39C7.3299 29.05 7.4999 29.22 8.1599 29.22C12.1899 29.22 16.2299 29.22 20.2599 29.22C20.3799 29.22 20.5099 29.21 20.6599 29.2C20.1599 27.79 19.6499 26.41 19.1799 25.03C19.0199 24.57 18.8799 24.08 18.8699 23.6C18.8299 21.8 18.8399 20 18.8599 18.2C18.8599 17.14 19.6299 16.26 20.6699 16.02C21.2399 15.89 21.7599 16.02 22.3099 16.27V15.85C22.3099 12.14 22.3099 8.42999 22.3099 4.71999C22.3099 4.02999 22.1499 3.86999 21.4699 3.86999C17.0399 3.86999 12.6099 3.86999 8.1799 3.86999C7.4899 3.86999 7.3299 4.02999 7.3299 4.70999C7.3299 8.31999 7.3299 11.94 7.3299 15.55V15.97C8.1499 15.97 8.9399 15.95 9.7299 15.97C11.2599 16.01 12.4999 17.28 12.5099 18.81C12.5299 20.39 11.2799 21.69 9.6899 21.72C8.9099 21.74 8.1399 21.72 7.3399 21.72V25.77H7.3499ZM22.3099 22.86C22.3099 21.35 22.3099 19.88 22.3099 18.4C22.3099 17.63 21.8499 17.11 21.1599 17.11C20.4799 17.11 20.0099 17.63 19.9999 18.39C19.9999 20.02 19.9899 21.65 19.9999 23.29C19.9999 23.7 20.0799 24.13 20.2099 24.52C20.9899 26.76 21.7999 28.99 22.5899 31.23C22.6699 31.47 22.7899 31.53 23.0299 31.53C26.3799 31.53 29.7299 31.53 33.0699 31.53C33.3199 31.53 33.4399 31.47 33.5299 31.22C34.3099 29 35.1099 26.8 35.8899 24.58C35.9999 24.26 36.0999 23.91 36.1099 23.57C36.1399 22.77 36.1299 21.96 36.1199 21.16C36.1199 20.77 35.9599 20.46 35.6499 20.24C35.2899 19.98 34.8999 19.92 34.4999 20.12C34.0799 20.33 33.8399 20.67 33.8299 21.15C33.8199 21.91 33.8299 22.68 33.8299 23.44H32.6799C32.6799 23.28 32.6799 23.15 32.6799 23.02C32.6799 22.2 32.6799 21.39 32.6799 20.57C32.6699 19.92 32.1499 19.42 31.5299 19.43C30.8999 19.43 30.3999 19.93 30.3799 20.58C30.3799 20.8 30.3799 21.01 30.3799 21.23C30.3799 21.78 30.3799 22.32 30.3799 22.86H29.2299C29.2299 21.88 29.2399 20.93 29.2299 19.99C29.2299 19.39 28.7499 18.91 28.1699 18.86C27.6099 18.82 27.0799 19.21 26.9599 19.77C26.9299 19.92 26.9299 20.08 26.9299 20.24C26.9299 21.11 26.9299 21.99 26.9299 22.87H25.7799V22.42C25.7799 17.88 25.7799 13.35 25.7799 8.80999C25.7799 8.68999 25.7799 8.56999 25.7799 8.44999C25.7499 7.86999 25.3099 7.38999 24.7499 7.33999C24.1899 7.27999 23.6499 7.65999 23.5199 8.22999C23.4799 8.38999 23.4799 8.55999 23.4799 8.72999C23.4799 13.3 23.4799 17.88 23.4799 22.45V22.88H22.3299L22.3099 22.86ZM18.4399 30.37H17.9699C14.6599 30.37 11.3499 30.37 8.0399 30.37C6.9099 30.37 6.1899 29.65 6.1799 28.53C6.1799 26.13 6.1799 23.73 6.1799 21.33C6.1799 20.76 6.3699 20.57 6.9299 20.57C7.8499 20.57 8.7799 20.58 9.6999 20.57C10.6299 20.55 11.3699 19.76 11.3599 18.83C11.3599 17.92 10.6199 17.14 9.6999 17.13C8.3099 17.11 6.9199 17.11 5.5299 17.13C4.6499 17.14 3.8999 17.86 3.8899 18.73C3.8799 19.89 3.8899 21.06 3.9799 22.22C4.1999 24.91 4.4799 27.59 4.7399 30.28C4.8199 31.08 4.8999 31.87 4.9699 32.65C5.0299 32.67 5.0499 32.68 5.0799 32.68C8.9299 32.68 12.7799 32.68 16.6299 32.68C16.7199 32.68 16.8499 32.63 16.8999 32.56C17.3999 31.86 17.8899 31.15 18.4299 30.38L18.4399 30.37ZM16.5299 36.12V33.86H5.0599V36.12H16.5299ZM24.5999 32.7H22.9099V36.11H24.5999V32.7ZM27.4799 32.7H25.7799V36.1H27.4799V32.7ZM28.6699 32.69V36.1H30.3499V32.69H28.6699ZM33.2199 36.12V32.7H31.5499V36.12H33.2199Z" fill="#231F20"/>
<path d="M36.7001 13.09H30.0801C30.5401 13.54 30.9601 13.94 31.3901 14.36C31.0701 14.67 30.8001 14.92 30.5201 15.19C29.7601 14.44 28.9901 13.67 28.2201 12.89C28.0101 12.68 27.9901 12.38 28.2001 12.17C28.9701 11.38 29.7701 10.62 30.5601 9.84003C30.8101 10.09 31.0601 10.35 31.3301 10.62C30.9101 11.02 30.4901 11.43 30.0601 11.83C30.0801 11.87 30.1001 11.9 30.1201 11.94H36.6901V13.11L36.7001 13.09Z" fill="#231F20"/>
<path d="M33.9499 6.06999C34.2899 5.74999 34.5499 5.49999 34.8299 5.23999C34.8799 5.27999 34.9499 5.32999 35.0199 5.39999C35.6799 6.05999 36.3499 6.71999 37.0099 7.38999C37.3999 7.77999 37.3999 8.04999 37.0099 8.42999C36.2899 9.14999 35.5699 9.86999 34.8399 10.6C34.5699 10.32 34.3199 10.05 34.0199 9.73999C34.4299 9.35999 34.8499 8.95999 35.3499 8.48999H28.6799V7.33999H35.2499C34.7999 6.89999 34.3799 6.48999 33.9499 6.06999Z" fill="#231F20"/>
<path d="M9.06006 10.76C9.06006 7.58999 11.6601 5.00999 14.8501 5.01999C17.9901 5.01999 20.5801 7.61999 20.5801 10.76C20.5801 13.95 18.0001 16.54 14.8201 16.54C11.6301 16.54 9.06006 13.96 9.06006 10.76ZM10.2101 10.77C10.2101 13.3 12.2701 15.37 14.8101 15.38C17.3401 15.38 19.4301 13.31 19.4301 10.79C19.4301 8.23999 17.3701 6.16999 14.8501 6.15999C12.2901 6.15999 10.2201 8.20999 10.2101 10.77Z" fill="#231F20"/>
<path d="M15.4101 14.22H14.3001C14.3001 14.22 14.2601 14.16 14.2601 14.15C14.3101 13.76 14.1901 13.51 13.8201 13.3C13.3401 13.02 13.1301 12.53 13.1101 11.95H14.2201C14.2501 12.03 14.2801 12.11 14.3301 12.19C14.4801 12.45 14.7101 12.56 15.0001 12.48C15.2701 12.4 15.4201 12.2 15.4101 11.91C15.4001 11.61 15.2201 11.43 14.9301 11.36C14.7701 11.33 14.5901 11.33 14.4301 11.29C13.7301 11.1 13.2901 10.64 13.1601 9.92998C13.0301 9.23998 13.2501 8.63998 13.8301 8.25998C14.1901 8.01998 14.3501 7.78998 14.2501 7.34998H15.4301C15.2801 7.85998 15.6101 8.08998 15.9701 8.33998C16.3801 8.62998 16.5501 9.07998 16.5801 9.60998H15.4701C15.4401 9.53998 15.4101 9.44998 15.3701 9.36998C15.2301 9.09998 15.0001 8.98998 14.7101 9.06998C14.4301 9.14998 14.2701 9.35998 14.2901 9.66998C14.3201 9.96998 14.5001 10.14 14.8001 10.19C14.9501 10.22 15.1101 10.21 15.2601 10.25C15.9701 10.43 16.4101 10.89 16.5501 11.6C16.6901 12.28 16.4401 12.85 15.9001 13.29C15.7601 13.41 15.5301 13.47 15.4601 13.62C15.3801 13.77 15.4401 13.99 15.4401 14.22H15.4101Z" fill="#231F20"/>
</svg>
