<svg width="40" height="40" viewBox="0 0 40 40" fill="none" xmlns="http://www.w3.org/2000/svg">
<path d="M28.3098 17.25V18.47C29.4298 18.75 30.5498 19.03 31.6798 19.31C32.3298 19.47 32.9798 19.63 33.6198 19.8C34.4698 20.02 34.9298 20.63 34.9298 21.51C34.9298 23.36 34.9298 25.21 34.9298 27.06C34.9298 27.98 34.6498 28.8 34.0898 29.52C33.7198 29.99 33.3498 30.46 32.9698 30.92C32.8198 31.1 32.7698 31.27 32.8198 31.51C33.1798 33.26 33.5298 35.02 33.8798 36.78C33.8998 36.88 33.9098 36.98 33.9198 37.1H23.7498C23.8898 36.37 24.0298 35.66 24.1798 34.91H23.7398C17.4098 34.91 11.0898 34.91 4.75984 34.91C3.48984 34.91 2.83984 34.27 2.83984 33.01C2.83984 24.34 2.83984 15.67 2.83984 7.00001C2.83984 5.74001 3.47984 5.10001 4.75984 5.10001C8.75984 5.10001 12.7598 5.10001 16.7498 5.10001H17.2198C17.2198 4.91001 17.2198 4.73001 17.2198 4.55001C17.2398 3.61001 17.9398 2.89001 18.8898 2.89001C24.4098 2.89001 29.9298 2.89001 35.4498 2.89001C36.4198 2.89001 37.1298 3.61001 37.1298 4.57001C37.1298 8.23001 37.1298 11.88 37.1298 15.54C37.1298 16.53 36.4098 17.23 35.4198 17.24C33.1998 17.24 30.9698 17.24 28.7498 17.24C28.6098 17.24 28.4698 17.24 28.2998 17.24L28.3098 17.25ZM24.4098 33.81C24.5798 32.98 24.7498 32.18 24.8898 31.38C24.9098 31.27 24.8498 31.11 24.7798 31.01C24.4198 30.54 24.0498 30.09 23.6798 29.63C23.0498 28.86 22.7398 27.98 22.7598 26.99C22.7598 26.25 22.7998 25.51 22.7498 24.78C22.7098 24.29 22.5898 23.79 22.4098 23.32C22.1998 22.76 21.8898 22.23 21.5998 21.65H17.2498V20.55H21.6398C21.6498 20.74 21.6598 20.88 21.6698 21.09C21.9698 20.37 22.4298 20 23.1498 20C23.8098 20 24.3898 20.26 24.9398 20.64V17.24H24.5398C22.7198 17.24 20.8998 17.24 19.0798 17.24C17.8798 17.24 17.2198 16.58 17.2198 15.39C17.2198 12.47 17.2198 9.55001 17.2198 6.63001V6.20001C17.0498 6.20001 16.9298 6.20001 16.8098 6.20001C12.7998 6.20001 8.78984 6.20001 4.77984 6.20001C4.09984 6.20001 3.94984 6.35001 3.94984 7.03001C3.94984 15.68 3.94984 24.32 3.94984 32.97C3.94984 33.67 4.08984 33.81 4.80984 33.81C11.1998 33.81 17.5998 33.81 23.9898 33.81H24.3998H24.4098ZM28.3098 16.14H28.6298C30.8498 16.14 33.0798 16.14 35.2998 16.14C35.8598 16.14 36.0398 15.96 36.0398 15.39C36.0398 11.84 36.0398 8.28001 36.0398 4.73001C36.0398 4.17001 35.8598 4.00001 35.2898 4.00001C29.8898 4.00001 24.4798 4.00001 19.0798 4.00001C18.5198 4.00001 18.3398 4.18001 18.3398 4.75001C18.3398 8.30001 18.3398 11.86 18.3398 15.41C18.3398 15.97 18.5198 16.15 19.0898 16.15C20.9498 16.15 22.7998 16.15 24.6598 16.15C24.7598 16.15 24.8598 16.14 24.9598 16.13V15.04H19.4698V5.13001H20.5598V11.18C20.9598 11.18 21.3398 11.2 21.7198 11.18C21.8698 11.17 22.0598 11.1 22.1598 11C22.8198 10.36 23.4798 9.71001 24.1198 9.05001C24.2698 8.90001 24.3798 8.89001 24.5598 8.98001C25.1898 9.31001 25.8298 9.62001 26.4798 9.94001C27.4398 8.75001 28.3798 7.57001 29.3298 6.39001L29.3998 6.41001V13.96H30.4798V15.07H28.3098V16.16V16.14ZM27.1898 25.51V25.08C27.1898 21.64 27.1898 18.2 27.1898 14.76C27.1898 14.65 27.1998 14.53 27.1898 14.42C27.1398 14.12 26.9498 13.94 26.6498 13.94C26.3398 13.94 26.1598 14.12 26.1098 14.42C26.0898 14.53 26.1098 14.65 26.1098 14.76C26.1098 18.21 26.1098 21.66 26.1098 25.11V25.51H24.9998C24.9998 25.38 24.9998 25.27 24.9998 25.16C24.9998 24.42 24.9998 23.69 24.9998 22.95C24.9898 22.12 24.4298 21.4 23.6498 21.19C23.3898 21.12 23.0998 20.99 22.8798 21.25C22.6598 21.51 22.8798 21.74 23.0098 21.94C23.7298 23.12 24.0298 24.39 23.9098 25.76C23.8698 26.19 23.9098 26.63 23.9098 27.07C23.9098 27.73 24.0998 28.32 24.5098 28.83C24.8998 29.33 25.2898 29.82 25.6998 30.31C25.7798 30.41 25.9398 30.49 26.0698 30.49C27.9498 30.5 29.8298 30.5 31.6998 30.49C31.8298 30.49 31.9898 30.42 32.0698 30.32C32.4898 29.83 32.8898 29.32 33.2798 28.82C33.6298 28.37 33.8498 27.86 33.8498 27.29C33.8698 25.35 33.8698 23.4 33.8498 21.46C33.8498 21.28 33.6698 21.03 33.5098 20.93C33.3098 20.8 33.0398 20.79 32.7498 20.72V25.51H31.6498V20.44C31.2798 20.35 30.9298 20.27 30.5298 20.17V25.51H29.4398V19.88C29.0598 19.79 28.7198 19.7 28.3298 19.61V25.51H27.2198H27.1898ZM32.5998 36C32.3098 34.53 32.0098 33.08 31.7198 31.63H25.9798C25.6898 33.1 25.3998 34.54 25.1098 36H32.5998ZM28.2798 9.51001C27.5998 10.21 26.9598 10.9 27.1898 11.97C27.2098 12.07 27.1998 12.18 27.1898 12.28C27.1498 12.67 27.1898 12.98 27.6198 13.19C27.8898 13.32 28.0498 13.66 28.2798 13.92V9.50001V9.51001ZM24.9998 13.91C25.2598 13.51 25.5498 13.18 25.9698 12.97C26.0298 12.94 26.0798 12.81 26.0798 12.72C26.0898 12.2 26.0798 11.69 26.0798 11.17C26.0798 11.09 26.0598 10.96 25.9998 10.93C25.6798 10.75 25.3398 10.59 24.9998 10.42V13.9V13.91ZM23.8598 10.85C23.4898 11.23 23.1798 11.54 22.8798 11.86C22.8298 11.91 22.7698 11.99 22.7698 12.06C22.7698 12.68 22.7698 13.29 22.7698 13.92H23.8598V10.85ZM21.6398 13.93V12.3H20.5798V13.93H21.6398Z" fill="#231F20"/>
<path d="M16.1098 16.17V28.27H5.08984V16.17H16.1098ZM6.18984 20.58V27.16H8.35984V20.58H6.18984ZM11.6698 27.17V20.59H9.49984V27.17H11.6698ZM12.8198 20.58V27.16H14.9898V20.58H12.8198ZM9.48984 19.43H14.9898V17.27H9.48984V19.43ZM8.33984 19.45V17.27H6.17984V19.45H8.33984Z" fill="#231F20"/>
<path d="M5.08008 10.6V9.54001H16.1001V10.6H5.08008Z" fill="#231F20"/>
<path d="M16.1098 31.62V32.68H5.08984V31.62H16.1098Z" fill="#231F20"/>
<path d="M7.2998 7.32999H16.1098V8.38999H7.2998V7.32999Z" fill="#231F20"/>
<path d="M16.1098 30.48H7.2998V29.41H16.1098V30.48Z" fill="#231F20"/>
<path d="M5.08984 11.73H12.7798V12.8H5.08984V11.73Z" fill="#231F20"/>
<path d="M16.1102 13.96V15.02H8.41016V13.96H16.1102Z" fill="#231F20"/>
<path d="M21.63 23.86H17.25V22.8H21.63V23.86Z" fill="#231F20"/>
<path d="M17.2402 26.06V25H21.6302V26.06H17.2402Z" fill="#231F20"/>
<path d="M17.25 30.47V29.41H21.63V30.47H17.25Z" fill="#231F20"/>
<path d="M21.64 31.63V32.69H17.25V31.63H21.64Z" fill="#231F20"/>
<path d="M16.1102 11.74V12.8H13.9302V11.74H16.1102Z" fill="#231F20"/>
<path d="M7.24984 15.03H5.08984V13.96H7.24984V15.03Z" fill="#231F20"/>
<path d="M17.25 19.43V18.37H19.42V19.43H17.25Z" fill="#231F20"/>
<path d="M21.6402 28.27H19.4702V27.2H21.6402V28.27Z" fill="#231F20"/>
<path d="M20.5801 18.36H21.6301V19.43H20.5801V18.36Z" fill="#231F20"/>
<path d="M6.14984 8.39999H5.08984V7.32999H6.14984V8.39999Z" fill="#231F20"/>
<path d="M18.33 27.21V28.27H17.25V27.21H18.33Z" fill="#231F20"/>
<path d="M6.14984 30.49H5.08984V29.42H6.14984V30.49Z" fill="#231F20"/>
<path d="M31.5901 12.3C31.7701 12.76 31.8801 12.83 32.3501 12.83C32.6401 12.83 32.9301 12.83 33.2101 12.83C33.5801 12.83 33.8301 12.59 33.8201 12.27C33.8201 11.96 33.5801 11.74 33.2201 11.73C32.9001 11.73 32.5801 11.73 32.2501 11.73C31.3001 11.73 30.5701 11.09 30.5001 10.21C30.4301 9.30999 31.0401 8.56999 32.0001 8.41999C32.0401 8.41999 32.0901 8.40999 32.1501 8.38999V7.32999H33.2501V8.36999C34.3401 8.58999 34.9001 9.15999 34.9001 10.04H33.8401C33.7401 9.54999 33.3801 9.46999 32.9401 9.49999C32.7001 9.51999 32.4601 9.49999 32.2101 9.49999C31.8401 9.50999 31.5901 9.73999 31.6001 10.06C31.6001 10.37 31.8401 10.59 32.2001 10.6C32.5201 10.6 32.8401 10.6 33.1701 10.6C34.1201 10.6 34.8401 11.23 34.9201 12.11C34.9901 13.01 34.3801 13.75 33.4201 13.9C33.3801 13.9 33.3301 13.91 33.2701 13.93V14.99H32.1701V13.95C31.0701 13.73 30.5201 13.16 30.5201 12.28H31.5801L31.5901 12.3Z" fill="#231F20"/>
</svg>
