<svg width="40" height="40" viewBox="0 0 40 40" fill="none" xmlns="http://www.w3.org/2000/svg">
<path d="M20.7397 36.0715H10.2297C9.50969 36.0715 8.92969 35.5415 8.92969 34.8815V6.71148C8.92969 6.05148 9.50969 5.52148 10.2297 5.52148H26.0297C26.7497 5.52148 27.3297 6.05148 27.3297 6.71148V27.5915" stroke="#231F20" stroke-width="0.5" stroke-miterlimit="10" stroke-linecap="round"/>
<path d="M19.19 36.07H9.83C9.33 36.07 8.92 35.66 8.92 35.16V2.83C8.92 2.33 9.33 1.92 9.83 1.92H26.45C26.95 1.92 27.36 2.33 27.36 2.83V27.16H28.27V2.83C28.27 1.82 27.45 1 26.44 1H9.83C8.82 1 8 1.82 8 2.83V35.16C8 36.17 8.82 36.99 9.83 36.99H19.19V36.08V36.07Z" stroke="#231F20" stroke-width="0.5" stroke-miterlimit="10" stroke-linecap="round"/>
<path d="M12.0498 4.2718C11.7998 4.2718 11.5898 4.0718 11.5898 3.8118C11.5898 3.5518 11.7898 3.3418 12.0498 3.3418C12.3098 3.3418 12.5098 3.5418 12.5098 3.8018C12.5098 4.0618 12.3098 4.2718 12.0498 4.2718Z" stroke="#231F20" stroke-width="0.5" stroke-miterlimit="10"/>
<path d="M13.878 4.2718C13.628 4.2718 13.418 4.0718 13.418 3.8118C13.418 3.5518 13.618 3.3418 13.878 3.3418C14.138 3.3418 14.338 3.5418 14.338 3.8018C14.338 4.0618 14.138 4.2718 13.878 4.2718Z" stroke="#231F20" stroke-width="0.5" stroke-miterlimit="10"/>
<path d="M15.7217 4.2718C15.4717 4.2718 15.2617 4.0718 15.2617 3.8118C15.2617 3.5518 15.4617 3.3418 15.7217 3.3418C15.9817 3.3418 16.1817 3.5418 16.1817 3.8018C16.1817 4.0618 15.9817 4.2718 15.7217 4.2718Z" stroke="#231F20" stroke-width="0.5" stroke-miterlimit="10"/>
<path d="M24.2394 4.2618H21.8194C21.5694 4.2618 21.3594 4.0618 21.3594 3.8018C21.3594 3.5418 21.5594 3.3418 21.8194 3.3418H24.2394C24.4894 3.3418 24.6994 3.5418 24.6994 3.8018C24.6994 4.0618 24.4994 4.2618 24.2394 4.2618Z" stroke="#231F20" stroke-width="0.5" stroke-miterlimit="10"/>
<path d="M20.2397 4.2618H19.6397C19.3897 4.2618 19.1797 4.0618 19.1797 3.8018C19.1797 3.5418 19.3797 3.3418 19.6397 3.3418H20.2397C20.4897 3.3418 20.6997 3.5418 20.6997 3.8018C20.6997 4.0618 20.4997 4.2618 20.2397 4.2618Z" stroke="#231F20" stroke-width="0.5" stroke-miterlimit="10"/>
<path d="M25.9283 38.5616C28.7946 38.5616 31.1183 36.238 31.1183 33.3716C31.1183 30.5053 28.7946 28.1816 25.9283 28.1816C23.0619 28.1816 20.7383 30.5053 20.7383 33.3716C20.7383 36.238 23.0619 38.5616 25.9283 38.5616Z" stroke="#231F20" stroke-width="0.5" stroke-miterlimit="10"/>
<path d="M25.9281 37.2215C28.0544 37.2215 29.7781 35.4978 29.7781 33.3715C29.7781 31.2452 28.0544 29.5215 25.9281 29.5215C23.8018 29.5215 22.0781 31.2452 22.0781 33.3715C22.0781 35.4978 23.8018 37.2215 25.9281 37.2215Z" stroke="#231F20" stroke-width="0.5" stroke-miterlimit="10"/>
<path d="M25.1802 35.102C25.0502 35.102 24.9202 35.052 24.8302 34.952L23.8102 33.932C23.6102 33.732 23.6102 33.422 23.8102 33.222C24.0102 33.022 24.3202 33.022 24.5202 33.222L25.1902 33.892L27.3502 31.732C27.5502 31.532 27.8602 31.532 28.0602 31.732C28.2602 31.932 28.2602 32.242 28.0602 32.442L25.5502 34.952C25.4602 35.042 25.3302 35.102 25.2002 35.102H25.1802Z" stroke="#231F20" stroke-width="0.5" stroke-miterlimit="10"/>
<path d="M12.5869 11.7305H24.3669C24.5269 11.7305 24.6569 11.8005 24.6569 11.8905V13.0605C24.6569 13.1505 24.5269 13.2205 24.3669 13.2205H12.5869C12.4269 13.2205 12.2969 13.1505 12.2969 13.0605V11.8905C12.2969 11.8005 12.4269 11.7305 12.5869 11.7305Z" stroke="#231F20" stroke-width="0.4" stroke-miterlimit="10"/>
<path d="M12.5869 13.8418H24.3669C24.5269 13.8418 24.6569 13.9118 24.6569 14.0018V15.1718C24.6569 15.2618 24.5269 15.3318 24.3669 15.3318H12.5869C12.4269 15.3318 12.2969 15.2618 12.2969 15.1718V14.0018C12.2969 13.9118 12.4269 13.8418 12.5869 13.8418Z" stroke="#231F20" stroke-width="0.4" stroke-miterlimit="10"/>
<path d="M12.4469 15.9414H18.7069C18.7869 15.9414 18.8569 16.0114 18.8569 16.1014V17.2714C18.8569 17.3614 18.7869 17.4314 18.7069 17.4314H12.4469C12.3669 17.4314 12.2969 17.3614 12.2969 17.2714V16.1014C12.2969 16.0114 12.3669 15.9414 12.4469 15.9414V15.9414Z" stroke="#231F20" stroke-width="0.4" stroke-miterlimit="10"/>
<path d="M10.207 20.2109H25.927" stroke="#231F20" stroke-width="0.5" stroke-miterlimit="10" stroke-linecap="round"/>
<path d="M13.9989 27.0117C14.1489 27.0117 14.2989 27.0117 14.4389 27.0117C14.4589 27.0117 14.4789 27.0117 14.4889 27.0217C15.0889 27.0717 15.6389 27.2517 16.1389 27.5817C16.9889 28.1517 17.5189 28.9317 17.6989 29.9417C17.7189 30.0717 17.7389 30.2017 17.7489 30.3317V30.7717C17.7389 30.8717 17.7289 30.9817 17.7089 31.0817C17.5889 31.8517 17.2589 32.5217 16.6989 33.0617C15.8589 33.8817 14.8389 34.2117 13.6789 34.0517C12.8289 33.9317 12.1089 33.5417 11.5489 32.8917C10.7789 31.9917 10.5089 30.9517 10.7489 29.7917C11.0289 28.4117 12.2089 27.2917 13.5889 27.0717C13.7189 27.0517 13.8489 27.0317 13.9889 27.0217L13.9989 27.0117ZM15.4089 29.4317C15.4089 29.2317 15.4089 29.0417 15.4089 28.8617C15.4089 28.7217 15.3289 28.6417 15.1889 28.6317C15.0689 28.6317 14.9889 28.5517 14.9789 28.4317C14.9589 28.2717 14.8889 28.2117 14.7289 28.2117C14.3889 28.2117 14.0589 28.2117 13.7189 28.2117C13.3289 28.2117 13.0789 28.4417 13.0389 28.8317C13.0389 28.9017 12.9989 28.9417 12.9389 28.9417C12.8789 28.9417 12.8389 28.9017 12.8289 28.8317C12.8289 28.8317 12.8289 28.8117 12.8289 28.8017C12.8489 28.3717 13.1989 28.0117 13.6289 28.0017C14.0089 28.0017 14.3889 28.0017 14.7589 28.0017C14.9589 28.0017 15.1189 28.1417 15.1589 28.3317C15.1589 28.3617 15.1589 28.3917 15.1689 28.4217C15.4789 28.4417 15.6089 28.6717 15.6089 28.9217C15.5989 29.2417 15.6089 29.5617 15.6089 29.8817C15.6089 30.0217 15.5489 30.1117 15.4289 30.1617C15.4089 30.1617 15.3889 30.2017 15.3789 30.2217C15.3289 30.5217 15.1889 30.7717 14.9489 30.9617C14.9089 30.9917 14.8889 31.0217 14.8889 31.0817C14.8889 31.1517 14.8689 31.2417 14.8989 31.2917C14.9289 31.3417 15.0189 31.3617 15.0789 31.3917C15.2789 31.4817 15.4789 31.5917 15.6889 31.6717C15.8589 31.7417 16.0489 31.7817 16.2289 31.8517C16.5289 31.9617 16.7189 32.1617 16.7889 32.4717C16.7989 32.5217 16.8089 32.5817 16.8189 32.6317C17.8589 31.3717 17.8589 29.2617 16.3389 27.9917C14.8889 26.7817 12.6989 27.0117 11.5389 28.5617C10.9689 29.3217 10.7789 30.1717 10.9189 31.1117C11.0089 31.6717 11.2389 32.1817 11.5989 32.6317C11.6489 32.2017 11.8689 31.9217 12.2789 31.8117C12.6389 31.7117 12.9989 31.5817 13.3289 31.3917C13.3889 31.3517 13.4889 31.3417 13.5189 31.2817C13.5489 31.2317 13.5189 31.1417 13.5289 31.0617C13.5289 31.0117 13.5189 30.9917 13.4789 30.9617C13.2389 30.7717 13.0989 30.5317 13.0489 30.2317C13.0489 30.1817 13.0289 30.1617 12.9789 30.1417C12.8789 30.1017 12.8189 30.0317 12.8089 29.9217C12.8089 29.7117 12.8089 29.5117 12.8089 29.3017C12.8089 29.2417 12.8589 29.2017 12.9089 29.2017C12.9689 29.2017 13.0089 29.2417 13.0089 29.3017C13.0089 29.3417 13.0089 29.3817 13.0089 29.4117C13.1589 29.4317 13.2589 29.4117 13.2389 29.2217C13.2389 29.2017 13.2389 29.1917 13.2389 29.1717C13.2389 28.9517 13.4489 28.7917 13.6689 28.8517C14.0189 28.9617 14.3689 28.9617 14.7189 28.8517C14.9289 28.7817 15.1389 28.9417 15.1489 29.1717C15.1489 29.2117 15.1489 29.2417 15.1489 29.2817C15.1489 29.3717 15.1889 29.4117 15.2789 29.4117C15.3089 29.4117 15.3389 29.4117 15.3789 29.4117L15.4089 29.4317ZM15.4089 29.6417C15.4089 29.6417 15.3189 29.6417 15.2789 29.6417C15.1389 29.6417 15.0189 29.5417 14.9789 29.4017C14.9689 29.3517 14.9689 29.2917 14.9689 29.2417C14.9689 29.0917 14.8989 29.0417 14.7589 29.0817C14.5489 29.1417 14.3289 29.1817 14.1089 29.1517C13.9589 29.1317 13.8089 29.1017 13.6589 29.0717C13.5389 29.0417 13.4689 29.0917 13.4689 29.2117C13.4689 29.2417 13.4689 29.2817 13.4689 29.3117C13.4689 29.4817 13.3289 29.6217 13.1589 29.6317C13.1189 29.6317 13.0789 29.6317 13.0289 29.6317C13.0289 29.7117 13.0289 29.7917 13.0289 29.8717C13.0289 29.9217 13.0489 29.9517 13.1089 29.9617C13.2089 29.9817 13.2489 30.0217 13.2589 30.1217C13.2589 30.1417 13.2589 30.1717 13.2589 30.1917C13.3289 30.7117 13.8589 31.1017 14.3689 31.0017C14.8089 30.9217 15.1089 30.6017 15.1689 30.1317C15.1889 30.0117 15.2189 29.9817 15.3289 29.9517C15.3589 29.9517 15.3889 29.9117 15.3889 29.8917C15.3889 29.8117 15.3889 29.7317 15.3889 29.6417H15.4089ZM14.9989 31.5717C15.1089 32.3017 14.8389 32.9417 14.5889 33.5917C14.6789 33.5017 14.7689 33.4117 14.8489 33.3217C14.9289 33.2317 14.9989 33.1317 15.0889 33.0517C15.1189 33.0217 15.1689 33.0117 15.1989 33.0117C15.2289 33.0117 15.2589 33.0617 15.2689 33.0917C15.2689 33.1217 15.2589 33.1617 15.2289 33.1917C15.0489 33.3917 14.8589 33.6017 14.6789 33.8017C14.6589 33.8217 14.6489 33.8317 14.6189 33.8617C14.6489 33.8617 14.6589 33.8617 14.6789 33.8617C15.3589 33.7617 15.9489 33.4917 16.4589 33.0317C16.6189 32.8817 16.6189 32.8817 16.6189 32.6617C16.6189 32.3717 16.4389 32.1317 16.1589 32.0317C16.0389 31.9917 15.9289 31.9617 15.8089 31.9217C15.7389 31.9017 15.6589 31.8517 15.6089 31.8717C15.5589 31.8917 15.5289 31.9917 15.4989 32.0517C15.4389 32.1617 15.4389 32.1617 15.5289 32.2517C15.5889 32.3117 15.6289 32.3717 15.6289 32.4617C15.6289 32.5817 15.5789 32.6717 15.5189 32.7717C15.4889 32.8117 15.4389 32.8217 15.3989 32.7917C15.3489 32.7617 15.3289 32.7217 15.3489 32.6717C15.3489 32.6417 15.3789 32.6117 15.3889 32.5817C15.4489 32.4617 15.4489 32.4617 15.3489 32.3617C15.2389 32.2517 15.2189 32.1417 15.2889 32.0017C15.3289 31.9317 15.3589 31.8517 15.3989 31.7817C15.2589 31.7117 15.1289 31.6517 14.9889 31.5817L14.9989 31.5717ZM12.8389 31.8517C12.6389 31.9217 12.4389 31.9717 12.2389 32.0417C12.0289 32.1217 11.8889 32.2817 11.8389 32.5017C11.8189 32.6017 11.8189 32.7017 11.8189 32.8017C11.8189 32.8317 11.8389 32.8817 11.8589 32.9017C12.2889 33.3317 12.7989 33.6217 13.3889 33.7717C13.5189 33.8017 13.6589 33.8217 13.7989 33.8517C13.7889 33.8217 13.7689 33.8017 13.7489 33.7817C13.5589 33.5717 13.3589 33.3717 13.1789 33.1517C13.0289 32.9717 12.8989 32.7817 12.8189 32.5617C12.7789 32.4517 12.7989 32.3417 12.8789 32.2517C12.8989 32.2317 12.9289 32.2117 12.9489 32.1817C12.9589 32.1617 12.9689 32.1217 12.9589 32.0917C12.9189 32.0017 12.8789 31.9217 12.8289 31.8317L12.8389 31.8517ZM13.8589 33.5817C13.8589 33.5817 13.8389 33.5417 13.8289 33.5217C13.7389 33.2717 13.6389 33.0217 13.5589 32.7717C13.4489 32.4217 13.3789 32.0617 13.4289 31.6817C13.4289 31.6517 13.4289 31.6117 13.4489 31.5717C13.3089 31.6417 13.1689 31.7117 13.0389 31.7717C13.0789 31.8517 13.1189 31.9217 13.1589 32.0017C13.2289 32.1417 13.2089 32.2417 13.1089 32.3517C13.0422 32.4184 13.0289 32.4984 13.0689 32.5917C13.0689 32.5917 13.0989 32.6617 13.1189 32.6917C13.3189 33.0217 13.5889 33.3117 13.8689 33.5817H13.8589ZM13.7389 31.1217C13.7389 31.2017 13.7389 31.2917 13.7689 31.3317C13.9089 31.5117 14.0689 31.6817 14.2289 31.8617C14.2489 31.8417 14.2589 31.8217 14.2789 31.8117C14.3889 31.6817 14.4889 31.5517 14.6089 31.4317C14.6889 31.3417 14.7089 31.2517 14.6889 31.1417C14.3789 31.2617 14.0689 31.2717 13.7489 31.1417L13.7389 31.1217ZM14.1989 33.8417H14.2189C14.2989 33.6717 14.3689 33.4917 14.4489 33.3217C14.4489 33.3217 14.4489 33.3017 14.4489 33.2917C14.3989 33.0717 14.3389 32.8617 14.2789 32.6417H14.1189C14.0589 32.8617 14.0089 33.0717 13.9489 33.2917C13.9489 33.3017 13.9489 33.3217 13.9489 33.3317C14.0289 33.5017 14.0989 33.6717 14.1789 33.8517L14.1989 33.8417ZM13.6689 31.5417C13.6189 31.6817 13.6189 31.8117 13.6189 31.9417C13.6189 32.0417 13.6489 32.1317 13.7189 32.2017C13.7589 32.2417 13.7789 32.2517 13.8189 32.2117C13.8989 32.1417 13.9889 32.0717 14.0789 31.9917C13.9389 31.8417 13.8089 31.6917 13.6689 31.5317V31.5417ZM14.3689 32.0017C14.4589 32.0717 14.5389 32.1517 14.6189 32.2117C14.6389 32.2217 14.6789 32.2217 14.6889 32.2117C14.7489 32.1517 14.8089 32.0917 14.7989 31.9917C14.7989 31.9317 14.7989 31.8717 14.7989 31.8117C14.7989 31.7317 14.7789 31.6417 14.7589 31.5617C14.7589 31.5617 14.7489 31.5617 14.7389 31.5617C14.6189 31.7117 14.4889 31.8517 14.3589 32.0117L14.3689 32.0017ZM14.7489 32.4317C14.7489 32.4317 14.6789 32.4417 14.6589 32.4317C14.5889 32.4117 14.5489 32.4517 14.5189 32.5017C14.5089 32.5317 14.4989 32.5717 14.4989 32.6017C14.5189 32.7117 14.5489 32.8217 14.5789 32.9317C14.5789 32.9317 14.5889 32.9317 14.5989 32.9317C14.6489 32.7617 14.6989 32.6017 14.7489 32.4217V32.4317ZM13.6789 32.4417C13.7289 32.6117 13.7789 32.7817 13.8289 32.9417C13.8789 32.8217 13.9089 32.6917 13.9389 32.5717C13.9389 32.5317 13.8589 32.4417 13.8289 32.4417C13.7889 32.4417 13.7389 32.4417 13.6889 32.4417H13.6789ZM14.4089 32.3117C14.3389 32.2517 14.2789 32.2017 14.2189 32.1517C14.1489 32.2117 14.0789 32.2617 14.0189 32.3117C14.0589 32.4517 14.1689 32.4217 14.2689 32.4217C14.3489 32.4217 14.3489 32.3417 14.4089 32.3017V32.3117Z" fill="#231F20"/>
</svg>
