<svg width="349" height="644" viewBox="0 0 349 644" fill="none" xmlns="http://www.w3.org/2000/svg">
<path d="M122.287 617.197C122.287 614.961 122.742 613.011 123.652 611.347C124.562 609.657 125.823 608.357 127.435 607.447C129.047 606.511 130.893 606.043 132.973 606.043C135.651 606.043 137.861 606.719 139.603 608.071C141.371 609.397 142.554 611.269 143.152 613.687H137.263C136.951 612.751 136.418 612.023 135.664 611.503C134.936 610.957 134.026 610.684 132.934 610.684C131.374 610.684 130.139 611.256 129.229 612.4C128.319 613.518 127.864 615.117 127.864 617.197C127.864 619.251 128.319 620.85 129.229 621.994C130.139 623.112 131.374 623.671 132.934 623.671C135.144 623.671 136.587 622.683 137.263 620.707H143.152C142.554 623.047 141.371 624.906 139.603 626.284C137.835 627.662 135.625 628.351 132.973 628.351C130.893 628.351 129.047 627.896 127.435 626.986C125.823 626.05 124.562 624.75 123.652 623.086C122.742 621.396 122.287 619.433 122.287 617.197ZM152.612 609.748C153.314 608.604 154.224 607.707 155.342 607.057C156.486 606.407 157.786 606.082 159.242 606.082V611.815H157.799C156.083 611.815 154.783 612.218 153.899 613.024C153.041 613.83 152.612 615.234 152.612 617.236V628H147.152V606.394H152.612V609.748ZM183.005 616.729C183.005 617.509 182.953 618.211 182.849 618.835H167.054C167.184 620.395 167.73 621.617 168.692 622.501C169.654 623.385 170.837 623.827 172.241 623.827C174.269 623.827 175.712 622.956 176.57 621.214H182.459C181.835 623.294 180.639 625.01 178.871 626.362C177.103 627.688 174.932 628.351 172.358 628.351C170.278 628.351 168.406 627.896 166.742 626.986C165.104 626.05 163.817 624.737 162.881 623.047C161.971 621.357 161.516 619.407 161.516 617.197C161.516 614.961 161.971 612.998 162.881 611.308C163.791 609.618 165.065 608.318 166.703 607.408C168.341 606.498 170.226 606.043 172.358 606.043C174.412 606.043 176.245 606.485 177.857 607.369C179.495 608.253 180.756 609.514 181.64 611.152C182.55 612.764 183.005 614.623 183.005 616.729ZM177.35 615.169C177.324 613.765 176.817 612.647 175.829 611.815C174.841 610.957 173.632 610.528 172.202 610.528C170.85 610.528 169.706 610.944 168.77 611.776C167.86 612.582 167.301 613.713 167.093 615.169H177.35ZM185.586 617.119C185.586 614.935 186.015 612.998 186.873 611.308C187.757 609.618 188.953 608.318 190.461 607.408C191.969 606.498 193.646 606.043 195.492 606.043C196.896 606.043 198.235 606.355 199.509 606.979C200.783 607.577 201.797 608.383 202.551 609.397V599.14H208.089V628H202.551V624.802C201.875 625.868 200.926 626.726 199.704 627.376C198.482 628.026 197.065 628.351 195.453 628.351C193.633 628.351 191.969 627.883 190.461 626.947C188.953 626.011 187.757 624.698 186.873 623.008C186.015 621.292 185.586 619.329 185.586 617.119ZM202.59 617.197C202.59 615.871 202.33 614.74 201.81 613.804C201.29 612.842 200.588 612.114 199.704 611.62C198.82 611.1 197.871 610.84 196.857 610.84C195.843 610.84 194.907 611.087 194.049 611.581C193.191 612.075 192.489 612.803 191.943 613.765C191.423 614.701 191.163 615.819 191.163 617.119C191.163 618.419 191.423 619.563 191.943 620.551C192.489 621.513 193.191 622.254 194.049 622.774C194.933 623.294 195.869 623.554 196.857 623.554C197.871 623.554 198.82 623.307 199.704 622.813C200.588 622.293 201.29 621.565 201.81 620.629C202.33 619.667 202.59 618.523 202.59 617.197ZM216.19 603.82C215.228 603.82 214.422 603.521 213.772 602.923C213.148 602.299 212.836 601.532 212.836 600.622C212.836 599.712 213.148 598.958 213.772 598.36C214.422 597.736 215.228 597.424 216.19 597.424C217.152 597.424 217.945 597.736 218.569 598.36C219.219 598.958 219.544 599.712 219.544 600.622C219.544 601.532 219.219 602.299 218.569 602.923C217.945 603.521 217.152 603.82 216.19 603.82ZM218.881 606.394V628H213.421V606.394H218.881ZM230.633 610.879V621.331C230.633 622.059 230.802 622.592 231.14 622.93C231.504 623.242 232.102 623.398 232.934 623.398H235.469V628H232.037C227.435 628 225.134 625.764 225.134 621.292V610.879H222.56V606.394H225.134V601.051H230.633V606.394H235.469V610.879H230.633ZM237.992 617.119C237.992 614.935 238.421 612.998 239.279 611.308C240.163 609.618 241.346 608.318 242.828 607.408C244.336 606.498 246.013 606.043 247.859 606.043C249.471 606.043 250.875 606.368 252.071 607.018C253.293 607.668 254.268 608.487 254.996 609.475V606.394H260.495V628H254.996V624.841C254.294 625.855 253.319 626.7 252.071 627.376C250.849 628.026 249.432 628.351 247.82 628.351C246 628.351 244.336 627.883 242.828 626.947C241.346 626.011 240.163 624.698 239.279 623.008C238.421 621.292 237.992 619.329 237.992 617.119ZM254.996 617.197C254.996 615.871 254.736 614.74 254.216 613.804C253.696 612.842 252.994 612.114 252.11 611.62C251.226 611.1 250.277 610.84 249.263 610.84C248.249 610.84 247.313 611.087 246.455 611.581C245.597 612.075 244.895 612.803 244.349 613.765C243.829 614.701 243.569 615.819 243.569 617.119C243.569 618.419 243.829 619.563 244.349 620.551C244.895 621.513 245.597 622.254 246.455 622.774C247.339 623.294 248.275 623.554 249.263 623.554C250.277 623.554 251.226 623.307 252.11 622.813C252.994 622.293 253.696 621.565 254.216 620.629C254.736 619.667 254.996 618.523 254.996 617.197ZM254.567 600.037C254.567 601.389 254.125 602.481 253.241 603.313C252.383 604.119 251.304 604.522 250.004 604.522C248.73 604.522 247.651 604.119 246.767 603.313C245.883 602.481 245.441 601.389 245.441 600.037C245.441 598.685 245.883 597.606 246.767 596.8C247.651 595.968 248.73 595.552 250.004 595.552C251.304 595.552 252.383 595.968 253.241 596.8C254.125 597.606 254.567 598.685 254.567 600.037ZM251.876 600.037C251.876 599.439 251.694 598.971 251.33 598.633C250.966 598.269 250.524 598.087 250.004 598.087C249.484 598.087 249.042 598.269 248.678 598.633C248.314 598.971 248.132 599.439 248.132 600.037C248.132 600.583 248.314 601.051 248.678 601.441C249.042 601.805 249.484 601.987 250.004 601.987C250.524 601.987 250.966 601.805 251.33 601.441C251.694 601.051 251.876 600.583 251.876 600.037ZM271.288 609.514C271.99 608.526 272.952 607.707 274.174 607.057C275.422 606.381 276.839 606.043 278.425 606.043C280.271 606.043 281.935 606.498 283.417 607.408C284.925 608.318 286.108 609.618 286.966 611.308C287.85 612.972 288.292 614.909 288.292 617.119C288.292 619.329 287.85 621.292 286.966 623.008C286.108 624.698 284.925 626.011 283.417 626.947C281.935 627.883 280.271 628.351 278.425 628.351C276.839 628.351 275.435 628.026 274.213 627.376C273.017 626.726 272.042 625.907 271.288 624.919V638.296H265.828V606.394H271.288V609.514ZM282.715 617.119C282.715 615.819 282.442 614.701 281.896 613.765C281.376 612.803 280.674 612.075 279.79 611.581C278.932 611.087 277.996 610.84 276.982 610.84C275.994 610.84 275.058 611.1 274.174 611.62C273.316 612.114 272.614 612.842 272.068 613.804C271.548 614.766 271.288 615.897 271.288 617.197C271.288 618.497 271.548 619.628 272.068 620.59C272.614 621.552 273.316 622.293 274.174 622.813C275.058 623.307 275.994 623.554 276.982 623.554C277.996 623.554 278.932 623.294 279.79 622.774C280.674 622.254 281.376 621.513 281.896 620.551C282.442 619.589 282.715 618.445 282.715 617.119Z" fill="#C5C7D5"/>
<path d="M86.884 582.865V582.44H91.508C92.5507 582.44 93.3553 582.718 93.922 583.273C94.5 583.817 94.789 584.548 94.789 585.466V586.027C94.789 586.945 94.5 587.682 93.922 588.237C93.3553 588.792 92.5507 589.07 91.508 589.07H89.298V592.657C89.298 593.054 89.315 593.292 89.349 593.371C89.383 593.439 89.4907 593.479 89.672 593.49L90.947 593.575V594H86.884V593.575L87.819 593.49C88.0003 593.467 88.108 593.422 88.142 593.354C88.176 593.286 88.193 593.054 88.193 592.657V583.783C88.193 583.386 88.176 583.154 88.142 583.086C88.108 583.007 88.0003 582.961 87.819 582.95L86.884 582.865ZM91.508 582.95H89.298V588.56H91.508C92.2107 588.56 92.7377 588.373 93.089 587.999C93.4517 587.625 93.633 587.024 93.633 586.197V585.296C93.633 584.48 93.4517 583.885 93.089 583.511C92.7377 583.137 92.2107 582.95 91.508 582.95ZM103.392 589.682V590.022C103.392 591.28 103.081 592.289 102.457 593.048C101.845 593.796 100.978 594.17 99.8565 594.17C98.7231 594.17 97.8505 593.796 97.2385 593.048C96.6265 592.289 96.3205 591.28 96.3205 590.022V589.682C96.3205 588.435 96.6265 587.438 97.2385 586.69C97.8505 585.931 98.7231 585.551 99.8565 585.551C100.99 585.551 101.862 585.931 102.474 586.69C103.086 587.438 103.392 588.435 103.392 589.682ZM102.236 589.342C102.236 588.163 102.032 587.325 101.624 586.826C101.216 586.316 100.627 586.061 99.8565 586.061C99.0971 586.061 98.5078 586.316 98.0885 586.826C97.6805 587.325 97.4765 588.163 97.4765 589.342V590.362C97.4765 591.529 97.6805 592.374 98.0885 592.895C98.5078 593.405 99.0971 593.66 99.8565 593.66C100.627 593.66 101.216 593.405 101.624 592.895C102.032 592.374 102.236 591.529 102.236 590.362V589.342ZM116.021 586.894L114.083 594H113.267L110.921 586.826L108.592 594H107.776L105.855 586.894C105.775 586.588 105.707 586.407 105.651 586.35C105.605 586.282 105.492 586.242 105.311 586.231L104.478 586.146V585.721H107.895V586.146L107.062 586.231C106.88 586.242 106.778 586.282 106.756 586.35C106.744 586.407 106.778 586.588 106.858 586.894L108.422 592.81L110.717 585.721H111.55L113.862 592.827L115.426 586.894C115.516 586.588 115.55 586.407 115.528 586.35C115.505 586.282 115.403 586.242 115.222 586.231L114.389 586.146V585.721H117.381V586.146L116.548 586.231C116.378 586.242 116.27 586.282 116.225 586.35C116.179 586.407 116.111 586.588 116.021 586.894ZM124.995 592.113C124.791 592.872 124.406 593.405 123.839 593.711C123.284 594.017 122.677 594.17 122.02 594.17C120.841 594.17 119.957 593.796 119.368 593.048C118.79 592.289 118.501 591.28 118.501 590.022V589.682C118.501 588.435 118.784 587.438 119.351 586.69C119.929 585.931 120.768 585.551 121.867 585.551C122.445 585.551 122.978 585.67 123.465 585.908C123.952 586.146 124.343 586.503 124.638 586.979C124.933 587.455 125.08 588.061 125.08 588.798C125.08 589.115 125.046 589.461 124.978 589.835H119.657V590.362C119.657 591.529 119.844 592.374 120.218 592.895C120.603 593.405 121.232 593.66 122.105 593.66C122.66 593.66 123.114 593.53 123.465 593.269C123.816 593.008 124.066 592.549 124.213 591.892L124.995 592.113ZM121.867 586.061C121.119 586.061 120.564 586.316 120.201 586.826C119.838 587.325 119.657 588.158 119.657 589.325H123.975C123.986 589.189 123.992 589.07 123.992 588.968C124.003 588.855 124.009 588.753 124.009 588.662C124.009 587.733 123.811 587.07 123.414 586.673C123.017 586.265 122.502 586.061 121.867 586.061ZM126.923 586.146V585.721H129.184V587.047C129.615 586.514 130.029 586.135 130.425 585.908C130.822 585.67 131.213 585.551 131.598 585.551C132.38 585.551 132.981 585.953 133.4 586.758L132.567 587.336C132.386 586.962 132.188 586.696 131.972 586.537C131.768 586.378 131.519 586.299 131.224 586.299C130.907 586.299 130.601 586.401 130.306 586.605C130.012 586.798 129.66 587.177 129.252 587.744V592.657C129.252 593.054 129.269 593.292 129.303 593.371C129.337 593.439 129.445 593.479 129.626 593.49L130.901 593.575V594H126.923V593.575L127.858 593.49C128.04 593.467 128.147 593.422 128.181 593.354C128.215 593.286 128.232 593.054 128.232 592.657V587.064C128.232 586.667 128.215 586.435 128.181 586.367C128.147 586.288 128.04 586.242 127.858 586.231L126.923 586.146ZM141.115 592.113C140.911 592.872 140.526 593.405 139.959 593.711C139.404 594.017 138.797 594.17 138.14 594.17C136.961 594.17 136.077 593.796 135.488 593.048C134.91 592.289 134.621 591.28 134.621 590.022V589.682C134.621 588.435 134.904 587.438 135.471 586.69C136.049 585.931 136.888 585.551 137.987 585.551C138.565 585.551 139.098 585.67 139.585 585.908C140.072 586.146 140.463 586.503 140.758 586.979C141.053 587.455 141.2 588.061 141.2 588.798C141.2 589.115 141.166 589.461 141.098 589.835H135.777V590.362C135.777 591.529 135.964 592.374 136.338 592.895C136.723 593.405 137.352 593.66 138.225 593.66C138.78 593.66 139.234 593.53 139.585 593.269C139.936 593.008 140.186 592.549 140.333 591.892L141.115 592.113ZM137.987 586.061C137.239 586.061 136.684 586.316 136.321 586.826C135.958 587.325 135.777 588.158 135.777 589.325H140.095C140.106 589.189 140.112 589.07 140.112 588.968C140.123 588.855 140.129 588.753 140.129 588.662C140.129 587.733 139.931 587.07 139.534 586.673C139.137 586.265 138.622 586.061 137.987 586.061ZM151.51 593.592V594H149.249V592.708C148.897 593.229 148.495 593.603 148.042 593.83C147.588 594.057 147.107 594.17 146.597 594.17C145.599 594.17 144.84 593.807 144.319 593.082C143.797 592.357 143.537 591.342 143.537 590.039V589.699C143.537 588.43 143.837 587.421 144.438 586.673C145.05 585.925 145.9 585.551 146.988 585.551C147.872 585.551 148.603 585.863 149.181 586.486V582.763C149.181 582.366 149.164 582.134 149.13 582.066C149.096 581.987 148.988 581.941 148.807 581.93L147.872 581.845V581.42H150.201V592.657C150.201 593.054 150.218 593.286 150.252 593.354C150.286 593.422 150.393 593.467 150.575 593.49L151.51 593.592ZM144.693 590.549C144.693 591.626 144.863 592.413 145.203 592.912C145.554 593.411 146.041 593.66 146.665 593.66C147.061 593.66 147.475 593.547 147.906 593.32C148.348 593.093 148.773 592.64 149.181 591.96V587.353C148.648 586.492 147.917 586.061 146.988 586.061C146.194 586.061 145.611 586.339 145.237 586.894C144.874 587.449 144.693 588.214 144.693 589.189V590.549ZM156.569 581.845V581.42H158.898V586.911C159.26 586.412 159.657 586.061 160.088 585.857C160.53 585.653 160.994 585.551 161.482 585.551C162.479 585.551 163.238 585.914 163.76 586.639C164.281 587.353 164.542 588.367 164.542 589.682V590.022C164.542 591.291 164.236 592.3 163.624 593.048C163.023 593.796 162.179 594.17 161.091 594.17C160.66 594.17 160.258 594.091 159.884 593.932C159.51 593.773 159.175 593.535 158.881 593.218C158.745 593.331 158.626 593.462 158.524 593.609C158.433 593.756 158.342 593.915 158.252 594.085H157.878V582.763C157.878 582.366 157.861 582.134 157.827 582.066C157.793 581.987 157.685 581.941 157.504 581.93L156.569 581.845ZM161.414 586.061C161.017 586.061 160.598 586.174 160.156 586.401C159.725 586.628 159.306 587.081 158.898 587.761V592.368C159.43 593.229 160.161 593.66 161.091 593.66C161.895 593.66 162.479 593.382 162.842 592.827C163.204 592.272 163.386 591.507 163.386 590.532V589.172C163.386 588.095 163.216 587.308 162.876 586.809C162.536 586.31 162.048 586.061 161.414 586.061ZM170.109 594.85C169.747 595.881 169.333 596.629 168.868 597.094C168.404 597.559 167.752 597.791 166.913 597.791V596.771C167.367 596.771 167.752 596.714 168.069 596.601C168.398 596.499 168.681 596.301 168.919 596.006C169.157 595.711 169.373 595.286 169.565 594.731L169.82 594H169.582L167.032 586.894C166.93 586.599 166.851 586.424 166.794 586.367C166.738 586.31 166.619 586.271 166.437 586.248L165.604 586.146V585.721H169.021V586.146L168.188 586.248C168.007 586.271 167.911 586.31 167.899 586.367C167.888 586.424 167.933 586.599 168.035 586.894L170.194 592.946L172.336 586.894C172.438 586.599 172.478 586.424 172.455 586.367C172.444 586.31 172.348 586.271 172.166 586.248L171.333 586.146V585.721H174.342V586.146L173.509 586.248C173.339 586.259 173.226 586.299 173.169 586.367C173.124 586.424 173.045 586.599 172.931 586.894L170.109 594.85Z" fill="#322F3B"/>
<g filter="url(#filter0_d_3829_16374)">
<path d="M345 528C345 539.046 336.046 548 325 548H24C12.9543 548 4 539.046 4 528L4 20C4 8.95428 12.9543 0 24 0H325C336.046 0 345 8.95428 345 20L345 528Z" fill="url(#paint0_linear_3829_16374)"/>
</g>
<path d="M48.32 378.84C48.96 377.8 49.88 376.96 51.08 376.32C52.28 375.68 53.6533 375.36 55.2 375.36C57.04 375.36 58.7067 375.827 60.2 376.76C61.6933 377.693 62.8667 379.027 63.72 380.76C64.6 382.493 65.04 384.507 65.04 386.8C65.04 389.093 64.6 391.12 63.72 392.88C62.8667 394.613 61.6933 395.96 60.2 396.92C58.7067 397.853 57.04 398.32 55.2 398.32C53.6267 398.32 52.2533 398.013 51.08 397.4C49.9067 396.76 48.9867 395.92 48.32 394.88V398H41.48V368.4H48.32V378.84ZM58.08 386.8C58.08 385.093 57.6 383.76 56.64 382.8C55.7067 381.813 54.5467 381.32 53.16 381.32C51.8 381.32 50.64 381.813 49.68 382.8C48.7467 383.787 48.28 385.133 48.28 386.84C48.28 388.547 48.7467 389.893 49.68 390.88C50.64 391.867 51.8 392.36 53.16 392.36C54.52 392.36 55.68 391.867 56.64 390.88C57.6 389.867 58.08 388.507 58.08 386.8ZM75.4684 368.4V398H68.6284V368.4H75.4684ZM102.465 375.68V398H95.6253V394.96C94.932 395.947 93.9853 396.747 92.7853 397.36C91.612 397.947 90.3053 398.24 88.8653 398.24C87.1586 398.24 85.652 397.867 84.3453 397.12C83.0386 396.347 82.0253 395.24 81.3053 393.8C80.5853 392.36 80.2253 390.667 80.2253 388.72V375.68H87.0253V387.8C87.0253 389.293 87.412 390.453 88.1853 391.28C88.9586 392.107 89.9986 392.52 91.3053 392.52C92.6386 392.52 93.692 392.107 94.4653 391.28C95.2386 390.453 95.6253 389.293 95.6253 387.8V375.68H102.465ZM129.418 375.68V398H122.578V394.96C121.885 395.947 120.938 396.747 119.738 397.36C118.565 397.947 117.258 398.24 115.818 398.24C114.112 398.24 112.605 397.867 111.298 397.12C109.992 396.347 108.978 395.24 108.258 393.8C107.538 392.36 107.178 390.667 107.178 388.72V375.68H113.978V387.8C113.978 389.293 114.365 390.453 115.138 391.28C115.912 392.107 116.952 392.52 118.258 392.52C119.592 392.52 120.645 392.107 121.418 391.28C122.192 390.453 122.578 389.293 122.578 387.8V375.68H129.418ZM162.812 375.44C165.585 375.44 167.785 376.28 169.412 377.96C171.065 379.64 171.892 381.973 171.892 384.96V398H165.092V385.88C165.092 384.44 164.705 383.333 163.932 382.56C163.185 381.76 162.145 381.36 160.812 381.36C159.478 381.36 158.425 381.76 157.652 382.56C156.905 383.333 156.532 384.44 156.532 385.88V398H149.732V385.88C149.732 384.44 149.345 383.333 148.572 382.56C147.825 381.76 146.785 381.36 145.452 381.36C144.118 381.36 143.065 381.76 142.292 382.56C141.545 383.333 141.172 384.44 141.172 385.88V398H134.332V375.68H141.172V378.48C141.865 377.547 142.772 376.813 143.892 376.28C145.012 375.72 146.278 375.44 147.692 375.44C149.372 375.44 150.865 375.8 152.172 376.52C153.505 377.24 154.545 378.267 155.292 379.6C156.065 378.373 157.118 377.373 158.452 376.6C159.785 375.827 161.238 375.44 162.812 375.44Z" fill="white"/>
<path d="M42.495 449.02H45.855V451H39.93V440.47H42.495V449.02ZM46.5684 446.8C46.5684 445.94 46.7284 445.185 47.0484 444.535C47.3784 443.885 47.8234 443.385 48.3834 443.035C48.9434 442.685 49.5684 442.51 50.2584 442.51C50.8484 442.51 51.3634 442.63 51.8034 442.87C52.2534 443.11 52.5984 443.425 52.8384 443.815V442.63H55.4034V451H52.8384V449.815C52.5884 450.205 52.2384 450.52 51.7884 450.76C51.3484 451 50.8334 451.12 50.2434 451.12C49.5634 451.12 48.9434 450.945 48.3834 450.595C47.8234 450.235 47.3784 449.73 47.0484 449.08C46.7284 448.42 46.5684 447.66 46.5684 446.8ZM52.8384 446.815C52.8384 446.175 52.6584 445.67 52.2984 445.3C51.9484 444.93 51.5184 444.745 51.0084 444.745C50.4984 444.745 50.0634 444.93 49.7034 445.3C49.3534 445.66 49.1784 446.16 49.1784 446.8C49.1784 447.44 49.3534 447.95 49.7034 448.33C50.0634 448.7 50.4984 448.885 51.0084 448.885C51.5184 448.885 51.9484 448.7 52.2984 448.33C52.6584 447.96 52.8384 447.455 52.8384 446.815ZM62.3741 451L59.8241 447.49V451H57.2591V439.9H59.8241V446.035L62.3591 442.63H65.5241L62.0441 446.83L65.5541 451H62.3741ZM69.9366 451.12C69.2066 451.12 68.5566 450.995 67.9866 450.745C67.4166 450.495 66.9666 450.155 66.6366 449.725C66.3066 449.285 66.1216 448.795 66.0816 448.255H68.6166C68.6466 448.545 68.7816 448.78 69.0216 448.96C69.2616 449.14 69.5566 449.23 69.9066 449.23C70.2266 449.23 70.4716 449.17 70.6416 449.05C70.8216 448.92 70.9116 448.755 70.9116 448.555C70.9116 448.315 70.7866 448.14 70.5366 448.03C70.2866 447.91 69.8816 447.78 69.3216 447.64C68.7216 447.5 68.2216 447.355 67.8216 447.205C67.4216 447.045 67.0766 446.8 66.7866 446.47C66.4966 446.13 66.3516 445.675 66.3516 445.105C66.3516 444.625 66.4816 444.19 66.7416 443.8C67.0116 443.4 67.4016 443.085 67.9116 442.855C68.4316 442.625 69.0466 442.51 69.7566 442.51C70.8066 442.51 71.6316 442.77 72.2316 443.29C72.8416 443.81 73.1916 444.5 73.2816 445.36H70.9116C70.8716 445.07 70.7416 444.84 70.5216 444.67C70.3116 444.5 70.0316 444.415 69.6816 444.415C69.3816 444.415 69.1516 444.475 68.9916 444.595C68.8316 444.705 68.7516 444.86 68.7516 445.06C68.7516 445.3 68.8766 445.48 69.1266 445.6C69.3866 445.72 69.7866 445.84 70.3266 445.96C70.9466 446.12 71.4516 446.28 71.8416 446.44C72.2316 446.59 72.5716 446.84 72.8616 447.19C73.1616 447.53 73.3166 447.99 73.3266 448.57C73.3266 449.06 73.1866 449.5 72.9066 449.89C72.6366 450.27 72.2416 450.57 71.7216 450.79C71.2116 451.01 70.6166 451.12 69.9366 451.12ZM80.0408 442.54C81.0008 442.54 81.7708 442.86 82.3508 443.5C82.9308 444.13 83.2208 445 83.2208 446.11V451H80.6708V446.455C80.6708 445.895 80.5258 445.46 80.2358 445.15C79.9458 444.84 79.5558 444.685 79.0658 444.685C78.5758 444.685 78.1858 444.84 77.8958 445.15C77.6058 445.46 77.4608 445.895 77.4608 446.455V451H74.8958V439.9H77.4608V443.755C77.7208 443.385 78.0758 443.09 78.5258 442.87C78.9758 442.65 79.4808 442.54 80.0408 442.54ZM95.6832 442.54C96.7232 442.54 97.5482 442.855 98.1582 443.485C98.7782 444.115 99.0882 444.99 99.0882 446.11V451H96.5382V446.455C96.5382 445.915 96.3932 445.5 96.1032 445.21C95.8232 444.91 95.4332 444.76 94.9332 444.76C94.4332 444.76 94.0382 444.91 93.7482 445.21C93.4682 445.5 93.3282 445.915 93.3282 446.455V451H90.7782V446.455C90.7782 445.915 90.6332 445.5 90.3432 445.21C90.0632 444.91 89.6732 444.76 89.1732 444.76C88.6732 444.76 88.2782 444.91 87.9882 445.21C87.7082 445.5 87.5682 445.915 87.5682 446.455V451H85.0032V442.63H87.5682V443.68C87.8282 443.33 88.1682 443.055 88.5882 442.855C89.0082 442.645 89.4832 442.54 90.0132 442.54C90.6432 442.54 91.2032 442.675 91.6932 442.945C92.1932 443.215 92.5832 443.6 92.8632 444.1C93.1532 443.64 93.5482 443.265 94.0482 442.975C94.5482 442.685 95.0932 442.54 95.6832 442.54ZM102.172 441.76C101.722 441.76 101.352 441.63 101.062 441.37C100.782 441.1 100.642 440.77 100.642 440.38C100.642 439.98 100.782 439.65 101.062 439.39C101.352 439.12 101.722 438.985 102.172 438.985C102.612 438.985 102.972 439.12 103.252 439.39C103.542 439.65 103.687 439.98 103.687 440.38C103.687 440.77 103.542 441.1 103.252 441.37C102.972 441.63 102.612 441.76 102.172 441.76ZM103.447 442.63V451H100.882V442.63H103.447ZM112.295 451.105C111.525 451.105 110.835 450.98 110.225 450.73C109.615 450.48 109.125 450.11 108.755 449.62C108.395 449.13 108.205 448.54 108.185 447.85H110.915C110.955 448.24 111.09 448.54 111.32 448.75C111.55 448.95 111.85 449.05 112.22 449.05C112.6 449.05 112.9 448.965 113.12 448.795C113.34 448.615 113.45 448.37 113.45 448.06C113.45 447.8 113.36 447.585 113.18 447.415C113.01 447.245 112.795 447.105 112.535 446.995C112.285 446.885 111.925 446.76 111.455 446.62C110.775 446.41 110.22 446.2 109.79 445.99C109.36 445.78 108.99 445.47 108.68 445.06C108.37 444.65 108.215 444.115 108.215 443.455C108.215 442.475 108.57 441.71 109.28 441.16C109.99 440.6 110.915 440.32 112.055 440.32C113.215 440.32 114.15 440.6 114.86 441.16C115.57 441.71 115.95 442.48 116 443.47H113.225C113.205 443.13 113.08 442.865 112.85 442.675C112.62 442.475 112.325 442.375 111.965 442.375C111.655 442.375 111.405 442.46 111.215 442.63C111.025 442.79 110.93 443.025 110.93 443.335C110.93 443.675 111.09 443.94 111.41 444.13C111.73 444.32 112.23 444.525 112.91 444.745C113.59 444.975 114.14 445.195 114.56 445.405C114.99 445.615 115.36 445.92 115.67 446.32C115.98 446.72 116.135 447.235 116.135 447.865C116.135 448.465 115.98 449.01 115.67 449.5C115.37 449.99 114.93 450.38 114.35 450.67C113.77 450.96 113.085 451.105 112.295 451.105ZM125.603 446.68C125.603 446.92 125.588 447.17 125.558 447.43H119.753C119.793 447.95 119.958 448.35 120.248 448.63C120.548 448.9 120.913 449.035 121.343 449.035C121.983 449.035 122.428 448.765 122.678 448.225H125.408C125.268 448.775 125.013 449.27 124.643 449.71C124.283 450.15 123.828 450.495 123.278 450.745C122.728 450.995 122.113 451.12 121.433 451.12C120.613 451.12 119.883 450.945 119.243 450.595C118.603 450.245 118.103 449.745 117.743 449.095C117.383 448.445 117.203 447.685 117.203 446.815C117.203 445.945 117.378 445.185 117.728 444.535C118.088 443.885 118.588 443.385 119.228 443.035C119.868 442.685 120.603 442.51 121.433 442.51C122.243 442.51 122.963 442.68 123.593 443.02C124.223 443.36 124.713 443.845 125.063 444.475C125.423 445.105 125.603 445.84 125.603 446.68ZM122.978 446.005C122.978 445.565 122.828 445.215 122.528 444.955C122.228 444.695 121.853 444.565 121.403 444.565C120.973 444.565 120.608 444.69 120.308 444.94C120.018 445.19 119.838 445.545 119.768 446.005H122.978ZM131.621 448.825V451H130.316C129.386 451 128.661 450.775 128.141 450.325C127.621 449.865 127.361 449.12 127.361 448.09V444.76H126.341V442.63H127.361V440.59H129.926V442.63H131.606V444.76H129.926V448.12C129.926 448.37 129.986 448.55 130.106 448.66C130.226 448.77 130.426 448.825 130.706 448.825H131.621ZM138.195 442.54C139.155 442.54 139.925 442.86 140.505 443.5C141.085 444.13 141.375 445 141.375 446.11V451H138.825V446.455C138.825 445.895 138.68 445.46 138.39 445.15C138.1 444.84 137.71 444.685 137.22 444.685C136.73 444.685 136.34 444.84 136.05 445.15C135.76 445.46 135.615 445.895 135.615 446.455V451H133.05V439.9H135.615V443.755C135.875 443.385 136.23 443.09 136.68 442.87C137.13 442.65 137.635 442.54 138.195 442.54Z" fill="white"/>
<path d="M50.16 473.776C49.808 472 48.712 471.112 46.872 471.112C45.448 471.112 44.384 471.664 43.68 472.768C42.976 473.856 42.632 475.656 42.648 478.168C43.016 477.336 43.624 476.688 44.472 476.224C45.336 475.744 46.296 475.504 47.352 475.504C49 475.504 50.312 476.016 51.288 477.04C52.28 478.064 52.776 479.48 52.776 481.288C52.776 482.376 52.56 483.352 52.128 484.216C51.712 485.08 51.072 485.768 50.208 486.28C49.36 486.792 48.328 487.048 47.112 487.048C45.464 487.048 44.176 486.68 43.248 485.944C42.32 485.208 41.672 484.192 41.304 482.896C40.936 481.6 40.752 480 40.752 478.096C40.752 472.224 42.8 469.288 46.896 469.288C48.464 469.288 49.696 469.712 50.592 470.56C51.488 471.408 52.016 472.48 52.176 473.776H50.16ZM46.896 477.352C46.208 477.352 45.56 477.496 44.952 477.784C44.344 478.056 43.848 478.48 43.464 479.056C43.096 479.616 42.912 480.304 42.912 481.12C42.912 482.336 43.264 483.328 43.968 484.096C44.672 484.848 45.68 485.224 46.992 485.224C48.112 485.224 49 484.88 49.656 484.192C50.328 483.488 50.664 482.544 50.664 481.36C50.664 480.112 50.344 479.136 49.704 478.432C49.064 477.712 48.128 477.352 46.896 477.352ZM58.5304 482.344C58.6904 483.256 59.0584 483.96 59.6344 484.456C60.2264 484.952 61.0184 485.2 62.0104 485.2C63.3384 485.2 64.3144 484.68 64.9384 483.64C65.5784 482.6 65.8824 480.848 65.8504 478.384C65.5144 479.104 64.9544 479.672 64.1704 480.088C63.3864 480.488 62.5144 480.688 61.5544 480.688C60.4824 480.688 59.5224 480.472 58.6744 480.04C57.8424 479.592 57.1864 478.944 56.7064 478.096C56.2264 477.248 55.9864 476.224 55.9864 475.024C55.9864 473.312 56.4824 471.936 57.4744 470.896C58.4664 469.84 59.8744 469.312 61.6984 469.312C63.9384 469.312 65.5064 470.04 66.4024 471.496C67.3144 472.952 67.7704 475.12 67.7704 478C67.7704 480.016 67.5864 481.68 67.2184 482.992C66.8664 484.304 66.2584 485.304 65.3944 485.992C64.5464 486.68 63.3784 487.024 61.8904 487.024C60.2584 487.024 58.9864 486.584 58.0744 485.704C57.1624 484.824 56.6424 483.704 56.5144 482.344H58.5304ZM61.9144 478.84C62.9864 478.84 63.8664 478.512 64.5544 477.856C65.2424 477.184 65.5864 476.28 65.5864 475.144C65.5864 473.944 65.2504 472.976 64.5784 472.24C63.9064 471.504 62.9624 471.136 61.7464 471.136C60.6264 471.136 59.7304 471.488 59.0584 472.192C58.4024 472.896 58.0744 473.824 58.0744 474.976C58.0744 476.144 58.4024 477.08 59.0584 477.784C59.7144 478.488 60.6664 478.84 61.9144 478.84ZM74.0076 477.976C73.1116 477.624 72.4236 477.112 71.9436 476.44C71.4636 475.768 71.2236 474.952 71.2236 473.992C71.2236 473.128 71.4396 472.352 71.8716 471.664C72.3036 470.96 72.9436 470.408 73.7916 470.008C74.6556 469.592 75.6956 469.384 76.9116 469.384C78.1276 469.384 79.1596 469.592 80.0076 470.008C80.8716 470.408 81.5196 470.96 81.9516 471.664C82.3996 472.352 82.6236 473.128 82.6236 473.992C82.6236 474.92 82.3756 475.736 81.8796 476.44C81.3836 477.128 80.7036 477.64 79.8396 477.976C80.8316 478.28 81.6156 478.816 82.1916 479.584C82.7836 480.336 83.0796 481.248 83.0796 482.32C83.0796 483.36 82.8236 484.272 82.3116 485.056C81.7996 485.824 81.0716 486.424 80.1276 486.856C79.1996 487.272 78.1276 487.48 76.9116 487.48C75.6956 487.48 74.6236 487.272 73.6956 486.856C72.7836 486.424 72.0716 485.824 71.5596 485.056C71.0476 484.272 70.7916 483.36 70.7916 482.32C70.7916 481.248 71.0796 480.328 71.6556 479.56C72.2316 478.792 73.0156 478.264 74.0076 477.976ZM80.5116 474.256C80.5116 473.28 80.1916 472.528 79.5516 472C78.9116 471.472 78.0316 471.208 76.9116 471.208C75.8076 471.208 74.9356 471.472 74.2956 472C73.6556 472.528 73.3356 473.288 73.3356 474.28C73.3356 475.176 73.6636 475.896 74.3196 476.44C74.9916 476.984 75.8556 477.256 76.9116 477.256C77.9836 477.256 78.8476 476.984 79.5036 476.44C80.1756 475.88 80.5116 475.152 80.5116 474.256ZM76.9116 478.936C75.7276 478.936 74.7596 479.216 74.0076 479.776C73.2556 480.32 72.8796 481.144 72.8796 482.248C72.8796 483.272 73.2396 484.096 73.9596 484.72C74.6956 485.344 75.6796 485.656 76.9116 485.656C78.1436 485.656 79.1196 485.344 79.8396 484.72C80.5596 484.096 80.9196 483.272 80.9196 482.248C80.9196 481.176 80.5516 480.36 79.8156 479.8C79.0796 479.224 78.1116 478.936 76.9116 478.936ZM96.6602 471.352L89.9882 487H87.7802L94.5482 471.568H85.2842V469.696H96.6602V471.352ZM105.432 474.016C105.544 472.544 106.112 471.392 107.136 470.56C108.16 469.728 109.488 469.312 111.12 469.312C112.208 469.312 113.144 469.512 113.928 469.912C114.728 470.296 115.328 470.824 115.728 471.496C116.144 472.168 116.352 472.928 116.352 473.776C116.352 474.768 116.064 475.624 115.488 476.344C114.928 477.064 114.192 477.528 113.28 477.736V477.856C114.32 478.112 115.144 478.616 115.752 479.368C116.36 480.12 116.664 481.104 116.664 482.32C116.664 483.232 116.456 484.056 116.04 484.792C115.624 485.512 115 486.08 114.168 486.496C113.336 486.912 112.336 487.12 111.168 487.12C109.472 487.12 108.08 486.68 106.992 485.8C105.904 484.904 105.296 483.64 105.168 482.008H107.28C107.392 482.968 107.784 483.752 108.456 484.36C109.128 484.968 110.024 485.272 111.144 485.272C112.264 485.272 113.112 484.984 113.688 484.408C114.28 483.816 114.576 483.056 114.576 482.128C114.576 480.928 114.176 480.064 113.376 479.536C112.576 479.008 111.368 478.744 109.752 478.744H109.2V476.92H109.776C111.248 476.904 112.36 476.664 113.112 476.2C113.864 475.72 114.24 474.984 114.24 473.992C114.24 473.144 113.96 472.464 113.4 471.952C112.856 471.44 112.072 471.184 111.048 471.184C110.056 471.184 109.256 471.44 108.648 471.952C108.04 472.464 107.68 473.152 107.568 474.016H105.432ZM119.349 485.248C121.381 483.616 122.973 482.28 124.125 481.24C125.277 480.184 126.245 479.088 127.029 477.952C127.829 476.8 128.229 475.672 128.229 474.568C128.229 473.528 127.973 472.712 127.461 472.12C126.965 471.512 126.157 471.208 125.037 471.208C123.949 471.208 123.101 471.552 122.493 472.24C121.901 472.912 121.581 473.816 121.533 474.952H119.421C119.485 473.16 120.029 471.776 121.053 470.8C122.077 469.824 123.397 469.336 125.013 469.336C126.661 469.336 127.965 469.792 128.925 470.704C129.901 471.616 130.389 472.872 130.389 474.472C130.389 475.8 129.989 477.096 129.189 478.36C128.405 479.608 127.509 480.712 126.501 481.672C125.493 482.616 124.205 483.72 122.637 484.984H130.893V486.808H119.349V485.248ZM132.842 471.64V469.648H137.354V487H135.146V471.64H132.842ZM141.105 478.144C141.105 475.392 141.553 473.248 142.449 471.712C143.345 470.16 144.913 469.384 147.153 469.384C149.377 469.384 150.937 470.16 151.833 471.712C152.729 473.248 153.177 475.392 153.177 478.144C153.177 480.944 152.729 483.12 151.833 484.672C150.937 486.224 149.377 487 147.153 487C144.913 487 143.345 486.224 142.449 484.672C141.553 483.12 141.105 480.944 141.105 478.144ZM151.017 478.144C151.017 476.752 150.921 475.576 150.729 474.616C150.553 473.64 150.177 472.856 149.601 472.264C149.041 471.672 148.225 471.376 147.153 471.376C146.065 471.376 145.233 471.672 144.657 472.264C144.097 472.856 143.721 473.64 143.529 474.616C143.353 475.576 143.265 476.752 143.265 478.144C143.265 479.584 143.353 480.792 143.529 481.768C143.721 482.744 144.097 483.528 144.657 484.12C145.233 484.712 146.065 485.008 147.153 485.008C148.225 485.008 149.041 484.712 149.601 484.12C150.177 483.528 150.553 482.744 150.729 481.768C150.921 480.792 151.017 479.584 151.017 478.144ZM165.742 477.976C164.846 477.624 164.158 477.112 163.678 476.44C163.198 475.768 162.958 474.952 162.958 473.992C162.958 473.128 163.174 472.352 163.606 471.664C164.038 470.96 164.678 470.408 165.526 470.008C166.39 469.592 167.43 469.384 168.646 469.384C169.862 469.384 170.894 469.592 171.742 470.008C172.606 470.408 173.254 470.96 173.686 471.664C174.134 472.352 174.358 473.128 174.358 473.992C174.358 474.92 174.11 475.736 173.614 476.44C173.118 477.128 172.438 477.64 171.574 477.976C172.566 478.28 173.35 478.816 173.926 479.584C174.518 480.336 174.814 481.248 174.814 482.32C174.814 483.36 174.558 484.272 174.046 485.056C173.534 485.824 172.806 486.424 171.862 486.856C170.934 487.272 169.862 487.48 168.646 487.48C167.43 487.48 166.358 487.272 165.43 486.856C164.518 486.424 163.806 485.824 163.294 485.056C162.782 484.272 162.526 483.36 162.526 482.32C162.526 481.248 162.814 480.328 163.39 479.56C163.966 478.792 164.75 478.264 165.742 477.976ZM172.246 474.256C172.246 473.28 171.926 472.528 171.286 472C170.646 471.472 169.766 471.208 168.646 471.208C167.542 471.208 166.67 471.472 166.03 472C165.39 472.528 165.07 473.288 165.07 474.28C165.07 475.176 165.398 475.896 166.054 476.44C166.726 476.984 167.59 477.256 168.646 477.256C169.718 477.256 170.582 476.984 171.238 476.44C171.91 475.88 172.246 475.152 172.246 474.256ZM168.646 478.936C167.462 478.936 166.494 479.216 165.742 479.776C164.99 480.32 164.614 481.144 164.614 482.248C164.614 483.272 164.974 484.096 165.694 484.72C166.43 485.344 167.414 485.656 168.646 485.656C169.878 485.656 170.854 485.344 171.574 484.72C172.294 484.096 172.654 483.272 172.654 482.248C172.654 481.176 172.286 480.36 171.55 479.8C170.814 479.224 169.846 478.936 168.646 478.936ZM180.883 477.976C179.987 477.624 179.299 477.112 178.819 476.44C178.339 475.768 178.099 474.952 178.099 473.992C178.099 473.128 178.315 472.352 178.747 471.664C179.179 470.96 179.819 470.408 180.667 470.008C181.531 469.592 182.571 469.384 183.787 469.384C185.003 469.384 186.035 469.592 186.883 470.008C187.747 470.408 188.395 470.96 188.827 471.664C189.275 472.352 189.499 473.128 189.499 473.992C189.499 474.92 189.251 475.736 188.755 476.44C188.259 477.128 187.579 477.64 186.715 477.976C187.707 478.28 188.491 478.816 189.067 479.584C189.659 480.336 189.955 481.248 189.955 482.32C189.955 483.36 189.699 484.272 189.187 485.056C188.675 485.824 187.947 486.424 187.003 486.856C186.075 487.272 185.003 487.48 183.787 487.48C182.571 487.48 181.499 487.272 180.571 486.856C179.659 486.424 178.947 485.824 178.435 485.056C177.923 484.272 177.667 483.36 177.667 482.32C177.667 481.248 177.955 480.328 178.531 479.56C179.107 478.792 179.891 478.264 180.883 477.976ZM187.387 474.256C187.387 473.28 187.067 472.528 186.427 472C185.787 471.472 184.907 471.208 183.787 471.208C182.683 471.208 181.811 471.472 181.171 472C180.531 472.528 180.211 473.288 180.211 474.28C180.211 475.176 180.539 475.896 181.195 476.44C181.867 476.984 182.731 477.256 183.787 477.256C184.859 477.256 185.723 476.984 186.379 476.44C187.051 475.88 187.387 475.152 187.387 474.256ZM183.787 478.936C182.603 478.936 181.635 479.216 180.883 479.776C180.131 480.32 179.755 481.144 179.755 482.248C179.755 483.272 180.115 484.096 180.835 484.72C181.571 485.344 182.555 485.656 183.787 485.656C185.019 485.656 185.995 485.344 186.715 484.72C187.435 484.096 187.795 483.272 187.795 482.248C187.795 481.176 187.427 480.36 186.691 479.8C185.955 479.224 184.987 478.936 183.787 478.936ZM192.807 474.016C192.919 472.544 193.487 471.392 194.511 470.56C195.535 469.728 196.863 469.312 198.495 469.312C199.583 469.312 200.519 469.512 201.303 469.912C202.103 470.296 202.703 470.824 203.103 471.496C203.519 472.168 203.727 472.928 203.727 473.776C203.727 474.768 203.439 475.624 202.863 476.344C202.303 477.064 201.567 477.528 200.655 477.736V477.856C201.695 478.112 202.519 478.616 203.127 479.368C203.735 480.12 204.039 481.104 204.039 482.32C204.039 483.232 203.831 484.056 203.415 484.792C202.999 485.512 202.375 486.08 201.543 486.496C200.711 486.912 199.711 487.12 198.543 487.12C196.847 487.12 195.455 486.68 194.367 485.8C193.279 484.904 192.671 483.64 192.543 482.008H194.655C194.767 482.968 195.159 483.752 195.831 484.36C196.503 484.968 197.399 485.272 198.519 485.272C199.639 485.272 200.487 484.984 201.063 484.408C201.655 483.816 201.951 483.056 201.951 482.128C201.951 480.928 201.551 480.064 200.751 479.536C199.951 479.008 198.743 478.744 197.127 478.744H196.575V476.92H197.151C198.623 476.904 199.735 476.664 200.487 476.2C201.239 475.72 201.615 474.984 201.615 473.992C201.615 473.144 201.335 472.464 200.775 471.952C200.231 471.44 199.447 471.184 198.423 471.184C197.431 471.184 196.631 471.44 196.023 471.952C195.415 472.464 195.055 473.152 194.943 474.016H192.807ZM206.94 474.016C207.052 472.544 207.62 471.392 208.644 470.56C209.668 469.728 210.996 469.312 212.628 469.312C213.716 469.312 214.652 469.512 215.436 469.912C216.236 470.296 216.836 470.824 217.236 471.496C217.652 472.168 217.86 472.928 217.86 473.776C217.86 474.768 217.572 475.624 216.996 476.344C216.436 477.064 215.7 477.528 214.788 477.736V477.856C215.828 478.112 216.652 478.616 217.26 479.368C217.868 480.12 218.172 481.104 218.172 482.32C218.172 483.232 217.964 484.056 217.548 484.792C217.132 485.512 216.508 486.08 215.676 486.496C214.844 486.912 213.844 487.12 212.676 487.12C210.98 487.12 209.588 486.68 208.5 485.8C207.412 484.904 206.804 483.64 206.676 482.008H208.788C208.9 482.968 209.292 483.752 209.964 484.36C210.636 484.968 211.532 485.272 212.652 485.272C213.772 485.272 214.62 484.984 215.196 484.408C215.788 483.816 216.084 483.056 216.084 482.128C216.084 480.928 215.684 480.064 214.884 479.536C214.084 479.008 212.876 478.744 211.26 478.744H210.708V476.92H211.284C212.756 476.904 213.868 476.664 214.62 476.2C215.372 475.72 215.748 474.984 215.748 473.992C215.748 473.144 215.468 472.464 214.908 471.952C214.364 471.44 213.58 471.184 212.556 471.184C211.564 471.184 210.764 471.44 210.156 471.952C209.548 472.464 209.188 473.152 209.076 474.016H206.94ZM226.943 471.64V469.648H231.455V487H229.247V471.64H226.943ZM235.207 478.144C235.207 475.392 235.655 473.248 236.551 471.712C237.447 470.16 239.015 469.384 241.255 469.384C243.479 469.384 245.039 470.16 245.935 471.712C246.831 473.248 247.279 475.392 247.279 478.144C247.279 480.944 246.831 483.12 245.935 484.672C245.039 486.224 243.479 487 241.255 487C239.015 487 237.447 486.224 236.551 484.672C235.655 483.12 235.207 480.944 235.207 478.144ZM245.119 478.144C245.119 476.752 245.023 475.576 244.831 474.616C244.655 473.64 244.279 472.856 243.703 472.264C243.143 471.672 242.327 471.376 241.255 471.376C240.167 471.376 239.335 471.672 238.759 472.264C238.199 472.856 237.823 473.64 237.631 474.616C237.455 475.576 237.367 476.752 237.367 478.144C237.367 479.584 237.455 480.792 237.631 481.768C237.823 482.744 238.199 483.528 238.759 484.12C239.335 484.712 240.167 485.008 241.255 485.008C242.327 485.008 243.143 484.712 243.703 484.12C244.279 483.528 244.655 482.744 244.831 481.768C245.023 480.792 245.119 479.584 245.119 478.144ZM250.013 485.248C252.045 483.616 253.637 482.28 254.789 481.24C255.941 480.184 256.909 479.088 257.693 477.952C258.493 476.8 258.893 475.672 258.893 474.568C258.893 473.528 258.637 472.712 258.125 472.12C257.629 471.512 256.821 471.208 255.701 471.208C254.613 471.208 253.765 471.552 253.157 472.24C252.565 472.912 252.245 473.816 252.197 474.952H250.085C250.149 473.16 250.693 471.776 251.717 470.8C252.741 469.824 254.061 469.336 255.677 469.336C257.325 469.336 258.629 469.792 259.589 470.704C260.565 471.616 261.053 472.872 261.053 474.472C261.053 475.8 260.653 477.096 259.853 478.36C259.069 479.608 258.173 480.712 257.165 481.672C256.157 482.616 254.869 483.72 253.301 484.984H261.557V486.808H250.013V485.248ZM275.146 471.544H266.722V477.016C267.09 476.504 267.634 476.088 268.354 475.768C269.074 475.432 269.85 475.264 270.682 475.264C272.01 475.264 273.09 475.544 273.922 476.104C274.754 476.648 275.346 477.36 275.698 478.24C276.066 479.104 276.25 480.024 276.25 481C276.25 482.152 276.034 483.184 275.602 484.096C275.17 485.008 274.506 485.728 273.61 486.256C272.73 486.784 271.634 487.048 270.322 487.048C268.642 487.048 267.282 486.616 266.242 485.752C265.202 484.888 264.57 483.736 264.346 482.296H266.482C266.69 483.208 267.13 483.92 267.802 484.432C268.474 484.944 269.322 485.2 270.346 485.2C271.61 485.2 272.562 484.824 273.202 484.072C273.842 483.304 274.162 482.296 274.162 481.048C274.162 479.8 273.842 478.84 273.202 478.168C272.562 477.48 271.618 477.136 270.37 477.136C269.522 477.136 268.778 477.344 268.138 477.76C267.514 478.16 267.058 478.712 266.77 479.416H264.706V469.624H275.146V471.544Z" fill="white"/>
<path d="M81.119 83.235C83.9024 80.4517 83.9024 75.939 81.119 73.1556C78.3357 70.3723 73.823 70.3723 71.0397 73.1556C68.2563 75.939 68.2563 80.4517 71.0397 83.235" stroke="white" stroke-width="5" stroke-linecap="round"/>
<path d="M88.1411 90.2424C94.7945 83.589 94.7945 72.8017 88.1411 66.1483C81.4877 59.4949 70.7004 59.4949 64.047 66.1483C57.3936 72.8017 57.3936 83.589 64.047 90.2424" stroke="white" stroke-width="5" stroke-linecap="round"/>
<path d="M94.7925 96.7928C105.064 86.5217 105.064 69.8689 94.7925 59.5978C84.5213 49.3267 67.8686 49.3267 57.5975 59.5978C47.3264 69.8689 47.3264 86.5217 57.5975 96.7928" stroke="white" stroke-width="5" stroke-linecap="round"/>
<path d="M171.763 163.366C176.539 163.274 181.753 165.958 186.937 170.729C192.109 175.49 197.186 182.272 201.678 190.233C210.664 206.159 217.258 226.715 217.613 245.036C217.967 263.357 212.167 283.796 203.799 299.701C199.616 307.652 194.802 314.448 189.817 319.273C184.822 324.107 179.712 326.907 174.93 327C170.149 327.093 164.934 324.492 159.755 319.854C154.587 315.226 149.514 308.622 145.026 300.839C136.049 285.27 129.462 265.07 129.108 246.749C128.753 228.428 134.547 207.632 142.91 191.371C147.09 183.241 151.901 176.268 156.885 171.311C161.879 166.343 166.986 163.459 171.763 163.366Z" stroke="url(#paint1_linear_3829_16374)"/>
<path d="M317.555 244.52C320.034 248.604 320.333 254.461 318.811 261.339C317.293 268.203 313.979 276 309.352 283.883C300.095 299.653 285.634 315.681 269.97 325.192C254.307 334.702 233.721 339.954 215.764 340.709C206.788 341.086 198.494 340.338 191.818 338.45C185.129 336.56 180.14 333.548 177.658 329.46C175.176 325.372 174.805 319.557 176.213 312.75C177.619 305.956 180.781 298.252 185.256 290.461C194.209 274.878 208.366 259.035 224.029 249.525C239.693 240.015 260.584 234.578 278.846 233.64C287.975 233.171 296.422 233.828 303.212 235.647C310.017 237.47 315.076 240.437 317.555 244.52Z" stroke="url(#paint2_linear_3829_16374)"/>
<path d="M172.768 328.918C170.308 333.013 165.263 336.003 158.466 337.858C151.685 339.708 143.241 340.404 134.11 339.977C115.844 339.123 94.9275 333.783 79.22 324.345C63.5132 314.907 49.2833 299.13 40.2589 283.588C35.7476 275.819 32.5498 268.129 31.1131 261.342C29.6736 254.542 30.0174 248.724 32.4805 244.625C34.9437 240.526 39.9186 237.491 46.5989 235.569C53.2662 233.652 61.5567 232.865 70.5347 233.201C88.4943 233.872 109.105 239.03 124.812 248.467C140.52 257.905 155.054 273.866 164.384 289.594C169.047 297.456 172.397 305.237 173.947 312.094C175.5 318.965 175.228 324.824 172.768 328.918Z" stroke="url(#paint3_linear_3829_16374)"/>
<path d="M175 323L175 398.287" stroke="url(#paint4_linear_3829_16374)" stroke-linecap="round"/>
<defs>
<filter id="filter0_d_3829_16374" x="0" y="0" width="349" height="556" filterUnits="userSpaceOnUse" color-interpolation-filters="sRGB">
<feFlood flood-opacity="0" result="BackgroundImageFix"/>
<feColorMatrix in="SourceAlpha" type="matrix" values="0 0 0 0 0 0 0 0 0 0 0 0 0 0 0 0 0 0 127 0" result="hardAlpha"/>
<feOffset dy="4"/>
<feGaussianBlur stdDeviation="2"/>
<feComposite in2="hardAlpha" operator="out"/>
<feColorMatrix type="matrix" values="0 0 0 0 0 0 0 0 0 0 0 0 0 0 0 0 0 0 0.25 0"/>
<feBlend mode="normal" in2="BackgroundImageFix" result="effect1_dropShadow_3829_16374"/>
<feBlend mode="normal" in="SourceGraphic" in2="effect1_dropShadow_3829_16374" result="shape"/>
</filter>
<linearGradient id="paint0_linear_3829_16374" x1="345" y1="0" x2="3.99994" y2="548" gradientUnits="userSpaceOnUse">
<stop offset="0.15625" stop-color="#CDE6F4"/>
<stop offset="1" stop-color="#FF5F00"/>
</linearGradient>
<linearGradient id="paint1_linear_3829_16374" x1="177" y1="328" x2="172.5" y2="164" gradientUnits="userSpaceOnUse">
<stop stop-color="#C5C7D5"/>
<stop offset="1" stop-color="white"/>
</linearGradient>
<linearGradient id="paint2_linear_3829_16374" x1="270" y1="238" x2="180" y2="333" gradientUnits="userSpaceOnUse">
<stop stop-color="white"/>
<stop offset="0.494792" stop-color="#C7C7C7"/>
<stop offset="1" stop-color="#C7C7C7" stop-opacity="0.78"/>
</linearGradient>
<linearGradient id="paint3_linear_3829_16374" x1="169.998" y1="333" x2="68.9983" y2="219" gradientUnits="userSpaceOnUse">
<stop stop-color="#C7C7C7" stop-opacity="0.78"/>
<stop offset="0.494792" stop-color="#C7C7C7"/>
<stop offset="1" stop-color="white"/>
</linearGradient>
<linearGradient id="paint4_linear_3829_16374" x1="175.5" y1="323" x2="175.5" y2="398.287" gradientUnits="userSpaceOnUse">
<stop stop-color="#C7C7C7" stop-opacity="0.78"/>
<stop offset="0.494792" stop-color="#C7C7C7"/>
<stop offset="1" stop-color="white"/>
</linearGradient>
</defs>
</svg>
