<svg width="40" height="40" viewBox="0 0 40 40" fill="none" xmlns="http://www.w3.org/2000/svg">
<path d="M2.49998 26.7C2.72998 26.33 3.05998 26.23 3.47998 26.24C5.36998 26.25 7.25998 26.24 9.14998 26.25C9.39998 26.25 9.55998 26.18 9.70998 25.98C10.58 24.85 11.66 23.97 13.11 23.77C14.99 23.5 16.61 24.08 17.93 25.46C18.06 25.6 18.24 25.73 18.42 25.79C19.89 26.3 21.36 26.82 22.84 27.29C23.96 27.64 24.87 28.21 25.31 29.38C26.37 29.09 27.4 28.79 28.44 28.52C29.34 28.28 30.24 28 31.15 27.86C32.34 27.68 33.34 28.29 33.85 29.35C34.36 30.4 34.19 31.56 33.31 32.39C32.91 32.77 32.42 33.12 31.9 33.31C28.35 34.62 24.79 35.89 21.22 37.16C20.8 37.31 20.34 37.39 19.91 37.5H18.75C17.29 37.3 16.03 36.58 14.75 35.93C13.94 35.52 13.16 35.06 12.36 34.62C11.79 34.3 11.18 34.11 10.53 34.1C10.42 34.82 10.25 34.97 9.53998 34.97C9.00998 34.97 8.47998 34.97 7.92998 34.97C7.92998 35.11 7.90998 35.21 7.90998 35.31C7.89998 36.04 7.69998 36.24 6.96998 36.24C5.75998 36.24 4.55998 36.24 3.34998 36.24C2.93998 36.24 2.63998 36.11 2.47998 35.73V26.71L2.49998 26.7ZM10.51 32.72C11.82 32.74 12.91 33.3 13.97 33.94C14.28 34.13 14.6 34.31 14.92 34.47C15.79 34.91 16.66 35.36 17.56 35.76C18.81 36.31 20.03 36.16 21.3 35.69C24.66 34.43 28.06 33.25 31.44 32.04C31.89 31.88 32.28 31.62 32.54 31.22C33.07 30.42 32.59 29.34 31.64 29.22C31.34 29.18 31.02 29.22 30.73 29.3C29.05 29.75 27.38 30.23 25.7 30.68C25.48 30.74 25.37 30.84 25.29 31.06C24.82 32.45 23.39 33.19 21.98 32.78C21.33 32.59 20.68 32.37 20.03 32.17C18.68 31.74 17.32 31.32 15.97 30.87C15.76 30.8 15.51 30.61 15.44 30.41C15.37 30.22 15.44 29.89 15.59 29.74C15.73 29.6 16.06 29.51 16.26 29.57C17.27 29.85 18.26 30.18 19.26 30.5C20.28 30.82 21.29 31.15 22.32 31.47C22.95 31.67 23.57 31.43 23.89 30.9C24.22 30.35 24.14 29.68 23.63 29.23C23.36 29 23.03 28.82 22.69 28.7C21.03 28.12 19.35 27.57 17.69 26.98C17.46 26.9 17.23 26.73 17.07 26.54C16.03 25.34 14.72 24.87 13.19 25.15C12.1 25.34 11.33 26.07 10.71 26.95C10.6 27.1 10.53 27.32 10.53 27.51C10.52 29.13 10.53 30.74 10.53 32.36V32.73L10.51 32.72ZM6.53998 27.64H3.89998V34.84H6.54998V27.64H6.53998ZM7.95998 27.63V33.58H9.11998V27.63H7.95998Z" fill="#231F20"/>
<path d="M29.45 6.94001C29.56 6.24001 29.73 6.10001 30.42 6.10001C30.95 6.10001 31.48 6.10001 32.07 6.10001C32.07 5.88001 32.07 5.71001 32.07 5.53001C32.09 5.08001 32.34 4.83001 32.79 4.83001C34.11 4.83001 35.43 4.83001 36.75 4.83001C37.24 4.83001 37.49 5.10001 37.49 5.61001C37.49 6.73001 37.49 7.84001 37.49 8.96001C37.49 10.62 37.49 12.29 37.49 13.95C37.49 14.57 37.25 14.81 36.62 14.81C34.67 14.81 32.73 14.81 30.78 14.81C30.56 14.81 30.44 14.88 30.3 15.05C29.43 16.19 28.36 17.03 26.91 17.3C26.61 17.36 26.3 17.37 25.99 17.35C25.74 17.34 25.57 17.41 25.39 17.58C23.24 19.74 21.08 21.9 18.92 24.06C18.36 24.62 18.06 24.62 17.49 24.06C13.3 19.87 9.11005 15.69 4.93005 11.5C4.37005 10.94 4.37005 10.68 4.92005 10.13C7.33005 7.72001 9.74005 5.31001 12.14 2.91001C12.67 2.38001 12.96 2.38001 13.49 2.91001C14.13 3.55001 14.78 4.19001 15.42 4.85001C15.57 5.00001 15.69 5.03001 15.89 4.95001C16.83 4.60001 17.77 4.26001 18.71 3.92001C20.16 3.40001 21.61 3.43001 23 4.08001C24.52 4.80001 26 5.61001 27.48 6.39001C28.22 6.78001 28.84 6.98001 29.44 6.95001L29.45 6.94001ZM16.66 6.05001C17.26 6.65001 17.83 7.16001 18.31 7.72001C18.92 8.43001 19.66 8.84001 20.56 9.08001C21.74 9.40001 22.91 9.80001 24.07 10.18C24.49 10.32 24.68 10.67 24.57 11.05C24.46 11.42 24.09 11.6 23.66 11.48C23.52 11.44 23.38 11.39 23.24 11.35C21.39 10.76 19.53 10.18 17.68 9.59001C17.14 9.42001 16.66 9.52001 16.27 9.94001C15.92 10.32 15.81 10.78 15.99 11.27C16.2 11.85 16.67 12.15 17.24 12.35C18.91 12.91 20.57 13.49 22.25 14.05C22.55 14.15 22.78 14.32 22.99 14.56C24.03 15.77 25.37 16.22 26.92 15.89C28.03 15.65 28.8 14.87 29.42 13.95C29.47 13.87 29.49 13.76 29.49 13.66C29.49 11.97 29.49 10.29 29.49 8.60001C29.49 8.40001 29.42 8.32001 29.22 8.31001C28.38 8.25001 27.61 7.98001 26.86 7.58001C25.43 6.81001 23.99 6.06001 22.53 5.33001C21.82 4.97001 21.02 4.78001 20.24 4.96001C19.06 5.24001 17.9 5.66001 16.66 6.04001V6.05001ZM8.79005 13.28C11.12 15.61 13.43 17.92 15.75 20.24C17.4 19.2 19.09 19.21 20.75 20.27C21.27 19.75 21.78 19.24 22.3 18.72C21.6 17.69 21.35 16.54 21.59 15.28C20.82 15.02 20.07 14.77 19.31 14.51C19.26 14.66 19.21 14.78 19.17 14.89C18.55 16.51 16.85 17.58 15.18 17.39C13.31 17.17 11.87 15.79 11.67 14.02C11.46 12.18 12.45 10.49 14.16 9.88001C14.59 9.72001 14.92 9.53001 15.19 9.14001C15.57 8.60001 16.16 8.33001 16.77 8.19001C16.3 7.72001 15.83 7.24001 15.34 6.75001C15.37 6.75001 15.36 6.75001 15.35 6.75001C13.72 7.76001 12.08 7.81001 10.43 6.80001C10.38 6.77001 10.25 6.78001 10.2 6.82001C9.71005 7.29001 9.23005 7.78001 8.75005 8.25001C9.83005 9.97001 9.83005 11.65 8.80005 13.28H8.79005ZM33.46 6.21001V13.42H36.1V6.19001C35.25 6.19001 34.44 6.19001 33.62 6.19001C33.58 6.19001 33.53 6.19001 33.46 6.21001ZM14.56 11.21C13.51 11.52 12.81 12.82 13.04 14C13.29 15.25 14.5 16.16 15.73 16.02C16.88 15.9 17.94 14.94 17.93 14.02C16.4 13.58 14.89 13.09 14.56 11.21ZM32.04 13.43V7.49001H30.87V13.43H32.04ZM16.77 21.24C17.27 21.74 17.77 22.25 18.29 22.77C18.73 22.33 19.2 21.85 19.68 21.38C19.7 21.36 19.71 21.32 19.73 21.3C18.95 20.7 17.55 20.7 16.78 21.25L16.77 21.24ZM6.24005 10.76C6.76005 11.28 7.27005 11.79 7.77005 12.29C8.34005 11.44 8.33005 9.94001 7.71005 9.28001C7.27005 9.72001 6.83005 10.17 6.39005 10.61C6.33005 10.67 6.28005 10.73 6.25005 10.76H6.24005ZM11.34 5.72001C12.15 6.30001 13.64 6.29001 14.29 5.73001C13.79 5.23001 13.29 4.73001 12.81 4.25001C12.34 4.72001 11.85 5.22001 11.34 5.72001ZM24.04 16.99C23.64 16.78 23.28 16.58 22.81 16.33C22.97 16.85 23.11 17.29 23.25 17.75C23.54 17.47 23.78 17.24 24.04 16.99Z" fill="#231F20"/>
<path d="M12.9499 29.42C12.9499 29.04 13.2499 28.75 13.6199 28.75C13.9899 28.75 14.2999 29.05 14.2999 29.42C14.2999 29.79 13.9699 30.12 13.5999 30.11C13.2299 30.1 12.9399 29.79 12.9399 29.42H12.9499Z" fill="#231F20"/>
<path d="M27.0499 11.64C27.0499 12.02 26.7499 12.3 26.3699 12.3C25.9999 12.3 25.6899 12 25.6899 11.63C25.6899 11.25 26.0099 10.94 26.3899 10.95C26.7599 10.95 27.0499 11.26 27.0499 11.64Z" fill="#231F20"/>
</svg>
