<svg width="168" height="27" viewBox="0 0 168 27" fill="none" xmlns="http://www.w3.org/2000/svg">
<path d="M13.5965 27C11.7615 27 9.98128 26.6435 8.30455 25.9396C7.49813 25.6013 6.72215 25.1813 5.99485 24.6949C5.27669 24.2116 4.59809 23.6587 3.98339 23.0454C3.36868 22.4352 2.80876 21.7645 2.32187 21.0485C1.82889 20.3265 1.40894 19.5561 1.06811 18.7556C0.359077 17.091 0 15.3237 0 13.502C0 11.6803 0.359077 9.91296 1.06811 8.24836C1.40894 7.44779 1.83193 6.67742 2.32187 5.95539C2.80876 5.2394 3.36564 4.56873 3.98339 3.95848C4.59809 3.34823 5.27365 2.79235 5.99485 2.30899C6.72215 1.8226 7.49813 1.40267 8.30455 1.06432C9.98128 0.360411 11.7615 0.00392784 13.5965 0.00392784C15.4314 0.00392784 17.2116 0.360411 18.8884 1.06432C19.6917 1.40267 20.4708 1.81958 21.1981 2.30899C21.9162 2.79235 22.5948 3.3452 23.2095 3.95848C23.2521 3.99775 23.2978 4.04609 23.3465 4.09442L19.1288 8.16377C19.1044 8.13659 19.077 8.11242 19.0527 8.08523C18.3467 7.38434 17.522 6.83149 16.603 6.4448C15.6536 6.04602 14.6433 5.84361 13.6025 5.84361C12.5618 5.84361 11.5515 6.04602 10.6021 6.4448C9.68307 6.83149 8.85839 7.38132 8.1524 8.08523C7.44336 8.78611 6.88952 9.60481 6.50001 10.5172C6.09832 11.4628 5.89444 12.4627 5.89444 13.4959C5.89444 14.5291 6.09832 15.5321 6.50001 16.4747C6.88952 17.384 7.44336 18.2027 8.1524 18.9066C8.86143 19.6105 9.68611 20.1604 10.6021 20.547C11.5515 20.9458 12.5618 21.1482 13.6025 21.1482C14.6433 21.1482 15.6536 20.9458 16.603 20.547C17.522 20.1604 18.3467 19.6105 19.0527 18.9066C19.0801 18.8794 19.1044 18.8553 19.1288 18.8281L23.3495 22.8974C23.2978 22.9488 23.2552 22.9941 23.2126 23.0334C22.5979 23.6436 21.9223 24.1965 21.2011 24.6829C20.4738 25.1692 19.6978 25.5892 18.8914 25.9275C17.2147 26.6314 15.4345 26.9879 13.5995 26.9879L13.5965 27Z" fill="#3D3D3D"/>
<path d="M38.06 11.5673C39.6029 11.5673 41.3374 9.98726 41.3253 8.17766C41.31 6.35899 39.6363 4.94816 38.06 4.93608H32.5034V11.5673H38.06ZM26.5846 0.0570933H38.9151C43.5497 0.0450091 46.9671 3.48296 47.0462 7.28947C47.104 10.9389 46.9032 12.7364 43.0202 15.6729C47.0523 26.9504 47.2562 26.9474 47.2562 26.9474C47.2562 26.9474 46.5198 26.9625 41.1001 26.9474C40.9875 26.9474 40.601 26.9474 40.601 26.9474L36.9585 16.0173H32.6647V26.2163C32.6586 26.4217 32.6647 26.9474 32.6647 26.9474C32.6647 26.9474 32.123 26.9414 31.9283 26.9474H26.5846V0.0570933Z" fill="#3D3D3D"/>
<path d="M50.576 0.105728H68.0068V5.73087H56.5922V9.87269C65.5571 9.87873 66.117 9.87269 66.117 9.87269V15.4978H56.5922V21.271H68.0068V26.8992H50.576V0.105728Z" fill="#3D3D3D"/>
<path d="M81.0678 21.4226C85.319 21.4226 88.4047 18.0964 88.4047 13.8368C88.4047 9.57713 85.3251 6.29327 81.0678 6.29327H77.4739V21.4196H81.0678V21.4226ZM71.5917 0.970217C71.5917 0.807082 71.5917 0.242149 71.5917 0.242149C71.5917 0.242149 72.0573 0.251212 72.2824 0.242149H81.6581C89.0772 0.242149 95.1451 6.23285 95.1451 13.5558C95.1359 20.9483 89.1015 26.936 81.6581 26.945H72.2824C72.1151 26.939 71.5917 26.945 71.5917 26.945C71.5917 26.945 71.5917 26.4405 71.5917 26.22V0.970217Z" fill="#3D3D3D"/>
<path d="M158.247 26.9961C156.412 26.9961 154.632 26.6396 152.955 25.9357C152.149 25.5973 151.373 25.1774 150.645 24.691C149.927 24.2076 149.249 23.6548 148.634 23.0415C148.019 22.4313 147.459 21.7606 146.972 21.0446C146.479 20.3226 146.059 19.5522 145.719 18.7516C145.01 17.087 144.65 15.3197 144.65 13.498C144.65 11.6763 145.01 9.90903 145.719 8.24444C146.059 7.44386 146.482 6.67349 146.972 5.95146C147.459 5.23547 148.016 4.5648 148.634 3.95455C149.249 3.3443 149.924 2.78843 150.645 2.30506C151.373 1.81867 152.149 1.39874 152.955 1.06039C154.632 0.356483 156.412 0 158.247 0C160.082 0 161.862 0.356483 163.539 1.06039C164.342 1.39874 165.121 1.81565 165.849 2.30506C166.567 2.78843 167.245 3.34128 167.86 3.95455C167.903 3.99382 167.948 4.04216 167.997 4.0905L163.779 8.15985C163.755 8.13266 163.728 8.10849 163.703 8.0813C162.997 7.38042 162.173 6.82757 161.253 6.44087C160.304 6.04209 159.294 5.83968 158.253 5.83968C157.212 5.83968 156.202 6.04209 155.253 6.44087C154.334 6.82757 153.509 7.3774 152.803 8.0813C152.097 8.78218 151.54 9.60089 151.15 10.5132C150.749 11.4588 150.545 12.4588 150.545 13.492C150.545 14.5252 150.749 15.5282 151.15 16.4707C151.54 17.3801 152.094 18.1988 152.803 18.9027C153.512 19.6066 154.337 20.1564 155.253 20.5431C156.202 20.9419 157.212 21.1443 158.253 21.1443C159.294 21.1443 160.304 20.9419 161.253 20.5431C162.173 20.1564 162.997 19.6066 163.703 18.9027C163.731 18.8755 163.755 18.8513 163.779 18.8241L168 22.8935C167.948 22.9448 167.906 22.9902 167.863 23.0294C167.248 23.6397 166.573 24.1925 165.852 24.6789C165.124 25.1653 164.348 25.5852 163.542 25.9236C161.865 26.6275 160.085 26.984 158.25 26.984L158.247 26.9961Z" fill="#3D3D3D"/>
<path d="M97.9569 0.105728H115.388V5.73087H103.973V9.87269C112.938 9.87873 113.498 9.87269 113.498 9.87269V15.4978H103.973V21.271H115.388V26.8992H97.9569V0.105728Z" fill="#3D3D3D"/>
<path d="M124.806 11.0899V26.8446H118.716V0.0570615H124.806L135.557 16.1109V0.0570615H141.643V26.8446H135.654L124.806 11.0899Z" fill="#3D3D3D"/>
</svg>
