<svg width="40" height="40" viewBox="0 0 40 40" fill="none" xmlns="http://www.w3.org/2000/svg">
<path d="M10.9088 32.9795L8.50875 30.5195C8.65875 30.4895 8.81875 30.3495 8.88875 30.2095C9.20875 29.6095 9.49875 28.9995 9.80875 28.3995C9.98875 28.0495 10.3188 27.9195 10.6388 28.0495C10.9588 28.1895 11.0887 28.5095 10.9688 28.8895C10.8687 29.1995 10.7688 29.5095 10.6588 29.8195C10.5788 30.0495 10.5287 30.2695 10.7487 30.4395C10.9687 30.6195 11.1687 30.5095 11.3787 30.3795C11.8287 30.0695 12.2788 29.7695 12.7388 29.4695C13.0488 29.2695 13.3288 29.3795 13.4388 29.7295C13.4788 29.8795 13.5088 30.0395 13.5588 30.1895C13.6188 30.3995 13.7488 30.5295 13.9788 30.5295C14.6788 30.5295 15.3887 30.5495 16.0887 30.5195M11.5487 11.5795C11.5487 10.7395 11.5487 9.90953 11.5487 9.06953C11.5487 8.49953 11.3087 8.26953 10.7487 8.26953C9.08875 8.26953 7.42875 8.26953 5.76875 8.26953C5.19875 8.26953 4.96875 8.49953 4.96875 9.06953C4.96875 10.7295 4.96875 12.3895 4.96875 14.0495C4.96875 14.6195 5.20875 14.8495 5.76875 14.8595C7.42875 14.8595 9.08875 14.8595 10.7487 14.8595C11.3187 14.8595 11.5488 14.6195 11.5588 14.0595C11.5588 13.2395 11.5588 12.4095 11.5588 11.5895L11.5487 11.5795Z" stroke="#231F20" stroke-width="0.5" stroke-miterlimit="10" stroke-linecap="round"/>
<path d="M22.09 13.53H20.77V13.11C20.77 10.68 20.77 8.25 20.77 5.83C20.77 4.82 20.26 4.31 19.25 4.31C18.5 4.31 17.74 4.31 16.99 4.31C16.44 4.31 16.25 4.47 16.16 5C16.09 5.42 15.86 5.62 15.43 5.62C12.85 5.62 10.27 5.62 7.69 5.62C7.23 5.62 7.02 5.42 6.94 4.97C6.86 4.49 6.65 4.31 6.16 4.31C5.34 4.31 4.51 4.31 3.69 4.31C2.89 4.31 2.35 4.86 2.33 5.65C2.33 5.75 2.33 5.84 2.33 5.94C2.33 16.27 2.33 22.86 2.33 33.18C2.33 34.33 2.8 34.8 3.95 34.8C9.02 34.8 14.1 34.8 19.17 34.8C20.27 34.8 20.76 34.32 20.76 33.23C20.76 30.32 20.76 31.16 20.76 28.25C20.76 27.64 21.2 27.24 21.47 26.76C21.53 26.66 21.82 26.7 22.07 26.67V27.14C22.07 30.65 22.07 30.42 22.07 33.93C22.07 35.33 21.27 36.12 19.87 36.12C14.32 36.12 8.76 36.12 3.21 36.12C1.79 36.12 1 35.33 1 33.9C1 23.09 1 16.02 1 5.22C1 3.79 1.79 3 3.2 3C8.75 3 14.31 3 19.86 3C21.26 3 22.06 3.79 22.06 5.19C22.06 7.82 22.06 10.46 22.06 13.09V13.54L22.09 13.53Z" stroke="#231F20" stroke-width="0.5" stroke-miterlimit="10"/>
<path d="M38.5218 26.6998H38.1018C35.8518 26.6998 33.6018 26.6998 31.3618 26.6998C30.5518 26.6998 29.7818 26.5398 29.0718 26.1598C28.0318 25.6098 26.9318 25.3698 25.7518 25.3798C23.3118 25.3998 20.8718 25.3798 18.4318 25.3798C18.2518 25.3798 18.0718 25.3798 17.9018 25.3498C17.2518 25.2198 16.7818 24.6198 16.8318 23.9898C16.8818 23.3398 17.4918 22.7798 18.2018 22.7498C18.9018 22.7298 19.6018 22.7498 20.3018 22.7498C21.9218 22.7498 23.5318 22.7498 25.1518 22.7498C26.2918 22.7498 27.0618 22.1998 27.3018 21.2198C27.5318 20.2998 27.0918 19.4798 26.1018 18.9598C26.0818 18.9498 26.0618 18.9198 26.0318 18.8898C26.0718 18.8098 26.1018 18.7198 26.1518 18.6398C26.8318 17.4698 27.5018 16.2898 28.1918 15.1198C28.2718 14.9898 28.4718 14.8598 28.6218 14.8598C29.1018 14.8498 29.5818 14.8598 30.0518 14.9198C30.7818 15.0198 31.3918 15.3798 31.8818 15.9298C32.2218 16.3098 32.5318 16.7098 32.8618 17.0898C33.8218 18.2198 35.0418 18.7998 36.5318 18.7998C37.1818 18.7998 37.8418 18.7998 38.5218 18.7998" stroke="#231F20" stroke-width="0.5" stroke-miterlimit="10"/>
<path d="M19.9609 21.43C22.5209 16.99 25.0509 12.62 27.5909 8.20996C28.3609 8.65996 29.1009 9.07996 29.8609 9.51996C29.7609 9.68996 29.6909 9.83996 29.6109 9.97996C27.4809 13.67 25.3509 17.35 23.2309 21.05C23.0709 21.34 22.8909 21.45 22.5609 21.44C21.7309 21.42 20.8909 21.44 19.9609 21.44V21.43Z" stroke="#231F20" stroke-width="0.5" stroke-miterlimit="10"/>
<path d="M22.2317 14.8696C21.9917 15.2796 21.7917 15.6396 21.5917 15.9896C20.6017 17.6996 19.6217 19.4096 18.6317 21.1096C18.5317 21.2896 18.4517 21.4296 18.1817 21.4396C16.3617 21.4996 15.0617 23.2396 15.6417 24.8796C15.6417 24.8996 15.6417 24.9296 15.6417 24.9896C15.1217 25.1196 14.6217 25.0596 14.1717 24.7496C13.8617 24.5396 13.8117 24.2096 14.0217 23.8396C14.4217 23.1196 14.8417 22.4096 15.2417 21.6996C16.1317 20.1596 17.0317 18.6196 17.9017 17.0696C18.8417 15.3796 20.2917 14.6996 22.2417 14.8596L22.2317 14.8696Z" stroke="#231F20" stroke-width="0.5" stroke-miterlimit="10"/>
<path d="M28.2483 7.0703C28.7183 6.2703 29.1383 5.4903 29.6083 4.7303C29.9683 4.1503 30.7083 3.9803 31.3083 4.2903C31.8883 4.6003 32.2083 5.3103 31.9183 5.9003C31.5083 6.7403 31.0083 7.5403 30.5283 8.3803C29.7483 7.9303 29.0183 7.5103 28.2383 7.0603L28.2483 7.0703Z" stroke="#231F20" stroke-width="0.5" stroke-miterlimit="10"/>
<path d="M16.1914 30.5001C16.4914 29.1701 16.5114 27.7801 16.9514 26.5801C18.0014 26.6401 18.9514 26.6901 19.9314 26.7401C19.4914 27.4501 19.1914 28.2201 18.4814 28.7401C17.7214 29.2901 17.0214 29.9301 16.2914 30.5301L16.1914 30.5001Z" stroke="#231F20" stroke-width="0.5" stroke-miterlimit="10"/>
<path d="M24.5312 21.43C24.7812 21 24.9813 20.62 25.2213 20.26C25.2713 20.19 25.4613 20.14 25.5613 20.17C25.8713 20.27 26.0712 20.51 26.0312 20.85C25.9913 21.18 25.7812 21.4 25.4412 21.43C25.1712 21.45 24.9013 21.43 24.5413 21.43H24.5312Z" stroke="#231F20" stroke-width="0.5" stroke-miterlimit="10"/>
<path d="M19.7711 8.91992H12.8711" stroke="#231F20" stroke-width="0.5" stroke-miterlimit="10" stroke-linecap="round"/>
<path d="M19.7711 11.0605H12.8711" stroke="#231F20" stroke-width="0.5" stroke-miterlimit="10" stroke-linecap="round"/>
<path d="M19.7711 13.2012H12.8711" stroke="#231F20" stroke-width="0.5" stroke-miterlimit="10" stroke-linecap="round"/>
<path d="M12.3014 17.8906H3.94141" stroke="#231F20" stroke-width="0.5" stroke-miterlimit="10" stroke-linecap="round"/>
<path d="M12.3014 19.9004H3.94141" stroke="#231F20" stroke-width="0.5" stroke-miterlimit="10" stroke-linecap="round"/>
<path d="M12.3014 21.9004H3.94141" stroke="#231F20" stroke-width="0.5" stroke-miterlimit="10" stroke-linecap="round"/>
<path d="M12.3014 23.9102H3.94141" stroke="#231F20" stroke-width="0.5" stroke-miterlimit="10" stroke-linecap="round"/>
<path d="M12.3014 25.9102H3.94141" stroke="#231F20" stroke-width="0.5" stroke-miterlimit="10" stroke-linecap="round"/>
</svg>
