<svg width="194" height="98" viewBox="0 0 194 98" fill="none" xmlns="http://www.w3.org/2000/svg">
<path d="M34.748 70.536C34.748 74.2533 33.3427 77.1093 30.532 79.104C27.7667 81.144 23.9587 82.164 19.108 82.164C13.7587 82.164 9.76933 81.28 7.14 79.512C4.51067 77.7893 3.08267 75.636 2.856 73.052L10.132 71.896C9.95067 74.2987 10.5173 76.2027 11.832 77.608C13.192 79.0587 15.6173 79.784 19.108 79.784C22.372 79.784 25.0013 79.172 26.996 77.948C29.036 76.724 30.056 74.956 30.056 72.644C30.056 71.012 29.444 69.7653 28.22 68.904C27.0413 68.088 25.0693 67.68 22.304 67.68H14.552C12.1493 67.68 10.2453 67.34 8.84 66.66C7.48 65.98 6.528 65.1413 5.984 64.144C5.44 63.1013 5.168 62.036 5.168 60.948C5.168 59.6333 5.53067 58.3413 6.256 57.072C6.98133 55.7573 8.228 54.4653 9.996 53.196C8.04667 52.3347 6.46 51.0653 5.236 49.388C4.012 47.7107 3.4 45.6253 3.4 43.132C3.4 40.5933 3.98933 38.508 5.168 36.876C6.34667 35.1987 7.93333 33.952 9.928 33.136C11.9227 32.2747 14.144 31.844 16.592 31.844H17.748C20.3773 31.844 22.644 32.2747 24.548 33.136L34.34 28.308L35.156 34.972H27.404C28.492 35.924 29.3307 37.08 29.92 38.44C30.5547 39.7547 30.872 41.3187 30.872 43.132C30.872 45.58 30.2827 47.6427 29.104 49.32C27.9253 50.9973 26.3387 52.2667 24.344 53.128C22.3947 53.9893 20.196 54.42 17.748 54.42H16.592C15.232 54.42 13.8947 54.284 12.58 54.012C11.4467 54.7827 10.6533 55.5307 10.2 56.256C9.792 56.936 9.588 57.5933 9.588 58.228C9.588 58.9533 9.90533 59.4973 10.54 59.86C11.22 60.2227 12.308 60.404 13.804 60.404H22.644C26.5427 60.404 29.5347 61.288 31.62 63.056C33.7053 64.7787 34.748 67.272 34.748 70.536ZM17.748 52.04C19.1987 52.04 20.4453 51.4053 21.488 50.136C22.5307 48.8667 23.052 46.532 23.052 43.132C23.052 39.732 22.5307 37.3973 21.488 36.128C20.4453 34.8587 19.1987 34.224 17.748 34.224H16.592C15.1413 34.224 13.872 34.8587 12.784 36.128C11.7413 37.3973 11.22 39.732 11.22 43.132C11.22 46.532 11.7413 48.8667 12.784 50.136C13.872 51.4053 15.1413 52.04 16.592 52.04H17.748ZM46.8674 26.676C45.4621 26.676 44.3287 26.2453 43.4674 25.384C42.6061 24.4773 42.1754 23.3213 42.1754 21.916C42.1754 20.5107 42.6061 19.3773 43.4674 18.516C44.3287 17.6547 45.4621 17.224 46.8674 17.224C48.2274 17.224 49.3607 17.6547 50.2674 18.516C51.1741 19.3773 51.6274 20.5107 51.6274 21.916C51.6274 23.3213 51.1741 24.4773 50.2674 25.384C49.3607 26.2453 48.2274 26.676 46.8674 26.676ZM37.7554 34.428V32.524H50.8114V61.288C50.8114 62.8293 50.8794 63.7587 51.0154 64.076C51.1514 64.348 51.5821 64.5293 52.3074 64.62L56.0474 65.096V67H37.7554V65.096L41.4954 64.62C42.2207 64.5293 42.6514 64.348 42.7874 64.076C42.9234 63.7587 42.9914 62.8293 42.9914 61.288V38.236C42.9914 36.6947 42.9234 35.788 42.7874 35.516C42.6514 35.1987 42.2207 34.9947 41.4954 34.904L37.7554 34.428ZM87.2653 38.236L77.6093 67H71.4213L61.7653 38.236C61.4479 37.1933 61.1759 36.468 60.9493 36.06C60.7679 35.6067 60.5413 35.312 60.2692 35.176C60.0426 35.04 59.6799 34.9493 59.1813 34.904L55.4412 34.428V32.524H73.8013V34.428L70.0613 34.904C69.3813 34.9947 69.0186 35.176 68.9733 35.448C68.9279 35.72 69.1546 36.6493 69.6533 38.236L77.1333 60.812L84.6813 38.236C85.1799 36.6493 85.4066 35.72 85.3613 35.448C85.3613 35.176 84.9986 34.9947 84.2733 34.904L80.5333 34.428V32.524H93.5213V34.428L89.7812 34.904C89.3279 34.9493 88.9653 35.04 88.6933 35.176C88.4666 35.312 88.2626 35.6067 88.0813 36.06C87.8999 36.468 87.6279 37.1933 87.2653 38.236ZM131.792 65.3V67H117.24V65.3L120.98 64.96C121.705 64.8693 122.136 64.688 122.272 64.416C122.408 64.144 122.476 63.2147 122.476 61.628V35.924H105.476V61.628C105.476 63.2147 105.544 64.144 105.68 64.416C105.816 64.688 106.247 64.8693 106.972 64.96L110.712 65.3V67H96.16V65.3L99.9 64.96C100.625 64.8693 101.056 64.688 101.192 64.416C101.328 64.144 101.396 63.2147 101.396 61.628V39.256C101.396 37.6693 101.328 36.74 101.192 36.468C101.101 36.1507 100.671 35.9693 99.9 35.924L96.16 35.584V33.884H101.396V30.892C101.396 28.2627 101.827 25.8373 102.688 23.616C103.549 21.3493 104.955 19.5133 106.904 18.108C108.853 16.7027 111.483 16 114.792 16C118.917 16 121.977 17.0653 123.972 19.196C125.967 21.2813 126.715 23.956 126.216 27.22L122.34 27.832C123.247 21.304 120.731 18.04 114.792 18.04C112.979 18.04 111.369 18.38 109.964 19.06C108.559 19.6947 107.448 20.896 106.632 22.664C105.861 24.432 105.476 26.948 105.476 30.212V33.884H126.556V61.628C126.556 63.2147 126.624 64.144 126.76 64.416C126.896 64.688 127.327 64.8693 128.052 64.96L131.792 65.3ZM173.916 65.3V67H159.364V65.3L163.104 64.96C163.829 64.8693 164.26 64.688 164.396 64.416C164.532 64.144 164.6 63.2147 164.6 61.628V44.832C164.6 41.3413 164.011 38.916 162.832 37.556C161.653 36.196 159.976 35.516 157.8 35.516C156.077 35.516 154.264 35.9467 152.36 36.808C150.456 37.6693 148.529 39.3013 146.58 41.704V61.628C146.58 63.2147 146.648 64.144 146.784 64.416C146.92 64.688 147.351 64.8693 148.076 64.96L151.816 65.3V67H137.264V65.3L141.004 64.96C141.729 64.8693 142.16 64.688 142.296 64.416C142.432 64.144 142.5 63.2147 142.5 61.628V39.256C142.5 37.6693 142.432 36.74 142.296 36.468C142.16 36.1507 141.729 35.9693 141.004 35.924L137.264 35.584V33.884H146.308V39.188C148.167 37.0573 150.116 35.5387 152.156 34.632C154.241 33.68 156.327 33.204 158.412 33.204C161.767 33.204 164.305 34.224 166.028 36.264C167.796 38.2587 168.68 41.092 168.68 44.764V61.628C168.68 63.2147 168.748 64.144 168.884 64.416C169.02 64.688 169.451 64.8693 170.176 64.96L173.916 65.3Z" fill="white"/>
<path d="M96.618 94.662V95H93.55V94.662L94.265 94.584C94.4037 94.5667 94.486 94.532 94.512 94.48C94.538 94.428 94.551 94.2503 94.551 93.947V88.981H91.522V93.947C91.522 94.2503 91.535 94.428 91.561 94.48C91.587 94.532 91.6693 94.5667 91.808 94.584L92.523 94.662V95H89.455V94.662L90.17 94.584C90.3087 94.5667 90.391 94.532 90.417 94.48C90.443 94.428 90.456 94.2503 90.456 93.947V89.618C90.456 89.3147 90.443 89.137 90.417 89.085C90.3997 89.033 90.3173 88.9983 90.17 88.981L89.455 88.916V88.565H90.456V88.045C90.456 87.5597 90.5383 87.1047 90.703 86.68C90.8763 86.2553 91.158 85.913 91.548 85.653C91.9467 85.3843 92.4797 85.25 93.147 85.25C93.7017 85.25 94.1653 85.3453 94.538 85.536C94.9193 85.718 95.1967 85.9693 95.37 86.29C95.5433 86.602 95.5953 86.953 95.526 87.343L94.512 87.486C94.6767 86.2727 94.2217 85.666 93.147 85.666C92.8263 85.666 92.5447 85.731 92.302 85.861C92.0593 85.9823 91.8687 86.2033 91.73 86.524C91.5913 86.836 91.522 87.2823 91.522 87.863V88.565H95.617V93.947C95.617 94.2503 95.63 94.428 95.656 94.48C95.682 94.532 95.7643 94.5667 95.903 94.584L96.618 94.662ZM104.72 94.662V95H101.652V94.662L102.367 94.584C102.506 94.5667 102.588 94.532 102.614 94.48C102.64 94.428 102.653 94.2503 102.653 93.947V90.71C102.653 90.0687 102.549 89.618 102.341 89.358C102.133 89.0893 101.834 88.955 101.444 88.955C101.158 88.955 100.842 89.0417 100.495 89.215C100.148 89.3883 99.8234 89.7263 99.52 90.229V93.947C99.52 94.2503 99.533 94.428 99.559 94.48C99.585 94.532 99.6674 94.5667 99.806 94.584L100.521 94.662V95H97.453V94.662L98.168 94.584C98.3067 94.5667 98.389 94.532 98.415 94.48C98.441 94.428 98.454 94.2503 98.454 93.947V89.618C98.454 89.3147 98.441 89.137 98.415 89.085C98.389 89.033 98.3067 88.9983 98.168 88.981L97.453 88.916V88.565H99.455V89.618C99.767 89.202 100.118 88.903 100.508 88.721C100.907 88.5303 101.305 88.435 101.704 88.435C102.345 88.435 102.839 88.6343 103.186 89.033C103.541 89.423 103.719 89.9777 103.719 90.697V93.947C103.719 94.2503 103.732 94.428 103.758 94.48C103.784 94.532 103.866 94.5667 104.005 94.584L104.72 94.662ZM110.832 95.091C110.156 95.091 109.758 94.779 109.636 94.155C109.333 94.5017 108.999 94.753 108.635 94.909C108.271 95.0563 107.912 95.13 107.556 95.13C106.95 95.13 106.503 94.961 106.217 94.623C105.931 94.285 105.788 93.8777 105.788 93.401C105.788 92.8897 105.962 92.4867 106.308 92.192C106.664 91.8887 107.275 91.737 108.141 91.737H109.61V90.684C109.61 89.9907 109.489 89.514 109.246 89.254C109.012 88.9853 108.692 88.851 108.284 88.851C108.024 88.851 107.79 88.903 107.582 89.007C107.374 89.111 107.223 89.3017 107.127 89.579C107.041 89.8477 107.032 90.242 107.101 90.762L106.074 90.606C106.031 90.1987 106.083 89.8347 106.23 89.514C106.386 89.1847 106.638 88.9247 106.984 88.734C107.34 88.5347 107.782 88.435 108.31 88.435C108.943 88.435 109.428 88.5433 109.766 88.76C110.104 88.968 110.338 89.241 110.468 89.579C110.607 89.917 110.676 90.2853 110.676 90.684V93.609C110.676 94.051 110.724 94.3283 110.819 94.441C110.923 94.5537 111.036 94.61 111.157 94.61C111.235 94.61 111.318 94.5927 111.404 94.558C111.491 94.5147 111.586 94.4497 111.69 94.363L111.924 94.688C111.794 94.8007 111.638 94.896 111.456 94.974C111.283 95.052 111.075 95.091 110.832 95.091ZM107.92 94.584C108.163 94.584 108.423 94.519 108.7 94.389C108.986 94.2503 109.29 93.9773 109.61 93.57V92.153H108.284C107.799 92.153 107.444 92.2527 107.218 92.452C107.002 92.6427 106.893 92.9417 106.893 93.349C106.893 93.739 106.976 94.0423 107.14 94.259C107.314 94.4757 107.574 94.584 107.92 94.584ZM119.764 94.662V95H116.696V94.662L117.411 94.584C117.55 94.5667 117.632 94.532 117.658 94.48C117.684 94.428 117.697 94.2503 117.697 93.947V90.71C117.697 90.0687 117.593 89.618 117.385 89.358C117.177 89.0893 116.878 88.955 116.488 88.955C116.202 88.955 115.886 89.0417 115.539 89.215C115.192 89.3883 114.867 89.7263 114.564 90.229V93.947C114.564 94.2503 114.577 94.428 114.603 94.48C114.629 94.532 114.711 94.5667 114.85 94.584L115.565 94.662V95H112.497V94.662L113.212 94.584C113.351 94.5667 113.433 94.532 113.459 94.48C113.485 94.428 113.498 94.2503 113.498 93.947V89.618C113.498 89.3147 113.485 89.137 113.459 89.085C113.433 89.033 113.351 88.9983 113.212 88.981L112.497 88.916V88.565H114.499V89.618C114.811 89.202 115.162 88.903 115.552 88.721C115.951 88.5303 116.349 88.435 116.748 88.435C117.389 88.435 117.883 88.6343 118.23 89.033C118.585 89.423 118.763 89.9777 118.763 90.697V93.947C118.763 94.2503 118.776 94.428 118.802 94.48C118.828 94.532 118.91 94.5667 119.049 94.584L119.764 94.662ZM123.562 88.851C123.086 88.851 122.713 89.0503 122.444 89.449C122.184 89.839 122.054 90.4847 122.054 91.386V92.166C122.054 93.076 122.184 93.7303 122.444 94.129C122.713 94.519 123.146 94.714 123.744 94.714C124.152 94.714 124.481 94.61 124.732 94.402C124.984 94.194 125.153 93.8343 125.239 93.323L125.928 93.518C125.772 94.1073 125.486 94.5233 125.07 94.766C124.654 95.0087 124.191 95.13 123.679 95.13C122.743 95.13 122.041 94.8397 121.573 94.259C121.114 93.6697 120.884 92.8853 120.884 91.906V91.646C120.884 90.6753 121.114 89.8997 121.573 89.319C122.033 88.7297 122.696 88.435 123.562 88.435C124.117 88.435 124.576 88.5433 124.94 88.76C125.313 88.9767 125.577 89.2713 125.733 89.644C125.889 90.008 125.933 90.411 125.863 90.853L124.836 91.009C124.932 90.3157 124.867 89.7827 124.641 89.41C124.425 89.0373 124.065 88.851 123.562 88.851ZM132.584 93.518C132.428 94.1073 132.133 94.5233 131.7 94.766C131.275 95.0087 130.803 95.13 130.283 95.13C129.321 95.13 128.601 94.8397 128.125 94.259C127.648 93.6697 127.41 92.8853 127.41 91.906V91.646C127.41 90.6753 127.639 89.8997 128.099 89.319C128.558 88.7297 129.225 88.435 130.101 88.435C130.569 88.435 130.993 88.5303 131.375 88.721C131.765 88.9117 132.072 89.1933 132.298 89.566C132.532 89.9387 132.649 90.4023 132.649 90.957C132.649 91.217 132.623 91.49 132.571 91.776H128.58V92.166C128.58 93.076 128.718 93.7303 128.996 94.129C129.282 94.519 129.741 94.714 130.374 94.714C130.772 94.714 131.102 94.61 131.362 94.402C131.63 94.194 131.808 93.8343 131.895 93.323L132.584 93.518ZM130.101 88.851C129.589 88.851 129.208 89.046 128.957 89.436C128.705 89.826 128.58 90.4673 128.58 91.36H131.505V91.321C131.522 91.2083 131.535 91.1 131.544 90.996C131.552 90.8833 131.557 90.7837 131.557 90.697C131.557 90.047 131.422 89.579 131.154 89.293C130.885 88.9983 130.534 88.851 130.101 88.851ZM140.149 94.662V95H136.821V94.662L137.536 94.584C137.675 94.5667 137.757 94.532 137.783 94.48C137.809 94.428 137.822 94.2503 137.822 93.947V89.618C137.822 89.3147 137.809 89.137 137.783 89.085C137.766 89.033 137.684 88.9983 137.536 88.981L136.821 88.916V88.565H137.822V87.629C137.822 87.2217 137.883 86.836 138.004 86.472C138.134 86.108 138.355 85.8133 138.667 85.588C138.979 85.3627 139.408 85.25 139.954 85.25C140.674 85.25 141.207 85.445 141.553 85.835C141.9 86.225 142.026 86.7017 141.93 87.265L140.916 87.408C140.994 86.81 140.951 86.3723 140.786 86.095C140.63 85.809 140.353 85.666 139.954 85.666C139.729 85.666 139.534 85.718 139.369 85.822C139.213 85.9173 139.092 86.095 139.005 86.355C138.927 86.6063 138.888 86.9703 138.888 87.447V88.565H140.955V88.981H138.888V93.947C138.888 94.2503 138.901 94.4323 138.927 94.493C138.953 94.545 139.036 94.5753 139.174 94.584L140.149 94.662ZM147.41 91.646V91.906C147.41 92.8853 147.163 93.6697 146.669 94.259C146.183 94.8397 145.49 95.13 144.589 95.13C143.696 95.13 143.003 94.8397 142.509 94.259C142.023 93.6697 141.781 92.8853 141.781 91.906V91.646C141.781 90.6753 142.023 89.8997 142.509 89.319C142.994 88.7297 143.687 88.435 144.589 88.435C145.49 88.435 146.183 88.7297 146.669 89.319C147.163 89.8997 147.41 90.6753 147.41 91.646ZM146.24 91.386C146.24 90.4847 146.097 89.839 145.811 89.449C145.533 89.0503 145.126 88.851 144.589 88.851C144.06 88.851 143.653 89.0503 143.367 89.449C143.089 89.839 142.951 90.4847 142.951 91.386V92.166C142.951 93.076 143.089 93.7303 143.367 94.129C143.653 94.519 144.06 94.714 144.589 94.714C145.126 94.714 145.533 94.519 145.811 94.129C146.097 93.7303 146.24 93.076 146.24 92.166V91.386ZM148.666 88.916V88.565H150.668V89.605C150.971 89.1977 151.275 88.903 151.578 88.721C151.89 88.5303 152.206 88.435 152.527 88.435C152.804 88.435 153.064 88.5173 153.307 88.682C153.55 88.8467 153.753 89.111 153.918 89.475L153.073 89.982C152.943 89.67 152.796 89.4533 152.631 89.332C152.466 89.2107 152.284 89.15 152.085 89.15C151.868 89.15 151.652 89.2193 151.435 89.358C151.227 89.4967 150.993 89.7567 150.733 90.138V93.947C150.733 94.2503 150.746 94.4323 150.772 94.493C150.798 94.545 150.88 94.5753 151.019 94.584L151.994 94.662V95H148.666V94.662L149.381 94.584C149.52 94.5667 149.602 94.532 149.628 94.48C149.654 94.428 149.667 94.2503 149.667 93.947V89.618C149.667 89.3147 149.654 89.137 149.628 89.085C149.602 89.033 149.52 88.9983 149.381 88.981L148.666 88.916ZM157.142 85.731V85.38H159.209V89.501C159.46 89.1283 159.746 88.8597 160.067 88.695C160.388 88.5217 160.734 88.435 161.107 88.435C161.852 88.435 162.429 88.7167 162.836 89.28C163.252 89.8433 163.46 90.632 163.46 91.646V91.906C163.46 92.894 163.222 93.6783 162.745 94.259C162.277 94.8397 161.618 95.13 160.769 95.13C160.093 95.13 159.538 94.909 159.105 94.467C158.984 94.5363 158.871 94.623 158.767 94.727C158.663 94.831 158.559 94.9437 158.455 95.065H158.143V86.433C158.143 86.1297 158.13 85.952 158.104 85.9C158.078 85.848 157.996 85.8133 157.857 85.796L157.142 85.731ZM160.938 88.903C160.669 88.903 160.388 88.9897 160.093 89.163C159.807 89.3363 159.512 89.6873 159.209 90.216V93.934C159.582 94.4453 160.076 94.701 160.691 94.701C161.254 94.701 161.662 94.4887 161.913 94.064C162.164 93.6307 162.29 93.0413 162.29 92.296V91.256C162.29 90.4413 162.173 89.8477 161.939 89.475C161.705 89.0937 161.371 88.903 160.938 88.903ZM170.314 93.518C170.158 94.1073 169.864 94.5233 169.43 94.766C169.006 95.0087 168.533 95.13 168.013 95.13C167.051 95.13 166.332 94.8397 165.855 94.259C165.379 93.6697 165.14 92.8853 165.14 91.906V91.646C165.14 90.6753 165.37 89.8997 165.829 89.319C166.289 88.7297 166.956 88.435 167.831 88.435C168.299 88.435 168.724 88.5303 169.105 88.721C169.495 88.9117 169.803 89.1933 170.028 89.566C170.262 89.9387 170.379 90.4023 170.379 90.957C170.379 91.217 170.353 91.49 170.301 91.776H166.31V92.166C166.31 93.076 166.449 93.7303 166.726 94.129C167.012 94.519 167.472 94.714 168.104 94.714C168.503 94.714 168.832 94.61 169.092 94.402C169.361 94.194 169.539 93.8343 169.625 93.323L170.314 93.518ZM167.831 88.851C167.32 88.851 166.939 89.046 166.687 89.436C166.436 89.826 166.31 90.4673 166.31 91.36H169.235V91.321C169.253 91.2083 169.266 91.1 169.274 90.996C169.283 90.8833 169.287 90.7837 169.287 90.697C169.287 90.047 169.153 89.579 168.884 89.293C168.616 88.9983 168.265 88.851 167.831 88.851ZM175.896 93.674C175.766 94.1767 175.563 94.545 175.285 94.779C175.008 95.013 174.653 95.13 174.219 95.13C173.803 95.13 173.465 95.039 173.205 94.857C172.945 94.6663 172.755 94.4193 172.633 94.116C172.512 93.8127 172.451 93.4963 172.451 93.167V89.618C172.451 89.3147 172.438 89.137 172.412 89.085C172.395 89.033 172.313 88.9983 172.165 88.981L171.45 88.916V88.565H172.451V86.862L173.517 86.641V88.565H175.636V88.981H173.517V93.271C173.517 93.817 173.591 94.194 173.738 94.402C173.894 94.61 174.098 94.714 174.349 94.714C174.601 94.714 174.791 94.6187 174.921 94.428C175.06 94.2373 175.16 93.9253 175.22 93.492L175.896 93.674ZM180.924 93.674C180.794 94.1767 180.59 94.545 180.313 94.779C180.035 95.013 179.68 95.13 179.247 95.13C178.831 95.13 178.493 95.039 178.233 94.857C177.973 94.6663 177.782 94.4193 177.661 94.116C177.539 93.8127 177.479 93.4963 177.479 93.167V89.618C177.479 89.3147 177.466 89.137 177.44 89.085C177.422 89.033 177.34 88.9983 177.193 88.981L176.478 88.916V88.565H177.479V86.862L178.545 86.641V88.565H180.664V88.981H178.545V93.271C178.545 93.817 178.618 94.194 178.766 94.402C178.922 94.61 179.125 94.714 179.377 94.714C179.628 94.714 179.819 94.6187 179.949 94.428C180.087 94.2373 180.187 93.9253 180.248 93.492L180.924 93.674ZM187.199 93.518C187.043 94.1073 186.748 94.5233 186.315 94.766C185.89 95.0087 185.418 95.13 184.898 95.13C183.936 95.13 183.217 94.8397 182.74 94.259C182.263 93.6697 182.025 92.8853 182.025 91.906V91.646C182.025 90.6753 182.255 89.8997 182.714 89.319C183.173 88.7297 183.841 88.435 184.716 88.435C185.184 88.435 185.609 88.5303 185.99 88.721C186.38 88.9117 186.688 89.1933 186.913 89.566C187.147 89.9387 187.264 90.4023 187.264 90.957C187.264 91.217 187.238 91.49 187.186 91.776H183.195V92.166C183.195 93.076 183.334 93.7303 183.611 94.129C183.897 94.519 184.356 94.714 184.989 94.714C185.388 94.714 185.717 94.61 185.977 94.402C186.246 94.194 186.423 93.8343 186.51 93.323L187.199 93.518ZM184.716 88.851C184.205 88.851 183.823 89.046 183.572 89.436C183.321 89.826 183.195 90.4673 183.195 91.36H186.12V91.321C186.137 91.2083 186.15 91.1 186.159 90.996C186.168 90.8833 186.172 90.7837 186.172 90.697C186.172 90.047 186.038 89.579 185.769 89.293C185.5 88.9983 185.149 88.851 184.716 88.851ZM188.491 88.916V88.565H190.493V89.605C190.796 89.1977 191.1 88.903 191.403 88.721C191.715 88.5303 192.031 88.435 192.352 88.435C192.629 88.435 192.889 88.5173 193.132 88.682C193.375 88.8467 193.578 89.111 193.743 89.475L192.898 89.982C192.768 89.67 192.621 89.4533 192.456 89.332C192.291 89.2107 192.109 89.15 191.91 89.15C191.693 89.15 191.477 89.2193 191.26 89.358C191.052 89.4967 190.818 89.7567 190.558 90.138V93.947C190.558 94.2503 190.571 94.4323 190.597 94.493C190.623 94.545 190.705 94.5753 190.844 94.584L191.819 94.662V95H188.491V94.662L189.206 94.584C189.345 94.5667 189.427 94.532 189.453 94.48C189.479 94.428 189.492 94.2503 189.492 93.947V89.618C189.492 89.3147 189.479 89.137 189.453 89.085C189.427 89.033 189.345 88.9983 189.206 88.981L188.491 88.916Z" fill="white"/>
</svg>
