<svg width="43" height="52" viewBox="0 0 43 52" fill="none" xmlns="http://www.w3.org/2000/svg">
<path d="M42.1598 7.05377L21.8934 0.0659945C21.638 -0.0219982 21.3617 -0.0219982 21.1063 0.0659945L0.83989 7.05377C0.33827 7.22699 0 7.70839 0 8.25099V25.6012C0 38.4513 8.94374 49.5447 21.2665 51.9771C21.3436 51.9925 21.4218 52 21.5 52C21.5782 52 21.6564 51.9925 21.7335 51.9771C34.0563 49.5449 43 38.4523 43 25.6012V8.252C43 7.70905 42.6625 7.22721 42.1601 7.05448L42.1598 7.05377ZM40.5332 25.601C40.5332 37.1621 32.5435 47.1515 21.4997 49.4485C10.4561 47.1517 2.46615 37.1611 2.46615 25.601V9.15891L21.4997 2.5961L40.5332 9.15891V25.601ZM19.2105 30.5855L32.1882 17.8597C32.6802 17.3771 33.4607 17.3949 33.932 17.8988C34.4031 18.4026 34.3858 19.202 33.8938 19.6847L20.0807 33.2297C19.8426 33.4629 19.5352 33.5805 19.2274 33.5805C18.928 33.5805 18.6294 33.4696 18.3933 33.2475L10.6894 26.0013C10.1878 25.5294 10.1542 24.7303 10.615 24.2166C11.0758 23.7028 11.856 23.6693 12.3576 24.1404L19.2105 30.5855Z" fill="#322F3B"/>
</svg>
