<svg width="60" height="60" viewBox="0 0 60 60" fill="none" xmlns="http://www.w3.org/2000/svg">
<path d="M28.0777 60H31.9238V50.7692H28.0777V60Z" fill="#322F3B"/>
<path d="M13.3348 55.0198L16.6658 56.9429L21.2812 48.9489L17.9502 47.0258L13.3348 55.0198Z" fill="#322F3B"/>
<path d="M3.05787 43.3333L4.98212 46.6696L12.9777 42.0571L11.0535 38.7209L3.05787 43.3333Z" fill="#322F3B"/>
<path d="M0 31.9223H9.23077V28.0762H0V31.9223Z" fill="#322F3B"/>
<path d="M3.05641 16.6681L11.0532 21.279L12.9768 17.9427L4.98007 13.3319L3.05641 16.6681Z" fill="#322F3B"/>
<path d="M13.3333 4.98021L17.9487 12.9742L21.2797 11.0511L16.6643 3.05714L13.3333 4.98021Z" fill="#322F3B"/>
<path d="M28.0777 9.23077H31.9238V0H28.0777V9.23077Z" fill="#322F3B"/>
<path d="M38.7209 11.0535L42.0571 12.9771L46.6651 4.98491L43.3288 3.06124L38.7209 11.0535Z" fill="#322F3B"/>
<path d="M47.0256 17.9458L48.9493 21.2821L56.9415 16.6741L55.0179 13.3379L47.0256 17.9458Z" fill="#322F3B"/>
<path d="M50.7692 31.9223H60V28.0762H50.7692V31.9223Z" fill="#322F3B"/>
<path d="M47.0256 42.0527L55.0179 46.6607L56.9415 43.3244L48.9493 38.7165L47.0256 42.0527Z" fill="#322F3B"/>
<path d="M38.7209 48.9451L43.3288 56.9373L46.6651 55.0136L42.0571 47.0214L38.7209 48.9451Z" fill="#322F3B"/>
</svg>
