<svg width="36" height="36" viewBox="0 0 36 36" fill="none" xmlns="http://www.w3.org/2000/svg">
<path d="M13.6897 6.28197C14.0597 6.20197 14.4197 6.08197 14.7997 6.03197C16.4397 5.82197 18.0997 6.66196 18.8997 8.10196C19.0097 8.30196 19.0497 8.48197 18.8797 8.66197C18.6697 8.88197 18.3697 8.82196 18.1997 8.53196C17.8297 7.90196 17.3197 7.42197 16.6497 7.12197C15.3697 6.54197 13.8697 6.82197 12.8897 7.82197C11.8897 8.83196 11.6497 10.332 12.2797 11.672C12.2997 11.722 12.3297 11.762 12.3497 11.812C12.4397 12.042 12.3697 12.252 12.1597 12.352C11.9597 12.452 11.7397 12.392 11.6197 12.172C11.1497 11.342 10.9997 10.452 11.1497 9.52197C11.3197 8.42197 11.8597 7.53196 12.7397 6.84196C12.7797 6.81196 12.8097 6.76196 12.8397 6.73196C13.1197 6.58196 13.3997 6.42196 13.6797 6.27196L13.6897 6.28197Z" fill="#231F20"/>
<path d="M14.3501 23.1821C14.6401 22.1821 15.1901 21.5021 16.2501 21.3421C16.6901 21.2721 17.1001 21.3621 17.5001 21.5321C18.1301 21.7921 18.7501 22.0321 19.3801 22.2921C19.6001 22.3821 19.8101 22.4421 19.9901 22.2321C20.1601 22.0321 20.0801 21.8421 19.9701 21.6421C18.0801 18.1821 16.1901 14.7121 14.3001 11.2521C14.1601 11.0021 14.0601 10.7121 14.0301 10.4321C13.9501 9.78207 14.3301 9.22207 14.9201 9.01207C15.4701 8.82207 16.1701 9.06207 16.5201 9.57207C16.6101 9.69207 16.6801 9.83207 16.7501 9.96207C18.3701 12.9221 19.9801 15.8721 21.6001 18.8321C21.6501 18.9221 21.6901 19.0121 21.7501 19.0821C21.9001 19.2621 22.0901 19.3221 22.2901 19.2021C22.4901 19.0821 22.5401 18.8921 22.4601 18.6721C22.4301 18.6021 22.3901 18.5321 22.3501 18.4621C21.8801 17.5921 21.4001 16.7321 20.9301 15.8621C20.5301 15.1221 20.7301 14.2921 21.4101 13.9221C22.1101 13.5321 22.9501 13.7821 23.3701 14.5321C23.8001 15.3121 24.2201 16.0921 24.6501 16.8721C24.6801 16.9321 24.7201 17.0021 24.7501 17.0621C24.8901 17.2721 25.1001 17.3321 25.3001 17.2221C25.5101 17.1121 25.5901 16.8921 25.4701 16.6521C25.3201 16.3621 25.1601 16.0721 25.0001 15.7821C24.7901 15.4021 24.5801 15.0221 24.3801 14.6321C24.0001 13.9021 24.2301 13.0521 24.8801 12.7021C25.5201 12.3621 26.3601 12.6221 26.7601 13.3221C27.1101 13.9321 27.4301 14.5521 27.7801 15.1621C27.8401 15.2721 27.9501 15.4021 28.0601 15.4221C28.2001 15.4421 28.3801 15.3921 28.4901 15.3021C28.6401 15.1821 28.6201 14.9821 28.5301 14.8121C28.3301 14.4221 28.1001 14.0521 27.9201 13.6521C27.6301 13.0121 27.8801 12.2321 28.4801 11.8821C29.1101 11.5121 29.9201 11.6921 30.3501 12.2921C30.4201 12.3821 30.4701 12.4821 30.5301 12.5921C31.9401 15.1621 33.3501 17.7421 34.7501 20.3121C35.5401 21.7621 35.6501 23.2521 34.9901 24.7721C34.6101 25.6521 33.9901 26.3121 33.1501 26.7721C31.5401 27.6521 29.9101 28.5221 28.3101 29.4221C26.5901 30.3821 24.9301 30.2621 23.3101 29.1921C21.1901 27.7821 19.0801 26.3521 16.9601 24.9321C16.1001 24.3521 15.2401 23.7721 14.3601 23.1921L14.3501 23.1821Z" stroke="#231F20" stroke-width="0.7" stroke-miterlimit="10"/>
<path d="M21.0213 34.8964C18.5713 34.8964 10.1113 34.9064 7.66133 34.8764C3.82134 34.8264 1.04133 32.0964 1.01133 28.2464C0.961335 21.4164 0.961335 14.5764 1.01133 7.74638C1.04133 3.79638 3.83133 1.02638 7.74133 1.00638C14.4113 0.976383 21.0813 0.976383 27.7513 1.00638C31.6613 1.02638 34.4013 3.81638 34.4513 7.75638C34.4713 9.66638 34.4413 20.5864 34.4713 22.4964C34.4713 22.7264 34.5113 22.9564 34.5613 23.1864H35.3713C35.4113 22.9764 35.4313 22.7764 35.4413 22.5664C35.4613 20.5464 35.4813 9.51638 35.4413 7.49638C35.3513 3.27638 32.1313 0.0463826 27.9013 0.0263826C21.1813 -0.0136174 14.4513 -0.00361741 7.73134 0.0263826C3.32134 0.0463826 0.0813349 3.25638 0.0413349 7.69638C-0.0186651 14.5264 -0.00866512 21.3664 0.0413349 28.1964C0.0713349 32.6264 3.29134 35.8064 7.73134 35.8664C10.1713 35.8964 18.6113 35.8864 21.0413 35.8864V34.9064L21.0213 34.8964Z" fill="#231F20"/>
<path d="M14.0227 30.98H4.72266V5H30.7027V15.04" stroke="#231F20" stroke-linecap="round" stroke-linejoin="round"/>
</svg>
