<svg width="40" height="40" viewBox="0 0 40 40" fill="none" xmlns="http://www.w3.org/2000/svg">
<path d="M9.04875 8.10014C9.04875 8.98014 9.04875 9.75014 9.04875 10.5201C9.04875 10.9601 8.83875 11.2301 8.49875 11.2201C8.16875 11.2201 7.96875 10.9601 7.96875 10.5401C7.96875 9.19014 7.96875 7.84014 7.96875 6.48014C7.96875 6.17014 8.03875 5.92014 8.35875 5.82014C8.67875 5.72014 8.87875 5.89014 9.04875 6.14014C9.65875 7.03014 10.2688 7.91014 10.9188 8.86014C10.9388 8.71014 10.9588 8.63014 10.9588 8.55014C10.9588 7.86014 10.9588 7.17014 10.9588 6.49014C10.9588 6.04014 11.1788 5.79014 11.5287 5.80014C11.8587 5.81014 12.0488 6.05014 12.0488 6.49014C12.0488 7.84014 12.0488 9.19014 12.0488 10.5501C12.0488 10.8601 11.9788 11.1101 11.6588 11.2001C11.3388 11.3001 11.1388 11.1101 10.9688 10.8601C10.4188 10.0601 9.86875 9.27014 9.32875 8.48014C9.25875 8.38014 9.18875 8.29014 9.05875 8.11014L9.04875 8.10014Z" fill="black"/>
<path d="M18.2112 8.52957C18.2112 10.0396 17.0113 11.2396 15.5013 11.2396C14.0013 11.2396 12.7812 10.0196 12.7812 8.52957C12.7812 7.03957 14.0213 5.80957 15.5013 5.80957C17.0013 5.80957 18.2112 7.02957 18.2112 8.52957ZM15.5113 10.1496C16.4213 10.1496 17.1312 9.42957 17.1312 8.50957C17.1312 7.61957 16.4013 6.89957 15.5213 6.88957C14.6313 6.88957 13.8813 7.62957 13.8813 8.51957C13.8813 9.41957 14.6213 10.1496 15.5213 10.1496H15.5113Z" fill="black"/>
<path d="M30.2406 29.8798V30.9598C30.6006 30.9598 30.9506 30.9598 31.3006 30.9598C31.6706 30.9598 31.9006 31.1798 31.9006 31.4998C31.9006 31.8198 31.6706 32.0398 31.3106 32.0498C30.9606 32.0498 30.6206 32.0498 30.2506 32.0498V33.1198C30.6406 33.1198 31.0306 33.1198 31.4106 33.1198C31.8106 33.1198 32.0406 33.3398 32.0406 33.6598C32.0406 33.9798 31.8006 34.1998 31.4006 34.1998C30.8606 34.1998 30.3106 34.1998 29.7706 34.1998C29.3306 34.1998 29.1406 33.9898 29.1406 33.5398C29.1406 32.1798 29.1406 30.8098 29.1406 29.4498C29.1406 28.9998 29.3306 28.7998 29.7706 28.7998C30.3106 28.7998 30.8606 28.7998 31.4006 28.7998C31.7906 28.7998 32.0306 29.0198 32.0406 29.3398C32.0406 29.6598 31.8006 29.8698 31.4106 29.8798C31.0406 29.8798 30.6606 29.8798 30.2506 29.8798H30.2406Z" fill="black"/>
<path d="M26.61 29.8802V30.9602C26.94 30.9602 27.27 30.9602 27.6 30.9602C28.02 30.9602 28.27 31.1702 28.27 31.5002C28.27 31.8402 28.02 32.0402 27.6 32.0402C27.28 32.0402 26.95 32.0402 26.61 32.0402V33.1102C27.01 33.1102 27.39 33.1102 27.77 33.1102C28.16 33.1102 28.4 33.3302 28.4 33.6602C28.4 33.9802 28.15 34.1902 27.76 34.2002C27.22 34.2002 26.67 34.2002 26.13 34.2002C25.7 34.2002 25.51 34.0002 25.5 33.5802C25.5 32.1902 25.5 30.8002 25.5 29.4202C25.5 29.0202 25.7 28.8102 26.1 28.8102C26.67 28.8002 27.23 28.8002 27.8 28.8102C28.17 28.8102 28.4 29.0402 28.4 29.3502C28.4 29.6602 28.17 29.8802 27.8 29.8902C27.42 29.8902 27.03 29.8902 26.6 29.8902L26.61 29.8802Z" fill="black"/>
<path d="M23.0498 30.9095C23.3698 30.9095 23.6898 30.9095 23.9998 30.9095C24.3998 30.9095 24.6398 31.1295 24.6398 31.4495C24.6398 31.7695 24.3998 31.9795 24.0098 31.9895C23.6998 31.9895 23.3898 31.9895 23.0298 31.9895C23.0298 32.4195 23.0298 32.8195 23.0298 33.2095C23.0298 33.3495 23.0298 33.4995 23.0298 33.6395C22.9998 33.9895 22.7798 34.1995 22.4798 34.1995C22.1798 34.1995 21.9598 33.9795 21.9498 33.6295C21.9398 33.0095 21.9498 32.3995 21.9498 31.7795C21.9498 30.9795 21.9498 30.1795 21.9498 29.3895C21.9498 28.9595 22.1498 28.7695 22.5798 28.7695C23.1098 28.7695 23.6398 28.7695 24.1798 28.7695C24.5598 28.7695 24.8098 29.0095 24.7998 29.3295C24.7998 29.6395 24.5498 29.8495 24.1798 29.8595C23.8198 29.8595 23.4598 29.8595 23.0698 29.8595V30.9095H23.0498Z" fill="black"/>
<path d="M25.5098 22.1899C24.3098 22.1899 23.3398 21.2199 23.3398 20.0299C23.3398 18.8399 24.3098 17.8599 25.4998 17.8399C26.6998 17.8299 27.6998 18.8199 27.6898 20.0299C27.6898 21.2199 26.7098 22.1899 25.5098 22.1899ZM25.4998 21.0999C26.0998 21.0999 26.5898 20.6299 26.5998 20.0399C26.6098 19.4399 26.0998 18.9199 25.5098 18.9299C24.9298 18.9299 24.4298 19.4299 24.4298 20.0199C24.4298 20.6099 24.9098 21.0999 25.4998 21.0999Z" fill="black"/>
<path d="M7.97914 22.1897C6.77914 22.1897 5.79914 21.2397 5.78914 20.0497C5.77914 18.8397 6.75914 17.8397 7.95914 17.8497C9.14914 17.8497 10.1291 18.8297 10.1291 20.0197C10.1291 21.2197 9.16914 22.1897 7.96914 22.1997L7.97914 22.1897ZM7.95914 21.0997C8.55914 21.0997 9.03914 20.6197 9.04914 20.0297C9.04914 19.4297 8.53914 18.9197 7.94914 18.9297C7.36914 18.9397 6.87914 19.4497 6.87914 20.0297C6.87914 20.6197 7.36914 21.0997 7.96914 21.0997H7.95914Z" fill="black"/>
<path d="M23.5392 6.21973L10.6992 33.7997" stroke="black" stroke-linecap="round" stroke-linejoin="round"/>
<path d="M29.858 17.3C29.858 15.69 28.678 14.5 27.068 14.5C25.058 14.5 23.048 14.5 21.038 14.5L20.528 15.59C22.688 15.59 24.848 15.59 27.018 15.59C28.088 15.59 28.768 16.27 28.768 17.33C28.768 19.13 28.768 20.93 28.768 22.73C28.768 23.72 28.108 24.43 27.138 24.43C24.848 24.44 22.548 24.43 20.258 24.43C20.218 24.43 20.188 24.42 20.108 24.41C22.848 22.17 22.938 18.24 20.398 15.89L19.908 16.95C20.678 17.74 21.158 18.82 21.168 20C21.168 22.44 19.198 24.43 16.758 24.44C16.648 24.44 16.548 24.42 16.438 24.41L15.918 25.53C16.188 25.53 16.468 25.53 16.738 25.53C20.168 25.53 23.598 25.53 27.028 25.53C28.718 25.53 29.858 24.37 29.868 22.67C29.868 20.88 29.868 19.09 29.868 17.31L29.858 17.3Z" fill="black"/>
<path d="M14.1089 23.5498C13.0289 22.7498 12.3189 21.4698 12.3189 20.0298C12.3189 17.5998 14.3189 15.5998 16.7489 15.5998C17.0989 15.5998 17.4289 15.6498 17.7589 15.7298L18.3289 14.5098C14.3589 14.5098 10.3889 14.5098 6.42891 14.5098C4.80891 14.5098 3.63891 15.6898 3.62891 17.2998C3.62891 19.1098 3.62891 20.9198 3.62891 22.7398C3.62891 23.0298 3.66891 23.3198 3.74891 23.5998C4.09891 24.7998 5.13891 25.5298 6.48891 25.5398C8.72891 25.5398 10.9589 25.5398 13.1989 25.5398L14.1189 23.5598L14.1089 23.5498ZM4.69891 22.5798C4.69891 20.8398 4.69891 19.0998 4.69891 17.3598C4.69891 16.2798 5.37891 15.5898 6.45891 15.5898C8.65891 15.5898 10.8489 15.5898 13.0489 15.5898H13.4289C11.9889 16.7898 11.2289 18.2198 11.2289 20.0098C11.2289 21.7998 11.9789 23.2398 13.3889 24.4198C13.2189 24.4298 13.1189 24.4398 13.0189 24.4398C10.8589 24.4398 8.69891 24.4398 6.53891 24.4398C5.32891 24.4398 4.69891 23.7998 4.69891 22.5798Z" fill="black"/>
<path d="M18.8097 13.4403L19.3297 12.3203C13.6297 12.3203 7.91969 12.3203 2.21969 12.3203C1.58969 12.3203 1.42969 12.4803 1.42969 13.1203C1.42969 17.2903 1.42969 21.4603 1.42969 25.6303C1.42969 26.1103 1.42969 26.6003 1.42969 27.0803C1.42969 27.4903 1.62969 27.6803 2.02969 27.6903C2.30969 27.6903 2.58969 27.6903 2.85969 27.6903C3.96969 27.6903 5.07969 27.6903 6.18969 27.6903C6.19969 27.6903 6.21969 27.6903 6.22969 27.6903C7.20969 27.6903 11.1897 27.6903 12.1597 27.6903L12.6697 26.6003C11.6597 26.6003 8.08969 26.6003 6.67969 26.6003C5.42969 26.6003 4.16969 26.6003 2.91969 26.6003H2.53969V13.4403H18.8097Z" fill="black"/>
<path d="M37.7884 12.3203C32.5484 12.3203 27.2984 12.3203 22.0584 12.3203L21.5384 13.4403H30.9284V26.6103H30.4484C25.4384 26.6103 20.4184 26.6103 15.4084 26.6103L14.8984 27.7003C22.5484 27.7003 30.1984 27.7003 37.8484 27.7003C38.1784 27.7003 38.4084 27.6003 38.5684 27.3203V12.6803C38.3784 12.4003 38.1184 12.3303 37.7984 12.3303L37.7884 12.3203ZM35.2784 26.6003H32.0584V25.4903C32.1384 25.4603 32.2284 25.4303 32.3084 25.4003C33.4784 25.0103 34.1984 24.0103 34.2084 22.7703C34.2084 20.9503 34.2084 19.1203 34.2084 17.3003C34.2084 16.0003 33.4784 15.0203 32.2284 14.6203C32.1684 14.6003 32.1184 14.5803 32.0484 14.5503V13.4203H35.2784V26.6003ZM32.0584 24.3003V15.7403C32.6784 15.9403 33.1084 16.4903 33.1184 17.1603C33.1284 19.0703 33.1284 20.9803 33.1184 22.8803C33.1184 23.5503 32.6784 24.1103 32.0584 24.3003ZM37.4484 26.5903H36.4084V13.4303H37.4484V26.5803V26.5903Z" fill="black"/>
<path d="M14.5802 22.5399L15.0602 21.4999C14.7102 21.1099 14.4902 20.5999 14.4902 20.0299C14.4902 18.7899 15.5102 17.7599 16.7502 17.7699C16.7702 17.7699 16.7802 17.7699 16.8002 17.7699L17.2802 16.7299C17.1102 16.6999 16.9302 16.6699 16.7502 16.6699C14.9402 16.6699 13.4202 18.1599 13.4102 19.9699C13.4102 20.9999 13.8602 21.8999 14.5802 22.5199V22.5399Z" fill="black"/>
<path d="M18.8414 19.24C18.9314 19.49 18.9914 19.76 18.9914 20.05C18.9914 21.01 18.3614 21.81 17.5014 22.12L16.9414 23.33C18.6814 23.22 20.0714 21.8 20.0814 20.04C20.0814 19.29 19.8314 18.6 19.4114 18.04L18.8514 19.25L18.8414 19.24Z" fill="black"/>
</svg>
