<svg width="19" height="19" viewBox="0 0 19 19" fill="none" xmlns="http://www.w3.org/2000/svg">
<path d="M11.6562 17.3861L11.6652 17.3925C12.4503 17.8936 13.3824 18.1112 14.3076 18.0094C15.2327 17.9075 16.0956 17.4923 16.7534 16.8323L17.3249 16.2593C17.4516 16.1324 17.5521 15.9818 17.6206 15.816C17.6892 15.6501 17.7244 15.4724 17.7244 15.2929C17.7244 15.1134 17.6892 14.9356 17.6206 14.7698C17.5521 14.604 17.4516 14.4533 17.3249 14.3264L14.9144 11.9117C14.7878 11.7847 14.6376 11.684 14.4721 11.6153C14.3067 11.5466 14.1294 11.5112 13.9504 11.5112C13.7713 11.5112 13.594 11.5466 13.4286 11.6153C13.2632 11.684 13.1129 11.7847 12.9864 11.9117C12.7308 12.1678 12.3842 12.3117 12.0228 12.3117C11.6614 12.3117 11.3148 12.1678 11.0592 11.9117L7.20489 8.04683C6.94938 7.79061 6.80584 7.44314 6.80584 7.08085C6.80584 6.71855 6.94938 6.37108 7.20489 6.11486C7.33154 5.98797 7.43201 5.83731 7.50055 5.67148C7.5691 5.50566 7.60438 5.32792 7.60438 5.14841C7.60438 4.96891 7.5691 4.79117 7.50055 4.62534C7.43201 4.45952 7.33154 4.30886 7.20489 4.18197L4.79526 1.76723C4.53968 1.51108 4.19308 1.36719 3.83168 1.36719C3.47029 1.36719 3.12369 1.51108 2.86811 1.76723L2.29568 2.34017C1.63748 2.99981 1.22346 3.86483 1.12202 4.79229C1.02058 5.71975 1.23781 6.65415 1.7378 7.4411L1.74325 7.45021C4.38383 11.3668 7.74885 14.7396 11.6562 17.3861V17.3861Z" stroke="#212121" stroke-opacity="0.8" stroke-width="1.4" stroke-linecap="round" stroke-linejoin="round"/>
</svg>
