<svg width="40" height="40" viewBox="0 0 40 40" fill="none" xmlns="http://www.w3.org/2000/svg">
<path d="M17.2099 23.76C16.3199 23.76 15.4699 23.76 14.6199 23.76C13.4099 23.76 12.7699 24.26 12.6599 25.46C12.5799 26.37 12.5899 27.29 12.6799 28.2C12.7899 29.27 13.4399 29.77 14.5099 29.77C15.3999 29.77 16.2899 29.77 17.2399 29.77C17.2399 29.91 17.2399 30.03 17.2399 30.15C17.2399 31.04 17.2399 31.93 17.2399 32.82C17.2399 34.08 16.4799 34.85 15.2299 34.85C12.1299 34.85 9.01992 34.86 5.91992 34.87C5.00992 34.87 4.08992 34.88 3.17992 34.87C2.03992 34.87 1.25992 34.09 1.24992 32.96C1.21992 24.93 1.18992 16.9 1.16992 8.88C1.16992 7.69 1.93992 6.91 3.11992 6.9C7.16992 6.88 11.2099 6.88 15.2599 6.87C16.3999 6.87 17.0899 7.65 17.1899 8.8C17.2699 9.74 16.9799 10.37 16.2099 10.93C15.2199 11.65 14.3299 12.49 13.3999 13.29C12.3499 14.19 12.3499 15.77 13.3999 16.67C14.5699 17.68 15.7499 18.68 16.9399 19.67C17.1399 19.84 17.2199 20.01 17.2199 20.26C17.2199 21.29 17.2199 22.32 17.2199 23.35C17.2199 23.46 17.2099 23.58 17.1999 23.75L17.2099 23.76ZM9.12992 25.39C10.7399 25.39 12.1399 24.95 13.3399 23.95C15.4699 22.17 15.5299 19.25 13.4899 17.4C11.2199 15.36 7.37992 15.32 5.05992 17.31C2.84992 19.22 2.90992 22.25 5.20992 24.05C6.37992 24.97 7.71992 25.37 9.12992 25.38V25.39Z" stroke="#231F20" stroke-miterlimit="10"/>
<path d="M26.86 25.78C26.96 25.77 27.06 25.76 27.16 25.74C27.6 25.66 27.88 25.37 27.89 24.92C27.91 24.02 27.91 23.12 27.89 22.21C27.89 21.74 27.6 21.45 27.13 21.39C26.93 21.36 26.72 21.36 26.51 21.37C25.79 21.39 25.51 21.68 25.51 22.39C25.51 23.03 25.51 23.68 25.51 24.42C25.11 24.09 24.8 23.77 24.44 23.53C23.93 23.2 23.79 22.77 23.81 22.17C23.86 20.93 23.82 19.7 23.83 18.46C23.83 18.32 23.83 18.18 23.83 18.01H25.52C25.52 18.49 25.52 18.97 25.52 19.44C25.52 20.02 25.8 20.31 26.38 20.36C26.55 20.37 26.71 20.37 26.88 20.36C27.62 20.34 27.9 20.05 27.9 19.31C27.9 18.58 27.9 17.84 27.9 17.11C27.9 16.36 27.78 16.19 27.04 15.94C27.04 15.71 27.02 15.47 27.04 15.23C27.05 15.12 27.15 14.98 27.25 14.94C27.75 14.72 27.89 14.55 27.89 14.01C27.89 13.19 27.89 12.36 27.89 11.54C27.89 10.97 27.6 10.66 27.03 10.6C26.85 10.58 26.67 10.58 26.49 10.6C25.81 10.62 25.51 10.93 25.5 11.6C25.5 11.7 25.5 11.8 25.5 11.94H23.85C23.85 11.21 23.81 10.45 23.87 9.69999C23.9 9.33999 24.21 9.09999 24.59 9.02999C24.75 8.99999 24.92 8.98999 25.09 8.98999C29.24 8.98999 33.39 8.98999 37.54 8.98999C37.91 8.98999 38.3 8.98999 38.53 9.30999C38.68 9.52999 38.82 9.81999 38.82 10.08C38.84 17.27 38.83 24.46 38.83 31.65C38.83 32.37 38.42 32.74 37.63 32.74C35.63 32.74 33.64 32.74 31.64 32.74C29.48 32.74 27.31 32.74 25.15 32.74C24.15 32.74 23.87 32.42 23.81 31.43C23.77 30.78 23.94 30.3 24.5 29.94C24.84 29.72 25.13 29.42 25.51 29.1C25.51 29.54 25.51 29.9 25.51 30.25C25.51 30.73 25.75 31.02 26.23 31.1C26.47 31.14 26.72 31.14 26.96 31.13C27.59 31.09 27.89 30.78 27.9 30.15C27.9 29.34 27.9 28.53 27.9 27.71C27.9 27.17 27.75 26.98 27.26 26.78C27.16 26.74 27.06 26.63 27.03 26.54C26.96 26.3 26.92 26.04 26.87 25.77L26.86 25.78ZM35.73 27.14C36.95 25.94 36.63 24.48 35.92 23.73C35.08 22.85 33.72 22.73 32.77 23.48C32.28 23.86 31.98 24.36 31.89 24.97C31.76 25.83 32.08 26.55 32.69 27.15C31.46 28.37 31.78 29.85 32.56 30.62C33.45 31.5 34.89 31.54 35.81 30.69C36.83 29.74 36.82 28.39 35.75 27.14H35.73Z" stroke="#231F20" stroke-miterlimit="10"/>
<path d="M20.7101 31.38C20.4601 30.38 20.6701 29.42 20.5501 28.44C20.4001 28.44 20.2701 28.44 20.1301 28.44C18.2601 28.44 16.3901 28.44 14.5301 28.44C14.1601 28.44 13.9901 28.28 13.9901 27.96C13.9701 27.16 13.9701 26.36 13.9901 25.57C13.9901 25.23 14.1801 25.09 14.5401 25.1C16.3901 25.12 18.2501 25.1 20.1001 25.1C20.2501 25.1 20.4001 25.1 20.5501 25.1C20.6801 24.11 20.4301 23.13 20.7301 22.13C21.5001 22.78 22.2101 23.38 22.9101 23.98C23.7301 24.68 24.5601 25.38 25.3801 26.08C25.8001 26.44 25.8001 27.08 25.3801 27.43C23.9001 28.69 22.4201 29.95 20.9301 31.21C20.8801 31.25 20.8301 31.28 20.7001 31.37L20.7101 31.38Z" stroke="#231F20" stroke-miterlimit="10"/>
<path d="M19.01 10.35V13.31C19.24 13.31 19.39 13.31 19.54 13.31C21.4 13.31 23.25 13.31 25.11 13.31C25.54 13.31 25.67 13.41 25.68 13.84C25.7 14.6 25.7 15.36 25.68 16.12C25.67 16.56 25.55 16.64 25.11 16.64C23.27 16.64 21.42 16.64 19.58 16.64C19.43 16.64 19.28 16.64 19.12 16.64C18.98 17.63 19.23 18.6 18.93 19.61C18.39 19.16 17.93 18.76 17.46 18.36C16.41 17.47 15.36 16.58 14.31 15.68C13.88 15.32 13.84 14.68 14.25 14.33C15.75 13.05 17.25 11.78 18.76 10.5C18.8 10.47 18.84 10.45 19.02 10.35H19.01Z" stroke="#231F20" stroke-miterlimit="10"/>
</svg>
