<svg width="58" height="58" viewBox="0 0 58 58" fill="none" xmlns="http://www.w3.org/2000/svg">
<path fill-rule="evenodd" clip-rule="evenodd" d="M33.4727 51.4244C32.7893 51.4046 32.2349 50.8651 32.1959 50.1827C32.1568 49.4998 32.6465 48.901 33.323 48.8031C44.9456 46.9608 53.7491 37.3892 53.7491 25.8795C53.7491 23.0051 53.2067 20.264 52.2064 17.7315C52.0713 17.4052 52.0732 17.0385 52.211 16.7136C52.3488 16.3887 52.6115 16.1327 52.9394 16.0027C53.2678 15.8731 53.6339 15.8804 53.9568 16.0234C54.2792 16.1663 54.5309 16.4328 54.6553 16.7632C55.7751 19.5981 56.3824 22.6728 56.3824 25.8795C56.3824 38.7341 46.5516 49.3748 33.7351 51.4052C33.6488 51.4204 33.561 51.4264 33.4733 51.4236L33.4727 51.4244Z" fill="#322F3B"/>
<path fill-rule="evenodd" clip-rule="evenodd" d="M49.4108 11.8699C49.0231 11.8639 48.6575 11.687 48.4118 11.3864C43.9373 6.06552 37.0335 2.63499 29.2673 2.63499C21.5152 2.63499 14.6179 6.05893 10.1439 11.374L10.1444 11.3735C9.92118 11.6469 9.59783 11.8188 9.24692 11.8514C8.89555 11.884 8.54603 11.7747 8.27642 11.5472C8.00681 11.3197 7.83963 10.9939 7.81207 10.6424C7.78451 10.2904 7.89934 9.94251 8.13036 9.67599C13.1051 3.76722 20.7409 0 29.2679 0C37.8091 0 45.4517 3.77416 50.4265 9.68975H50.4261C50.7664 10.0826 50.8436 10.6382 50.6245 11.1092C50.405 11.5802 49.9296 11.878 49.4101 11.8697L49.4108 11.8699Z" fill="#322F3B"/>
<path fill-rule="evenodd" clip-rule="evenodd" d="M25.2632 51.4585C25.1888 51.4589 25.1144 51.4529 25.0404 51.4405C12.1089 49.4995 2.16038 38.8106 2.16038 25.8795C2.16038 22.7496 2.73864 19.7506 3.80651 16.9723L3.80697 16.9727C3.92915 16.6428 4.17901 16.3753 4.49959 16.2301C4.82019 16.0854 5.18578 16.0748 5.51419 16.2016C5.84259 16.328 6.10715 16.5808 6.24815 16.9033C6.38915 17.2259 6.39512 17.5917 6.26514 17.9189C5.31026 20.4022 4.79397 23.0744 4.79397 25.8799C4.79397 37.4584 13.7021 47.0742 25.4318 48.8352C26.1166 48.9281 26.6131 49.5351 26.569 50.2253C26.5244 50.9151 25.9549 51.4536 25.2636 51.4582L25.2632 51.4585Z" fill="#322F3B"/>
<path fill-rule="evenodd" clip-rule="evenodd" d="M14.9596 27.0973C14.3391 27.056 13.7902 26.5169 13.736 25.8975C13.6818 25.2776 14.1292 24.6522 14.7332 24.5037L20.8855 22.9804L0.720367 12.2135C0.089746 11.9029 -0.190426 11.0347 0.139353 10.4135C0.469132 9.7922 1.34456 9.53851 1.95492 9.88683L22.4704 20.8395L20.8243 14.7455C20.5781 14.065 21.014 13.2198 21.7117 13.0269C22.4093 12.8339 23.2173 13.3348 23.3551 14.0452L25.7421 22.9184C26.0007 23.7497 25.6038 24.53 24.8575 24.7299L15.3513 27.056C15.2241 27.0891 15.0918 27.1029 14.9605 27.0969L14.9596 27.0973Z" fill="#322F3B"/>
<path fill-rule="evenodd" clip-rule="evenodd" d="M42.8827 27.0973C42.8129 27.0895 42.744 27.0757 42.6769 27.0564L33.191 24.7303C32.8442 24.6481 32.5456 24.4284 32.3633 24.1219C32.181 23.8154 32.1304 23.4482 32.2237 23.104L34.6722 14.0457C34.765 13.707 34.9886 13.4193 35.2931 13.2456C35.5981 13.0719 35.9596 13.0264 36.2981 13.1192C36.6361 13.2121 36.9241 13.4354 37.0977 13.7405C37.2714 14.0457 37.3168 14.4068 37.224 14.7455L35.5779 20.8395L56.0311 9.90753C56.3402 9.73107 56.7081 9.68741 57.0498 9.78668C57.392 9.88594 57.6791 10.1198 57.8463 10.4342C58.0134 10.7489 58.0456 11.118 57.9363 11.4571C57.827 11.7962 57.5849 12.0765 57.2657 12.2342L37.1617 22.9809L43.2933 24.5043L43.2938 24.5038C43.9276 24.6642 44.3484 25.2657 44.2813 25.9169C44.2138 26.5676 43.6796 27.0708 43.026 27.0979C42.9782 27.1007 42.93 27.1007 42.8822 27.0979L42.8827 27.0973Z" fill="#322F3B"/>
<path fill-rule="evenodd" clip-rule="evenodd" d="M29.2809 57.9993C28.5915 57.9887 27.9738 57.3509 27.9848 56.6611L27.9642 34.6328L23.2315 39.0798C22.7254 39.554 21.8329 39.5246 21.3589 39.0178C20.885 38.5113 20.9144 37.6184 21.421 37.1442L28.3756 30.6385C28.9507 30.0632 29.7379 30.2102 30.1861 30.6587L37.1 37.2881C37.4904 37.6488 37.6268 38.2586 37.427 38.7513C37.2272 39.244 36.705 39.5867 36.1741 39.5734C35.8374 39.5656 35.5053 39.4222 35.2688 39.1823L30.5977 34.6946L30.6179 56.6617C30.6289 57.3652 29.9836 58.0109 29.2804 57.9999L29.2809 57.9993Z" fill="#322F3B"/>
</svg>
