<svg width="40" height="40" viewBox="0 0 40 40" fill="none" xmlns="http://www.w3.org/2000/svg">
<path d="M3.05014 34.88C2.74014 34.63 2.46014 34.4 2.14014 34.14C2.24014 34.01 2.34014 33.89 2.43014 33.77C3.80014 32.09 5.16014 30.41 6.55014 28.74C7.03014 28.16 7.22014 27.56 7.08014 26.81C6.79014 25.26 6.56014 23.7 6.29014 22.14C6.15014 21.32 6.25014 20.56 6.69014 19.85C7.67014 18.23 8.64014 16.6 9.63014 14.98C9.75014 14.78 9.97014 14.62 10.1401 14.45C10.1701 14.47 10.2001 14.49 10.2301 14.5V14.1C10.2301 10.78 10.2301 7.45999 10.2301 4.14999C10.2301 2.87999 10.9301 2.17999 12.2101 2.17999C17.5501 2.17999 22.8801 2.17999 28.2201 2.17999C29.5201 2.17999 30.2101 2.87999 30.2101 4.17999C30.2101 10.02 30.2101 15.86 30.2101 21.7V22.03C31.1801 22.26 32.1201 22.39 32.9901 22.71C36.1101 23.88 38.1401 27.15 37.8301 30.38C37.4901 33.9 35.0101 36.71 31.6401 37.29C28.4501 37.84 25.8701 36.74 23.9401 34.15C23.8201 33.99 23.7001 33.92 23.4901 33.92C20.7501 33.92 18.0101 33.92 15.2601 33.92C15.1001 33.92 14.9401 33.95 14.7901 34C13.9601 34.27 13.1301 34.51 12.3201 34.83C11.9601 34.97 11.6101 35.22 11.3501 35.52C10.7101 36.24 10.1301 37.02 9.50014 37.81C9.20014 37.57 8.91014 37.34 8.57014 37.07C9.55014 36.02 10.2201 34.71 11.4501 33.87C11.4201 33.85 11.3801 33.81 11.3301 33.79C10.5601 33.45 10.2201 32.85 10.2201 32.01C10.2201 29.88 10.2001 27.75 10.2301 25.62C10.2501 24.52 10.1501 23.45 9.82014 22.4C9.62014 21.77 9.73014 21.2 10.0901 20.66C10.5001 20.04 10.8901 19.4 11.2801 18.76C11.9901 17.61 11.6601 16.53 10.4201 15.94C10.3601 16.04 10.2901 16.13 10.2301 16.24C9.40014 17.61 8.59014 18.99 7.75014 20.36C7.44014 20.87 7.35014 21.39 7.45014 21.97C7.73014 23.59 7.99014 25.2 8.26014 26.82C8.41014 27.7 8.23014 28.51 7.67014 29.2C6.15014 31.08 4.61014 32.96 3.04014 34.87L3.05014 34.88ZM23.1501 32.74C22.2701 30.41 22.3701 28.17 23.5701 26.04C24.7701 23.91 26.6501 22.69 29.0301 22.24V21.94C29.0301 16 29.0301 10.07 29.0301 4.12999C29.0301 4.03999 29.0601 3.92999 29.0201 3.87999C28.8801 3.69999 28.7201 3.39999 28.5601 3.38999C27.7501 3.33999 26.9301 3.36999 26.1001 3.36999C26.1001 3.58999 26.1001 3.76999 26.1001 3.94999C26.0801 4.93999 25.3301 5.69999 24.3401 5.69999C21.5901 5.69999 18.8301 5.70999 16.0801 5.69999C15.1201 5.69999 14.3701 4.92999 14.3501 3.95999C14.3501 3.76999 14.3501 3.57999 14.3501 3.35999C13.5201 3.35999 12.7301 3.34999 11.9401 3.35999C11.6101 3.35999 11.4201 3.62999 11.4201 3.99999C11.4201 7.63999 11.4201 11.27 11.4201 14.91C11.4201 15.02 11.5001 15.16 11.5901 15.23C12.9501 16.31 13.2401 17.86 12.3301 19.33C11.9601 19.93 11.6001 20.55 11.2001 21.13C10.9501 21.49 10.8801 21.84 11.0201 22.26C11.3701 23.29 11.4501 24.35 11.4301 25.44C11.4001 27.58 11.4201 29.72 11.4301 31.87C11.4301 32.57 11.5901 32.73 12.2901 32.73C15.7801 32.73 19.2701 32.73 22.7501 32.73H23.1601L23.1501 32.74ZM30.2201 36.27C33.7401 36.27 36.6601 33.38 36.6701 29.86C36.6901 26.28 33.8001 23.34 30.2501 23.34C26.6401 23.34 23.7501 26.21 23.7401 29.8C23.7301 33.36 26.6401 36.26 30.2101 36.26L30.2201 36.27ZM24.9201 3.38999H15.5401C15.4501 4.37999 15.5901 4.53999 16.5501 4.53999C18.1601 4.53999 19.7801 4.53999 21.3901 4.53999C22.3401 4.53999 23.3001 4.53999 24.2501 4.53999C24.6901 4.53999 24.9001 4.31999 24.9201 3.88999C24.9201 3.72999 24.9201 3.56999 24.9201 3.38999Z" fill="#231F20"/>
<path d="M14.3398 13.94C14.3398 11.86 14.3398 9.78001 14.3398 7.70001C14.3398 7.08001 14.5198 6.89001 15.1498 6.89001C18.5298 6.89001 21.9098 6.89001 25.2898 6.89001C25.9098 6.89001 26.0998 7.07001 26.0998 7.70001C26.0998 11.86 26.0998 16.03 26.0998 20.19C26.0998 20.81 25.9198 21 25.2898 21C21.9098 21 18.5298 21 15.1498 21C14.5298 21 14.3398 20.82 14.3398 20.19C14.3398 18.11 14.3398 16.03 14.3398 13.95V13.94ZM15.5298 19.73C15.5298 19.73 15.5698 19.73 15.5898 19.73C15.6898 18.96 15.8198 18.19 15.8698 17.41C15.9698 16 16.5898 14.97 17.9198 14.41C18.0498 14.35 18.1698 14.28 18.2998 14.21C18.1598 13.75 17.9898 13.33 17.9198 12.89C17.8498 12.44 17.8598 11.96 17.8698 11.5C17.8998 10.31 18.8398 9.33001 20.0098 9.23001C21.1798 9.13001 22.2698 9.91002 22.4898 11.06C22.6398 11.83 22.6398 12.62 22.3798 13.38C22.2898 13.65 22.1998 13.93 22.1098 14.21C22.4198 14.37 22.6898 14.5 22.9598 14.65C23.7898 15.11 24.2898 15.82 24.4598 16.76C24.5398 17.18 24.5698 17.61 24.6198 18.03C24.6898 18.6 24.7698 19.16 24.8398 19.73C24.8498 19.73 24.8698 19.73 24.8798 19.73V8.08001H15.5298V19.73ZM23.6598 19.79C23.5398 18.87 23.4298 17.96 23.3098 17.05C23.2298 16.41 22.8998 15.94 22.3198 15.64C21.9398 15.44 21.5498 15.26 21.1698 15.06C20.8198 14.88 20.7298 14.65 20.8398 14.27C20.9298 13.97 21.0198 13.66 21.1398 13.37C21.3998 12.76 21.3998 12.13 21.3598 11.5C21.3298 10.88 20.8098 10.41 20.1998 10.4C19.5998 10.4 19.0698 10.85 19.0298 11.45C18.9998 12.06 18.9598 12.67 19.2098 13.26C19.3298 13.54 19.4098 13.84 19.4998 14.13C19.6798 14.68 19.5998 14.87 19.0998 15.13C18.7498 15.31 18.3998 15.48 18.0498 15.66C17.5398 15.92 17.1998 16.33 17.1098 16.9C16.9598 17.85 16.8598 18.81 16.7398 19.79H23.6298H23.6598Z" fill="#231F20"/>
<path d="M23.1401 22.19V23.32H17.3101V22.19H23.1401Z" fill="#231F20"/>
<path d="M17.8901 25.67V24.54H22.5401V25.67H17.8901Z" fill="#231F20"/>
<path d="M17.8799 28.6V27.48H21.3699V28.6H17.8799Z" fill="#231F20"/>
<path d="M17.8799 31.55V30.42H21.3699V31.55H17.8799Z" fill="#231F20"/>
<path d="M14.3599 24.54H16.6599V25.67H14.3599V24.54Z" fill="#231F20"/>
<path d="M16.6799 27.49V28.62H14.3599V27.49H16.6799Z" fill="#231F20"/>
<path d="M14.3701 30.41H16.6701V31.54H14.3701V30.41Z" fill="#231F20"/>
<path d="M28.44 29.64C28.69 29.35 28.87 29.14 29.07 28.94C30.06 27.94 31.06 26.95 32.05 25.95C32.4 25.6 32.69 25.59 33.03 25.93C33.58 26.47 34.13 27.01 34.66 27.57C34.98 27.9 34.98 28.2 34.66 28.53C32.75 30.45 30.84 32.36 28.92 34.27C28.58 34.61 28.28 34.61 27.94 34.27C27.01 33.35 26.09 32.42 25.16 31.49C24.81 31.14 24.81 30.85 25.16 30.51C25.69 29.97 26.23 29.43 26.77 28.9C27.12 28.56 27.4 28.56 27.76 28.9C27.88 29.01 27.99 29.12 28.1 29.24C28.2 29.35 28.29 29.47 28.44 29.66V29.64ZM26.43 30.96C27.11 31.64 27.79 32.32 28.43 32.97C30.07 31.33 31.73 29.67 33.33 28.07C33.07 27.8 32.78 27.49 32.48 27.18C31.33 28.34 30.15 29.52 28.98 30.69C28.57 31.1 28.3 31.1 27.89 30.69C27.69 30.48 27.51 30.25 27.36 30.07C26.98 30.44 26.69 30.72 26.43 30.97V30.96Z" fill="#231F20"/>
</svg>
