<svg width="40" height="40" viewBox="0 0 40 40" fill="none" xmlns="http://www.w3.org/2000/svg">
<path d="M33.8 32.62C34.38 32.62 34.9 32.62 35.43 32.62C35.89 32.62 36.1 32.84 36.1 33.31C36.1 34.03 36.1 34.74 36.1 35.46C36.09 36.78 35.1 37.77 33.77 37.78C30.98 37.78 28.19 37.78 25.4 37.78C20.23 37.78 15.06 37.78 9.88 37.78C8.29 37.78 7.35 36.84 7.35 35.26C7.35 26.89 7.35 18.53 7.35 10.16V9.68002C7.21 9.68002 7.09 9.66002 6.98 9.66002C6.18 9.66002 5.38 9.66002 4.57 9.66002C4.14 9.66002 3.91 9.45002 3.9 9.04002C3.9 7.49002 3.88 5.93002 3.9 4.38002C3.92 3.22002 4.91 2.26002 6.07 2.21002C6.19 2.21002 6.31 2.21002 6.43 2.21002C14.69 2.21002 22.95 2.21002 31.21 2.21002C32.85 2.21002 33.77 3.13002 33.77 4.76002C33.77 13.88 33.77 23 33.77 32.12V32.62H33.8ZM32.65 32.62V32.22C32.65 23.05 32.65 13.89 32.65 4.72002C32.65 3.78002 32.22 3.35002 31.26 3.35002C23.72 3.35002 16.18 3.35002 8.63 3.35002C8.5 3.35002 8.37 3.35002 8.32 3.35002C8.38 3.89002 8.5 4.40002 8.5 4.91002C8.52 7.87002 8.5 10.84 8.5 13.8C8.5 20.97 8.5 28.14 8.5 35.31C8.5 36.1 8.96 36.63 9.65 36.62C10.34 36.62 10.79 36.09 10.79 35.3C10.79 34.69 10.79 34.08 10.79 33.47C10.79 32.76 10.94 32.61 11.65 32.61C18.49 32.61 25.32 32.61 32.16 32.61H32.64L32.65 32.62ZM11.66 36.64C11.82 36.64 11.93 36.64 12.04 36.64C19.23 36.64 26.43 36.64 33.62 36.64C33.7 36.64 33.79 36.64 33.87 36.64C34.4 36.6 34.89 36.21 34.93 35.69C34.98 35.06 34.94 34.43 34.94 33.8H11.98C11.87 34.75 12.15 35.71 11.66 36.65V36.64ZM5.06 8.50002H7.35C7.35 7.12002 7.36 5.78002 7.35 4.43002C7.35 3.83002 6.8 3.36002 6.21 3.37002C5.61 3.37002 5.08 3.83002 5.07 4.44002C5.05 5.79002 5.07 7.14002 5.07 8.51002L5.06 8.50002Z" fill="#231F20"/>
<path d="M25.4502 13.44C24.3702 14.02 23.4102 14.53 22.4602 15.06C22.3702 15.11 22.3102 15.31 22.3102 15.44C22.2902 16.42 21.5502 17.22 20.6002 17.27C19.6302 17.32 18.8002 16.63 18.6902 15.66C18.6102 14.91 18.9002 14.32 19.5402 13.93C20.1902 13.53 20.8702 13.54 21.5002 13.97C21.7002 14.11 21.8402 14.1 22.0402 13.99C22.8302 13.55 23.6402 13.13 24.4402 12.7C24.5602 12.63 24.6902 12.57 24.8402 12.48C23.9702 11.28 22.8502 10.54 21.4202 10.33C18.2302 9.86 15.5702 12.1 15.4202 15.32C15.4002 15.79 15.2002 15.98 14.7202 15.99C13.2702 15.99 11.8202 15.99 10.3802 15.99C9.87018 15.99 9.68018 15.78 9.68018 15.26C9.70018 10.17 13.5202 5.62 18.5402 4.72C24.4602 3.66 29.9102 7.23 31.2502 13.08C31.4102 13.8 31.4502 14.54 31.5102 15.28C31.5502 15.77 31.3202 15.99 30.8302 15.99C29.3702 15.99 27.9102 15.99 26.4502 15.99C25.9802 15.99 25.8102 15.78 25.7602 15.31C25.6902 14.71 25.5802 14.12 25.4702 13.45L25.4502 13.44ZM15.6802 11.43C14.8402 10.59 14.0502 9.8 13.2302 8.98C11.7902 10.64 10.9802 12.57 10.8202 14.81H14.2702C14.4202 13.53 14.8802 12.39 15.6702 11.42L15.6802 11.43ZM16.5902 10.52C17.5602 9.73 18.7002 9.26 19.9902 9.12V5.68C17.7402 5.84 15.8002 6.65 14.1402 8.09C14.9602 8.9 15.7602 9.7 16.5902 10.52ZM24.5802 10.52C25.4102 9.69 26.2102 8.89 27.0202 8.08C25.3602 6.64 23.4202 5.83 21.1802 5.68V9.12C22.4602 9.26 23.6002 9.72 24.5802 10.53V10.52ZM28.3302 11.88C27.6602 12.24 27.0402 12.58 26.4402 12.9C26.6102 13.56 26.7702 14.18 26.9302 14.8H30.3402C30.1802 12.56 29.3702 10.62 27.9402 8.98C27.1202 9.8 26.3202 10.61 25.4902 11.43C25.5902 11.56 25.7202 11.73 25.8602 11.91C26.5102 11.56 27.1402 11.23 27.7902 10.88C27.9802 11.22 28.1402 11.53 28.3302 11.88ZM21.1602 15.38C21.1602 15.07 20.8902 14.82 20.5802 14.82C20.2702 14.82 20.0102 15.08 20.0102 15.39C20.0102 15.71 20.2802 15.98 20.6002 15.97C20.9102 15.96 21.1602 15.69 21.1502 15.39L21.1602 15.38Z" fill="#231F20"/>
<path d="M14.2502 27.46C12.9702 27.46 11.6902 27.46 10.4102 27.46C9.85016 27.46 9.66016 27.27 9.66016 26.71C9.66016 24.15 9.66016 21.59 9.66016 19.04C9.66016 18.48 9.85016 18.29 10.4102 18.29C12.9702 18.29 15.5302 18.29 18.1002 18.29C18.6602 18.29 18.8502 18.48 18.8502 19.04C18.8502 21.6 18.8502 24.16 18.8502 26.71C18.8502 27.27 18.6602 27.46 18.1002 27.46C16.8202 27.46 15.5402 27.46 14.2602 27.46H14.2502ZM17.6802 26.31V19.45H10.8302V26.3H11.2802C11.4402 25.82 11.5402 25.34 11.7602 24.93C11.9902 24.53 12.3502 24.2 12.6602 23.83C12.0502 22.78 12.1102 21.84 12.8702 21.13C13.5502 20.49 14.5702 20.4 15.3502 20.92C15.7302 21.17 16.0002 21.52 16.1502 21.95C16.4002 22.66 16.2102 23.31 15.7902 23.91C16.6602 24.5 17.0702 25.31 17.1402 26.33H17.6802V26.31ZM15.9602 26.29C15.9202 25.28 15.1402 24.55 14.1802 24.59C13.2702 24.62 12.5202 25.4 12.5502 26.29H15.9602ZM15.1102 22.56C15.1102 22.09 14.7002 21.7 14.2302 21.72C13.7702 21.73 13.3902 22.12 13.3902 22.57C13.3902 23.04 13.7802 23.43 14.2502 23.43C14.7202 23.43 15.1102 23.03 15.1002 22.56H15.1102Z" fill="#231F20"/>
<path d="M25.71 21.72C24.06 21.72 22.41 21.72 20.75 21.72C20.19 21.72 20 21.53 20 20.97C20 20.3 20 19.63 20 18.96C20 18.49 20.21 18.28 20.68 18.28C24.06 18.28 27.43 18.28 30.81 18.28C31.28 18.28 31.49 18.49 31.49 18.96C31.49 19.64 31.49 20.32 31.49 21C31.49 21.51 31.29 21.72 30.77 21.72C29.08 21.72 27.39 21.72 25.71 21.72ZM21.17 20.55H30.32V19.44H21.17V20.55Z" fill="#231F20"/>
<path d="M31.47 30.89H10.25V29.77H31.47V30.89Z" fill="#231F20"/>
<path d="M31.48 25.19V26.29H20.02V25.19H31.48Z" fill="#231F20"/>
<path d="M20.02 28.58V27.47H31.47V28.58H20.02Z" fill="#231F20"/>
<path d="M31.4801 22.89V24H22.3301V22.89H31.4801Z" fill="#231F20"/>
</svg>
