<svg width="40" height="40" viewBox="0 0 40 40" fill="none" xmlns="http://www.w3.org/2000/svg">
<path d="M20.5702 23.3V24.41C21.2002 24.39 21.8002 24.42 22.2702 24.9C22.7502 25.38 22.7802 25.97 22.7602 26.62C22.9302 26.62 23.0802 26.62 23.2302 26.62C23.6602 26.63 23.8602 26.83 23.8602 27.26C23.8602 27.95 23.8602 28.64 23.8602 29.38H24.2402C25.3502 29.38 26.4702 29.38 27.5802 29.38C28.0802 29.38 28.2702 29.57 28.2702 30.06C28.2702 31.8 28.2702 33.55 28.2702 35.29C28.2702 35.79 28.0802 35.98 27.5802 35.98C26.3502 35.98 25.1302 35.98 23.8802 35.98C23.7902 36.44 23.4802 36.54 23.0702 36.54C21.0202 36.53 18.9602 36.54 16.9102 36.54C16.4102 36.54 16.3102 36.47 16.1102 35.99C14.9102 35.99 13.7102 35.99 12.5002 35.99C11.9102 35.99 11.7402 35.82 11.7402 35.23C11.7402 33.52 11.7402 31.81 11.7402 30.1C11.7402 29.56 11.9202 29.38 12.4602 29.37C13.6702 29.37 14.8902 29.37 16.1502 29.37C16.1502 28.73 16.1502 28.12 16.1502 27.5C16.1502 26.74 16.2602 26.63 17.0202 26.61C17.0902 26.61 17.1502 26.61 17.2502 26.6C17.2302 25.97 17.2602 25.37 17.7402 24.9C18.2202 24.42 18.8102 24.39 19.4402 24.41V23.3C16.7502 23 14.6602 21.73 13.3002 19.37C12.3402 17.72 12.0802 15.92 12.4602 14.05C13.2102 10.3 16.6802 7.65002 20.5002 7.89002C24.3602 8.13002 27.4302 11.17 27.7102 15.07C28.0302 19.43 24.6002 23.09 20.5802 23.3H20.5702ZM20.0102 8.98002C16.3702 8.98002 13.4002 11.94 13.3902 15.58C13.3902 19.22 16.3502 22.19 19.9902 22.2C23.6302 22.2 26.6002 19.24 26.6102 15.6C26.6102 11.96 23.6502 8.99002 20.0102 8.98002ZM22.7302 35.41V27.73H17.2702V35.4H18.3502C18.3502 34.88 18.3502 34.39 18.3502 33.9C18.3502 33.42 18.5502 33.23 19.0202 33.23C19.6602 33.23 20.3102 33.23 20.9502 33.23C21.4702 33.23 21.6602 33.42 21.6602 33.93C21.6602 34.42 21.6602 34.91 21.6602 35.42H22.7402L22.7302 35.41ZM16.1302 30.49H12.8602V34.86H16.1302V30.49ZM27.1602 30.5H23.8802V34.85H27.1602V30.5ZM21.6602 26.6C21.6602 26.4 21.6602 26.22 21.6602 26.05C21.6402 25.73 21.4402 25.51 21.1102 25.51C20.3802 25.5 19.6502 25.5 18.9102 25.51C18.5802 25.51 18.3802 25.73 18.3602 26.05C18.3502 26.23 18.3602 26.41 18.3602 26.59H21.6602V26.6ZM19.4702 35.4H20.5402V34.35H19.4702V35.4Z" fill="#231F20"/>
<path d="M3.46976 8.41C3.46976 5.67 5.71976 3.46 8.45976 3.47C11.1798 3.48 13.3898 5.72 13.3798 8.45C13.3798 11.18 11.1298 13.4 8.38976 13.39C5.66976 13.38 3.45976 11.14 3.46976 8.41ZM6.69976 9.25C5.83976 8.03 6.28976 6.82 6.96976 6.23C7.79976 5.51 8.99976 5.49 9.83976 6.19C10.7298 6.93 10.8598 8.06 10.1598 9.25C10.7698 9.55 11.2198 10.03 11.5198 10.66C12.5498 9.43 12.6598 7.11 11.0598 5.62C9.49976 4.17 7.08976 4.24 5.63976 5.77C4.13976 7.35 4.40976 9.62 5.34976 10.65C5.63976 10.03 6.07976 9.57 6.70976 9.25H6.69976ZM8.44976 10.06C8.44976 10.06 8.44976 10.08 8.44976 10.09C8.22976 10.09 8.00976 10.09 7.79976 10.09C7.06976 10.12 6.41976 10.66 6.28976 11.37C6.26976 11.48 6.33976 11.66 6.42976 11.72C7.55976 12.48 9.32976 12.48 10.4398 11.72C10.5198 11.66 10.5898 11.49 10.5698 11.39C10.4298 10.75 10.0398 10.32 9.40976 10.16C9.09976 10.08 8.77976 10.09 8.45976 10.06H8.44976ZM9.51976 7.91C9.53976 7.31 9.04976 6.8 8.45976 6.78C7.85976 6.76 7.34976 7.24 7.31976 7.83C7.29976 8.44 7.78976 8.97 8.39976 8.98C8.99976 8.99 9.50976 8.5 9.51976 7.91Z" fill="#231F20"/>
<path d="M26.6099 23.83C26.6099 21.1 28.8599 18.88 31.6099 18.9C34.3299 18.91 36.5299 21.15 36.5299 23.88C36.5299 26.61 34.2699 28.83 31.5299 28.81C28.8199 28.79 26.6099 26.56 26.6099 23.83ZM29.8399 24.68C29.1399 23.58 29.2399 22.46 30.0699 21.7C30.8699 20.96 32.0599 20.91 32.9099 21.57C33.3299 21.9 33.5999 22.33 33.7199 22.85C33.8699 23.52 33.6899 24.11 33.2999 24.68C33.9299 24.99 34.3699 25.47 34.6699 26.1C35.8499 24.67 35.6099 22.35 34.1899 21.04C32.6699 19.63 30.3599 19.66 28.8699 21.11C27.5199 22.42 27.3199 24.74 28.4799 26.1C28.7699 25.47 29.2199 24.99 29.8499 24.68H29.8399ZM31.5799 25.48C31.5799 25.48 31.5799 25.5 31.5799 25.51C31.3599 25.51 31.1399 25.51 30.9299 25.51C30.1999 25.55 29.5599 26.09 29.4299 26.8C29.4099 26.9 29.4699 27.07 29.5599 27.13C30.6599 27.9 32.4999 27.9 33.5899 27.13C33.6699 27.07 33.7299 26.9 33.7099 26.8C33.5799 26.18 33.1899 25.75 32.5699 25.59C32.2499 25.51 31.9099 25.52 31.5799 25.48ZM31.5599 22.2C30.9599 22.2 30.4699 22.7 30.4599 23.3C30.4599 23.9 30.9499 24.4 31.5499 24.41C32.1599 24.41 32.6699 23.91 32.6599 23.3C32.6599 22.7 32.1499 22.21 31.5599 22.21V22.2Z" fill="#231F20"/>
<path d="M31.8702 17.89C31.5202 17.82 31.1802 17.76 30.8502 17.69C31.4802 13.06 30.0902 9.22999 26.2402 6.55999C22.4002 3.88999 18.3302 3.95999 14.2002 6.15999C14.0302 5.88999 13.8502 5.59999 13.6602 5.29999C16.7002 3.22999 21.8802 2.54999 26.2502 5.21999C31.1002 8.17999 32.7802 13.59 31.8602 17.89H31.8702Z" fill="#231F20"/>
<path d="M8.98988 14.54C8.80988 19.53 10.8999 23.18 15.2599 25.58C15.1999 25.72 15.1199 25.88 15.0499 26.04C14.9799 26.19 14.8999 26.35 14.8299 26.5C10.8299 25.29 6.94988 18.46 7.98988 14.44C8.31988 14.47 8.65988 14.5 8.99988 14.53L8.98988 14.54Z" fill="#231F20"/>
<path d="M25.1702 26.57C25.0002 26.21 24.8602 25.91 24.7002 25.58C25.0602 25.38 25.4002 25.2 25.7702 24.99C25.9602 25.29 26.1402 25.59 26.3502 25.92C25.9602 26.13 25.5802 26.34 25.1702 26.57Z" fill="#231F20"/>
<path d="M24.41 19.42H23.31C23.31 19.11 23.33 18.79 23.31 18.48C23.3 18.36 23.21 18.21 23.11 18.15C22.53 17.82 22.21 17.33 22.22 16.67C22.22 16.02 22.53 15.52 23.11 15.23C23.29 15.14 23.32 15.03 23.32 14.85C23.32 13.94 23.32 13.04 23.32 12.13C23.32 12.01 23.32 11.88 23.32 11.74H24.42C24.42 11.87 24.42 11.99 24.42 12.11C24.42 13.02 24.42 13.92 24.42 14.83C24.42 15 24.44 15.12 24.62 15.21C25.21 15.51 25.52 16.01 25.52 16.68C25.52 17.35 25.2 17.83 24.62 18.15C24.53 18.2 24.45 18.35 24.44 18.46C24.42 18.77 24.44 19.08 24.44 19.42H24.41ZM24.41 16.69C24.41 16.39 24.18 16.14 23.88 16.13C23.58 16.13 23.33 16.36 23.32 16.66C23.32 16.95 23.57 17.22 23.86 17.22C24.15 17.22 24.41 16.98 24.42 16.68L24.41 16.69Z" fill="#231F20"/>
<path d="M16.7002 19.44H15.6002C15.6002 19.11 15.6102 18.79 15.6002 18.48C15.6002 18.39 15.5402 18.24 15.4702 18.21C14.2702 17.69 14.0602 15.83 15.6102 15.14V11.77H16.7002C16.7002 11.89 16.7002 12.01 16.7002 12.13C16.7002 13.04 16.7002 13.94 16.7002 14.85C16.7002 15.05 16.7402 15.17 16.9402 15.27C17.5002 15.56 17.8002 16.05 17.8002 16.69C17.8002 17.33 17.5302 17.82 16.9702 18.13C16.7702 18.24 16.6902 18.35 16.7002 18.58C16.7202 18.85 16.7002 19.13 16.7002 19.44ZM16.1602 16.15C15.8702 16.15 15.6002 16.39 15.6002 16.69C15.6002 16.99 15.8302 17.24 16.1302 17.25C16.4402 17.25 16.6802 17.03 16.6902 16.72C16.6902 16.42 16.4602 16.16 16.1602 16.15Z" fill="#231F20"/>
<path d="M20.5498 19.43H19.4498C19.4498 19.18 19.4498 18.94 19.4498 18.71C19.4498 17.91 19.4498 17.11 19.4398 16.3C19.4398 16.18 19.3498 16.02 19.2498 15.96C18.6698 15.63 18.3498 15.15 18.3398 14.49C18.3398 13.82 18.6598 13.34 19.2298 13.01C19.3298 12.95 19.4098 12.79 19.4198 12.67C19.4498 12.38 19.4198 12.08 19.4198 11.75H20.4998C20.4998 11.83 20.5298 11.9 20.5198 11.98C20.4798 12.51 20.5398 12.91 21.0698 13.29C21.9798 13.95 21.7798 15.37 20.7798 15.91C20.5898 16.01 20.5298 16.12 20.5298 16.33C20.5398 17.35 20.5298 18.37 20.5298 19.42L20.5498 19.43ZM19.9998 15.03C20.2898 15.03 20.5398 14.77 20.5398 14.48C20.5398 14.17 20.2698 13.92 19.9598 13.93C19.6698 13.93 19.4298 14.2 19.4398 14.5C19.4398 14.8 19.6998 15.04 19.9998 15.03Z" fill="#231F20"/>
<path d="M21.6399 28.84V29.9H18.3799V28.84H21.6399Z" fill="#231F20"/>
<path d="M18.3599 32.09V31.03H21.6199V32.09H18.3599Z" fill="#231F20"/>
<path d="M13.96 32.13H15.02V33.19H13.96V32.13Z" fill="#231F20"/>
<path d="M26.04 33.2H24.98V32.14H26.04V33.2Z" fill="#231F20"/>
</svg>
